<?xml version="1.0" encoding="utf-8"?>
<!-- Generator: Adobe Illustrator 22.1.0, SVG Export Plug-In . SVG Version: 6.00 Build 0)  -->
<svg version="1.1" id="Layer_1" xmlns="http://www.w3.org/2000/svg" xmlns:xlink="http://www.w3.org/1999/xlink" x="0px" y="0px"
	 viewBox="0 0 434.1 152.1" style="enable-background:new 0 0 434.1 152.1;" xml:space="preserve">
<style type="text/css">
	.st0{opacity:0.7;fill:#3A5066;}
	.st1{fill:#6FBC74;}
	.st2{fill:none;stroke:#387F3F;stroke-width:4;stroke-miterlimit:10;}
	.st3{fill:#387F3F;}
	.st4{fill:#00D632;}
	.st5{fill:#FFFFFF;}
	.st6{opacity:0.8;fill:#5C6C7F;}
	.st7{fill:#20912D;}
	.st8{fill:#626B6A;}
	.st9{fill:#AAAAAA;}
	.st10{fill:#FFE09B;}
	.st11{fill:#383838;}
	.st12{fill:#999999;}
	.st13{opacity:0.8;fill:#FFFFFF;}
</style>
<title>nso-card-img</title>
<path class="st0" d="M194.1,32.1l-0.5,107.5c-0.1,5.2-4.3,9.5-9.6,9.5l-43.6-0.2c-5.2-0.1-9.5-4.3-9.5-9.6l0.3-107.5
	c0.1-5.2,4.3-9.4,9.6-9.4l43.6,0.2C189.9,22.6,194.1,26.9,194.1,32.1z"/>
<path class="st0" d="M167.2,57.2V5.1c0-0.6,0.5-0.9,0.9-0.9h122.4c0.6,0,0.9,0.5,0.9,0.9v52.1c0,0.6-0.5,0.9-0.9,0.9H168.1
	C167.6,58.1,167.2,57.6,167.2,57.2z"/>
<path class="st1" d="M168.1,55.9V4.1c0-0.6,0.5-1,1-1h122c0.6,0,1,0.5,1,1v51.8c0,0.6-0.5,1-1,1h-122
	C168.6,57.1,168.1,56.6,168.1,55.9z"/>
<rect x="173.9" y="9.1" class="st2" width="112.6" height="42.1"/>
<path class="st3" d="M172.1,21.5h-0.5V6.8h14.6v0.5C186.3,15,180,21.5,172.1,21.5z"/>
<path class="st3" d="M186.3,52.9v0.6h-14.6V38.8h0.5C180,38.7,186.3,45.1,186.3,52.9z"/>
<path class="st3" d="M288.1,21.4h0.5V6.7H274v0.5C273.9,15,280.2,21.4,288.1,21.4z"/>
<path class="st3" d="M273.9,52.9v0.6h14.6V38.8H288C280.2,38.7,273.9,45.1,273.9,52.9z"/>
<ellipse class="st3" cx="230.2" cy="35.7" rx="13.7" ry="16.7"/>
<g>
	<circle class="st3" cx="198.9" cy="30.4" r="4.3"/>
	<circle class="st3" cx="260.8" cy="30.4" r="4.3"/>
</g>
<path class="st0" d="M178.2,66.8V15.3c0-0.7,0.6-1.1,1.1-1.1h121.9c0.7,0,1.1,0.6,1.1,1.1v51.6c0,0.7-0.6,1.1-1.1,1.1H179.3
	C178.6,68,178.2,67.4,178.2,66.8z"/>
<path class="st1" d="M179,65.7V14c0-0.6,0.5-1,1-1h122.1c0.6,0,1,0.5,1,1v51.8c0,0.6-0.5,1-1,1h-122C179.5,66.8,179,66.3,179,65.7z"
	/>
<rect x="184.8" y="18.7" class="st2" width="112.6" height="42.1"/>
<path class="st3" d="M182.9,31.2h-0.5V16.5H197V17C197.2,24.8,190.8,31.2,182.9,31.2z"/>
<path class="st3" d="M197.2,62.7v0.5h-14.6V48.5h0.5C190.8,48.5,197.2,54.8,197.2,62.7z"/>
<path class="st3" d="M299.1,31.2h0.5V16.5H285V17C284.8,24.8,291.2,31.2,299.1,31.2z"/>
<path class="st3" d="M284.8,62.7v0.5h14.6V48.5h-0.5C291.2,48.5,284.8,54.8,284.8,62.7z"/>
<ellipse class="st3" cx="241.2" cy="45.5" rx="13.7" ry="16.7"/>
<g>
	<circle class="st3" cx="209.8" cy="40.1" r="4.3"/>
	<circle class="st3" cx="271.7" cy="40.1" r="4.3"/>
</g>
<rect x="104.1" y="56.7" transform="matrix(3.610814e-03 -1 1 3.610814e-03 78.767 247.7755)" class="st4" width="119.2" height="55.4"/>
<path d="M185.6,21.2L142,21c-5.3,0-9.5,4.2-9.6,9.5L132.1,138c0,5.3,4.2,9.5,9.5,9.6l43.6,0.2c5.3,0,9.5-4.2,9.6-9.5l0.5-107.5
	C195.1,25.5,190.9,21.2,185.6,21.2z M191.3,137.5c0,3.7-2.9,6.6-6.6,6.5l-42.4-0.1c-3.7,0-6.6-2.9-6.5-6.6l0.3-105.9
	c0-3.7,2.9-6.6,6.6-6.5l5.9,0.1v0.8c0,2,1.7,3.7,3.7,3.7l23.2,0.1c2,0,3.7-1.7,3.7-3.7v-0.8l5.9,0.1c3.7,0,6.6,2.9,6.5,6.6
	L191.3,137.5z"/>
<g>
	<path class="st4" d="M169.6,69.2c3,0,4.6,0,6.2,0.6c1.7,0.7,3.2,2,3.8,3.8c0.5,1.7,0.5,3.2,0.5,6.2V89c0,3,0,4.6-0.6,6.2
		c-0.7,1.7-2,3.2-3.8,3.8c-1.7,0.5-3.2,0.5-6.2,0.5h-9.2c-3,0-4.6,0-6.2-0.6c-1.7-0.7-3.2-2-3.8-3.8c-0.5-1.7-0.5-3.2-0.5-6.2v-9.2
		c0-3,0-4.6,0.6-6.2c0.7-1.7,2-3.2,3.8-3.8c1.7-0.5,3.2-0.5,6.2-0.5L169.6,69.2z"/>
	<path class="st5" d="M169.9,80.5c0.2,0.2,0.6,0.2,0.8,0l1.2-1.2c0.2-0.2,0.2-0.7,0-0.9c-1-0.8-2-1.5-3.2-1.8l0.3-1.8
		c0.1-0.3-0.2-0.8-0.6-0.8H166c-0.3,0-0.6,0.2-0.6,0.5l-0.3,1.6c-3,0.1-5.6,1.7-5.6,4.8c0,2.8,2.1,3.9,4.4,4.7
		c2.1,0.8,3.3,1.1,3.3,2.3c0,1.2-1.1,1.9-2.8,1.8c-1.5,0-3.2-0.6-4.3-1.8c-0.2-0.2-0.6-0.2-0.9,0l0,0l-1.4,1.2
		c-0.2,0.2-0.2,0.6,0,0.9c1,0.9,2.3,1.7,3.7,2.1l-0.3,1.7c-0.1,0.3,0.2,0.8,0.6,0.8h2.4c0.3,0,0.6-0.2,0.6-0.5l0.3-1.6
		c3.6-0.2,6-2.3,5.9-5.2c0-2.7-2.3-3.9-4.8-4.8c-1.6-0.6-2.9-0.9-2.8-2.1c0-1.1,1.2-1.6,2.5-1.6C167.5,78.9,169,79.6,169.9,80.5
		L169.9,80.5z"/>
</g>
<path class="st6" d="M295.2,94v43.3c0,1.2-1,2.3-2.3,2.3h-72.1c-1.2,0-2.3-1-2.3-2.3V94c0-1.2,1-2.3,2.3-2.3H293
	C294.2,91.8,295.2,92.8,295.2,94z"/>
<path id="Fill-14" class="st7" d="M268.4,121.6L268.4,121.6L268.4,121.6z"/>
<path id="Fill-16" class="st7" d="M268.4,121.6L268.4,121.6L268.4,121.6z"/>
<path id="Fill-18" class="st7" d="M268.4,121.6L268.4,121.6L268.4,121.6z"/>
<path id="Fill-20" class="st7" d="M268.4,121.6L268.4,121.6L268.4,121.6z"/>
<path id="Fill-80" class="st8" d="M268.4,120.5L268.4,120.5L268.4,120.5z"/>
<path id="Fill-82" class="st9" d="M268.4,120.5L268.4,120.5L268.4,120.5z"/>
<path id="Fill-86" class="st9" d="M268.4,120.6L268.4,120.6L268.4,120.6z"/>
<path id="Fill-90" class="st8" d="M268.4,120.6L268.4,120.6L268.4,120.6z"/>
<path id="Fill-92" class="st9" d="M268.4,120.6L268.4,120.6L268.4,120.6z"/>
<path id="Fill-94" class="st9" d="M268.4,120.5L268.4,120.5L268.4,120.5z"/>
<path id="Fill-104" class="st10" d="M268.4,120.5L268.4,120.5L268.4,120.5z"/>
<path id="Fill-106" class="st10" d="M268.4,120.5L268.4,120.5L268.4,120.5z"/>
<path id="Fill-108" class="st10" d="M268.4,120.6L268.4,120.6L268.4,120.6z"/>
<path id="Fill-110" class="st10" d="M268.4,120.6L268.4,120.6L268.4,120.6z"/>
<path class="st11" d="M295.9,93.7v42.1c0,1.6-1.2,2.8-2.8,2.8H222c-1.6,0-2.8-1.2-2.8-2.8V93.7c0-1.6,1.2-2.8,2.8-2.8h71.1
	C294.6,90.9,295.9,92.1,295.9,93.7z"/>
<path class="st12" d="M237.3,113.8h-7.8c-0.7,0-1.1-0.6-1.1-1.1V108c0-0.7,0.6-1.1,1.1-1.1h7.8c0.7,0,1.1,0.6,1.1,1.1v4.7
	C238.6,113.3,238,113.8,237.3,113.8z"/>
<path class="st13" d="M289.7,129.8c-2,0.7-4.3,0.5-6.4,0.4c0.2-0.3,0.3-0.5,0.5-0.8c0.1-0.1-0.1-0.3-0.3-0.3c-3.1,0.6-5.7,2-8.5,2.9
	c-0.5,0.2-1.1,0.3-1.6,0.5c1-0.8,2-1.5,2.9-2.4c1.1-1,2.1-2,2.5-3.2c0.2-0.5,0.3-1.2,0.1-1.7c-0.3-0.6-1.2-0.4-1.8-0.3
	c-1.4,0.3-2.7,0.8-4,1.4c-1.4,0.6-2.9,1.3-4.5,1.6c-0.3,0.1-0.2,0.4,0.1,0.3c2.7-0.5,4.8-2,7.4-2.7c0.3-0.1,0.6-0.2,1-0.2
	c0.3-0.1,0.7-0.2,1-0.1c0.4,0,0.4,0.4,0.4,0.7c0,0.3,0,0.6-0.1,0.9c-0.3,1.2-1.3,2.2-2.3,3.1c-1.1,1.1-2.4,2.1-3.7,3
	c-0.2,0.1,0,0.3,0.2,0.3c3.1-0.6,5.6-2,8.5-2.9c0.6-0.2,1.3-0.4,2-0.5c-0.1,0.2-0.3,0.4-0.4,0.7c-0.1,0.1,0,0.3,0.2,0.3
	c2.4,0,4.9,0.3,7.1-0.5C290.2,130,290,129.7,289.7,129.8z"/>
<rect x="264.6" y="96.9" class="st13" width="26.1" height="5.8"/>
<rect x="276.6" y="103.7" class="st13" width="14.1" height="2.9"/>
</svg>
