<?xml version="1.0" encoding="utf-8"?>
<!-- Generator: Adobe Illustrator 22.1.0, SVG Export Plug-In . SVG Version: 6.00 Build 0)  -->
<svg version="1.1" id="Layer_1" xmlns="http://www.w3.org/2000/svg" xmlns:xlink="http://www.w3.org/1999/xlink" x="0px" y="0px"
	 viewBox="0 0 600 356" style="enable-background:new 0 0 600 356;" xml:space="preserve">
<style type="text/css">
	.st0{fill:#80DB71;}
	.st1{opacity:0.7;enable-background:new    ;}
	.st2{fill:#5C6C7F;}
	.st3{opacity:0.7;fill:#5C6C7F;enable-background:new    ;}
	.st4{fill:#D6D6D6;}
	.st5{fill:#EDEDED;}
	.st6{fill:#262626;}
	.st7{fill:none;stroke:#A5A5A5;stroke-width:0.1;stroke-miterlimit:10;}
	.st8{fill:#ADADAD;}
	.st9{fill:#4367FF;}
	.st10{fill:#686868;}
	.st11{fill:#C5C8D5;}
	.st12{fill:#686A84;}
	.st13{fill:none;stroke:#DDD5BF;stroke-width:0.25;stroke-miterlimit:10;}
	.st14{fill:#CEC8B6;}
	.st15{fill:#F7F0DA;}
	.st16{fill:none;}
	.st17{fill:#4D526D;}
	.st18{fill:#D0D2DD;}
	.st19{fill:#E1E3E8;}
	.st20{fill:#007015;}
	.st21{fill:#00D632;}
	.st22{fill:#FFFFFF;}
	.st23{opacity:0.7;}
	.st24{fill:#F7F7F7;}
	.st25{fill:#77522D;}
	.st26{fill:#68471F;}
	.st27{fill:none;stroke:#FFFFFF;stroke-width:8;stroke-miterlimit:10;}
</style>
<path class="st0" d="M0,0h600v356H0V0z"/>
<g class="st1">
	<path class="st2" d="M212.1,273.7l-59,11.4c-7.1,1.3-13.9-3.2-15.3-10.2l-28.6-143.5c-1.3-7,3.2-13.7,10.3-15.1l59-11.4
		c7.1-1.4,14,3.2,15.4,10.2l28.5,143.5C223.8,265.6,219.2,272.3,212.1,273.7z"/>
</g>
<title>nso-splash</title>
<path class="st3" d="M208.5,51.2l-1.3,0.3c-1.5,0.4-2.4,1.8-2.2,3.4l22.2,119.4c0.2,1,1.2,1.7,2.2,1.5l3.9-0.7l150.5-27.6
	c0.7-0.1,1.2-0.8,1-1.6l-1-4.3"/>
<g>
	<path class="st3" d="M266.1,334.8l193.7-36c7.9-1.5,13.2-9.1,11.7-17l-23.2-124.9c-0.1-0.5-0.5-0.8-1-0.7l-222.9,41.4
		c-0.5,0.1-0.8,0.5-0.7,1l22.8,122.7C248.2,330.5,257,336.5,266.1,334.8z"/>
	<path class="st4" d="M267,333.4l178.8-33.2c0.5-0.1,0.8-0.5,0.7-1l-25.7-138.4c-0.1-0.5-0.5-0.8-1-0.7l-194.5,36.1
		c-0.5,0.1-0.8,0.5-0.7,1L247.4,320C249.1,329.1,257.9,335.1,267,333.4z"/>
	<path class="st3" d="M235.2,190.7L235.2,190.7c-1,0.2-1.7,1.1-1.5,2l25.2,135.7c0.7,3.6,4.6,6,8.4,4.9c0.1,0,0.1,0,0.2-0.1"/>
	<path class="st5" d="M457.5,298l-190,35.3c-3.4,0.6-6.6-1.6-7.2-4.9l-25.4-136.8c-0.1-0.5,0.2-0.9,0.7-1l210.9-39.2
		c0.5-0.1,0.9,0.2,1,0.7L471,278.4C472.6,287.6,466.6,296.3,457.5,298z"/>
	<path class="st6" d="M275.7,192.4c-0.3-1.7-2-1.8-3.3-1.6v0.3c0.8-0.1,1.4,0,1.5,0.6c0.1,0.3-0.1,0.9-0.9,1c-0.6,0.1-1.9,0-3-0.2
		c-1.2-0.2-2.3-0.4-3.1-0.2c-1.7,0.3-2.7,1.8-2.4,3.3c0.2,1.3,1.3,1.5,1.6,1.6l0.1-0.2c-0.2-0.1-0.5-0.3-0.6-0.8
		c-0.1-0.3,0.2-1,1-1.2c0.8-0.1,1.9,0,3.3,0.2c1.3,0.1,2.6,0.1,3.3,0.1l0.5,2.7l-1.1,1.4v0.1l1.5,0.9l0.7,3.7
		c-0.6,0.6-1.4,0.8-2,0.9c-1.3,0.2-2.5,0.1-3.6-0.8l3.2-2.4l-1.1-5.9l-3.9,2.7c0.1-1.2,0.9-2.1,1.8-2.8l-0.1-0.2
		c-2.4,1.2-4.3,4-3.8,6.9c0.6,3.4,3.9,5.5,7.1,4.9c3.4-0.6,5.1-3.8,4.6-6.6h-0.2c-0.3,1.2-0.9,2.4-1.7,3.1l-0.7-3.5l1.2-1.4v-0.1
		L274,198l-0.5-2.7C274.9,195.2,276,194.1,275.7,192.4z M270,203.2l-0.9,0.7c-0.7-0.7-1.3-1.6-1.5-3.1c-0.1-0.6-0.2-1.3-0.2-1.8
		l1.7-1.1L270,203.2z M279.4,203.5l-1,1.1l0.2,0.1l0.4-0.5l2.2,1.4l2.3-2.2l-0.1-0.2l-0.6,0.6l-1-0.7l-1.1-5.8l0.6-0.6l1.7,0.9
		l1,5.2c0.6,3.3,0,3.9-1.3,4.7v0.3c2.4-0.4,4.5-1.5,3.7-5.7l-1.1-5.7l0.7-0.7l-0.2-0.1l-0.6,0.6l-2.5-1.4l-2.1,2.2l-1.3-7h-0.2
		l-2.6,2.6v0.2c0.4,0.1,0.9,0.2,1.1,1.1C277.7,193.8,279.4,203.5,279.4,203.5z M294.9,199.7l-1.8,2l-2.5-1.3l-0.2-1l3.5-3.5v-0.1
		l-2.6-2.7l-4,3.2l1.1,5.7l-0.7,0.8l0.2,0.1l0.7-0.7l3.3,1.6l3.3-3.8C295.1,200,294.9,199.7,294.9,199.7z M290.4,199l-0.8-4.2
		l0.2-0.1l2.4,2.6C292.2,197.3,290.4,199,290.4,199z M309.2,185.4c0-0.3-0.2-0.5-0.3-0.7h-0.2c-0.1,0.7-0.4,1.1-1.3,1.3
		c-0.8,0.1-1.4-0.2-1.8-0.5l-2,3.3l0.2,0.1l0.7-0.9c0.6,0.3,1.1,0.6,2.3,0.5l1.3,7.1l-6.7-7.7c-0.6-0.6-1.3-1.4-2.5-1.2
		c-1.4,0.3-2.3,1.7-1.8,3.5h0.3c0-0.5,0.1-1.2,0.7-1.3c0.4-0.1,0.9,0.3,1.3,0.6l0.5,2.8c-1.5,0.3-2.4,1.2-2.2,2.4
		c0.1,0.7,0.7,1.6,1.7,1.7v-0.2c-0.2-0.1-0.3-0.3-0.4-0.6c-0.1-0.4,0.2-0.8,0.8-0.9l0.4-0.1l0.7,3.6c-1.8,0.3-3.1,1.6-2.7,3.3
		c0.3,1.6,1.8,2.1,3.3,1.8v-0.2c-1,0.1-1.5-0.3-1.6-0.9c-0.1-0.8,0.3-1.2,1-1.3s1.4,0.2,1.9,0.6l2-3.2l-0.2-0.1l-0.5,0.8
		c-1.1-0.7-1.7-0.8-2.8-0.8l-1.6-8.6l9.1,10.7l0.5-0.1l-2.2-12C308.5,188.1,309.5,186.9,309.2,185.4z M317.5,195.5l-1.8,2l-2.5-1.3
		l-0.2-1l3.5-3.5v-0.1l-2.6-2.7l-4,3.2l1.1,5.7l-0.7,0.8l0.2,0.1l0.7-0.7l3.3,1.6l3.3-3.8C317.7,195.8,317.5,195.5,317.5,195.5z
		 M313,194.8l-0.8-4.2l0.2-0.1l2.4,2.6C314.8,193.1,313,194.8,313,194.8z M330.4,186.8l-0.5,0.5l-1.9-1.1l-1.6,2.1l0.9,0.6l1.2,6.4
		l-2.3-0.9l-1-5.3l0.6-0.6l-2.3-1.5l-1.6,2.1l0.9,0.6l1.1,6.2l-0.2,0.2l-2-1l-1-5.1c-0.2-1.2-0.9-1.4-1.7-1.7
		c-0.7-0.3-1.1-0.5-1.2-1.1c-0.1-0.5,0.4-0.9,0.6-1.1v-0.2c-0.7,0.1-2.4,1.1-2.1,2.8c0.2,0.9,0.7,1.1,1.2,1.5c0.5,0.3,1,0.6,1.1,1.4
		l0.9,5l-0.8,0.9l0.2,0.1l0.7-0.8l2.3,1.3l1.9-1.9l2.7,1l4-3.5l-1.1-5.7L330.4,186.8L330.4,186.8L330.4,186.8z M345.4,179.1
		l-0.7,0.9l-2.2-1.4l-2.4,2.6l-0.4-1.9h-0.3l2.7,13.9c-0.3,0-1.1,0-1.7,0l-2.3-11.5c-0.2-0.9-1-1.9-2.5-1.7s-2.3,1.7-2.1,2.9h0.3
		c0-0.5,0.2-1,0.7-1.1s1,0.2,1.2,1.3l0.6,3.3c-1.5,0.4-2.3,1.4-2.1,2.5c0.1,0.7,0.7,1.6,1.7,1.5v-0.2c-0.4-0.1-0.5-0.3-0.5-0.5
		c-0.1-0.5,0.3-0.8,1-0.9l0.3-0.1l1,5.3c-1.2,0.7-1.5,1.7-1.4,2.7c0.3,1.5,1.6,2.3,3.3,2c1.2-0.2,2.2-0.6,3.2-1
		c0.8-0.3,1.9-0.8,2.4-0.9c0.7-0.1,1,0.2,1.1,0.6c0.1,0.6-0.1,0.9-0.4,1.1v0.2c1.3-0.5,2-1.5,1.8-2.8s-1.7-1.8-3-1.6
		c-0.7,0.1-2.1,0.7-3.1,1c-1.2,0.5-2.3,0.9-2.7,0.9c-0.6,0.1-1.3,0-1.5-0.9c-0.1-0.7,0.4-1.4,1.8-1.7c0.8-0.1,1.7-0.2,2.7-0.2
		c1.1,0.1,2.1,0.1,2.9,0c1.3-0.2,2.3-0.9,2-2.7l-2-10.5l0.9-1L345.4,179.1L345.4,179.1z M342.9,185c-0.2,0.3-0.5,0.6-0.9,0.7
		s-0.9-0.1-1.1-0.3l-0.7-3.8l0.7-0.8l1.4,0.9C342.3,181.7,342.9,185,342.9,185z M343.4,187.6c-0.2-0.1-0.7-0.3-1.1-0.2
		s-0.8,0.4-0.9,0.6l-0.4-2.2c0.2,0.1,0.7,0.3,1.1,0.2s0.8-0.4,0.9-0.6L343.4,187.6z M344.1,191.6c0.1,0.7-0.2,1.5-1.1,1.6l-0.7,0.1
		l-0.9-5.1c0.1-0.2,0.5-0.5,0.9-0.6s0.8,0.1,1.1,0.2C343.4,187.9,344.1,191.6,344.1,191.6z M354.7,183.3l-3.1-1.5l-3.7,3.2l1,5.6
		l-0.7,0.8l0.1,0.2l0.6-0.6l3.1,1.5l3.8-3.4C355.8,189.2,354.7,183.3,354.7,183.3z M351.1,189.6l-1.1-6.2l2.4,1.1l1.1,6.1
		C353.5,190.6,351.1,189.6,351.1,189.6z M362.5,180h-0.2c-0.2,0.2-0.5,0.4-0.7,0.5c-0.3,0.1-0.8,0-1-0.3h-0.2l-1.2,1.9l-1.8-1.4
		l-2.3,2.2l0.1,0.2l0.6-0.6l1,0.8l1,5.4l-1,1.1l0.2,0.1l0.4-0.5l2.4,1.3l2.3-2.3l-0.1-0.2l-0.7,0.6l-1.2-0.7l-1.1-6
		c0.5,0.3,1.1,0.7,1.7,0.6C362.2,182.7,362.7,181.4,362.5,180L362.5,180z M374.3,186.3l-2.5,2.5l-5.1-5.3l2-4.9h0.2
		c0.4,0.3,1,0.5,1.6,0.4s1-0.5,1.2-0.9h0.2c0.2,1.7-0.8,3-1.6,3.1c-0.9,0.2-1.4-0.2-1.9-0.4l-0.2,0.5l5.5,5.5L374.3,186.3
		L374.3,186.3z M364.8,187.7l-1,1.1l0.2,0.1l0.4-0.5l2.2,1.4l2.3-2.2l-0.2-0.1l-0.6,0.6l-1-0.7l-2.5-13.2h-0.1l-2.7,2.6v0.2
		c0.4,0.1,0.9,0.1,1.1,1.1C363,178,364.8,187.7,364.8,187.7z M386.4,171.9c-0.3-1.7-2-1.8-3.3-1.6v0.3c0.8-0.1,1.4,0,1.5,0.6
		c0.1,0.3-0.1,0.9-0.9,1c-0.6,0.1-1.9,0-3-0.2c-1.2-0.1-2.3-0.3-3.1-0.1c-1.7,0.3-2.7,1.8-2.4,3.3c0.2,1.3,1.3,1.5,1.6,1.6l0.1-0.2
		c-0.3-0.1-0.6-0.2-0.7-0.8c-0.1-0.3,0.2-1,1-1.2c0.8-0.1,1.9,0,3.3,0.2c1.3,0.1,2.6,0.1,3.3,0.1l0.5,2.7l-1.1,1.4v0.1l1.5,0.9
		l0.7,3.7c-0.6,0.6-1.4,0.8-2,0.9c-1.3,0.2-2.5,0.1-3.6-0.8l3.2-2.4l-1.1-6l-3.9,2.7c0.2-1.2,1-2.1,1.8-2.9l-0.1-0.2
		c-2.4,1.2-4.3,3.9-3.8,6.8c0.6,3.4,3.9,5.5,7.1,4.9c3.4-0.6,5.1-3.8,4.6-6.6h-0.2c-0.3,1.2-0.9,2.4-1.7,3.1l-0.7-3.5l1.2-1.4v-0.1
		l-1.5-0.9l-0.5-2.6C385.5,174.6,386.7,173.5,386.4,171.9z M380.7,182.7l-0.9,0.7c-0.7-0.7-1.3-1.6-1.5-3.1
		c-0.1-0.6-0.2-1.3-0.1-1.8l1.7-1.1L380.7,182.7z M389.2,170.5L389.2,170.5l-1.5,1.8v0.1l1.8,1.4h0.2l1.4-1.8v-0.1L389.2,170.5
		L389.2,170.5z M394.1,182.7l-0.6,0.6l-1-0.7l-1.1-5.9l0.7-0.8l-0.2-0.1l-0.5,0.6l-1.9-1.5l-2.2,2.2l0.2,0.2l0.5-0.5l0.9,0.8l1,5.6
		l-1,1.1l0.1,0.2l0.5-0.5l2.2,1.4l2.3-2.2L394.1,182.7L394.1,182.7z M408.4,179.9l-0.5,0.5l-1.1-0.7l-1.1-5.8l0.7-0.8l-0.2-0.1
		l-0.6,0.7l-2.3-1.4l-2.2,2.3l-2.3-1.4l-2.1,2.2l-1.9-1.5l-2.2,2.2l0.1,0.2l0.5-0.5l1,0.8l1,5.6l-0.6,0.8l2.3,1.3l1.6-2.1l-0.9-0.6
		l-1.1-5.8l0.7-0.7l1.5,1l1,5.1l-0.6,0.8l2.3,1.3l1.6-2.1l-0.9-0.6l-1.1-5.7l0.6-0.6l1.6,0.9l1,5.1l-0.5,0.7l2.3,1.4l2.3-2.3
		L408.4,179.9L408.4,179.9z M415.6,177.2l-1.8,2l-2.5-1.3l-0.2-1l3.5-3.5v-0.1l-2.6-2.7l-4,3.2l1.1,5.8l3.4,1.6l3.3-3.8
		C415.8,177.5,415.6,177.2,415.6,177.2z M411.1,176.6l-0.8-4.2l0.2-0.1l2.4,2.6C412.9,174.9,411.1,176.6,411.1,176.6z M423,173.6
		l-1.9-1c0.9-1.1,1.1-2.5,1-3.4l-0.1-0.5h-0.2c-0.1,0.5-0.4,1-1,1.1s-1.2-0.1-1.7-0.6l-3.5,2.9l0.6,3.1l1.7,0.8
		c-1.2,1.6-1.3,2.5-1.2,3.1c0.2,0.9,0.7,1.4,1.4,1.5l0.1-0.2c-0.2-0.1-0.4-0.2-0.5-0.6c0-0.3,0.2-0.7,0.9-0.9
		c0.9-0.2,1.5,0.3,1.8,0.6l3.3-2.9L423,173.6C423.1,173.6,423,173.6,423,173.6z M421.6,171.2c-0.4,1.1-1.5,2.4-2.2,3.1l-1.1-0.6
		l-0.6-3c0.5,0.8,1.6,1.3,2.5,1.1C420.9,171.7,421.2,171.5,421.6,171.2z M421.4,178.3c-0.6-0.9-1.8-1.4-2.8-1.2
		c-0.3,0-0.9,0.2-1.5,0.7c0.3-0.8,1.2-2.2,2.5-3.3l1.2,0.7L421.4,178.3L421.4,178.3z"/>
	<line class="st7" x1="240.7" y1="223.6" x2="453.6" y2="184.1"/>
	<line class="st7" x1="242" y1="230.5" x2="454.9" y2="191"/>
	<line class="st7" x1="279.3" y1="273.7" x2="435.5" y2="244.6"/>
	<line class="st7" x1="264.6" y1="297.6" x2="299.6" y2="291.1"/>
	<path class="st8" d="M415.2,218.8l-126.1,23.4c-0.3,0.1-0.5-0.1-0.6-0.4l-2.5-13.5c-0.1-0.3,0.1-0.5,0.4-0.6l126.1-23.4
		c0.3-0.1,0.5,0.1,0.6,0.4l2.5,13.5C415.6,218.5,415.4,218.8,415.2,218.8z"/>
	<path class="st9" d="M419.2,305.2l-103,19.1c-0.3,0.1-0.5-0.1-0.6-0.4l-9.3-50.2c-0.1-0.3,0.1-0.5,0.4-0.6l103-19.1
		c0.3-0.1,0.5,0.1,0.6,0.4l9.3,50.2C419.7,304.9,419.5,305.1,419.2,305.2z"/>
	<path class="st8" d="M441,228.4l-172.5,32c-0.3,0.1-0.5-0.1-0.6-0.4l-1.4-7.3c-0.1-0.3,0.1-0.5,0.4-0.6l172.5-32
		c0.3-0.1,0.5,0.1,0.6,0.4l1.4,7.3C441.4,228.1,441.2,228.4,441,228.4z"/>
	<path class="st8" d="M425.6,241.2l-138.3,25.7c-0.3,0.1-0.5-0.1-0.6-0.4l-1.4-7.3c-0.1-0.3,0.1-0.5,0.4-0.6L424,232.9
		c0.3-0.1,0.5,0.1,0.6,0.4l1.4,7.3C426.1,240.9,425.9,241.2,425.6,241.2z"/>
	<path class="st8" d="M302.4,278l-44.8,8.3c-0.3,0.1-0.5-0.1-0.6-0.4l-0.5-2.8c-0.1-0.3,0.1-0.5,0.4-0.6l44.8-8.3
		c0.3-0.1,0.5,0.1,0.6,0.4l0.5,2.8C302.8,277.7,302.7,277.9,302.4,278z"/>
	<path class="st8" d="M305.7,294.6l-39.5,7.3c-0.1,0-0.3-0.1-0.3-0.2l-0.1-0.6c0-0.1,0.1-0.3,0.2-0.3l39.5-7.3
		c0.1,0,0.3,0.1,0.3,0.2l0.1,0.6C305.9,294.4,305.9,294.5,305.7,294.6z"/>
	<path class="st8" d="M303.6,297.2l-42.9,8c-0.1,0-0.3-0.1-0.3-0.2l-0.1-0.6c0-0.1,0.1-0.3,0.2-0.3l42.9-8c0.1,0,0.3,0.1,0.3,0.2
		l0.1,0.6C303.8,297,303.8,297.2,303.6,297.2z"/>
	<path class="st8" d="M305.6,299.1l-44.5,8.3c-0.1,0-0.3-0.1-0.3-0.2l-0.1-0.6c0-0.1,0.1-0.3,0.2-0.3l44.5-8.3
		c0.1,0,0.3,0.1,0.3,0.2l0.1,0.6C305.9,298.9,305.8,299,305.6,299.1z"/>
	<path class="st8" d="M301.9,302l-40.4,7.5c-0.1,0-0.3-0.1-0.3-0.2l-0.1-0.6c0-0.1,0.1-0.3,0.2-0.3l40.4-7.5c0.1,0,0.3,0.1,0.3,0.2
		l0.1,0.6C302.2,301.8,302.1,302,301.9,302z"/>
	<path class="st8" d="M307.7,305.2l-39.6,7.4c-0.1,0-0.3-0.1-0.3-0.2l-0.1-0.6c0-0.1,0.1-0.3,0.2-0.3l39.6-7.4
		c0.1,0,0.3,0.1,0.3,0.2l0.1,0.6C307.9,305,307.8,305.2,307.7,305.2z"/>
	<path class="st8" d="M308.1,307.3l-45.4,8.4c-0.1,0-0.3-0.1-0.3-0.2l-0.1-0.6c0-0.1,0.1-0.3,0.2-0.3l45.4-8.4
		c0.1,0,0.3,0.1,0.3,0.2l0.1,0.6C308.3,307.2,308.2,307.3,308.1,307.3z"/>
	<path class="st8" d="M307.5,309.7l-44.4,8.2c-0.1,0-0.3-0.1-0.3-0.2l-0.1-0.6c0-0.1,0.1-0.3,0.2-0.3l44.4-8.2
		c0.1,0,0.3,0.1,0.3,0.2l0.1,0.6C307.7,309.5,307.7,309.7,307.5,309.7z"/>
	<path class="st8" d="M308.6,311.7l-45,8.4c-0.1,0-0.3-0.1-0.3-0.2l-0.1-0.6c0-0.1,0.1-0.3,0.2-0.3l45-8.4c0.1,0,0.3,0.1,0.3,0.2
		l0.1,0.6C308.8,311.6,308.7,311.7,308.6,311.7z"/>
	<path class="st8" d="M307.7,314.1l-43.8,8.1c-0.1,0-0.3-0.1-0.3-0.2l-0.1-0.6c0-0.1,0.1-0.3,0.2-0.3l43.8-8.1
		c0.1,0,0.3,0.1,0.3,0.2l0.1,0.6C307.9,314,307.8,314.1,307.7,314.1z"/>
	<path class="st8" d="M309.7,316l-45.4,8.4c-0.1,0-0.3-0.1-0.3-0.2l-0.1-0.6c0-0.1,0.1-0.3,0.2-0.3l45.4-8.4c0.1,0,0.3,0.1,0.3,0.2
		l0.1,0.6C309.9,315.8,309.8,316,309.7,316z"/>
	<path class="st8" d="M309.5,318.3l-44.7,8.3c-0.1,0-0.3-0.1-0.3-0.2l-0.1-0.6c0-0.1,0.1-0.3,0.2-0.3l44.7-8.3
		c0.1,0,0.3,0.1,0.3,0.2l0.1,0.6C309.7,318.1,309.6,318.2,309.5,318.3z"/>
	<path class="st8" d="M310.5,320.3l-45.4,8.4c-0.1,0-0.3-0.1-0.3-0.2l-0.1-0.6c0-0.1,0.1-0.3,0.2-0.3l45.4-8.4
		c0.1,0,0.3,0.1,0.3,0.2l0.1,0.6C310.7,320.2,310.6,320.3,310.5,320.3z"/>
	<path class="st8" d="M298.6,324.8l-33,6.1c-0.1,0-0.3-0.1-0.3-0.2l-0.1-0.6c0-0.1,0.1-0.3,0.2-0.3l33-6.1c0.1,0,0.3,0.1,0.3,0.2
		l0.1,0.6C298.8,324.6,298.7,324.8,298.6,324.8z"/>
	<path class="st8" d="M298,283.8l-39.4,7.3c-0.3,0.1-0.5-0.1-0.6-0.4l-0.5-2.8c-0.1-0.3,0.1-0.5,0.4-0.6l39.4-7.3
		c0.3-0.1,0.5,0.1,0.6,0.4l0.5,2.8C298.5,283.5,298.3,283.8,298,283.8z"/>
	<path class="st10" d="M273.5,291.6l-14.5,2.7c-0.1,0-0.3-0.1-0.3-0.2l-0.2-1c0-0.1,0.1-0.3,0.2-0.3l14.5-2.7c0.1,0,0.3,0.1,0.3,0.2
		l0.2,1C273.7,291.4,273.6,291.6,273.5,291.6z"/>
	<line class="st7" x1="422.5" y1="268.7" x2="457.5" y2="262.2"/>
	<path class="st8" d="M460.3,249l-44.8,8.3c-0.3,0.1-0.5-0.1-0.6-0.4l-0.5-2.8c-0.1-0.3,0.1-0.5,0.4-0.6l44.8-8.3
		c0.3-0.1,0.5,0.1,0.6,0.4l0.5,2.8C460.8,248.7,460.6,249,460.3,249z"/>
	<path class="st8" d="M463.7,265.6l-39.5,7.3c-0.1,0-0.3-0.1-0.3-0.2l-0.1-0.6c0-0.1,0.1-0.3,0.2-0.3l39.5-7.3
		c0.1,0,0.3,0.1,0.3,0.2l0.1,0.6C463.9,265.5,463.8,265.6,463.7,265.6z"/>
	<path class="st8" d="M461.5,268.3l-42.9,8c-0.1,0-0.3-0.1-0.3-0.2l-0.1-0.6c0-0.1,0.1-0.3,0.2-0.3l42.9-8c0.1,0,0.3,0.1,0.3,0.2
		l0.1,0.6C461.8,268.1,461.7,268.2,461.5,268.3z"/>
	<path class="st8" d="M463.6,270.1l-44.5,8.3c-0.1,0-0.3-0.1-0.3-0.2l-0.1-0.6c0-0.1,0.1-0.3,0.2-0.3l44.5-8.3
		c0.1,0,0.3,0.1,0.3,0.2l0.1,0.6C463.8,270,463.7,270.1,463.6,270.1z"/>
	<path class="st8" d="M459.9,273l-40.4,7.5c-0.1,0-0.3-0.1-0.3-0.2l-0.1-0.6c0-0.1,0.1-0.3,0.2-0.3l40.4-7.5c0.1,0,0.3,0.1,0.3,0.2
		l0.1,0.6C460.1,272.9,460,273,459.9,273z"/>
	<path class="st8" d="M465.6,276.3l-39.6,7.4c-0.1,0-0.3-0.1-0.3-0.2l-0.1-0.6c0-0.1,0.1-0.3,0.2-0.3l39.6-7.4
		c0.1,0,0.3,0.1,0.3,0.2l0.1,0.6C465.8,276.1,465.8,276.2,465.6,276.3z"/>
	<path class="st8" d="M466,278.4l-45.4,8.4c-0.1,0-0.3-0.1-0.3-0.2l-0.1-0.6c0-0.1,0.1-0.3,0.2-0.3l45.4-8.4c0.1,0,0.3,0.1,0.3,0.2
		l0.1,0.6C466.2,278.3,466.2,278.4,466,278.4z"/>
	<path class="st8" d="M465.4,280.8L421,289c-0.1,0-0.3-0.1-0.3-0.2l-0.1-0.6c0-0.1,0.1-0.3,0.2-0.3l44.4-8.2c0.1,0,0.3,0.1,0.3,0.2
		l0.1,0.6C465.7,280.6,465.6,280.7,465.4,280.8z"/>
	<path class="st8" d="M466.5,282.8l-45,8.4c-0.1,0-0.3-0.1-0.3-0.2l-0.1-0.6c0-0.1,0.1-0.3,0.2-0.3l45-8.4c0.1,0,0.3,0.1,0.3,0.2
		l0.1,0.6C466.7,282.7,466.6,282.8,466.5,282.8z"/>
	<path class="st8" d="M465.6,285.2l-43.8,8.1c-0.1,0-0.3-0.1-0.3-0.2l-0.1-0.6c0-0.1,0.1-0.3,0.2-0.3l43.8-8.1
		c0.1,0,0.3,0.1,0.3,0.2l0.1,0.6C465.8,285,465.8,285.2,465.6,285.2z"/>
	<path class="st8" d="M467.6,287.1l-45.4,8.4c-0.1,0-0.3-0.1-0.3-0.2l-0.1-0.6c0-0.1,0.1-0.3,0.2-0.3l45.4-8.4
		c0.1,0,0.3,0.1,0.3,0.2l0.1,0.6C467.8,286.9,467.8,287,467.6,287.1z"/>
	<path class="st8" d="M467.4,289.3l-44.7,8.3c-0.1,0-0.3-0.1-0.3-0.2l-0.1-0.6c0-0.1,0.1-0.3,0.2-0.3l44.7-8.3
		c0.1,0,0.3,0.1,0.3,0.2l0.1,0.6C467.6,289.2,467.5,289.3,467.4,289.3z"/>
	<path class="st8" d="M465.2,292l-42.1,7.8c-0.1,0-0.3-0.1-0.3-0.2l-0.1-0.6c0-0.1,0.1-0.3,0.2-0.3l42.1-7.8c0.1,0,0.3,0.1,0.3,0.2
		l0.1,0.6C465.4,291.8,465.3,292,465.2,292z"/>
	<path class="st8" d="M456.5,295.8l-33,6.1c-0.1,0-0.3-0.1-0.3-0.2l-0.1-0.6c0-0.1,0.1-0.3,0.2-0.3l33-6.1c0.1,0,0.3,0.1,0.3,0.2
		l0.1,0.6C456.7,295.7,456.6,295.8,456.5,295.8z"/>
	<path class="st8" d="M455.9,254.9l-39.4,7.3c-0.3,0.1-0.5-0.1-0.6-0.4l-0.5-2.8c-0.1-0.3,0.1-0.5,0.4-0.6l39.4-7.3
		c0.3-0.1,0.5,0.1,0.6,0.4l0.5,2.8C456.4,254.6,456.2,254.8,455.9,254.9z"/>
	<path class="st10" d="M431.4,262.6l-14.5,2.7c-0.1,0-0.3-0.1-0.3-0.2l-0.2-1c0-0.1,0.1-0.3,0.2-0.3l14.5-2.7c0.1,0,0.3,0.1,0.3,0.2
		l0.2,1C431.6,262.5,431.5,262.6,431.4,262.6z"/>
</g>
<path class="st11" d="M353.1,29.3l-3.4,0.6c-0.2,0-0.4-0.1-0.5-0.3l0,0v-0.1c0-0.2,0.1-0.4,0.3-0.5l0,0l3.4-0.6
	c0.2,0,0.4,0.1,0.5,0.3l0,0v0.1C353.4,29.1,353.3,29.3,353.1,29.3L353.1,29.3z"/>
<path class="st12" d="M356,27.5L356,27.5c-0.1,0.2-0.2,0.3-0.3,0.3c-0.1,0-0.3,0-0.3-0.1l-0.1-0.1l-0.1-0.5l-0.2-0.9l-0.3-1.6
	l-0.3-1.4l-0.3-1.6c0-0.2,0.1-0.4,0.2-0.4l0,0h0.1c0.2,0,0.3,0.1,0.3,0.3l0.3,1.6l0.3,1.3l0.3,1.6l0.2,0.9l0.1,0.4L356,27.5z"/>
<path class="st12" d="M357.7,27.4c0,0.1-0.1,0.2-0.3,0.2c-0.1,0-0.3,0-0.3-0.1l-0.1-0.1l0,0l-0.1-0.5l-0.2-0.9l-0.3-1.6l-0.3-1.4
	l-0.3-1.6c0-0.2,0.1-0.4,0.3-0.4l0,0h0.1c0.2,0,0.3,0.1,0.3,0.3l0.3,1.6l0,0l0.3,1.4l0.3,1.6l0,0l0.2,0.9l0.1,0.4
	C357.7,27.2,357.7,27.3,357.7,27.4z"/>
<line class="st13" x1="222.5" y1="140.7" x2="223.7" y2="147.2"/>
<line class="st13" x1="222.5" y1="140.7" x2="223.7" y2="147.2"/>
<line class="st13" x1="222.5" y1="140.7" x2="223.7" y2="147.2"/>
<polyline class="st13" points="227.6,169.2 227.7,169.2 227.7,169.2 227.8,170.2 227.8,170.2 228,170.9 228,171.3 228.1,171.7 "/>
<line class="st13" x1="222.5" y1="140.7" x2="223.7" y2="147.2"/>
<polyline class="st13" points="227.8,170.2 228,170.9 228,171.3 228.1,171.7 "/>
<line class="st13" x1="222.5" y1="140.7" x2="223.7" y2="147.2"/>
<polyline class="st13" points="227.8,170.2 228,170.9 228,171.3 228.1,171.7 "/>
<line class="st13" x1="222.5" y1="140.7" x2="223.7" y2="147.2"/>
<polyline class="st13" points="227.8,170.2 227.8,170.2 228,170.9 228,171.3 228.1,171.7 "/>
<line class="st13" x1="222.5" y1="140.7" x2="223.7" y2="147.2"/>
<path class="st14" d="M383.4,146.9l-153.1,27.8c-0.8,0.2-1.7-0.4-1.8-1.2l0,0l-0.1-0.4l-0.1-0.4l-0.1-0.4l-0.1-0.4l-0.1-0.4
	l-0.3-1.5l0,0h0.2l155.8-28.3h0.2l0.1,0.7l0.1,0.4l0.1,0.4l0.1,0.7l0.2,1.1C384.8,146,384.3,146.8,383.4,146.9z"/>
<path class="st15" d="M383.8,142.6c-0.2,1-1,1.7-2,1.9l-151.2,27.4c-1,0.2-2-0.2-2.6-1.1c-0.2-0.3-0.3-0.6-0.4-0.9l0,0l0,0l-4-22
	l-1.2-6.5l-12.5-69.8L207,56l-0.1-0.7l-0.1-0.4l-0.1-0.4l-0.1-0.5c-0.3-1.4,0.6-2.7,2-3c0,0,0,0,0.1,0l0.9-0.2l0.7-0.1l1-0.2
	l0.7-0.1l4.1-0.8l0.7-0.1l1-0.2l0,0l0.7-0.1l4.2-0.8l0,0l0.7-0.1l1-0.2l0.7-0.1l0,0l4.2-0.8l0,0l0.7-0.1l1-0.2l0,0l0.7-0.1l4.2-0.8
	l0.7-0.1l1-0.2l0.7-0.1l0,0l4.6-1l0.7-0.1l1-0.2l0.7-0.1l4.2-0.8l0,0l0.7-0.1l1-0.2l0.7-0.1l4.4-0.8l0,0l0.7-0.1l1-0.2l0.7-0.1
	l4.2-0.8l0,0l0.7-0.1l1-0.2l0.7-0.1l4.2-0.8l0.7-0.1l1-0.2l0,0l0.7-0.1l4.2-0.8l0,0l0.7-0.1l1-0.2l0.7-0.1l4.2-0.8l0.7-0.1l1-0.2
	l0.7-0.1l4.2-0.8l0,0l0.7-0.1l1-0.2l0.7-0.1l4.2-0.8l0,0l0.7-0.1l1-0.2l0,0l0.7-0.1l4.2-0.8l0,0l0.7-0.1l0,0l1-0.2l0.7-0.1l4.3-0.8
	l0.7-0.1l1-0.2l0.7-0.1l4.2-0.8l0,0l0.7-0.1l1-0.2l0.7-0.1l0,0l4.1-0.8l0.7-0.1l1-0.2l0.7-0.1l4.2-0.8l0.7-0.1l1-0.2l0,0l0.7-0.1
	l4.2-0.8l0.7-0.1l1-0.2l0.7-0.1l4.2-0.8l0.7-0.1l1-0.2l0.7-0.1l0,0l4.1-0.8l0.7-0.1l1-0.2L351,25l5.9-1.4l0.7-0.1l1-0.2l0,0l0.7-0.1
	h0.2c1.4-0.3,2.7,0.6,3,2c0,0,0,0,0,0.1l21.2,115.9C383.9,141.8,383.9,142.2,383.8,142.6z"/>
<path class="st13" d="M227.6,169.2L227.6,169.2L227.6,169.2l0.2,1l0.1,0.7c0.1,0.8,0.9,1.4,1.8,1.3l0,0l153.1-27.8
	c0.8-0.1,1.4-0.9,1.3-1.8l0,0"/>
<path class="st13" d="M227.6,169.2L227.6,169.2L227.6,169.2l0.2,1l0.1,0.7l0.1,0.4c0.1,0.8,0.9,1.4,1.8,1.3l0,0l153.1-27.8
	c0.8-0.1,1.4-0.9,1.3-1.8c0,0,0,0,0-0.1"/>
<path class="st13" d="M228.2,172.1c0.1,0.7,0.7,1.2,1.4,1.3c0.2,0,0.3,0,0.5,0l153.2-27.9c0.1,0,0.3-0.1,0.4-0.1
	c0.6-0.3,1-1,0.8-1.7"/>
<path class="st13" d="M228.2,172.4c0.1,0.4,0.3,0.8,0.7,1c0.3,0.2,0.7,0.3,1.1,0.2l153.2-27.8c0.4-0.1,0.7-0.3,1-0.6
	s0.4-0.8,0.3-1.2"/>
<path class="st13" d="M228.3,172.8c0,0.3,0.2,0.5,0.3,0.7c0.4,0.5,0.9,0.7,1.5,0.6l153.1-27.8c0.6-0.1,1-0.5,1.2-1
	c0.1-0.3,0.1-0.5,0-0.8"/>
<path class="st13" d="M227.6,169.2L227.6,169.2L227.6,169.2l0.2,1l0,0l0.1,0.7l0.1,0.4l0.1,0.4c0.1,0.8,0.9,1.4,1.8,1.3l0,0
	l153.2-27.9c0.8-0.1,1.4-0.9,1.3-1.8l0,0"/>
<line class="st16" x1="346.9" y1="35.6" x2="346.7" y2="34.6"/>
<line class="st16" x1="350.9" y1="33.8" x2="351" y2="34.8"/>
<path class="st11" d="M352.2,30.5l-3,0.6c-0.3,0.1-0.6-0.1-0.7-0.4c0,0,0,0,0-0.1l-0.2-1.3c-0.1-0.3,0.1-0.6,0.4-0.7c0,0,0,0,0.1,0
	l3-0.6c0.3-0.1,0.6,0.1,0.7,0.4c0,0,0,0,0,0.1l0.2,1.3C352.7,30.1,352.5,30.4,352.2,30.5z"/>
<path class="st11" d="M351.7,27.4l-3.4,0.6c-0.2,0-0.4-0.1-0.5-0.3c0,0,0,0,0-0.1v-0.1c0-0.2,0.1-0.4,0.3-0.5l0,0l3.4-0.6
	c0.2,0,0.4,0.1,0.5,0.3l0,0v0.1C352.1,27.1,352,27.3,351.7,27.4C351.8,27.4,351.8,27.4,351.7,27.4z"/>
<path class="st12" d="M349.6,28.4L349.6,28.4c-0.1,0.2-0.2,0.3-0.3,0.3c-0.1,0-0.3,0-0.3-0.1l-0.1-0.1l-0.1-0.5l-0.2-0.9l-0.3-1.6
	l-0.3-1.4l-0.3-1.6c0-0.2,0.1-0.4,0.3-0.4l0,0h0.1c0.2,0,0.3,0.1,0.3,0.3l0.3,1.6l0.3,1.3l0.3,1.6l0.2,0.9l0.1,0.4V28.4z"/>
<path class="st17" d="M349.6,30.3c-0.2,0-0.4-0.1-0.4-0.3l0,0l-0.2-1.4v-0.1l-0.1-0.5l-0.2-0.9l-0.3-1.6l-0.3-1.4
	c0-0.2,0.1-0.4,0.3-0.4l0,0h0.1c0.2,0,0.3,0.1,0.3,0.3l0.3,1.3l0.3,1.6l0.2,0.9l0.1,0.4v0.2l0,0l0,0l0.2,1.4
	c0.1,0.2,0.1,0.4-0.1,0.5C349.8,30.3,349.7,30.3,349.6,30.3z"/>
<path class="st12" d="M351.3,27.9c0,0.1,0,0.2,0,0.2c0,0.1-0.1,0.2-0.2,0.2s-0.3,0-0.3-0.1v-0.1l0,0l-0.1-0.5l-0.2-0.9l-0.3-1.6
	l-0.3-1.3l-0.3-1.6c0-0.2,0.1-0.4,0.3-0.4l0,0h0.1c0.2,0,0.3,0.1,0.3,0.3l0.3,1.6l0,0l0.3,1.4l0.3,1.6l0,0l0.2,0.9L351.3,27.9z"/>
<path class="st17" d="M351.5,30c-0.2,0-0.4-0.1-0.4-0.3l0,0l-0.3-1.5v-0.1l0,0l-0.1-0.5l0,0l-0.2-0.9l-0.3-1.6l-0.3-1.3
	c0-0.2,0.1-0.4,0.3-0.4l0,0h0.1c0.1,0,0.3,0.1,0.3,0.3l0,0l0.3,1.4l0.3,1.6l0,0l0.2,0.9l0.1,0.4l0.1,0.2l0.2,1.4
	C351.8,29.8,351.7,30,351.5,30z"/>
<path class="st11" d="M358.6,29.4l-3,0.5c-0.3,0.1-0.6-0.1-0.7-0.4c0,0,0,0,0-0.1l-0.2-1.3c-0.1-0.3,0.1-0.6,0.4-0.7c0,0,0,0,0.1,0
	l3-0.6c0.3-0.1,0.6,0.1,0.7,0.4c0,0,0,0,0,0.1l0.2,1.3C359.1,29,358.9,29.4,358.6,29.4z"/>
<path class="st17" d="M356,29.3c-0.2,0.1-0.4,0-0.4-0.2l0,0l-0.3-1.5v-0.1l-0.1-0.5l-0.2-0.9l-0.3-1.6l-0.3-1.4
	c0-0.2,0.1-0.4,0.3-0.4l0,0h0.1c0.2,0,0.3,0.1,0.3,0.3l0.3,1.3l0.3,1.6l0.2,0.9l0.1,0.4v0.2l0,0l0,0l0.2,1.4
	C356.2,29,356.2,29.2,356,29.3C356,29.2,356,29.2,356,29.3z"/>
<path class="st17" d="M357.6,28.9c-0.2,0-0.4-0.1-0.4-0.3l0,0l-0.3-1.5V27l0,0l-0.1-0.5l-0.2-0.9l-0.3-1.6l-0.3-1.4
	c0-0.2,0.1-0.4,0.3-0.4l0,0h0.1c0.1,0,0.3,0.1,0.3,0.3l0,0l0.3,1.4l0.3,1.6l0,0l0.2,0.9l0.1,0.4l0.1,0.2l0.3,1.4
	C358,28.7,357.9,28.9,357.6,28.9C357.7,28.9,357.7,28.9,357.6,28.9z"/>
<line class="st16" x1="338.3" y1="36.2" x2="338.4" y2="37.2"/>
<line class="st16" x1="334.2" y1="37.9" x2="334" y2="37"/>
<path class="st11" d="M339.6,32.8l-3,0.6c-0.3,0.1-0.6-0.1-0.7-0.4c0,0,0,0,0-0.1l-0.2-1.3c-0.1-0.3,0.1-0.6,0.4-0.7c0,0,0,0,0.1,0
	l3-0.6c0.3-0.1,0.6,0.1,0.7,0.4c0,0,0,0,0,0.1l0.2,1.3C340.1,32.5,339.9,32.8,339.6,32.8L339.6,32.8z"/>
<path class="st11" d="M339.1,29.7l-3.4,0.6c-0.2,0-0.4-0.1-0.5-0.3l0,0v-0.1c0-0.2,0.1-0.4,0.3-0.5l0,0l3.4-0.6
	c0.2,0,0.4,0.1,0.5,0.3l0,0v0.1C339.5,29.5,339.4,29.7,339.1,29.7L339.1,29.7z"/>
<path class="st12" d="M337,30.5c0,0.1,0,0.2,0,0.2c0,0.1-0.1,0.2-0.2,0.2s-0.3,0-0.3-0.1c0,0-0.1-0.1-0.1-0.2l0,0l-0.1-0.5l-0.2-0.9
	l-0.3-1.6l-0.3-1.4l-0.3-1.6c0-0.2,0.1-0.4,0.3-0.4l0,0h0.1c0.2,0,0.3,0.1,0.3,0.3l0.3,1.6l0,0l0.3,1.3l0.3,1.6l0.2,0.9L337,30.5z"
	/>
<path class="st17" d="M337,32.6c-0.2,0-0.4-0.1-0.4-0.3l0,0l-0.3-1.4v-0.2l0,0l-0.1-0.5l0,0l-0.2-0.9l-0.3-1.6l-0.3-1.4
	c-0.1-0.2,0.1-0.4,0.2-0.4l0,0h0.1c0.1,0,0.3,0.1,0.3,0.3l0,0l0.3,1.3l0.3,1.6l0.2,0.9l0.1,0.4v0.2l0.2,1.4
	C337.3,32.3,337.2,32.6,337,32.6z"/>
<path class="st12" d="M338.7,30.4L338.7,30.4c-0.1,0.2-0.2,0.3-0.3,0.3c-0.1,0-0.3,0-0.3-0.1l-0.1-0.1l0,0l-0.1-0.5l-0.2-0.9
	l-0.3-1.6l-0.3-1.4l-0.3-1.6c0-0.2,0.1-0.4,0.3-0.4l0,0h0.1c0.2,0,0.3,0.1,0.3,0.3l0.3,1.6l0,0l0.3,1.4l0.3,1.6l0.2,0.9L338.7,30.4
	L338.7,30.4L338.7,30.4z"/>
<path class="st17" d="M338.7,32.3c-0.2,0-0.4-0.1-0.4-0.3l0,0l-0.2-1.4v-0.2l0,0l-0.1-0.5l-0.2-0.9l-0.4-1.5l-0.3-1.4
	c-0.1-0.2,0-0.4,0.2-0.4l0,0h0.1c0.1,0,0.3,0.1,0.3,0.3l0,0l0.3,1.4l0.3,1.6l0.2,0.9l0.1,0.4l0,0v0.2l0,0l0.3,1.4
	c0.1,0.2,0.1,0.4-0.1,0.5C338.8,32.3,338.7,32.3,338.7,32.3z"/>
<path class="st11" d="M345.9,31.6l-3,0.6c-0.3,0.1-0.6-0.1-0.7-0.4c0,0,0,0,0-0.1l-0.2-1.3c-0.1-0.3,0.1-0.6,0.4-0.7c0,0,0,0,0.1,0
	l3-0.6c0.3-0.1,0.6,0.1,0.7,0.4c0,0,0,0,0,0.1l0.2,1.3C346.5,31.3,346.2,31.6,345.9,31.6L345.9,31.6z"/>
<path class="st11" d="M345.5,28.6l-3.4,0.6c-0.2,0-0.4-0.1-0.5-0.3l0,0v-0.1c0-0.2,0.1-0.4,0.3-0.5l0,0l3.4-0.6
	c0.2,0,0.4,0.1,0.5,0.3l0,0v0.1C345.8,28.3,345.7,28.5,345.5,28.6L345.5,28.6z"/>
<path class="st12" d="M343.4,29.6L343.4,29.6c-0.1,0.2-0.2,0.3-0.3,0.3c-0.1,0-0.3,0-0.3-0.1c0,0-0.1-0.1-0.1-0.2l0,0l-0.1-0.5
	l-0.2-0.9l-0.3-1.6l-0.3-1.4l-0.3-1.6c0-0.2,0.1-0.4,0.3-0.4l0,0h0.1c0.2,0,0.3,0.1,0.3,0.3l0.3,1.6l0,0l0.3,1.4l0.3,1.6l0,0
	l0.2,0.9l0.1,0.4V29.6z"/>
<path class="st17" d="M343.4,31.5c-0.2,0-0.4-0.1-0.4-0.2l0,0l-0.3-1.4v-0.2l0,0l-0.1-0.5l0,0l-0.2-0.9l-0.3-1.6l-0.3-1.4
	c0-0.2,0.1-0.4,0.2-0.4l0,0h0.1c0.1,0,0.3,0.1,0.3,0.3l0,0l0.3,1.4l0.3,1.7l0.2,0.9l0.1,0.4v0.2l0,0l0.2,1.4
	C343.6,31.3,343.6,31.5,343.4,31.5C343.5,31.4,343.4,31.5,343.4,31.5z"/>
<path class="st12" d="M345,29.1c0,0.1,0,0.1,0,0.2s-0.1,0.2-0.2,0.2s-0.3,0-0.3-0.1c0,0-0.1-0.1-0.1-0.2l-0.1-0.5l-0.2-0.9l0,0
	l-0.3-1.6l-0.3-1.3l0,0l-0.3-1.6c0-0.2,0.1-0.4,0.2-0.4l0,0h0.1c0.2,0,0.3,0.1,0.3,0.3l0.3,1.6l0,0l0.3,1.3l0,0l0.3,1.6l0.2,0.9l0,0
	L345,29.1z"/>
<path class="st17" d="M345.1,31.2c-0.2,0-0.4-0.1-0.4-0.3l0,0l-0.3-1.5v-0.2l-0.1-0.5l-0.2-0.9l0,0l-0.3-1.6l-0.3-1.3l0,0
	c0-0.2,0.1-0.3,0.3-0.4l0,0h0.1c0.1,0,0.3,0.1,0.3,0.3l0,0l0.3,1.3l0,0l0.3,1.6l0.2,0.9l0,0l0.1,0.5v0.2l0.3,1.4
	C345.3,30.9,345.2,31.1,345.1,31.2z"/>
<line class="st16" x1="325.6" y1="38.5" x2="325.7" y2="39.5"/>
<line class="st16" x1="321.6" y1="40.3" x2="321.4" y2="39.3"/>
<path class="st11" d="M326.9,35.2l-3,0.5c-0.3,0.1-0.6-0.1-0.7-0.4c0,0,0,0,0-0.1l-0.2-1.3c-0.1-0.3,0.1-0.6,0.4-0.7c0,0,0,0,0.1,0
	l3-0.6c0.3-0.1,0.6,0.1,0.7,0.4c0,0,0,0,0,0.1l0.2,1.4C327.4,34.8,327.2,35.1,326.9,35.2L326.9,35.2z"/>
<path class="st11" d="M326.4,32.1l-3.4,0.6c-0.2,0-0.4-0.1-0.5-0.3l0,0v-0.1c0-0.2,0.1-0.4,0.3-0.5l0,0l3.4-0.6
	c0.2,0,0.4,0.1,0.5,0.3l0,0v0.1C326.8,31.8,326.7,32,326.4,32.1L326.4,32.1z"/>
<path class="st12" d="M324.3,33.1L324.3,33.1L324.3,33.1c-0.1,0.2-0.2,0.3-0.3,0.3c-0.1,0-0.3,0-0.3-0.1l-0.1-0.1l-0.1-0.5l-0.2-0.9
	l-0.3-1.6l-0.3-1.3l-0.3-1.6c0-0.2,0-0.3,0.2-0.4c0,0,0,0,0.1,0h0.1c0.2,0,0.3,0.1,0.3,0.3l0.3,1.6l0.3,1.4l0.3,1.6l0.2,0.9
	L324.3,33.1L324.3,33.1z"/>
<path class="st17" d="M324.3,35c-0.2,0.1-0.4,0-0.4-0.2l0,0l-0.3-1.5v-0.2l-0.1-0.5l-0.2-0.9l-0.3-1.6l-0.3-1.3
	c0-0.2,0.1-0.4,0.2-0.4l0,0h0.1c0.1,0,0.3,0.1,0.3,0.3l0.3,1.4l0.3,1.6l0.2,0.9l0.1,0.4v0.2l0,0l0,0l0.2,1.4
	C324.5,34.8,324.4,35,324.3,35C324.4,34.9,324.4,35,324.3,35z"/>
<path class="st12" d="M326,32.6c0,0.1,0,0.2,0,0.2c0,0.1-0.1,0.2-0.2,0.2s-0.3,0-0.3-0.1l-0.1-0.1l0,0l-0.1-0.5l-0.2-0.9l-0.3-1.6
	l-0.3-1.4l-0.3-1.6c0-0.2,0.1-0.4,0.3-0.4l0,0h0.1c0.2,0,0.3,0.1,0.3,0.3l0.3,1.6l0,0l0.3,1.4l0.3,1.6l0,0l0.2,0.9L326,32.6z"/>
<path class="st17" d="M326,34.7c-0.2,0-0.4-0.1-0.4-0.3l0,0l-0.2-1.4v-0.2l0,0l-0.1-0.5l0,0l-0.2-0.9l-0.3-1.6l-0.3-1.4
	c0-0.2,0.1-0.4,0.3-0.4l0,0h0.1c0.1,0,0.3,0.1,0.3,0.3l0,0l0.3,1.4l0.3,1.6l0,0l0.2,0.9l0.1,0.4v0.2l0.2,1.4
	C326.4,34.4,326.2,34.6,326,34.7z"/>
<path class="st11" d="M333.3,34l-3,0.6c-0.3,0.1-0.6-0.1-0.7-0.4c0,0,0,0,0-0.1l-0.2-1.3c-0.1-0.3,0.1-0.6,0.4-0.7c0,0,0,0,0.1,0
	l3-0.6c0.3-0.1,0.6,0.1,0.7,0.4c0,0,0,0,0,0.1l0.2,1.3C333.8,33.6,333.6,33.9,333.3,34z"/>
<path class="st11" d="M332.8,30.9l-3.4,0.6c-0.2,0-0.4-0.1-0.5-0.3l0,0v-0.1c0-0.2,0.1-0.4,0.3-0.5l0,0l3.4-0.6
	c0.2,0,0.4,0.1,0.5,0.3l0,0v0.1C333.1,30.6,333,30.9,332.8,30.9L332.8,30.9z"/>
<path class="st12" d="M330.7,31.9L330.7,31.9L330.7,31.9c-0.1,0.2-0.2,0.3-0.3,0.3c-0.1,0-0.3,0-0.3-0.1c0-0.1-0.1-0.1-0.1-0.2
	l-0.1-0.5l-0.2-0.9l-0.3-1.6l-0.3-1.4l-0.3-1.6c0-0.2,0.1-0.4,0.3-0.4l0,0h0.1c0.2,0,0.3,0.1,0.3,0.3l0.3,1.6l0.3,1.3l0.3,1.6
	l0.2,0.9l0.1,0.4V31.9z"/>
<path class="st17" d="M330.7,33.8c-0.2,0-0.4-0.1-0.4-0.3l0,0L330,32v-0.2l-0.1-0.5l-0.2-0.9l-0.3-1.6l-0.3-1.4
	c0-0.2,0.1-0.4,0.3-0.4l0,0h0.1c0.2,0,0.3,0.1,0.3,0.3l0.3,1.3l0.3,1.6l0.2,0.9l0.1,0.4v0.2l0,0l0,0l0.2,1.4
	c0.1,0.1,0.1,0.4-0.1,0.5C330.8,33.8,330.7,33.8,330.7,33.8z"/>
<path class="st12" d="M332.3,31.7c0,0.1-0.1,0.2-0.3,0.2c-0.1,0-0.3,0-0.3-0.1l-0.1-0.1l0,0l-0.1-0.5l-0.2-0.9l-0.3-1.7l-0.3-1.4
	l-0.3-1.6c0-0.2,0.1-0.4,0.3-0.4l0,0h0.1c0.2,0,0.3,0.1,0.3,0.3l0.3,1.6l0,0l0.3,1.4l0.3,1.7l0,0l0.2,0.9l0.1,0.4
	C332.3,31.5,332.3,31.6,332.3,31.7z"/>
<path class="st17" d="M332.3,33.5c-0.2,0-0.4-0.1-0.4-0.3l0,0l-0.2-1.4v-0.2l0,0l-0.1-0.5l-0.2-0.9l-0.3-1.7l-0.3-1.4
	c-0.1-0.2,0-0.4,0.2-0.4l0,0h0.1c0.1,0,0.3,0.1,0.3,0.3l0,0l0.3,1.4l0.3,1.7l0,0l0.2,0.9l0.1,0.4v0.2l0.2,1.4
	C332.7,33.2,332.6,33.4,332.3,33.5C332.4,33.5,332.4,33.5,332.3,33.5z"/>
<line class="st16" x1="313" y1="40.7" x2="313.1" y2="41.7"/>
<line class="st16" x1="308.9" y1="42.5" x2="308.7" y2="41.5"/>
<path class="st11" d="M314.3,37.3l-3.2,0.6c-0.3,0.1-0.6-0.1-0.7-0.4v-0.1l-0.3-1.3c-0.1-0.3,0.1-0.6,0.5-0.7c0,0,0,0,0.1,0l3.2-0.6
	c0.3-0.1,0.6,0.1,0.7,0.4v0.1l0.3,1.3C314.9,36.9,314.7,37.3,314.3,37.3z"/>
<path class="st11" d="M313.8,34.3l-3.4,0.6c-0.2,0-0.4-0.1-0.5-0.3l0,0v-0.1c0-0.2,0.1-0.4,0.3-0.5l0,0l3.4-0.6
	c0.2,0,0.4,0.1,0.5,0.3l0,0v0.1C314.2,34,314.1,34.2,313.8,34.3C313.9,34.3,313.8,34.3,313.8,34.3z"/>
<path class="st12" d="M311.7,35.1c0,0.1,0,0.2,0,0.2c0,0.1-0.1,0.2-0.2,0.2s-0.3,0-0.3-0.1l-0.1-0.1l0,0l-0.1-0.5l-0.2-0.9l-0.3-1.6
	l-0.3-1.3l-0.3-1.6c0-0.2,0.1-0.4,0.3-0.4l0,0h0.1c0.2,0,0.3,0.1,0.3,0.3l0.3,1.6l0,0l0.3,1.4l0.3,1.6l0.2,0.9L311.7,35.1z"/>
<path class="st17" d="M311.6,37.1c-0.2,0-0.4-0.1-0.4-0.3l0,0l-0.3-1.5v-0.2l0,0l-0.1-0.5l0,0l-0.2-1l-0.3-1.7l-0.3-1.4
	c0-0.2,0.1-0.4,0.3-0.4l0,0h0.1c0.2,0,0.3,0.1,0.3,0.3l0,0l0.3,1.4l0.3,1.7l0.2,1l0.1,0.4v0.2l0.3,1.5C312,36.8,311.9,37,311.6,37.1
	z"/>
<path class="st12" d="M313.4,35C313.4,35,313.3,35,313.4,35c-0.1,0.2-0.2,0.3-0.3,0.3c-0.1,0-0.3,0-0.3-0.1l-0.1-0.1l0,0l-0.1-0.5
	l-0.2-0.9l-0.3-1.6l-0.3-1.4l-0.3-1.6c0-0.2,0.1-0.4,0.2-0.4c0,0,0,0,0.1,0h0.1c0.1,0,0.3,0.1,0.3,0.3l0.3,1.6l0,0l0.3,1.4l0.3,1.6
	l0.2,0.9L313.4,35L313.4,35L313.4,35z"/>
<path class="st17" d="M313.4,36.8c-0.2,0-0.4-0.1-0.4-0.3l0,0l-0.2-1.5v-0.2l0,0l-0.1-0.5l-0.2-1l-0.3-1.7l-0.3-1.4
	c0-0.2,0.1-0.4,0.3-0.4l0,0h0.1c0.2,0,0.3,0.1,0.3,0.3l0,0l0.3,1.4l0.3,1.7l0.2,1l0.1,0.4l0,0v0.2l0,0l0.3,1.5
	c0.1,0.2,0,0.4-0.1,0.5C313.5,36.8,313.4,36.8,313.4,36.8z"/>
<path class="st11" d="M321,36.2l-3.2,0.6c-0.3,0.1-0.6-0.1-0.7-0.4v-0.1l-0.3-1.3c-0.1-0.3,0.1-0.6,0.5-0.7c0,0,0,0,0.1,0l3.2-0.6
	c0.3-0.1,0.6,0.1,0.7,0.4v0.1l0.3,1.3C321.6,35.8,321.4,36.1,321,36.2z"/>
<path class="st11" d="M320.2,33.2l-3.4,0.6c-0.2,0-0.4-0.1-0.5-0.3l0,0v-0.1c0-0.2,0.1-0.4,0.3-0.5l0,0l3.4-0.6
	c0.2,0,0.4,0.1,0.5,0.3l0,0v0.1C320.5,33,320.4,33.2,320.2,33.2L320.2,33.2z"/>
<path class="st12" d="M318,34.3c0,0.1-0.1,0.2-0.3,0.2c-0.1,0-0.3,0-0.3-0.1l-0.1-0.1l0,0l-0.1-0.5l-0.2-0.9l-0.3-1.6l-0.3-1.4
	l-0.3-1.6c0-0.2,0.1-0.4,0.3-0.4l0,0h0.1c0.2,0,0.3,0.1,0.3,0.3l0.3,1.6l0,0l0.3,1.4l0.3,1.6l0,0l0.2,0.9l0.1,0.4
	C318,34.1,318,34.2,318,34.3z"/>
<path class="st17" d="M318.1,36.1c-0.2,0-0.4-0.1-0.4-0.3l0,0l-0.3-1.4v-0.2l0,0l-0.1-0.5l-0.2-0.9l-0.3-1.6l-0.3-1.4
	c0-0.2,0.1-0.4,0.2-0.4l0,0h0.1c0.1,0,0.3,0.1,0.3,0.3l0,0l0.3,1.4l0.3,1.6l0.2,0.9L318,34v0.2l0.2,1.4
	C318.4,35.9,318.3,36.1,318.1,36.1L318.1,36.1z"/>
<path class="st12" d="M319.7,33.8c0,0.2-0.1,0.4-0.2,0.5c-0.1,0-0.3,0-0.3-0.1c0,0-0.1-0.1-0.1-0.2l-0.1-0.5l-0.2-0.9l0,0l-0.3-1.6
	l-0.3-1.3l0,0l-0.3-1.6c0-0.2,0.1-0.4,0.3-0.4l0,0h0.1c0.2,0,0.3,0.1,0.3,0.3l0.3,1.6l0,0l0.3,1.4l0,0l0.3,1.6l0.2,0.9l0,0
	L319.7,33.8z"/>
<path class="st17" d="M319.7,35.8c-0.2,0-0.4-0.1-0.4-0.2l0,0l-0.3-1.5v-0.2l-0.1-0.5l-0.2-0.9l0,0l-0.3-1.6l-0.3-1.3l0,0
	c0-0.2,0.1-0.3,0.3-0.4l0,0h0.1c0.1,0,0.3,0.1,0.3,0.3l0,0l0.3,1.4l0,0l0.3,1.6l0.2,0.9l0,0l0.1,0.4V34l0.2,1.4
	C320.1,35.5,320,35.8,319.7,35.8C319.8,35.8,319.8,35.8,319.7,35.8z"/>
<line class="st16" x1="300.6" y1="35.4" x2="300.8" y2="36.4"/>
<line class="st16" x1="296.3" y1="37.3" x2="296.1" y2="36.2"/>
<path class="st11" d="M300.8,39.8l-3.2,0.6c-0.3,0.1-0.6-0.1-0.7-0.4c0,0,0,0,0-0.1l-0.2-1.4c-0.1-0.3,0.1-0.6,0.4-0.7h0.1l3.2-0.6
	c0.3-0.1,0.6,0.1,0.7,0.4v0.1l0.3,1.3C301.4,39.4,301.2,39.7,300.8,39.8z"/>
<path class="st11" d="M300.3,36.5l-3.6,0.7c-0.2,0-0.5-0.1-0.5-0.3l0,0v-0.1c0-0.2,0.1-0.5,0.3-0.5l0,0l3.6-0.7
	c0.2,0,0.5,0.1,0.5,0.3l0,0V36C300.7,36.2,300.6,36.5,300.3,36.5L300.3,36.5z"/>
<path class="st12" d="M298.1,37.4c0,0.1,0,0.2,0,0.2c-0.1,0.1-0.2,0.2-0.3,0.2c-0.1,0-0.3,0-0.4-0.1c0,0-0.1-0.1-0.1-0.2l-0.1-0.5
	l-0.2-1l-0.3-1.7l0,0l-0.3-1.4l-0.3-1.7c0-0.2,0.1-0.4,0.3-0.4l0,0h0.1c0.2,0,0.3,0.2,0.3,0.3l0.3,1.7l0,0l0.3,1.4l0.3,1.7l0.2,1
	L298.1,37.4z"/>
<path class="st17" d="M298.1,39.6c-0.2,0-0.4-0.1-0.4-0.3l0,0l-0.3-1.5l-0.1-0.7l-0.2-1l-0.3-1.7l0,0l-0.3-1.4
	c0-0.2,0.1-0.4,0.3-0.4l0,0h0.1c0.2,0,0.3,0.1,0.3,0.3l0,0l0.3,1.4l0.3,1.7l0.2,1l0,0l0.1,0.5v0.2l0.3,1.5
	C298.5,39.3,298.3,39.5,298.1,39.6z"/>
<path class="st12" d="M299.9,37.3c0,0.1-0.1,0.2-0.3,0.2c-0.1,0-0.3,0-0.4-0.1c0,0-0.1-0.1-0.1-0.2l0,0l-0.1-0.5l-0.2-1l-0.3-1.7
	l-0.3-1.4l-0.3-1.7c0-0.2,0.1-0.4,0.3-0.4l0,0h0.1c0.2,0,0.3,0.1,0.3,0.3l0.3,1.7l0.4,1.4l0.3,1.7l0.2,1l0.1,0.4
	C299.9,37.2,299.9,37.2,299.9,37.3z"/>
<path class="st17" d="M299.9,39.3c-0.2,0-0.4-0.1-0.4-0.3l0,0l-0.3-1.5v-0.2l0,0l-0.1-0.5l-0.2-1l-0.3-1.7l-0.3-1.4
	c0-0.2,0.1-0.4,0.3-0.4l0,0h0.1c0.2,0,0.3,0.1,0.3,0.3l0.3,1.3l0.3,1.7l0.2,1l0.1,0.4v0.2l0.3,1.5C300.2,39,300.1,39.2,299.9,39.3z"
	/>
<path class="st11" d="M307.5,38.6l-3.2,0.6c-0.3,0.1-0.6-0.1-0.7-0.4v-0.1l-0.2-1.4c-0.1-0.3,0.1-0.6,0.4-0.7h0.1l3.2-0.6
	c0.3-0.1,0.6,0.1,0.7,0.4c0,0,0,0,0,0.1l0.2,1.4C308.1,38.2,307.9,38.5,307.5,38.6L307.5,38.6z"/>
<path class="st11" d="M307,35.3l-3.6,0.7c-0.2,0-0.5-0.1-0.5-0.3l0,0v-0.1c0-0.2,0.1-0.5,0.3-0.5l0,0l3.6-0.7c0.2,0,0.5,0.1,0.5,0.3
	l0,0v0.1C307.4,35,307.3,35.2,307,35.3L307,35.3z"/>
<path class="st12" d="M304.8,36.3L304.8,36.3c-0.1,0.2-0.2,0.3-0.3,0.3c-0.1,0-0.3,0-0.4-0.1c0-0.1-0.1-0.1-0.1-0.2l-0.1-0.5l-0.2-1
	l0,0l-0.3-1.7l0,0l-0.3-1.4l-0.3-1.7c0-0.2,0.1-0.4,0.3-0.4l0,0h0.1c0.2,0,0.3,0.1,0.3,0.3l0.3,1.8l0.3,1.4l0,0l0.3,1.7l0.2,1
	l0.1,0.4L304.8,36.3z"/>
<path class="st17" d="M304.8,38.4c-0.2,0-0.4-0.1-0.4-0.3l0,0l-0.3-1.5l-0.1-0.7l-0.2-1l-0.3-1.7l0,0l-0.3-1.4
	c0-0.2,0.1-0.4,0.3-0.4l0,0h0.1c0.2,0,0.3,0.1,0.3,0.3l0.3,1.4l0,0l0.3,1.7l0.2,1l0,0l0.1,0.4v0.2l0,0l0.3,1.5
	c0.1,0.2,0,0.4-0.1,0.5C304.9,38.4,304.9,38.4,304.8,38.4z"/>
<path class="st12" d="M306.5,36.1c0,0.1-0.1,0.2-0.3,0.2c-0.1,0-0.3,0-0.4-0.1c0,0-0.1-0.1-0.1-0.2l0,0l-0.1-0.5l-0.2-1l-0.3-1.7
	l-0.3-1.4l-0.3-1.7c0-0.2,0.1-0.4,0.3-0.4l0,0h0.1c0.2,0,0.3,0.1,0.3,0.3l0.3,1.7l0.3,1.4l0.3,1.7l0,0l0.2,1l0.1,0.4
	C306.6,35.9,306.6,36,306.5,36.1z"/>
<path class="st17" d="M306.6,38c-0.2,0-0.4-0.1-0.4-0.3l0,0l-0.3-1.5V36l0,0l-0.1-0.5l-0.2-1l-0.3-1.7l-0.3-1.4
	c0-0.2,0.1-0.4,0.3-0.4l0,0h0.1c0.2,0,0.3,0.1,0.3,0.3l0.3,1.4l0.3,1.7l0,0l0.2,1l0.1,0.4V36l0.3,1.5C306.9,37.8,306.8,38,306.6,38z
	"/>
<line class="st16" x1="287.2" y1="37.9" x2="287.4" y2="38.9"/>
<line class="st16" x1="283" y1="39.7" x2="282.8" y2="38.7"/>
<path class="st11" d="M287.5,42.3l-3.2,0.6c-0.3,0.1-0.6-0.1-0.7-0.4c0,0,0,0,0-0.1l-0.3-1.3c-0.1-0.3,0.1-0.6,0.4-0.7
	c0,0,0,0,0.1,0l3.2-0.6c0.3-0.1,0.6,0.1,0.7,0.5c0,0,0,0,0,0.1l0.2,1.3C288.1,41.9,287.8,42.2,287.5,42.3z"/>
<path class="st11" d="M287,39l-3.6,0.7c-0.2,0.1-0.5-0.1-0.5-0.3l0,0v-0.1c-0.1-0.2,0.1-0.5,0.3-0.5l0,0l3.6-0.7
	c0.2-0.1,0.5,0.1,0.5,0.3l0,0v0.1C287.3,38.7,287.2,38.9,287,39L287,39z"/>
<path class="st12" d="M284.8,40.1c0,0.1-0.1,0.2-0.3,0.2c-0.1,0-0.3,0-0.3-0.1c0,0-0.1-0.1-0.1-0.2l0,0l-0.1-0.5l-0.2-1l-0.3-1.7
	l-0.3-1.4l-0.3-1.7c0-0.2,0.1-0.4,0.3-0.4l0,0h0.1c0.2,0,0.3,0.1,0.3,0.3l0.3,1.7l0.3,1.4l0.3,1.7l0.2,1l0.1,0.4
	C284.8,40,284.8,40.1,284.8,40.1z"/>
<path class="st17" d="M284.8,42.1c-0.2,0-0.4-0.1-0.4-0.3l0,0l-0.3-1.5v-0.2l0,0l-0.1-0.5l0,0l-0.2-1l-0.3-1.7l-0.3-1.4
	c-0.1-0.2,0-0.4,0.2-0.5l0,0h0.1c0.2,0,0.3,0.1,0.3,0.3l0.3,1.4l0.3,1.7l0.2,1l0.1,0.4V40l0.3,1.5C285.1,41.8,285,42,284.8,42.1z"/>
<path class="st12" d="M286.5,39.7L286.5,39.7L286.5,39.7c-0.1,0.2-0.2,0.3-0.3,0.3c-0.1,0-0.3,0-0.4-0.1c0,0-0.1-0.1-0.1-0.2l0,0
	l-0.1-0.5l-0.2-1l-0.3-1.7l-0.3-1.4l-0.3-1.7c-0.1-0.2,0.1-0.4,0.3-0.5l0,0h0.1c0.2,0,0.3,0.1,0.3,0.3l0.3,1.7l0.3,1.4l0.3,1.7
	l0.2,1l0.1,0.4L286.5,39.7z"/>
<path class="st17" d="M286.5,41.7c-0.2,0-0.4-0.1-0.4-0.3l0,0l-0.2-1.5v-0.2l0,0l-0.1-0.5l0,0l-0.2-1l-0.3-1.7l-0.3-1.4
	c-0.1-0.2,0-0.4,0.2-0.5l0,0h0.1c0.2,0,0.3,0.1,0.3,0.3l0.3,1.4l0.3,1.7l0.2,1l0.1,0.4v0.2l0,0v0.1l0.3,1.5
	C286.9,41.5,286.8,41.7,286.5,41.7C286.6,41.7,286.5,41.7,286.5,41.7z"/>
<path class="st11" d="M294.2,41l-3.2,0.6c-0.3,0.1-0.6-0.1-0.7-0.4c0,0,0,0,0-0.1l-0.3-1.3c-0.1-0.3,0.1-0.6,0.4-0.7c0,0,0,0,0.1,0
	l3.2-0.6c0.3-0.1,0.6,0.1,0.7,0.4V39l0.3,1.3C294.7,40.7,294.5,41,294.2,41z"/>
<path class="st11" d="M293.7,37.8l-3.6,0.7c-0.2,0-0.5-0.1-0.5-0.3l0,0v-0.1c-0.1-0.2,0.1-0.5,0.3-0.5l0,0l3.6-0.7
	c0.2,0,0.5,0.1,0.5,0.3l0,0v0.1C294.1,37.5,293.9,37.7,293.7,37.8L293.7,37.8z"/>
<path class="st12" d="M291.4,38.9c0,0.1-0.1,0.2-0.3,0.2c-0.1,0-0.3,0-0.3-0.1c0,0-0.1-0.1-0.1-0.2l0,0l-0.1-0.5l-0.2-1l-0.3-1.7
	l-0.3-1.4l-0.3-1.7c0-0.2,0.1-0.4,0.3-0.4l0,0h0.1c0.2,0,0.3,0.1,0.3,0.3l0.3,1.7l0.3,1.4l0.3,1.7l0.2,1l0.1,0.4
	C291.5,38.7,291.5,38.8,291.4,38.9z"/>
<path class="st17" d="M291.5,40.8c-0.2,0-0.4-0.1-0.4-0.3l0,0l-0.3-1.5v-0.2l0,0l-0.1-0.5l-0.2-1l-0.3-1.7l-0.3-1.4
	c0-0.2,0.1-0.4,0.3-0.4l0,0h0.1c0.2,0,0.3,0.1,0.3,0.3l0.3,1.4l0.3,1.7l0.2,1l0.1,0.4v0.2l0.3,1.5C291.8,40.6,291.7,40.8,291.5,40.8
	z"/>
<path class="st12" d="M293.2,38.5L293.2,38.5c-0.1,0.2-0.2,0.3-0.3,0.3c-0.1,0-0.3,0-0.4-0.1c0,0-0.1-0.1-0.1-0.2l0,0l-0.1-0.5
	l-0.2-1l-0.3-1.7l-0.3-1.4l-0.2-1.7c-0.1-0.2,0-0.4,0.2-0.5l0,0h0.1c0.2,0,0.3,0.1,0.3,0.3l0.3,1.7l0.3,1.4l0.3,1.7l0.2,1l0.1,0.5
	L293.2,38.5z"/>
<path class="st17" d="M293.2,40.5c-0.2,0-0.4-0.1-0.4-0.3l0,0l-0.3-1.5v-0.2l0,0l-0.1-0.5l0,0l-0.2-1l-0.3-1.7l-0.3-1.4
	c0-0.2,0.1-0.4,0.3-0.4l0,0h0.1c0.2,0,0.3,0.1,0.3,0.3l0.3,1.4l0.3,1.7l0.2,1l0.1,0.5v0.2l0,0l0,0l0.3,1.5c0.1,0.2,0.1,0.4-0.1,0.5
	C293.3,40.5,293.3,40.5,293.2,40.5z"/>
<line class="st16" x1="273.8" y1="40.2" x2="274" y2="41.3"/>
<line class="st16" x1="269.5" y1="42.1" x2="269.3" y2="41.1"/>
<path class="st11" d="M274,44.6l-3.2,0.6c-0.3,0.1-0.6-0.1-0.7-0.4c0,0,0,0,0-0.1l-0.3-1.3c-0.1-0.3,0.1-0.6,0.4-0.7c0,0,0,0,0.1,0
	l3.2-0.6c0.3-0.1,0.6,0.1,0.7,0.5c0,0,0,0,0,0.1l0.2,1.3C274.6,44.3,274.4,44.6,274,44.6z"/>
<path class="st11" d="M273.5,41.4l-3.6,0.7c-0.2,0-0.5-0.1-0.5-0.3l0,0v-0.1c-0.1-0.2,0.1-0.5,0.3-0.5l0,0l3.6-0.7
	c0.2-0.1,0.5,0.1,0.5,0.3l0,0v0.1C273.9,41.1,273.8,41.3,273.5,41.4C273.6,41.4,273.5,41.4,273.5,41.4z"/>
<path class="st12" d="M271.3,42.3c0,0.1,0,0.1,0,0.2l0,0c0,0.1-0.1,0.2-0.3,0.2c-0.1,0-0.3,0-0.4-0.1c0-0.1-0.1-0.1-0.1-0.2
	l-0.1-0.5l-0.1-1l0,0l-0.3-1.7l-0.3-1.4l-0.3-1.7c0-0.2,0.1-0.4,0.3-0.4l0,0h0.1c0.2,0,0.3,0.1,0.3,0.3l0.3,1.7l0,0l0.3,1.4l0.3,1.7
	l0.2,1L271.3,42.3z"/>
<path class="st17" d="M271.3,44.4c-0.2,0-0.4-0.1-0.4-0.3l0,0l-0.2-1.5l-0.1-0.7l-0.2-1l-0.3-1.7l-0.3-1.4c0-0.2,0.1-0.4,0.3-0.4
	l0,0h0.1c0.2,0,0.3,0.1,0.3,0.3l0,0l0.3,1.4l0.3,1.7l0.2,1l0,0l0.1,0.5v0.2l0.3,1.5C271.7,44.1,271.6,44.4,271.3,44.4
	C271.4,44.4,271.3,44.4,271.3,44.4z"/>
<path class="st12" d="M273.1,42.2c0,0.1-0.1,0.2-0.3,0.2c-0.1,0-0.3,0-0.3-0.1c0,0-0.1-0.1-0.1-0.2l0,0l-0.1-0.5l-0.2-1l-0.3-1.7
	l-0.3-1.4l-0.3-1.7c0-0.2,0.1-0.4,0.3-0.4l0,0h0.1c0.2,0,0.3,0.1,0.3,0.3l0.3,1.7l0.3,1.4l0.3,1.7l0,0l0.2,1l0.1,0.4
	C273.1,42,273.1,42.1,273.1,42.2z"/>
<path class="st17" d="M273.1,44.1c-0.2,0-0.4-0.1-0.4-0.3l0,0l-0.3-1.5v-0.2l0,0l-0.1-0.5l-0.2-1l-0.3-1.7l-0.3-1.4
	c0-0.2,0.1-0.4,0.3-0.4l0,0h0.1c0.2,0,0.3,0.1,0.3,0.3l0.3,1.4l0.3,1.7l0,0l0.2,1l0.1,0.4l0.1,0.2l0.3,1.5
	C273.5,43.8,273.3,44.1,273.1,44.1z"/>
<path class="st11" d="M280.8,43.5l-3.2,0.6c-0.3,0.1-0.6-0.1-0.7-0.4c0,0,0,0,0-0.1l-0.3-1.3c-0.1-0.3,0.1-0.6,0.4-0.7
	c0,0,0,0,0.1,0l3.2-0.7c0.3-0.1,0.6,0.1,0.7,0.5c0,0,0,0,0,0.1l0.2,1.3C281.3,43.1,281.1,43.5,280.8,43.5z"/>
<path class="st11" d="M280.3,40.2l-3.6,0.7c-0.2,0.1-0.5-0.1-0.5-0.3l0,0v-0.1c0-0.2,0.1-0.5,0.3-0.5l0,0l3.6-0.7
	c0.2-0.1,0.5,0.1,0.5,0.3l0,0v0.1C280.7,40,280.5,40.2,280.3,40.2L280.3,40.2z"/>
<path class="st12" d="M278,41.2L278,41.2c-0.1,0.2-0.2,0.3-0.3,0.3c-0.1,0-0.3,0-0.4-0.1c0-0.1-0.1-0.1-0.1-0.2l-0.1-0.5l-0.2-1
	l-0.3-1.7l0,0l-0.3-1.4l-0.3-1.7c0-0.2,0.1-0.4,0.3-0.4l0,0h0.1c0.2,0,0.3,0.1,0.3,0.3l0.3,1.7l0,0l0.3,1.4l0.3,1.7l0.2,1l0.1,0.4
	L278,41.2z"/>
<path class="st17" d="M278,43.2c-0.2,0-0.4-0.1-0.4-0.3l0,0l-0.2-1.5l-0.1-0.7l-0.2-1l-0.3-1.7l0,0l-0.3-1.4
	c-0.1-0.2,0.1-0.4,0.3-0.5l0,0h0.1c0.2,0,0.3,0.1,0.3,0.3l0,0l0.3,1.4l0.3,1.7l0.2,1l0.1,0.4v0.2v0.1l0.3,1.5
	c0.1,0.2,0.1,0.4-0.1,0.5C278.1,43.2,278.1,43.2,278,43.2z"/>
<path class="st12" d="M279.8,41c-0.1,0.2-0.3,0.3-0.5,0.2c-0.1,0-0.1-0.1-0.2-0.1c0,0-0.1-0.1-0.1-0.2l0,0l-0.1-0.5l-0.2-1l-0.3-1.7
	l-0.3-1.4l-0.3-1.7c0-0.2,0.1-0.4,0.3-0.4l0,0h0.1c0.2,0,0.3,0.1,0.3,0.3l0.3,1.7l0.3,1.4l0.3,1.7l0.2,1l0.1,0.4
	C279.8,40.9,279.8,40.9,279.8,41z"/>
<path class="st17" d="M279.8,43c-0.2,0-0.4-0.1-0.4-0.3l0,0l-0.3-1.5V41l0,0l-0.1-0.5l-0.2-1l-0.3-1.7l-0.3-1.4
	c-0.1-0.2,0-0.4,0.2-0.4l0,0h0.1c0.2,0,0.3,0.1,0.3,0.3l0.3,1.4l0.3,1.7l0.2,1l0.1,0.4l0.1,0.3l0.3,1.5
	C280.1,42.7,280,42.9,279.8,43z"/>
<line class="st16" x1="260.4" y1="42.7" x2="260.6" y2="43.8"/>
<path class="st11" d="M260.6,47.1l-3.2,0.6c-0.3,0.1-0.6-0.1-0.7-0.4c0,0,0,0,0-0.1l-0.2-1.4c-0.1-0.3,0.1-0.6,0.4-0.7h0.1l3.2-0.6
	c0.3-0.1,0.6,0.1,0.7,0.4c0,0,0,0,0,0.1l0.2,1.4C261.1,46.7,260.9,47,260.6,47.1z"/>
<path class="st11" d="M260.2,43.9l-3.6,0.7c-0.2,0.1-0.4-0.1-0.5-0.3l0,0v-0.1c0-0.2,0.1-0.5,0.3-0.5l0,0L260,43
	c0.2-0.1,0.4,0.1,0.5,0.3l0,0v0.1C260.6,43.6,260.4,43.8,260.2,43.9L260.2,43.9z"/>
<path class="st12" d="M257.9,45c0,0.1-0.1,0.2-0.3,0.2c-0.1,0-0.3,0-0.4-0.1c0,0-0.1-0.1-0.1-0.2l0,0l-0.1-0.5l-0.2-1l-0.3-1.7
	l-0.3-1.4l-0.3-1.7c-0.1-0.2,0-0.4,0.2-0.5l0,0h0.1c0.2,0,0.3,0.1,0.3,0.3l0.4,1.7l0.3,1.4l0.3,1.7l0,0l0.2,1l0.1,0.4
	C258,44.8,258,44.9,257.9,45z"/>
<path class="st17" d="M257.9,46.9c-0.2,0-0.4-0.1-0.4-0.3l0,0l-0.2-1.5v-0.2l0,0l-0.1-0.5l-0.2-1l-0.3-1.7l-0.3-1.4
	c0-0.2,0.1-0.4,0.3-0.4l0,0h0.1c0.2,0,0.3,0.1,0.3,0.3l0.3,1.4l0.3,1.7l0.2,1l0.1,0.4v0.2l0.3,1.5C258.3,46.7,258.1,46.9,257.9,46.9
	z"/>
<path class="st12" d="M259.7,44.6L259.7,44.6c-0.1,0.2-0.2,0.3-0.4,0.3c-0.1,0-0.3,0-0.3-0.1c0,0-0.1-0.1-0.1-0.2l0,0l-0.1-0.5
	l-0.2-1l-0.3-1.7L258,40l-0.3-1.7c-0.1-0.2,0.1-0.4,0.3-0.5l0,0h0.1c0.2,0,0.3,0.1,0.3,0.3l0.3,1.7l0.3,1.4l0.3,1.7l0.2,1l0.1,0.4
	L259.7,44.6z"/>
<path class="st17" d="M259.6,46.6c-0.2,0-0.4-0.1-0.4-0.3l0,0l-0.2-1.5v-0.2l0,0l-0.1-0.5l0,0l-0.2-1l-0.3-1.7l-0.3-1.4
	c0-0.2,0.1-0.4,0.3-0.4l0,0h0.1c0.2,0,0.3,0.1,0.3,0.3l0.3,1.4l0.3,1.7l0.2,1l0.1,0.4v0.2l0,0l0,0l0.3,1.5c0.1,0.2,0,0.4-0.2,0.5
	C259.8,46.6,259.7,46.6,259.6,46.6z"/>
<path class="st11" d="M267.3,45.9l-3.2,0.6c-0.3,0.1-0.6-0.1-0.7-0.4c0,0,0,0,0-0.1l-0.2-1.4c-0.1-0.3,0.1-0.6,0.4-0.7h0.1l3.2-0.6
	c0.3-0.1,0.6,0.1,0.7,0.4c0,0,0,0,0,0.1l0.2,1.4C267.8,45.5,267.6,45.8,267.3,45.9z"/>
<path class="st11" d="M266.9,42.6l-3.6,0.7c-0.2,0.1-0.4-0.1-0.5-0.3l0,0v-0.1c-0.1-0.2,0.1-0.4,0.3-0.5l0,0l3.6-0.7
	c0.2,0,0.5,0.1,0.5,0.3l0,0v0.1C267.3,42.3,267.2,42.5,266.9,42.6L266.9,42.6z"/>
<path class="st12" d="M264.6,43.7c0,0.1-0.1,0.2-0.3,0.3c-0.1,0-0.3,0-0.4-0.1l-0.1-0.1l0,0l-0.1-0.5l-0.2-1l-0.3-1.7l-0.3-1.4
	l-0.3-1.7c-0.1-0.2,0.1-0.4,0.2-0.4c0,0,0,0,0.1,0h0.1c0.2,0,0.3,0.1,0.3,0.3l0.3,1.7l0.3,1.4l0.3,1.7l0.2,1L264.6,43.7
	C264.7,43.5,264.7,43.6,264.6,43.7z"/>
<path class="st17" d="M264.6,45.7c-0.2,0-0.4-0.1-0.4-0.3l0,0l-0.3-1.5v-0.2l0,0l-0.1-0.5l-0.2-1l-0.3-1.7l-0.3-1.4
	c-0.1-0.2,0-0.4,0.2-0.4l0,0h0.1c0.2,0,0.3,0.1,0.3,0.3l0.3,1.4l0.3,1.7l0.2,1l0.1,0.4v0.2l0.3,1.5
	C264.9,45.4,264.8,45.6,264.6,45.7L264.6,45.7z"/>
<path class="st12" d="M266.4,43.3L266.4,43.3c-0.1,0.2-0.2,0.3-0.3,0.3c-0.1,0-0.3,0-0.4-0.1c0,0-0.1-0.1-0.1-0.2l0,0l-0.1-0.5
	l-0.2-1l-0.3-1.7l-0.3-1.4l-0.3-1.7c-0.1-0.2,0-0.4,0.2-0.5l0,0h0.1c0.2,0,0.3,0.1,0.3,0.3l0.3,1.7l0.3,1.4l0.3,1.7l0.2,1l0.1,0.4
	L266.4,43.3z"/>
<path class="st17" d="M266.3,45.3c-0.2,0.1-0.4,0-0.4-0.2l0,0l-0.3-1.5v-0.2l0,0l-0.1-0.5l0,0l-0.2-1l-0.3-1.7l-0.3-1.4
	c-0.1-0.2,0-0.4,0.2-0.5l0,0h0.1c0.2,0,0.3,0.1,0.3,0.3l0.3,1.4l0.3,1.7l0.2,1l0.1,0.4v0.2l0,0l0,0l0.3,1.5
	C266.7,45,266.6,45.2,266.3,45.3C266.4,45.3,266.3,45.3,266.3,45.3z"/>
<line class="st16" x1="242.6" y1="47.1" x2="242.4" y2="46"/>
<line class="st16" x1="246.8" y1="45.2" x2="247" y2="46.3"/>
<path class="st11" d="M247.1,49.6l-3.2,0.6c-0.3,0.1-0.6-0.1-0.7-0.4c0,0,0,0,0-0.1l-0.2-1.4c-0.1-0.3,0.1-0.6,0.4-0.7h0.1l3.2-0.6
	c0.3-0.1,0.6,0.1,0.7,0.4c0,0,0,0,0,0.1l0.2,1.4C247.6,49.2,247.4,49.5,247.1,49.6z"/>
<path class="st11" d="M246.5,46.3l-3.6,0.7c-0.2,0.1-0.5-0.1-0.5-0.3l0,0v-0.1c0-0.2,0.1-0.5,0.3-0.5l0,0l3.6-0.7
	c0.2,0,0.5,0.1,0.5,0.3l0,0v0.1C247,46.1,246.8,46.3,246.5,46.3C246.6,46.3,246.6,46.3,246.5,46.3z"/>
<path class="st12" d="M244.3,47.4L244.3,47.4L244.3,47.4c-0.1,0.2-0.2,0.3-0.3,0.3s-0.3,0-0.4-0.1c0,0-0.1-0.1-0.1-0.2l-0.1-0.5
	l-0.2-1l-0.3-1.7l-0.3-1.4l0,0l-0.3-1.7c-0.1-0.2,0-0.4,0.2-0.4l0,0h0.1c0.2,0,0.3,0.1,0.3,0.3l0.3,1.7l0,0l0.3,1.4l0.3,1.8l0.2,1
	l0.1,0.4C244.3,47.3,244.3,47.3,244.3,47.4z"/>
<path class="st17" d="M244.3,49.4c-0.2,0.1-0.4-0.1-0.4-0.2c0,0,0,0,0-0.1l-0.2-1.5v-0.2l-0.1-0.5l-0.2-1l-0.3-1.8l-0.3-1.4l0,0
	c0-0.2,0.1-0.4,0.3-0.4h0.1c0.2,0,0.3,0.1,0.3,0.3l0,0l0.4,1.4l0.3,1.7l0.2,1l0.1,0.6l0,0l0,0l0.3,1.5c0.1,0.2,0,0.4-0.1,0.5
	C244.4,49.4,244.4,49.4,244.3,49.4z"/>
<path class="st12" d="M246.1,47.1c0,0.1-0.1,0.2-0.3,0.2c-0.1,0-0.3,0-0.4-0.1c0,0-0.1-0.1-0.1-0.2l0,0l-0.1-0.5l-0.2-1l-0.3-1.7
	l-0.3-1.4l-0.3-1.7c-0.1-0.2,0.1-0.4,0.3-0.5l0,0h0.1c0.2,0,0.3,0.1,0.3,0.3l0.3,1.7l0,0l0.3,1.4l0.3,1.7l0.2,1l0.1,0.4
	C246.1,46.9,246.1,47,246.1,47.1z"/>
<path class="st17" d="M246.1,49.1c-0.2,0-0.4-0.1-0.4-0.3l0,0l-0.3-1.5v-0.2l0,0l-0.1-0.5l-0.2-1l-0.3-1.7l-0.3-1.4
	c-0.1-0.2,0-0.4,0.2-0.5l0,0h0.1c0.2,0,0.3,0.1,0.3,0.3l0,0l0.3,1.4l0.3,1.7l0.2,1l0.1,0.4l0.1,0.3l0.3,1.5
	C246.4,48.7,246.4,49,246.1,49.1L246.1,49.1z"/>
<path class="st11" d="M253.8,48.4l-3.2,0.6c-0.3,0.1-0.6-0.1-0.7-0.4c0,0,0,0,0-0.1l-0.2-1.3c-0.1-0.3,0.1-0.6,0.4-0.7
	c0,0,0,0,0.1,0l3.2-0.6c0.3-0.1,0.6,0.1,0.7,0.4c0,0,0,0,0,0.1l0.2,1.4C254.3,48,254.1,48.3,253.8,48.4z"/>
<path class="st11" d="M253.3,45.1l-3.6,0.7c-0.2,0.1-0.5-0.1-0.5-0.3l0,0v-0.1c0-0.2,0.1-0.5,0.3-0.5l0,0l3.6-0.7
	c0.2-0.1,0.5,0.1,0.5,0.3l0,0v0.1C253.7,44.8,253.6,45,253.3,45.1C253.4,45.1,253.4,45.1,253.3,45.1z"/>
<path class="st12" d="M251,46.2c0,0.1-0.1,0.2-0.3,0.2c-0.1,0-0.3,0-0.4-0.1c0,0-0.1-0.1-0.1-0.2l0,0l-0.1-0.5l-0.2-1l-0.3-1.7
	l-0.3-1.4l-0.3-1.7c0-0.2,0.1-0.4,0.3-0.4l0,0h0.1c0.2,0,0.3,0.1,0.3,0.3l0.3,1.7l0.3,1.4l0.3,1.7l0.2,1l0.1,0.4
	C251.1,46,251.1,46.1,251,46.2z"/>
<path class="st17" d="M251.1,48.2c-0.2,0.1-0.4,0-0.5-0.2l0,0l-0.2-1.5v-0.2l0,0l-0.1-0.5l-0.2-1l-0.3-1.7l-0.3-1.4
	c0-0.2,0.1-0.4,0.3-0.4l0,0h0.1c0.2,0,0.3,0.1,0.3,0.3l0.3,1.4l0.3,1.7l0.2,1l0.1,0.4l0.1,0.2l0.3,1.5
	C251.4,47.9,251.3,48.1,251.1,48.2z"/>
<path class="st12" d="M252.8,45.8L252.8,45.8c-0.1,0.2-0.2,0.3-0.3,0.3c-0.1,0-0.3,0-0.4-0.1c0,0-0.1-0.1-0.1-0.2l0,0l-0.1-0.5
	l-0.2-1l-0.3-1.7l-0.3-1.4l-0.3-1.7c-0.1-0.2,0-0.4,0.2-0.5l0,0h0.1c0.2,0,0.3,0.1,0.3,0.3l0.4,1.8l0,0l0.3,1.4l0.3,1.7l0,0l0.2,1
	l0.1,0.4L252.8,45.8z"/>
<path class="st17" d="M252.8,47.8c-0.2,0-0.4-0.1-0.4-0.3l0,0l-0.3-1.5v-0.2l0,0l-0.1-0.5l0,0l-0.2-1l-0.3-1.7l-0.3-1.4
	c0-0.2,0.1-0.4,0.3-0.4l0,0h0.1c0.2,0,0.3,0.1,0.3,0.3l0,0l0.3,1.4l0.3,1.7l0,0l0.2,1l0.1,0.4v0.2v0.1l0.3,1.5
	C253.2,47.6,253.1,47.8,252.8,47.8C252.9,47.8,252.9,47.8,252.8,47.8z"/>
<line class="st16" x1="233.5" y1="47.6" x2="233.7" y2="48.6"/>
<line class="st16" x1="229.2" y1="49.4" x2="229" y2="48.4"/>
<path class="st11" d="M233.7,52l-3.2,0.6c-0.3,0.1-0.6-0.1-0.7-0.4v-0.1l-0.2-1.4c-0.1-0.3,0.1-0.6,0.4-0.7h0.1l3.2-0.6
	c0.3-0.1,0.6,0.1,0.7,0.4c0,0,0,0,0,0.1l0.2,1.4C234.3,51.6,234,51.9,233.7,52L233.7,52z"/>
<path class="st11" d="M233.2,48.7l-3.6,0.7c-0.2,0-0.5-0.1-0.5-0.3l0,0V49c0-0.2,0.1-0.5,0.3-0.5l0,0l3.6-0.7c0.2,0,0.5,0.1,0.5,0.3
	l0,0v0.1C233.6,48.4,233.5,48.6,233.2,48.7L233.2,48.7z"/>
<path class="st12" d="M231,49.7L231,49.7L231,49.7c-0.1,0.1-0.2,0.2-0.3,0.3c-0.1,0-0.3,0-0.4-0.1l-0.1-0.1l-0.1-0.5l-0.2-1
	l-0.3-1.7l0,0l-0.3-1.4l-0.3-1.7c-0.1-0.2,0-0.4,0.2-0.4l0,0h0.1c0.2,0,0.3,0.1,0.3,0.3l0.3,1.7l0.3,1.4l0.3,1.7l0.2,1l0.1,0.4
	L231,49.7z"/>
<path class="st17" d="M231,51.8c-0.2,0-0.4-0.1-0.4-0.3l0,0l-0.2-1.5v-0.2l-0.1-0.5l-0.2-1l-0.4-1.7l-0.3-1.4
	c-0.1-0.2,0-0.4,0.2-0.4l0,0h0.1c0.2,0,0.3,0.1,0.3,0.3l0.3,1.4l0.3,1.7l0.2,1l0.1,0.4v0.2l0,0l0,0l0.3,1.5c0.1,0.1,0.1,0.4,0,0.5
	C231.1,51.7,231.1,51.8,231,51.8z"/>
<path class="st12" d="M232.8,49.3c0,0.1,0,0.1,0,0.2c0,0.1-0.1,0.2-0.3,0.2c-0.1,0-0.3,0-0.4-0.1c0-0.1-0.1-0.1-0.1-0.2l-0.1-0.5
	l-0.2-1l-0.3-1.7l-0.3-1.4l0,0l-0.3-1.7c0-0.2,0.1-0.4,0.3-0.4l0,0h0.1c0.2,0,0.3,0.1,0.3,0.3l0.3,1.7l0,0l0.3,1.4l0.3,1.7l0.2,1
	L232.8,49.3L232.8,49.3z"/>
<path class="st17" d="M232.8,51.4c-0.2,0-0.4-0.1-0.4-0.3l0,0l-0.3-1.5l-0.1-0.7l-0.2-1l-0.3-1.7l0,0l-0.3-1.4l0,0
	c-0.1-0.2,0-0.4,0.2-0.5l0,0h0.1c0.2,0,0.3,0.1,0.3,0.3l0,0l0.3,1.4l0.3,1.7l0.2,1l0.1,0.4l0,0v0.2l0.3,1.5
	C233.1,51.1,233,51.3,232.8,51.4z"/>
<path class="st11" d="M240.5,50.7l-3.2,0.6c-0.3,0.1-0.6-0.1-0.7-0.4c0,0,0,0,0-0.1l-0.2-1.4c-0.1-0.3,0.1-0.6,0.4-0.7
	c0,0,0,0,0.1,0l3.2-0.6c0.3-0.1,0.6,0.1,0.7,0.4c0,0,0,0,0,0.1l0.3,1.3C241,50.3,240.8,50.6,240.5,50.7z"/>
<path class="st11" d="M239.9,47.5l-3.6,0.7c-0.2,0-0.5-0.1-0.5-0.3l0,0v-0.1c0-0.2,0.1-0.5,0.3-0.5l0,0l3.6-0.7
	c0.2,0,0.5,0.1,0.5,0.3l0,0V47C240.3,47.2,240.2,47.4,239.9,47.5L239.9,47.5z"/>
<path class="st12" d="M237.7,48.5L237.7,48.5L237.7,48.5c-0.1,0.2-0.2,0.3-0.3,0.3s-0.3,0-0.4-0.1c0,0-0.1-0.1-0.1-0.2l0,0l-0.1-0.5
	l-0.2-1l-0.3-1.7l-0.3-1.4l-0.3-1.7c0-0.2,0.1-0.4,0.3-0.4l0,0h0.1c0.2,0,0.3,0.1,0.3,0.3l0.3,1.7l0.3,1.4l0.3,1.7l0.2,1l0.1,0.4
	L237.7,48.5z"/>
<path class="st17" d="M237.7,50.5c-0.2,0-0.4-0.1-0.4-0.3l0,0l-0.2-1.5v-0.2l0,0L237,48l0,0l-0.2-1l-0.3-1.7l-0.3-1.4
	c-0.1-0.2,0-0.4,0.2-0.5l0,0h0.1c0.2,0,0.3,0.1,0.3,0.3l0.3,1.4l0.3,1.7l0.2,1l0.1,0.4v0.2l0,0l0,0l0.3,1.5c0.1,0.2,0,0.4-0.1,0.5
	C237.8,50.5,237.7,50.5,237.7,50.5z"/>
<path class="st12" d="M239.4,48.2c0,0.1-0.1,0.2-0.3,0.2c-0.1,0-0.3,0-0.3-0.1c0,0-0.1-0.1-0.1-0.2l-0.1-0.5l-0.2-1l-0.3-1.7
	l-0.3-1.4l-0.3-1.7c0-0.2,0.1-0.4,0.3-0.4l0,0h0.1c0.2,0,0.3,0.1,0.3,0.3l0.3,1.7l0,0l0.3,1.4l0,0l0.3,1.7l0.2,1l0,0l0.1,0.5
	C239.4,48.1,239.4,48.2,239.4,48.2z"/>
<path class="st17" d="M239.5,50.2c-0.2,0-0.4-0.1-0.4-0.3l0,0l-0.2-1.5v-0.2l-0.1-0.5l-0.2-1l-0.3-1.7l-0.3-1.4
	c-0.1-0.2,0-0.4,0.2-0.4l0,0h0.1c0.2,0,0.3,0.1,0.3,0.3l0,0l0.3,1.4l0,0l0.3,1.7l0.2,1l0,0l0.1,0.5v0.2l0.3,1.5
	c0.1,0.2,0,0.4-0.2,0.5C239.5,50.2,239.5,50.2,239.5,50.2z"/>
<line class="st16" x1="215.8" y1="51.9" x2="215.6" y2="50.9"/>
<line class="st16" x1="220" y1="50" x2="220.2" y2="51.1"/>
<path class="st11" d="M220.3,54.4l-3.2,0.6c-0.3,0.1-0.6-0.1-0.7-0.4v-0.1l-0.3-1.3c-0.1-0.3,0.1-0.6,0.5-0.7c0,0,0,0,0.1,0l3.2-0.6
	c0.3-0.1,0.6,0.1,0.7,0.4v0.1l0.3,1.3C220.8,54,220.6,54.4,220.3,54.4z"/>
<path class="st11" d="M219.8,51.2l-3.6,0.7c-0.2,0-0.5-0.1-0.5-0.3l0,0v-0.1c-0.1-0.2,0.1-0.5,0.3-0.5l0,0l3.6-0.7
	c0.2,0,0.5,0.1,0.5,0.3l0,0v0.1C220.2,50.9,220,51.1,219.8,51.2L219.8,51.2z"/>
<path class="st12" d="M217.5,52.2C217.5,52.2,217.5,52.3,217.5,52.2c-0.1,0.2-0.2,0.3-0.3,0.3s-0.3,0-0.3-0.1c0,0-0.1-0.1-0.1-0.2
	l-0.1-0.5l-0.2-1l-0.3-1.7l-0.3-1.4l0,0l-0.3-1.7c0-0.2,0.1-0.4,0.3-0.4l0,0h0.1c0.2,0,0.3,0.1,0.3,0.3l0.3,1.7l0,0l0.3,1.4l0.3,1.8
	l0.2,1L217.5,52.2L217.5,52.2z"/>
<path class="st17" d="M217.5,54.3c-0.2,0-0.4-0.1-0.4-0.2c0,0,0,0,0-0.1l-0.2-1.5v-0.2l-0.1-0.5l-0.2-1l-0.3-1.7l-0.3-1.4l0,0
	c0-0.2,0.1-0.4,0.3-0.4h0.1c0.2,0,0.3,0.1,0.3,0.3l0,0L217,49l0.3,1.7l0.2,1l0.1,0.4v0.2l0,0l0.3,1.5c0.1,0.2,0,0.4-0.2,0.4
	C217.6,54.2,217.6,54.2,217.5,54.3z"/>
<path class="st12" d="M219.3,52c0,0.1-0.1,0.2-0.3,0.2c-0.1,0-0.3,0-0.4-0.1c0-0.1-0.1-0.1-0.1-0.2l-0.1-0.5l-0.2-1l-0.3-1.7
	l-0.3-1.4l-0.3-1.7c0-0.2,0.1-0.4,0.3-0.4l0,0h0.1c0.2,0,0.3,0.1,0.3,0.3l0.3,1.7l0,0l0.3,1.4l0.3,1.7l0.2,1l0.1,0.4
	C219.3,51.8,219.3,51.9,219.3,52z"/>
<path class="st17" d="M219.3,53.9c-0.2,0-0.4-0.1-0.4-0.3l0,0l-0.2-1.5v-0.2l-0.1-0.5l-0.2-1l-0.3-1.7l0,0l-0.3-1.4
	c0-0.2,0.1-0.4,0.3-0.4l0,0h0.1c0.2,0,0.3,0.1,0.3,0.3l0,0l0.3,1.4l0.3,1.7l0.2,1l0.1,0.4l0.1,0.2l0.3,1.5
	C219.7,53.6,219.6,53.8,219.3,53.9L219.3,53.9z"/>
<path class="st11" d="M227,53.2l-3.2,0.6c-0.3,0.1-0.6-0.1-0.7-0.4c0,0,0,0,0-0.1l-0.2-1.4c-0.1-0.3,0.1-0.6,0.4-0.7c0,0,0,0,0.1,0
	l3.2-0.6c0.3-0.1,0.6,0.1,0.7,0.4v0.1l0.3,1.3C227.6,52.8,227.4,53.1,227,53.2z"/>
<path class="st11" d="M226.4,50l-3.6,0.7c-0.2,0-0.5-0.1-0.5-0.3l0,0v-0.1c0-0.2,0.1-0.5,0.3-0.5l0,0l3.6-0.7c0.2,0,0.5,0.1,0.5,0.3
	l0,0v0.1C226.8,49.7,226.7,49.9,226.4,50C226.5,50,226.5,50,226.4,50z"/>
<path class="st12" d="M224.2,51c0,0.1-0.1,0.2-0.3,0.2c-0.1,0-0.3,0-0.4-0.1c0,0-0.1-0.1-0.1-0.2l0,0l-0.1-0.5l-0.2-1l-0.3-1.7
	l-0.3-1.4l-0.3-1.7c-0.1-0.2,0-0.4,0.2-0.5l0,0h0.1c0.2,0,0.3,0.1,0.3,0.3l0.3,1.7l0.3,1.4l0.3,1.7l0.2,1l0.1,0.4
	C224.3,50.9,224.3,51,224.2,51z"/>
<path class="st17" d="M224.3,53c-0.2,0-0.4-0.1-0.4-0.3l0,0l-0.3-1.5V51l0,0l-0.1-0.5l-0.2-1l-0.3-1.7l-0.3-1.4
	c-0.1-0.2,0-0.4,0.2-0.5l0,0h0.1c0.2,0,0.3,0.1,0.3,0.3l0.3,1.4l0.3,1.7l0.2,1l0.1,0.4v0.2l0.3,1.5C224.6,52.7,224.5,52.9,224.3,53z
	"/>
<path class="st12" d="M226,50.7L226,50.7c-0.1,0.2-0.2,0.3-0.3,0.3s-0.3,0-0.4-0.1c0,0-0.1-0.1-0.1-0.2l0,0l-0.1-0.5l-0.2-1
	l-0.3-1.7l-0.3-1.4l-0.3-1.6c-0.1-0.2,0.1-0.4,0.3-0.5l0,0h0.1c0.2,0,0.3,0.1,0.3,0.3L225,46l0,0l0.3,1.4l0.3,1.7l0,0l0.2,1l0.1,0.4
	L226,50.7z"/>
<path class="st17" d="M226,52.7c-0.2,0-0.4-0.1-0.4-0.3l0,0l-0.3-1.5v-0.2l0,0l-0.1-0.5l0,0l-0.2-1l-0.3-1.7l-0.3-1.4
	c0-0.2,0.1-0.4,0.3-0.4l0,0h0.1c0.2,0,0.3,0.1,0.3,0.3l0,0l0.3,1.4l0,0l0.3,1.7l0,0l0.2,1l0.1,0.4v0.2l0,0l0.3,1.5
	c0.1,0.1,0.1,0.4,0,0.5C226.2,52.7,226.1,52.7,226,52.7z"/>
<path class="st11" d="M213.7,55.7l-3.2,0.6c-0.3,0.1-0.6-0.1-0.7-0.4c0,0,0,0,0-0.1l-0.3-1.3c-0.1-0.3,0.1-0.6,0.4-0.7
	c0,0,0,0,0.1,0l3.2-0.6c0.3-0.1,0.6,0.1,0.7,0.5c0,0,0,0,0,0.1l0.2,1.3C214.2,55.3,214,55.6,213.7,55.7z"/>
<path class="st11" d="M213.1,52.4l-3.6,0.7c-0.2,0.1-0.5-0.1-0.5-0.3l0,0v-0.1c-0.1-0.2,0.1-0.5,0.3-0.5l0,0l3.6-0.7
	c0.2-0.1,0.5,0.1,0.5,0.3l0,0v0.1C213.5,52.1,213.4,52.3,213.1,52.4L213.1,52.4z"/>
<path class="st12" d="M210.9,53.4L210.9,53.4c-0.1,0.2-0.2,0.3-0.3,0.3s-0.3,0-0.3-0.1c0,0-0.1-0.1-0.1-0.2l0,0l-0.1-0.5l-0.2-1
	l-0.3-1.7l-0.3-1.4l-0.3-1.7c-0.1-0.2,0-0.4,0.2-0.5l0,0h0.1c0.2,0,0.3,0.1,0.3,0.3l0.3,1.7l0.3,1.4l0.4,1.8l0.2,1l0.1,0.4
	L210.9,53.4z"/>
<path class="st17" d="M210.9,55.5c-0.2,0-0.4-0.1-0.4-0.3l0,0l-0.3-1.5v-0.2l0,0l-0.1-0.5l0,0l-0.2-1l-0.3-1.7l-0.3-1.4
	c-0.1-0.2,0-0.4,0.2-0.5l0,0h0.1c0.2,0,0.3,0.1,0.3,0.3l0.3,1.4l0.3,1.7l0.2,1l0.1,0.4v0.2l0,0l0,0l0.3,1.5c0.1,0.2,0.1,0.4-0.1,0.5
	C211.1,55.5,211,55.5,210.9,55.5z"/>
<path class="st12" d="M212.7,53c0,0.1,0,0.1,0,0.2c0,0.1-0.1,0.2-0.3,0.2c-0.1,0-0.3,0-0.4-0.1c0,0-0.1-0.1-0.1-0.2l-0.1-0.5l-0.2-1
	l-0.3-1.7l-0.3-1.4l-0.3-1.7c0-0.2,0.1-0.4,0.3-0.4l0,0h0.1c0.2,0,0.3,0.1,0.3,0.3l0.3,1.7l0,0l0.3,1.4l0.3,1.7l0.2,1l0,0L212.7,53z
	"/>
<path class="st17" d="M212.7,55.2c-0.2,0-0.4-0.1-0.4-0.3l0,0l-0.2-1.5v-0.2l-0.1-0.5l-0.2-1l-0.3-1.7l-0.3-1.4
	c0-0.2,0.1-0.4,0.3-0.4l0,0h0.1c0.2,0,0.3,0.1,0.3,0.3l0,0l0.3,1.4l0.3,1.7l0.2,1l0,0l0.1,0.5v0.2l0.3,1.5
	C213.1,54.9,212.9,55.1,212.7,55.2C212.7,55.1,212.7,55.1,212.7,55.2z"/>
<ellipse transform="matrix(0.9839 -0.1789 0.1789 0.9839 -1.0418 62.5486)" class="st18" cx="346.3" cy="37.1" rx="1.9" ry="1.6"/>
<ellipse transform="matrix(0.9839 -0.1789 0.1789 0.9839 -1.1656 62.5777)" class="st19" cx="346.4" cy="37.8" rx="1.7" ry="1.4"/>
<ellipse transform="matrix(0.9839 -0.1789 0.1789 0.9839 -1.2531 62.6036)" class="st12" cx="346.5" cy="38.3" rx="1.7" ry="1.4"/>
<ellipse transform="matrix(0.9839 -0.1789 0.1789 0.9839 -3.9571 52.0461)" class="st18" cx="286.6" cy="48" rx="1.9" ry="1.6"/>
<ellipse transform="matrix(0.9839 -0.1789 0.1789 0.9839 -4.0743 52.1109)" class="st19" cx="286.9" cy="48.6" rx="1.7" ry="1.4"/>
<ellipse transform="matrix(0.9839 -0.1789 0.1789 0.9839 -4.1666 52.1194)" class="st12" cx="286.9" cy="49.2" rx="1.7" ry="1.4"/>
<ellipse transform="matrix(0.9839 -0.1789 0.1789 0.9839 -6.85 41.5566)" class="st18" cx="227" cy="58.8" rx="1.9" ry="1.6"/>
<ellipse transform="matrix(0.9839 -0.1789 0.1789 0.9839 -6.9736 41.5857)" class="st19" cx="227.1" cy="59.5" rx="1.7" ry="1.4"/>
<ellipse transform="matrix(0.9839 -0.1789 0.1789 0.9839 -7.0612 41.6115)" class="st12" cx="227.2" cy="60" rx="1.7" ry="1.4"/>
<rect x="395.2" y="36.3" transform="matrix(0.1725 -0.985 0.985 0.1725 298.3526 433.9343)" class="st20" width="24.5" height="6.2"/>
<rect x="370.5" y="76.3" transform="matrix(0.1725 -0.985 0.985 0.1725 253.9076 459.6012)" class="st20" width="59.9" height="4.8"/>
<g>
	
		<rect x="128.5" y="111.9" transform="matrix(0.9813 -0.1926 0.1926 0.9813 -34.0591 35.6329)" class="st21" width="75.5" height="162.3"/>
	<path d="M178.7,103l-58.2,11.4c-7,1.4-11.5,8.1-10.2,15.1L138.5,273c1.4,7,8.1,11.5,15.1,10.2l58.2-11.4c7-1.4,11.5-8.1,10.2-15.1
		l-28.1-143.5C192.5,106.2,185.7,101.6,178.7,103z M217.2,256.7c1,4.9-2.2,9.6-7.1,10.5l-56.6,11.1c-4.9,1-9.6-2.2-10.5-7.1
		l-27.8-141.4c-1-4.9,2.2-9.6,7.1-10.5l7.9-1.5l0.2,1.1c0.5,2.7,3.2,4.5,5.9,4l31-6.1c2.7-0.5,4.5-3.2,4-5.9l-0.2-1.1l7.9-1.5
		c4.9-1,9.6,2.2,10.5,7.1L217.2,256.7z"/>
	<g>
		<path class="st21" d="M170.1,171.3c4-0.8,6.1-1.2,8.4-0.9c2.5,0.4,4.8,1.9,6.1,4.1c1.1,2.1,1.5,4.1,2.3,8.2l2.4,12.2
			c0.8,4.1,1.2,6.1,0.9,8.4c-0.4,2.5-1.9,4.8-4.1,6.1c-2.1,1.1-4.1,1.5-8.1,2.3l-12.3,2.4c-4.1,0.8-6.1,1.2-8.4,0.9
			c-2.5-0.4-4.8-1.9-6.1-4.1c-1.1-2.1-1.5-4.1-2.3-8.2l-2.4-12.3c-0.8-4.1-1.2-6.1-0.9-8.4c0.4-2.5,1.9-4.8,4.1-6.1
			c2.1-1.1,4.1-1.5,8.1-2.3C157.8,173.7,170.1,171.3,170.1,171.3z"/>
		<path class="st22" d="M173.5,186.3c0.4,0.3,0.9,0.2,1.1-0.2l1.3-2c0.3-0.4,0.1-0.9-0.3-1.2c-1.5-0.8-3.1-1.4-4.7-1.6v-2.5
			c0-0.5-0.5-1-1-0.9l-3.1,0.6c-0.4,0.1-0.7,0.4-0.7,0.8v2.2c-4,1-7.1,3.8-6.2,8c0.7,3.7,3.9,4.7,7.1,5.2c3.1,0.5,4.7,0.6,5,2.2
			c0.3,1.6-1,2.8-3.2,3.2c-2,0.4-4.3,0.1-6.2-1.2c-0.4-0.3-0.9-0.2-1.2,0.2l0,0l-1.4,2c-0.3,0.4-0.2,0.9,0.2,1.2
			c1.6,1,3.5,1.7,5.5,1.8v2.3c0,0.5,0.5,1,1,0.9l3.1-0.6c0.4-0.1,0.7-0.4,0.7-0.8v-2.2c4.8-1.3,7.3-4.6,6.5-8.5
			c-0.7-3.6-4-4.6-7.8-5.1c-2.2-0.4-4.1-0.5-4.4-2.1c-0.3-1.5,1.2-2.5,2.9-2.8C169.8,184.8,172,185.3,173.5,186.3L173.5,186.3z"/>
	</g>
</g>
<g class="st23">
	<ellipse class="st2" cx="439.8" cy="155.4" rx="40.1" ry="40.9"/>
	<path class="st2" d="M478.9,146.7l10.6-3.6c0,0,1.2-0.5,2.2-2.1c0.9-1.6-13.1,4.9-13.1,4.9L478.9,146.7z"/>
</g>
<g>
	<circle class="st24" cx="439.7" cy="154.1" r="39.7"/>
	<circle class="st25" cx="439.7" cy="154.1" r="32.4"/>
	<path class="st26" d="M448.4,179.3c-3.4,1.2-5.8-1.2-10.1,0c-6.3,1.8-12.4,0.4-16.8-3.3c-3.6-3-5.4-8.4-7-13.2
		c-4.8-13.9,2.6-29.1,16.5-33.9c4.3-1.5,5.3,7.1,9.5,11.6c2.4,2.4,10.2-1.2,12,0.3c5.2,4.5,9.8-2.6,12.4,4.7
		c2.2,6.4-0.7,10-0.9,16.3C463.8,170.3,455.9,176.7,448.4,179.3z"/>
	<path class="st24" d="M492.6,135.4l-0.2-0.6c-1.1-3-4.4-4.7-7.4-3.6l-11.3,3.9c-0.6,0.2-0.9,0.9-0.7,1.5l3.3,9.5
		c0.2,0.6,0.9,0.9,1.5,0.7l11.3-3.9C492,141.7,493.7,138.4,492.6,135.4z"/>
</g>
<path class="st27" d="M689.3,170"/>
<path class="st27" d="M709.4,177"/>
<g>
	<path class="st3" d="M642.6,343.2h197c8.1,0,14.6-6.5,14.6-14.6v-127c0-0.5-0.4-0.9-0.9-0.9H626.7c-0.5,0-0.9,0.4-0.9,0.9v124.8
		C625.8,335.7,633.3,343.2,642.6,343.2z"/>
	<path class="st4" d="M643.8,342.1h181.9c0.5,0,0.9-0.4,0.9-0.9V200.4c0-0.5-0.4-0.9-0.9-0.9H627.8c-0.5,0-0.9,0.4-0.9,0.9v124.8
		C627,334.6,634.5,342.1,643.8,342.1z"/>
	<path class="st3" d="M639,195.9L639,195.9c-0.9,0-1.7,0.8-1.7,1.7v138.1c0,3.7,3.1,6.7,6.8,6.4c0.1,0,0.1,0,0.2,0"/>
	<path class="st5" d="M837.5,342.1H644.3c-3.4,0-6.2-2.8-6.2-6.2V196.7c0-0.5,0.4-0.9,0.9-0.9h214.5c0.5,0,0.9,0.4,0.9,0.9v128.5
		C854.3,334.5,846.8,342.1,837.5,342.1z"/>
	<path class="st6" d="M678.1,205c0-1.7-1.7-2.2-3-2.2v0.3c0.8,0,1.4,0.3,1.4,0.9c0,0.3-0.3,0.9-1,0.9c-0.6,0-1.9-0.3-2.9-0.7
		c-1.1-0.4-2.2-0.8-3-0.8c-1.7,0-3,1.3-3,2.8c0,1.3,1,1.7,1.3,1.9l0.1-0.2c-0.2-0.2-0.4-0.3-0.4-0.9c0-0.3,0.3-1,1.2-1
		c0.8,0,1.8,0.3,3.2,0.8c1.2,0.3,2.5,0.6,3.2,0.7v2.7l-1.3,1.1v0.1l1.3,1.1v3.7c-0.7,0.4-1.5,0.5-2.2,0.5c-1.3,0-2.4-0.3-3.4-1.4
		l3.6-1.7v-6l-4.4,1.9c0.3-1.1,1.3-1.9,2.3-2.4l-0.1-0.3c-2.6,0.7-5,3.1-5,6.1c0,3.5,2.9,6.1,6.1,6.1c3.5,0,5.8-2.8,5.8-5.7h-0.2
		c-0.5,1.1-1.3,2.2-2.3,2.7v-3.6l1.4-1.1v-0.1l-1.4-1.1v-2.7C676.7,207.6,678.1,206.7,678.1,205z M670.5,214.6l-1,0.5
		c-0.6-0.8-1-1.8-1-3.3c0-0.6,0-1.3,0.2-1.8l1.8-0.8V214.6z M679.7,216.6l-1.1,0.9l0.2,0.2l0.5-0.4l1.9,1.7l2.6-1.7l-0.1-0.2
		l-0.7,0.4l-0.9-0.9v-5.9l0.7-0.5l1.5,1.2v5.3c0,3.3-0.7,3.8-2.2,4.4v0.3c2.4,0.1,4.7-0.7,4.7-5v-5.8l0.8-0.6l-0.2-0.2l-0.7,0.5
		l-2.2-1.8l-2.4,1.8v-7.1H682l-3,2.1v0.2c0.3,0.2,0.9,0.3,0.9,1.3C679.8,206.8,679.7,216.6,679.7,216.6z M695.7,215.7l-2.2,1.7
		l-2.2-1.7v-1l4.1-2.8v-0.1l-2.1-3.1l-4.5,2.4v5.8l-0.9,0.7l0.2,0.2l0.8-0.6l3,2.2l3.9-3.1C695.7,216,695.7,215.7,695.7,215.7z
		 M691.3,214.2v-4.3l0.2-0.1l1.9,3C693.4,212.9,691.3,214.2,691.3,214.2z M712.3,204.2c0-0.3-0.1-0.5-0.2-0.8H712
		c-0.3,0.7-0.6,1-1.5,1c-0.8,0-1.3-0.4-1.7-0.8l-2.5,2.9l0.2,0.2l0.9-0.8c0.5,0.4,1,0.8,2.2,0.9v7.2l-5.1-8.8
		c-0.4-0.7-1-1.7-2.3-1.7c-1.4,0-2.6,1.2-2.4,3.1h0.3c0.1-0.5,0.3-1.1,1-1.1c0.4,0,0.9,0.4,1.1,0.9v2.9c-1.6,0-2.6,0.7-2.6,2
		c0,0.7,0.3,1.7,1.4,2v-0.2c-0.2-0.2-0.3-0.3-0.3-0.6c0-0.4,0.3-0.8,1-0.8h0.4v3.7c-1.8,0-3.3,1-3.3,2.8c0,1.7,1.4,2.4,3,2.4v-0.2
		c-1-0.1-1.4-0.5-1.4-1.1c0-0.8,0.5-1.1,1.2-1.1s1.3,0.4,1.7,1l2.5-2.8l-0.2-0.2l-0.6,0.7c-1-0.9-1.5-1.1-2.6-1.3v-8.7l7,12.2h0.5
		v-12.2C711.1,206.8,712.3,205.7,712.3,204.2z M718.7,215.7l-2.2,1.7l-2.2-1.7v-1l4.1-2.8v-0.1l-2.1-3.1l-4.5,2.4v5.8l-0.9,0.7
		l0.2,0.2l0.8-0.6l3,2.2l3.9-3.1C718.7,216,718.7,215.7,718.7,215.7z M714.3,214.2v-4.3l0.2-0.1l1.9,3
		C716.4,212.9,714.3,214.2,714.3,214.2z M732.9,209.5l-0.6,0.4l-1.7-1.4l-1.9,1.7l0.8,0.8v6.5l-2.1-1.3v-5.4l0.7-0.4l-2-1.9
		l-1.9,1.7l0.8,0.8v6.3l-0.3,0.2l-1.8-1.3V211c0-1.2-0.6-1.6-1.3-2c-0.6-0.4-1-0.7-1-1.3c0-0.5,0.5-0.8,0.8-1v-0.2
		c-0.7,0-2.5,0.7-2.5,2.4c0,0.9,0.4,1.2,0.9,1.7c0.4,0.4,0.9,0.8,0.9,1.6v5.1l-1,0.7l0.2,0.2l0.9-0.7l2,1.7l2.2-1.5l2.4,1.5l4.6-2.7
		v-5.8l1.1-0.9L732.9,209.5L732.9,209.5z M749.1,204.7l-0.9,0.8l-1.9-1.7l-2.9,2.1V204h-0.3l0.1,14.1c-0.3,0-1-0.2-1.7-0.3
		l-0.2-11.8c0-0.9-0.6-2.1-2.2-2.1s-2.6,1.2-2.6,2.4h0.3c0.1-0.5,0.3-1,0.9-1c0.5,0,1,0.3,1,1.5v3.4c-1.6,0.1-2.5,1-2.5,2.1
		c0,0.7,0.3,1.7,1.4,1.7v-0.2c-0.3-0.2-0.4-0.4-0.4-0.6c0-0.5,0.4-0.7,1.1-0.7h0.3v5.4c-1.3,0.4-1.8,1.4-1.8,2.4
		c0,1.5,1.1,2.5,2.9,2.5c1.2,0,2.3-0.2,3.3-0.4c0.9-0.2,2-0.4,2.5-0.4c0.7,0,1,0.3,1,0.8c0,0.6-0.3,0.9-0.6,1v0.2
		c1.4-0.3,2.3-1.1,2.3-2.4s-1.3-2.1-2.7-2.1c-0.7,0-2.2,0.3-3.2,0.4c-1.2,0.3-2.4,0.4-2.8,0.4c-0.6,0-1.3-0.3-1.3-1.1
		c0-0.7,0.6-1.3,2.1-1.3c0.8,0,1.7,0.1,2.7,0.3c1,0.3,2,0.5,2.9,0.5c1.3,0,2.4-0.4,2.4-2.3v-10.7l1-0.9L749.1,204.7L749.1,204.7z
		 M745.5,210c-0.3,0.3-0.6,0.5-1,0.5s-0.9-0.3-1-0.5v-3.8l0.9-0.6l1.2,1.1C745.5,206.7,745.5,210,745.5,210z M745.5,212.6
		c-0.2-0.2-0.6-0.4-1-0.4s-0.9,0.3-1,0.4v-2.3c0.2,0.2,0.6,0.4,1,0.4s0.9-0.3,1-0.4V212.6z M745.5,216.7c0,0.7-0.4,1.4-1.4,1.4h-0.7
		V213c0.2-0.2,0.6-0.4,1-0.4s0.8,0.3,1,0.4C745.5,213,745.5,216.7,745.5,216.7z M757.4,210.5l-2.8-2l-4.3,2.4v5.7l-0.9,0.7l0.1,0.2
		l0.7-0.5l2.8,2.1l4.4-2.6C757.4,216.4,757.4,210.5,757.4,210.5z M752.7,216v-6.3l2.2,1.6v6.2L752.7,216z M765.7,208.7h-0.2
		c-0.3,0.2-0.5,0.3-0.8,0.3s-0.8-0.2-1-0.4h-0.2l-1.5,1.7l-1.5-1.7l-2.6,1.7l0.1,0.2l0.7-0.4l0.9,1v5.5l-1.1,0.9l0.2,0.2l0.5-0.4
		l2.1,1.7l2.7-1.8l-0.1-0.2l-0.8,0.4l-1-0.9v-6.1c0.4,0.4,1,0.9,1.6,0.9C764.9,211.3,765.6,210.1,765.7,208.7L765.7,208.7z
		 M776.2,217.1l-3,2l-4-6.1l2.9-4.4h0.2c0.3,0.3,0.9,0.7,1.5,0.7s1-0.3,1.3-0.7h0.2c-0.1,1.7-1.3,2.8-2.2,2.8s-1.3-0.4-1.8-0.7
		l-0.3,0.4l4.4,6.4L776.2,217.1L776.2,217.1z M766.6,216.6l-1.1,0.9l0.2,0.2l0.5-0.4l1.9,1.7l2.6-1.7l-0.2-0.2l-0.7,0.4l-0.9-0.9
		v-13.4h-0.1l-3.1,2.1v0.2c0.3,0.2,0.9,0.3,0.9,1.3C766.6,206.8,766.6,216.6,766.6,216.6z M790.6,205c0-1.7-1.7-2.2-3-2.2v0.3
		c0.8,0,1.4,0.3,1.4,0.9c0,0.3-0.3,0.9-1,0.9c-0.6,0-1.9-0.3-2.9-0.7c-1.1-0.3-2.2-0.7-3-0.7c-1.7,0-3,1.3-3,2.8
		c0,1.3,1,1.7,1.3,1.9l0.1-0.2c-0.3-0.2-0.5-0.3-0.5-0.9c0-0.3,0.3-1,1.2-1c0.8,0,1.8,0.3,3.2,0.8c1.2,0.3,2.5,0.6,3.2,0.7v2.7
		l-1.3,1.1v0.1l1.3,1.1v3.7c-0.7,0.4-1.5,0.5-2.2,0.5c-1.3,0-2.4-0.3-3.4-1.4l3.6-1.7v-6.1l-4.4,1.9c0.4-1.1,1.4-1.9,2.3-2.5
		l-0.1-0.2c-2.6,0.7-5,3-5,6c0,3.5,2.9,6.1,6.1,6.1c3.5,0,5.8-2.8,5.8-5.7h-0.2c-0.5,1.1-1.3,2.2-2.3,2.7v-3.6l1.4-1.1v-0.1
		l-1.3-1.1v-2.6C789.3,207.6,790.6,206.7,790.6,205z M783.1,214.6l-1,0.5c-0.6-0.8-1-1.8-1-3.3c0-0.6,0.1-1.3,0.3-1.8l1.8-0.8
		L783.1,214.6z M793.7,204.2L793.7,204.2l-1.8,1.5v0.1l1.5,1.7h0.2l1.7-1.5v-0.1L793.7,204.2L793.7,204.2z M796.3,217.1l-0.7,0.4
		l-0.9-0.9v-6l0.9-0.6l-0.2-0.2l-0.6,0.5l-1.6-1.8l-2.5,1.7l0.2,0.3l0.6-0.4l0.8,1v5.7l-1.1,0.9l0.1,0.2l0.6-0.4l1.9,1.7l2.6-1.7
		L796.3,217.1L796.3,217.1z M810.8,217l-0.6,0.4l-1-0.9v-5.9l0.9-0.7l-0.2-0.2l-0.7,0.6l-2-1.8l-2.6,1.8l-2-1.8l-2.4,1.8l-1.6-1.8
		l-2.5,1.7l0.1,0.3l0.6-0.4l0.9,1v5.7l-0.7,0.7l2,1.7l1.9-1.7l-0.8-0.8v-5.9l0.8-0.5l1.3,1.2v5.2l-0.7,0.7l2,1.7l1.9-1.7l-0.8-0.8
		v-5.8l0.7-0.4l1.4,1.2v5.2l-0.6,0.6l2,1.8l2.7-1.8L810.8,217L810.8,217z M818.4,215.7l-2.2,1.7l-2.2-1.7v-1l4.1-2.8v-0.1l-2.1-3.1
		l-4.5,2.4v5.9l3,2.2l3.9-3.1C818.5,215.9,818.4,215.7,818.4,215.7z M814.1,214.2v-4.3l0.2-0.1l1.9,3
		C816.2,212.9,814.1,214.2,814.1,214.2z M826.4,213.4l-1.7-1.3c1.1-1,1.6-2.3,1.6-3.1v-0.5h-0.2c-0.2,0.4-0.5,0.9-1.2,0.9
		s-1.1-0.3-1.6-0.9l-3.9,2.2v3.1l1.5,1.1c-1.5,1.3-1.7,2.2-1.7,2.9c0,0.9,0.4,1.5,1.1,1.7l0.1-0.2c-0.2-0.2-0.3-0.3-0.3-0.7
		c0-0.3,0.3-0.7,1-0.7c0.9,0,1.4,0.6,1.7,0.9l3.7-2.3L826.4,213.4L826.4,213.4z M825.4,210.8c-0.6,1-1.9,2.1-2.7,2.6l-1-0.8v-3
		c0.3,0.9,1.3,1.6,2.3,1.6C824.6,211.1,825,211,825.4,210.8z M823.9,217.8c-0.4-1-1.5-1.7-2.5-1.7c-0.3,0-1,0-1.7,0.4
		c0.4-0.7,1.6-1.9,3-2.8l1,0.9L823.9,217.8L823.9,217.8z"/>
	<line class="st7" x1="638" y1="229.3" x2="854.5" y2="229.3"/>
	<line class="st7" x1="638" y1="236.3" x2="854.5" y2="236.3"/>
	<line class="st7" x1="666.8" y1="285.6" x2="825.7" y2="285.6"/>
	<line class="st7" x1="647.9" y1="306.4" x2="683.5" y2="306.4"/>
	<path class="st8" d="M810.4,256.5H682.1c-0.3,0-0.5-0.2-0.5-0.5v-13.8c0-0.3,0.2-0.5,0.5-0.5h128.3c0.3,0,0.5,0.2,0.5,0.5V256
		C810.9,256.2,810.6,256.5,810.4,256.5z"/>
	<path class="st9" d="M798.6,342.1H693.9c-0.3,0-0.5-0.2-0.5-0.5v-51c0-0.3,0.2-0.5,0.5-0.5h104.8c0.3,0,0.5,0.2,0.5,0.5v51
		C799.1,341.9,798.9,342.1,798.6,342.1z"/>
	<path class="st8" d="M834,270.6H658.5c-0.3,0-0.5-0.2-0.5-0.5v-7.5c0-0.3,0.2-0.5,0.5-0.5H834c0.3,0,0.5,0.2,0.5,0.5v7.5
		C834.5,270.4,834.3,270.6,834,270.6z"/>
	<path class="st8" d="M816.6,280.4H675.9c-0.3,0-0.5-0.2-0.5-0.5v-7.5c0-0.3,0.2-0.5,0.5-0.5h140.7c0.3,0,0.5,0.2,0.5,0.5v7.5
		C817.1,280.2,816.8,280.4,816.6,280.4z"/>
	<path class="st8" d="M688.7,294h-45.6c-0.3,0-0.5-0.2-0.5-0.5v-2.9c0-0.3,0.2-0.5,0.5-0.5h45.6c0.3,0,0.5,0.2,0.5,0.5v2.9
		C689.2,293.8,689,294,688.7,294z"/>
	<path class="st8" d="M688.9,310.9h-40.2c-0.1,0-0.2-0.1-0.2-0.2v-0.6c0-0.1,0.1-0.2,0.2-0.2h40.2c0.1,0,0.2,0.1,0.2,0.2v0.6
		C689.2,310.8,689.1,310.9,688.9,310.9z"/>
	<path class="st8" d="M686.4,313.1h-43.6c-0.1,0-0.2-0.1-0.2-0.2v-0.6c0-0.1,0.1-0.2,0.2-0.2h43.6c0.1,0,0.2,0.1,0.2,0.2v0.6
		C686.6,313,686.5,313.1,686.4,313.1z"/>
	<path class="st8" d="M688,315.3h-45.2c-0.1,0-0.2-0.1-0.2-0.2v-0.6c0-0.1,0.1-0.2,0.2-0.2H688c0.1,0,0.2,0.1,0.2,0.2v0.6
		C688.3,315.2,688.2,315.3,688,315.3z"/>
	<path class="st8" d="M683.9,317.5h-41.1c-0.1,0-0.2-0.1-0.2-0.2v-0.6c0-0.1,0.1-0.2,0.2-0.2h41.1c0.1,0,0.2,0.1,0.2,0.2v0.6
		C684.1,317.4,684,317.5,683.9,317.5z"/>
	<path class="st8" d="M688.9,321.7h-40.3c-0.1,0-0.2-0.1-0.2-0.2v-0.6c0-0.1,0.1-0.2,0.2-0.2h40.3c0.1,0,0.2,0.1,0.2,0.2v0.6
		C689.2,321.6,689.1,321.7,688.9,321.7z"/>
	<path class="st8" d="M688.9,323.9h-46.1c-0.1,0-0.2-0.1-0.2-0.2v-0.6c0-0.1,0.1-0.2,0.2-0.2h46.1c0.1,0,0.2,0.1,0.2,0.2v0.6
		C689.2,323.8,689.1,323.9,688.9,323.9z"/>
	<path class="st8" d="M687.9,326.1h-45.1c-0.1,0-0.2-0.1-0.2-0.2v-0.6c0-0.1,0.1-0.2,0.2-0.2h45.1c0.1,0,0.2,0.1,0.2,0.2v0.6
		C688.2,326,688.1,326.1,687.9,326.1z"/>
	<path class="st8" d="M688.6,328.3h-45.8c-0.1,0-0.2-0.1-0.2-0.2v-0.6c0-0.1,0.1-0.2,0.2-0.2h45.8c0.1,0,0.2,0.1,0.2,0.2v0.6
		C688.8,328.2,688.7,328.3,688.6,328.3z"/>
	<path class="st8" d="M687.3,330.5h-44.5c-0.1,0-0.2-0.1-0.2-0.2v-0.6c0-0.1,0.1-0.2,0.2-0.2h44.5c0.1,0,0.2,0.1,0.2,0.2v0.6
		C687.6,330.4,687.4,330.5,687.3,330.5z"/>
	<path class="st8" d="M688.9,332.7h-46.1c-0.1,0-0.2-0.1-0.2-0.2v-0.6c0-0.1,0.1-0.2,0.2-0.2h46.1c0.1,0,0.2,0.1,0.2,0.2v0.6
		C689.2,332.6,689.1,332.7,688.9,332.7z"/>
	<path class="st8" d="M688.3,334.9h-45.5c-0.1,0-0.2-0.1-0.2-0.2v-0.6c0-0.1,0.1-0.2,0.2-0.2h45.5c0.1,0,0.2,0.1,0.2,0.2v0.6
		C688.5,334.8,688.4,334.9,688.3,334.9z"/>
	<path class="st8" d="M688.9,337.1h-46.1c-0.1,0-0.2-0.1-0.2-0.2v-0.6c0-0.1,0.1-0.2,0.2-0.2h46.1c0.1,0,0.2,0.1,0.2,0.2v0.6
		C689.2,337,689.1,337.1,688.9,337.1z"/>
	<path class="st8" d="M676.4,339.3h-33.6c-0.1,0-0.2-0.1-0.2-0.2v-0.6c0-0.1,0.1-0.2,0.2-0.2h33.6c0.1,0,0.2,0.1,0.2,0.2v0.6
		C676.6,339.2,676.5,339.3,676.4,339.3z"/>
	<path class="st8" d="M683.3,299h-40.1c-0.3,0-0.5-0.2-0.5-0.5v-2.9c0-0.3,0.2-0.5,0.5-0.5h40.1c0.3,0,0.5,0.2,0.5,0.5v2.9
		C683.8,298.7,683.6,299,683.3,299z"/>
	<path class="st10" d="M657.8,302.1H643c-0.2,0-0.3-0.1-0.3-0.3v-1c0-0.2,0.1-0.3,0.3-0.3h14.7c0.2,0,0.3,0.1,0.3,0.3v1
		C658,302,657.9,302.1,657.8,302.1z"/>
	<line class="st7" x1="808.5" y1="306.8" x2="844.1" y2="306.8"/>
	<path class="st8" d="M849.2,294.4h-45.6c-0.3,0-0.5-0.2-0.5-0.5V291c0-0.3,0.2-0.5,0.5-0.5h45.6c0.3,0,0.5,0.2,0.5,0.5v2.9
		C849.7,294.2,849.5,294.4,849.2,294.4z"/>
	<path class="st8" d="M849.5,311.3h-40.2c-0.1,0-0.2-0.1-0.2-0.2v-0.6c0-0.1,0.1-0.2,0.2-0.2h40.2c0.1,0,0.2,0.1,0.2,0.2v0.6
		C849.7,311.2,849.6,311.3,849.5,311.3z"/>
	<path class="st8" d="M846.9,313.5h-43.6c-0.1,0-0.2-0.1-0.2-0.2v-0.6c0-0.1,0.1-0.2,0.2-0.2h43.6c0.1,0,0.2,0.1,0.2,0.2v0.6
		C847.2,313.4,847.1,313.5,846.9,313.5z"/>
	<path class="st8" d="M848.6,315.7h-45.2c-0.1,0-0.2-0.1-0.2-0.2v-0.6c0-0.1,0.1-0.2,0.2-0.2h45.2c0.1,0,0.2,0.1,0.2,0.2v0.6
		C848.8,315.6,848.7,315.7,848.6,315.7z"/>
	<path class="st8" d="M844.4,317.9h-41.1c-0.1,0-0.2-0.1-0.2-0.2v-0.6c0-0.1,0.1-0.2,0.2-0.2h41.1c0.1,0,0.2,0.1,0.2,0.2v0.6
		C844.7,317.8,844.6,317.9,844.4,317.9z"/>
	<path class="st8" d="M849.5,322.1h-40.3c-0.1,0-0.2-0.1-0.2-0.2v-0.6c0-0.1,0.1-0.2,0.2-0.2h40.3c0.1,0,0.2,0.1,0.2,0.2v0.6
		C849.7,322,849.6,322.1,849.5,322.1z"/>
	<path class="st8" d="M849.5,324.3h-46.1c-0.1,0-0.2-0.1-0.2-0.2v-0.6c0-0.1,0.1-0.2,0.2-0.2h46.1c0.1,0,0.2,0.1,0.2,0.2v0.6
		C849.7,324.2,849.6,324.3,849.5,324.3z"/>
	<path class="st8" d="M848.5,326.5h-45.1c-0.1,0-0.2-0.1-0.2-0.2v-0.6c0-0.1,0.1-0.2,0.2-0.2h45.1c0.1,0,0.2,0.1,0.2,0.2v0.6
		C848.7,326.4,848.6,326.5,848.5,326.5z"/>
	<path class="st8" d="M849.1,328.7h-45.8c-0.1,0-0.2-0.1-0.2-0.2v-0.6c0-0.1,0.1-0.2,0.2-0.2h45.8c0.1,0,0.2,0.1,0.2,0.2v0.6
		C849.4,328.6,849.3,328.7,849.1,328.7z"/>
	<path class="st8" d="M847.9,330.9h-44.5c-0.1,0-0.2-0.1-0.2-0.2v-0.6c0-0.1,0.1-0.2,0.2-0.2h44.5c0.1,0,0.2,0.1,0.2,0.2v0.6
		C848.1,330.8,848,330.9,847.9,330.9z"/>
	<path class="st8" d="M849.5,333.1h-46.1c-0.1,0-0.2-0.1-0.2-0.2v-0.6c0-0.1,0.1-0.2,0.2-0.2h46.1c0.1,0,0.2,0.1,0.2,0.2v0.6
		C849.7,333,849.6,333.1,849.5,333.1z"/>
	<path class="st8" d="M848.9,335.3h-45.5c-0.1,0-0.2-0.1-0.2-0.2v-0.6c0-0.1,0.1-0.2,0.2-0.2h45.5c0.1,0,0.2,0.1,0.2,0.2v0.6
		C849.1,335.2,849,335.3,848.9,335.3z"/>
	<path class="st8" d="M846.2,337.5h-42.9c-0.1,0-0.2-0.1-0.2-0.2v-0.6c0-0.1,0.1-0.2,0.2-0.2h42.9c0.1,0,0.2,0.1,0.2,0.2v0.6
		C846.5,337.4,846.3,337.5,846.2,337.5z"/>
	<path class="st8" d="M836.9,339.7h-33.6c-0.1,0-0.2-0.1-0.2-0.2v-0.6c0-0.1,0.1-0.2,0.2-0.2h33.6c0.1,0,0.2,0.1,0.2,0.2v0.6
		C837.2,339.6,837.1,339.7,836.9,339.7z"/>
	<path class="st8" d="M843.9,299.4h-40.1c-0.3,0-0.5-0.2-0.5-0.5V296c0-0.3,0.2-0.5,0.5-0.5h40.1c0.3,0,0.5,0.2,0.5,0.5v2.9
		C844.4,299.1,844.2,299.4,843.9,299.4z"/>
	<path class="st10" d="M818.3,302.5h-14.7c-0.2,0-0.3-0.1-0.3-0.3v-1c0-0.2,0.1-0.3,0.3-0.3h14.7c0.2,0,0.3,0.1,0.3,0.3v1
		C818.6,302.4,818.5,302.5,818.3,302.5z"/>
</g>
</svg>
