<?xml version="1.0" encoding="utf-8"?>
<!-- Generator: Adobe Illustrator 22.1.0, SVG Export Plug-In . SVG Version: 6.00 Build 0)  -->
<svg version="1.1" id="Layer_1" xmlns="http://www.w3.org/2000/svg" xmlns:xlink="http://www.w3.org/1999/xlink" x="0px" y="0px"
	 viewBox="0 0 600 356" style="enable-background:new 0 0 600 356;" xml:space="preserve">
<style type="text/css">
	.st0{fill:#8D4FDA;}
	.st1{fill:#565656;}
	.st2{fill:#D6D6D6;}
	.st3{fill:#EFF0F0;}
	.st4{fill:#E0E0E0;}
	.st5{fill:#F5F6F6;}
	.st6{fill:#C9C9C9;}
	.st7{fill:#E2E2E2;}
	.st8{fill:#4C4C4C;}
	.st9{fill:#141414;}
	.st10{fill:#B7B7B7;}
	.st11{fill:#848484;}
	.st12{fill:#353535;}
	.st13{fill:#9FFFFA;}
	.st14{fill:#5A5A5A;}
	.st15{fill:#FFFFFF;}
	.st16{fill:#EBEBEB;}
	.st17{fill:none;stroke:#CBCBCB;}
	.st18{fill:#AAAAAA;}
	.st19{fill:#282828;}
	.st20{fill:#29A5F4;}
	.st21{fill:#E7EEF5;}
	.st22{fill:none;stroke:#282828;stroke-linecap:round;}
	.st23{fill:#F932BB;}
	.st24{fill:#2C011F;}
	.st25{fill:#FDDBF2;}
	.st26{font-family:'Arial-BoldMT';}
	.st27{font-size:6.23px;}
	.st28{fill:#0D5D90;}
	.st29{fill:#1BA9DF;}
	.st30{fill:#FDFDFD;}
	.st31{fill:#4D4D4D;}
	.st32{fill:#4F4F4F;fill-opacity:0.44;}
	.st33{opacity:0.51;fill:#494949;}
	.st34{fill:#F9F9F9;}
	.st35{fill:#EFEFEF;}
	.st36{fill:#DDDDDD;}
	.st37{fill:#39245B;}
	.st38{fill:#F7F7F7;}
	.st39{fill:#77522D;}
	.st40{fill:#68471F;}
</style>
<title>hiven_splash</title>
<g id="Group-2">
	<rect id="Rectangle-4" class="st0" width="600" height="356"/>
</g>
<g>
	<g>
		<path id="Fill-1" class="st1" d="M438.5,292.9v6.6c0,3.9-3.4,7-7.7,7H170.1c-4.2,0-7.7-3.1-7.7-7v-6.6H438.5z"/>
		<path id="Fill-4" class="st2" d="M439.4,283.6v10c0,5.9-3.5,10.6-7.7,10.6H169.3c-4.3,0-7.7-4.8-7.7-10.6v-10H439.4z"/>
		<path id="Fill-7" class="st3" d="M427.9,297.6H173.1c-6.4,0-11.5-5.1-11.6-11.5l0,0V117.8c0-6.4,5.2-11.5,11.5-11.5l0,0h254.9
			c6.4,0,11.5,5.2,11.5,11.5V286C439.4,292.5,434.3,297.6,427.9,297.6"/>
		<path id="Fill-9" class="st4" d="M340.6,288.7h-78.4c-3.2,0-5.8-2.6-5.8-5.8l0,0v-52.7c0-3.2,2.6-5.8,5.8-5.8h78.4
			c3.2,0,5.8,2.6,5.8,5.8l0,0v52.7C346.4,286,343.8,288.6,340.6,288.7L340.6,288.7"/>
		<path id="Fill-11" class="st5" d="M339.1,287.6h-75.3c-3.2,0-5.8-2.6-5.8-5.8v-50.5c0-3.2,2.6-5.8,5.8-5.8h75.3
			c3.2,0,5.8,2.6,5.8,5.8v50.5C344.9,285,342.3,287.6,339.1,287.6"/>
		<path id="Fill-13" class="st6" d="M420.6,218.4H180.3c-2,0-3.6-1.6-3.6-3.6l0,0v-90.6c0-2,1.6-3.6,3.6-3.6h240.3
			c2,0,3.6,1.6,3.6,3.5l0,0l0,0v90.6C424.2,216.7,422.6,218.3,420.6,218.4L420.6,218.4L420.6,218.4"/>
		<path id="Fill-15" class="st7" d="M419.2,217H181.8c-2,0-3.6-1.6-3.6-3.5l0,0l0,0v-88c0-2,1.6-3.6,3.6-3.6h237.4
			c2,0,3.6,1.6,3.6,3.6v88C422.8,215.4,421.2,217,419.2,217L419.2,217"/>
		<path id="Fill-17" class="st8" d="M244.9,183.9c1.2-0.1,2.3,0.9,2.3,2.1v9.7c-0.1,1.2-1.1,2.2-2.3,2.1h-10.6
			c-1.2,0.1-2.3-0.9-2.3-2.1V186c0.1-1.2,1.1-2.2,2.3-2.1H244.9z"/>
		<path id="Fill-19" class="st8" d="M211.5,186v9.7c-0.1,1.2-1.1,2.2-2.3,2.1h-25.4c-1.2,0-2.2-0.9-2.3-2.1V186
			c0.1-1.2,1.1-2.2,2.3-2.1h25.5C210.5,183.9,211.5,184.8,211.5,186"/>
		<path id="Fill-21" class="st8" d="M420.9,186v9.7c-0.1,1.2-1.1,2.2-2.3,2.1h-25.5c-1.2,0.1-2.3-0.9-2.3-2.1V186
			c0.1-1.2,1.1-2.2,2.3-2.1h25.5C419.8,183.8,420.9,184.8,420.9,186"/>
		<path id="Fill-23" class="st8" d="M229.4,186v9.7c-0.1,1.2-1.1,2.2-2.3,2.1h-10.6c-1.2,0.1-2.3-0.9-2.3-2.1V186
			c0.1-1.2,1.1-2.2,2.3-2.1h10.6C228.3,183.8,229.4,184.8,229.4,186"/>
		<path id="Fill-25" class="st8" d="M264.8,186v9.7c-0.1,1.2-1.1,2.2-2.3,2.1h-10.6c-1.2,0.1-2.3-0.9-2.3-2.1l0,0V186
			c0.1-1.2,1.1-2.2,2.3-2.1h10.7C263.7,183.8,264.8,184.8,264.8,186"/>
		<path id="Fill-27" class="st8" d="M282.4,186v9.7c-0.1,1.2-1.1,2.2-2.3,2.1h-10.6c-1.2,0.1-2.3-0.9-2.3-2.1V186
			c0.1-1.2,1.1-2.2,2.3-2.1h10.6C281.4,183.8,282.4,184.8,282.4,186"/>
		<path id="Fill-29" class="st8" d="M300.1,186v9.7c-0.1,1.2-1.1,2.2-2.3,2.1h-10.6c-1.2,0.1-2.3-0.9-2.3-2.1V186
			c0.1-1.2,1.1-2.2,2.3-2.1h10.6C299.1,183.8,300.1,184.8,300.1,186"/>
		<path id="Fill-31" class="st8" d="M317.8,186v9.7c-0.1,1.2-1.1,2.2-2.3,2.1h-10.7c-1.2,0.1-2.3-0.9-2.3-2.1V186
			c0.1-1.2,1.1-2.2,2.3-2.1h10.6C316.7,183.8,317.7,184.8,317.8,186"/>
		<path id="Fill-33" class="st8" d="M335.4,186v9.7c-0.1,1.2-1.1,2.2-2.3,2.1h-10.6c-1.2,0.1-2.3-0.9-2.3-2.1V186
			c0.1-1.2,1.1-2.2,2.3-2.1h10.6C334.3,183.8,335.3,184.8,335.4,186"/>
		<path id="Fill-35" class="st8" d="M353.1,186v9.7c-0.1,1.2-1.1,2.2-2.3,2.1h-10.6c-1.2,0.1-2.3-0.9-2.3-2.1V186
			c0.1-1.2,1.1-2.2,2.3-2.1h10.6C352,183.8,353.1,184.8,353.1,186"/>
		<path id="Fill-37" class="st8" d="M370.7,186v9.7c-0.1,1.2-1.1,2.2-2.3,2.1h-10.6c-1.2,0-2.2-0.9-2.3-2.1V186
			c0.1-1.2,1.1-2.2,2.3-2.1h10.6C369.6,183.9,370.7,184.8,370.7,186"/>
		<path id="Fill-39" class="st8" d="M388.3,186v9.7c-0.1,1.2-1.1,2.2-2.3,2.1h-10.6c-1.2,0.1-2.3-0.9-2.3-2.1V186
			c0.1-1.2,1.1-2.2,2.3-2.1H386C387.2,183.8,388.3,184.8,388.3,186"/>
		<path id="Fill-41" class="st8" d="M219.9,169.8v9.7c-0.1,1.2-1.1,2.2-2.3,2.1l0,0H207c-1.2,0.1-2.3-0.9-2.3-2.1v-9.7
			c0.1-1.2,1.1-2.2,2.3-2.1h10.6C218.8,167.6,219.9,168.5,219.9,169.8C219.9,169.7,219.9,169.7,219.9,169.8L219.9,169.8"/>
		<path id="Fill-43" class="st8" d="M237.7,169.8v9.7c-0.1,1.2-1.1,2.2-2.3,2.1h-10.6c-1.2,0.1-2.3-0.9-2.3-2.1v-9.7
			c0.1-1.2,1.1-2.2,2.3-2.1h10.6C236.6,167.6,237.6,168.5,237.7,169.8"/>
		<path id="Fill-45" class="st8" d="M255.3,169.8v9.7c-0.1,1.2-1.1,2.2-2.3,2.1h-10.6c-1.2,0.1-2.3-0.9-2.3-2.1v-9.7
			c0.1-1.2,1.1-2.2,2.3-2.1H253C254.2,167.6,255.2,168.5,255.3,169.8"/>
		<path id="Fill-47" class="st8" d="M272.9,169.8v9.7c-0.1,1.2-1.1,2.2-2.3,2.1l0,0H260c-1.2,0.1-2.3-0.9-2.3-2.1l0,0l0,0v-9.7
			c0.1-1.2,1.1-2.2,2.3-2.1l0,0h10.6C271.8,167.6,272.8,168.5,272.9,169.8C272.9,169.7,272.9,169.7,272.9,169.8L272.9,169.8"/>
		<path id="Fill-49" class="st8" d="M290.6,169.8v9.7c-0.1,1.2-1.1,2.2-2.3,2.1l0,0h-10.6c-1.2,0.1-2.3-0.9-2.3-2.1l0,0l0,0v-9.7
			c0.1-1.2,1.1-2.2,2.3-2.1l0,0h10.6C289.5,167.6,290.6,168.5,290.6,169.8C290.6,169.7,290.6,169.7,290.6,169.8L290.6,169.8"/>
		<path id="Fill-51" class="st8" d="M308.2,169.8v9.7c-0.1,1.2-1.1,2.2-2.3,2.1l0,0h-10.6c-1.2,0.1-2.3-0.9-2.3-2.1l0,0l0,0v-9.7
			c0.1-1.2,1.1-2.2,2.3-2.1l0,0h10.6C307.1,167.6,308.2,168.5,308.2,169.8C308.2,169.7,308.2,169.7,308.2,169.8L308.2,169.8"/>
		<path id="Fill-53" class="st8" d="M325.9,169.8v9.7c-0.1,1.2-1.1,2.2-2.3,2.1H313c-1.2,0.1-2.3-0.9-2.3-2.1l0,0l0,0v-9.7
			c0.1-1.2,1.1-2.2,2.3-2.1l0,0h10.6C324.7,167.6,325.8,168.5,325.9,169.8"/>
		<path id="Fill-55" class="st8" d="M343.6,169.8v9.7c-0.1,1.2-1.1,2.2-2.3,2.1h-10.6c-1.2,0.1-2.3-0.9-2.3-2.1v-9.7
			c0.1-1.2,1.1-2.2,2.3-2.1h10.6C342.5,167.6,343.5,168.5,343.6,169.8"/>
		<path id="Fill-57" class="st8" d="M361.2,169.8v9.7c-0.1,1.2-1.1,2.2-2.3,2.1h-10.6c-1.2,0.1-2.3-0.9-2.3-2.1v-9.7
			c0.1-1.2,1.1-2.2,2.3-2.1h10.6C360.1,167.6,361.1,168.5,361.2,169.8"/>
		<path id="Fill-59" class="st8" d="M378.8,169.8v9.7c-0.1,1.2-1.1,2.2-2.3,2.1l0,0h-10.6c-1.2,0.1-2.3-0.9-2.3-2.1l0,0l0,0v-9.7
			c0.1-1.2,1.1-2.2,2.3-2.1l0,0h10.6C377.7,167.6,378.8,168.5,378.8,169.8C378.8,169.7,378.8,169.7,378.8,169.8L378.8,169.8"/>
		<path id="Fill-61" class="st8" d="M396.4,169.8v9.7c-0.1,1.2-1.1,2.2-2.3,2.1l0,0h-10.6c-1.2,0.1-2.3-0.9-2.3-2.1v-9.7
			c0.1-1.2,1.1-2.2,2.3-2.1h10.6C395.4,167.6,396.4,168.5,396.4,169.8C396.4,169.7,396.4,169.7,396.4,169.8L396.4,169.8"/>
		<path id="Fill-63" class="st8" d="M420.9,169.8v9.7c-0.1,1.2-1.1,2.2-2.3,2.1l0,0h-17.5c-1.2,0.1-2.3-0.9-2.3-2.1l0,0l0,0v-9.7
			c0.1-1.2,1.1-2.2,2.3-2.1l0,0h17.5C419.8,167.6,420.9,168.5,420.9,169.8C420.9,169.7,420.9,169.7,420.9,169.8L420.9,169.8"/>
		<path id="Fill-65" class="st8" d="M202.3,169.8v9.7c-0.1,1.2-1.1,2.2-2.3,2.1l0,0h-16.2c-1.2,0.1-2.3-0.9-2.3-2.1v-9.7
			c0.1-1.2,1.1-2.2,2.3-2.1H200C201.2,167.6,202.2,168.5,202.3,169.8C202.3,169.7,202.3,169.7,202.3,169.8L202.3,169.8"/>
		<path id="Fill-67" class="st8" d="M209,153.4v9.7c-0.1,1.2-1.1,2.2-2.3,2.1h-10.6c-1.2,0.1-2.3-0.9-2.3-2.1v-9.7
			c0.1-1.2,1.1-2.2,2.3-2.1h10.6C207.9,151.2,208.9,152.1,209,153.4"/>
		<path id="Fill-69" class="st8" d="M226.7,153.4v9.7c-0.1,1.2-1.1,2.2-2.3,2.1h-10.6c-1.2,0.1-2.3-0.9-2.3-2.1v-9.7
			c0.1-1.2,1.1-2.2,2.3-2.1h10.6C225.6,151.2,226.7,152.1,226.7,153.4"/>
		<path id="Fill-71" class="st8" d="M244.3,153.4v9.7c-0.1,1.2-1.1,2.2-2.3,2.1h-10.6c-1.2,0.1-2.3-0.9-2.3-2.1v-9.7
			c0.1-1.2,1.1-2.2,2.3-2.1l0,0H242C243.2,151.2,244.3,152.1,244.3,153.4L244.3,153.4L244.3,153.4"/>
		<path id="Fill-73" class="st8" d="M261.9,153.4v9.7c-0.1,1.2-1.1,2.2-2.3,2.1H249c-1.2,0.1-2.3-0.9-2.3-2.1v-9.7
			c0.1-1.2,1.1-2.2,2.3-2.1h10.6C260.8,151.2,261.9,152.1,261.9,153.4L261.9,153.4L261.9,153.4"/>
		<path id="Fill-75" class="st8" d="M279.7,153.4v9.7c-0.1,1.2-1.1,2.2-2.3,2.1h-10.6c-1.2,0.1-2.3-0.9-2.3-2.1v-9.7
			c0.1-1.2,1.1-2.2,2.3-2.1h10.6C278.6,151.2,279.6,152.1,279.7,153.4L279.7,153.4L279.7,153.4"/>
		<path id="Fill-77" class="st8" d="M297.3,153.4v9.7c-0.1,1.2-1.1,2.2-2.3,2.1h-10.6c-1.2,0.1-2.3-0.9-2.3-2.1v-9.7
			c0.1-1.2,1.1-2.2,2.3-2.1H295C296.2,151.2,297.2,152.1,297.3,153.4"/>
		<path id="Fill-79" class="st8" d="M314.9,153.4v9.7c-0.1,1.2-1.1,2.2-2.3,2.1H302c-1.2,0.1-2.3-0.9-2.3-2.1v-9.7
			c0.1-1.2,1.1-2.2,2.3-2.1l0,0h10.6C313.8,151.2,314.8,152.1,314.9,153.4"/>
		<path id="Fill-81" class="st8" d="M332.6,153.4v9.7c-0.1,1.2-1.1,2.2-2.3,2.1h-10.6c-1.2,0.1-2.3-0.9-2.3-2.1v-9.7
			c0.1-1.2,1.1-2.2,2.3-2.1l0,0h10.6C331.6,151.2,332.6,152.1,332.6,153.4L332.6,153.4L332.6,153.4"/>
		<path id="Fill-83" class="st8" d="M350.3,153.4v9.7c-0.1,1.2-1.1,2.2-2.3,2.1h-10.6c-1.2,0.1-2.3-0.9-2.3-2.1v-9.7
			c0.1-1.2,1.1-2.2,2.3-2.1l0,0H348C349.2,151.2,350.2,152.1,350.3,153.4L350.3,153.4L350.3,153.4"/>
		<path id="Fill-85" class="st8" d="M367.9,153.4v9.7c-0.1,1.2-1.1,2.2-2.3,2.1H355c-1.2,0.1-2.3-0.9-2.3-2.1v-9.7
			c0.1-1.2,1.1-2.2,2.3-2.1h10.6C366.7,151.2,367.8,152.1,367.9,153.4"/>
		<path id="Fill-87" class="st8" d="M385.5,153.4v9.7c-0.1,1.2-1.1,2.2-2.3,2.1h-10.7c-1.2,0.1-2.3-0.9-2.3-2.1v-9.7
			c0.1-1.2,1.1-2.2,2.3-2.1h10.6C384.4,151.2,385.4,152.1,385.5,153.4C385.4,153.4,385.4,153.4,385.5,153.4L385.5,153.4"/>
		<path id="Fill-89" class="st8" d="M403.1,153.4v9.7c-0.1,1.2-1.1,2.2-2.3,2.1h-10.6c-1.2,0.1-2.3-0.9-2.3-2.1v-9.7
			c0.1-1.2,1.1-2.2,2.3-2.1h10.6C402,151.2,403,152.1,403.1,153.4L403.1,153.4L403.1,153.4"/>
		<path id="Fill-91" class="st8" d="M420.7,153.4v9.7c-0.1,1.2-1.1,2.2-2.3,2.1h-10.6c-1.2,0.1-2.3-0.9-2.3-2.1v-9.7
			c0.1-1.2,1.1-2.2,2.3-2.1h10.6C419.6,151.2,420.7,152.1,420.7,153.4"/>
		<path id="Fill-93" class="st8" d="M191.9,153.4v9.7c-0.1,1.2-1.1,2.2-2.3,2.1h-5.8c-1.2,0.1-2.3-0.9-2.3-2.1v-9.7
			c0.1-1.2,1.1-2.2,2.3-2.1h5.8C190.8,151.2,191.8,152.1,191.9,153.4"/>
		<path id="Fill-95" class="st8" d="M196.7,137.3v9.7c-0.1,1.2-1.1,2.2-2.3,2.1h-10.6c-1.2,0-2.2-0.9-2.3-2.1v-9.7
			c0.1-1.2,1.1-2.2,2.3-2.1h10.6C195.7,135.1,196.7,136.1,196.7,137.3"/>
		<path id="Fill-97" class="st8" d="M213.3,137.3v9.7c-0.1,1.2-1.1,2.2-2.3,2.1l0,0h-10.6c-1.2,0.1-2.3-0.9-2.3-2.1l0,0l0,0v-9.7
			c0.1-1.2,1.1-2.2,2.3-2.1H211C212.2,135.1,213.2,136.1,213.3,137.3"/>
		<path id="Fill-99" class="st8" d="M230.2,137.3v9.7c-0.1,1.2-1.1,2.2-2.3,2.1h-10.6c-1.2,0.1-2.3-0.9-2.3-2.1v-9.7
			c0.1-1.2,1.1-2.2,2.3-2.1h10.6C229.1,135.1,230.2,136.1,230.2,137.3"/>
		<path id="Fill-101" class="st8" d="M246.7,137v9.7c-0.1,1.2-1.1,2.2-2.3,2.1h-10.6c-1.2,0-2.2-0.9-2.3-2.1V137
			c0.1-1.2,1.1-2.2,2.3-2.1h10.6C245.7,134.8,246.7,135.8,246.7,137"/>
		<path id="Fill-103" class="st8" d="M263.4,137.3v9.7c-0.1,1.2-1.1,2.2-2.3,2.1l0,0h-10.6c-1.2,0.1-2.3-0.9-2.3-2.1v-9.7
			c0.1-1.2,1.1-2.2,2.3-2.1h10.6C262.3,135.1,263.3,136.1,263.4,137.3"/>
		<path id="Fill-105" class="st8" d="M280.2,137v9.7c-0.1,1.2-1.1,2.2-2.3,2.1h-10.6c-1.2,0.1-2.3-0.9-2.3-2.1V137
			c0.1-1.2,1.1-2.2,2.3-2.1h10.5C279.1,134.8,280.1,135.8,280.2,137"/>
		<path id="Fill-107" class="st8" d="M296.8,137.3v9.7c-0.1,1.2-1.1,2.2-2.3,2.1h-10.6c-1.2,0.1-2.3-0.9-2.3-2.1v-9.7
			c0.1-1.2,1.1-2.2,2.3-2.1h10.6C295.7,135.1,296.8,136.1,296.8,137.3"/>
		<path id="Fill-109" class="st8" d="M313.5,137.3v9.7c-0.1,1.2-1.1,2.2-2.3,2.1h-10.7c-1.2,0.1-2.3-0.9-2.3-2.1v-9.7
			c0.1-1.2,1.1-2.2,2.3-2.1h10.6C312.3,135.1,313.4,136.1,313.5,137.3"/>
		<path id="Fill-111" class="st8" d="M330.1,137v9.7c-0.1,1.2-1.1,2.2-2.3,2.1h-10.6c-1.2,0.1-2.3-0.9-2.3-2.1V137
			c0.1-1.2,1.1-2.2,2.3-2.1h10.6C329,134.8,330.1,135.8,330.1,137"/>
		<path id="Fill-113" class="st8" d="M347.1,137.3v9.7c-0.1,1.2-1.1,2.2-2.3,2.1h-10.6c-1.2,0.1-2.3-0.9-2.3-2.1v-9.7
			c0.1-1.2,1.1-2.2,2.3-2.1h10.6C346,135.1,347,136.1,347.1,137.3"/>
		<path id="Fill-115" class="st8" d="M364.1,137.3v9.7c-0.1,1.2-1.1,2.2-2.3,2.1h-10.6c-1.2,0.1-2.3-0.9-2.3-2.1v-9.7
			c0.1-1.2,1.1-2.2,2.3-2.1h10.6C363,135.1,364,136.1,364.1,137.3"/>
		<path id="Fill-117" class="st8" d="M381.1,137.3v9.7c-0.1,1.2-1.1,2.2-2.3,2.1l0,0h-10.6c-1.2,0.1-2.3-0.9-2.3-2.1v-9.7
			c0.1-1.2,1.1-2.2,2.3-2.1h10.6C380,135.1,381,136.1,381.1,137.3"/>
		<path id="Fill-119" class="st8" d="M398.4,137v9.7c-0.1,1.2-1.1,2.2-2.3,2.1h-10.6c-1.2,0.1-2.3-0.9-2.3-2.1V137
			c0.1-1.2,1.1-2.2,2.3-2.1h10.6C397.4,134.8,398.4,135.8,398.4,137"/>
		<path id="Fill-121" class="st8" d="M196.1,126.4v5c0,0.6-1.1,1.1-2.4,1.1h-10.9c-1.3,0-2.4-0.5-2.4-1.1v-5c0-0.6,1.1-1.1,2.4-1.1
			h11C195.1,125.3,196.1,125.8,196.1,126.4"/>
		<path id="Fill-123" class="st8" d="M213.1,126.4v5c0,0.6-1.1,1.1-2.4,1.1h-10.9c-1.3,0-2.4-0.5-2.4-1.1v-5c0-0.6,1.1-1.1,2.4-1.1
			h10.9C212,125.3,213.1,125.8,213.1,126.4"/>
		<path id="Fill-125" class="st8" d="M230.5,126.4v5c0,0.6-1.1,1.1-2.4,1.1h-10.9c-1.3,0-2.4-0.5-2.4-1.1v-5c0-0.6,1.1-1.1,2.4-1.1
			h10.9C229.4,125.3,230.5,125.8,230.5,126.4"/>
		<path id="Fill-127" class="st8" d="M247.4,126.2v5c0,0.6-1.1,1.1-2.4,1.1h-10.9c-1.3,0-2.4-0.5-2.4-1.1v-5c0-0.6,1.1-1.1,2.4-1.1
			H245C246.3,125.1,247.4,125.6,247.4,126.2"/>
		<path id="Fill-129" class="st8" d="M264.5,126.4v5c0,0.6-1.1,1.1-2.4,1.1h-10.9c-1.3,0-2.4-0.5-2.4-1.1v-5c0-0.6,1.1-1.1,2.4-1.1
			h10.9C263.4,125.3,264.5,125.8,264.5,126.4"/>
		<path id="Fill-131" class="st8" d="M281.7,126.2v5c0,0.6-1.1,1.1-2.4,1.1h-10.9c-1.3,0-2.4-0.5-2.4-1.1v-5c0-0.6,1.1-1.1,2.4-1.1
			h10.9C280.6,125.1,281.7,125.6,281.7,126.2"/>
		<path id="Fill-133" class="st8" d="M298.7,126.4v5c0,0.6-1.1,1.1-2.4,1.1h-10.8c-1.3,0-2.4-0.5-2.4-1.1v-5c0-0.6,1.1-1.1,2.4-1.1
			h10.9C297.7,125.3,298.8,125.8,298.7,126.4"/>
		<path id="Fill-135" class="st8" d="M315.8,126.4v5c0,0.6-1.1,1.1-2.4,1.1h-10.9c-1.3,0-2.4-0.5-2.4-1.1v-5c0-0.6,1.1-1.1,2.4-1.1
			h10.9C314.7,125.3,315.8,125.8,315.8,126.4"/>
		<path id="Fill-137" class="st8" d="M332.9,126.2v5c0,0.6-1.1,1.1-2.4,1.1h-10.9c-1.3,0-2.4-0.5-2.4-1.1v-5c0-0.6,1.1-1.1,2.4-1.1
			h10.9C331.8,125.1,332.9,125.6,332.9,126.2"/>
		<path id="Fill-139" class="st8" d="M350.2,126.4v5c0,0.6-1.1,1.1-2.4,1.1h-10.9c-1.3,0-2.4-0.5-2.4-1.1v-5c0-0.6,1.1-1.1,2.4-1.1
			h10.9C349.2,125.3,350.2,125.8,350.2,126.4"/>
		<path id="Fill-141" class="st8" d="M367.7,126.4v5c0,0.6-1.1,1.1-2.4,1.1h-10.9c-1.3,0-2.4-0.5-2.4-1.1v-5c0-0.6,1.1-1.1,2.4-1.1
			h10.9C366.6,125.3,367.7,125.8,367.7,126.4"/>
		<path id="Fill-143" class="st8" d="M385.1,126.4v5c0,0.6-1,1.1-2.4,1.1h-10.9c-1.3,0-2.4-0.5-2.4-1.1v-5c0-0.6,1.1-1.1,2.4-1.1
			h10.9C384,125.3,385.1,125.8,385.1,126.4"/>
		<path id="Fill-145" class="st8" d="M402.9,126.2v5c0,0.6-1.1,1.1-2.4,1.1h-10.9c-1.3,0-2.4-0.5-2.4-1.1v-5c0-0.6,1.1-1.1,2.4-1.1
			h10.9C401.8,125.1,402.9,125.6,402.9,126.2"/>
		<path id="Fill-147" class="st8" d="M420.7,126.2v5c0,0.6-1.1,1.1-2.4,1.1h-10.9c-1.3,0-2.4-0.5-2.4-1.1v-5c0-0.6,1-1.1,2.4-1.1
			h10.9C419.7,125.1,420.7,125.6,420.7,126.2"/>
		<path id="Fill-149" class="st8" d="M420.7,137v9.7c0,1.2-1.4,2.1-3.1,2.1h-14c-1.7,0-3-0.9-3-2.1V137c0-1.2,1.4-2.1,3-2.1h14
			C419.3,134.9,420.7,135.9,420.7,137"/>
		<path id="Fill-151" class="st8" d="M191.9,202.3v9.7c-0.1,1.2-1.1,2.2-2.3,2.1h-5.8c-1.2,0-2.2-0.9-2.3-2.1v-9.7
			c0.1-1.2,1.1-2.2,2.3-2.1h5.8C190.9,200.1,191.9,201.1,191.9,202.3"/>
		<path id="Fill-153" class="st8" d="M204.7,202.3v9.7c-0.1,1.2-1.1,2.2-2.3,2.1h-5.8c-1.2,0.1-2.3-0.9-2.3-2.1v-9.7
			c0.1-1.2,1.1-2.2,2.3-2.1h5.8C203.7,200.1,204.7,201.1,204.7,202.3"/>
		<path id="Fill-155" class="st8" d="M217.6,202.3v9.7c-0.1,1.2-1.1,2.2-2.3,2.1h-5.8c-1.2,0.1-2.3-0.9-2.3-2.1v-9.7
			c0.1-1.2,1.1-2.2,2.3-2.1h5.8C216.5,200.1,217.6,201.1,217.6,202.3"/>
		<path id="Fill-157" class="st8" d="M366.9,202.3v9.7c-0.1,1.2-1.1,2.2-2.3,2.1l0,0h-5.8c-1.2,0.1-2.3-0.9-2.3-2.1l0,0l0,0v-9.7
			c0.1-1.2,1.1-2.2,2.3-2.1l0,0h5.8C365.7,200.1,366.8,201.1,366.9,202.3C366.8,202.3,366.8,202.3,366.9,202.3L366.9,202.3"/>
		<path id="Fill-159" class="st8" d="M238.7,202.3v9.7c-0.1,1.2-1.1,2.2-2.3,2.1l0,0h-14.1c-1.2,0.1-2.3-0.9-2.3-2.1v-9.7
			c0.1-1.2,1.1-2.2,2.3-2.1h14.1C237.6,200.1,238.7,201.1,238.7,202.3L238.7,202.3L238.7,202.3"/>
		<path id="Fill-161" class="st8" d="M353.9,202.3v9.7c-0.1,1.2-1.1,2.2-2.3,2.1h-14.1c-1.2,0.1-2.3-0.9-2.3-2.1l0,0l0,0v-9.7
			c0.1-1.2,1.1-2.2,2.3-2.1l0,0h14.1C352.8,200.1,353.9,201.1,353.9,202.3"/>
		<path id="Fill-163" class="st8" d="M420.8,209.3v2.7c-0.1,1.2-1.1,2.2-2.3,2.1l0,0h-10.7c-1.2,0.1-2.3-0.9-2.3-2.1v-2.7
			c0.1-1.2,1.1-2.2,2.3-2.1h10.7C419.7,207.1,420.7,208.1,420.8,209.3L420.8,209.3L420.8,209.3"/>
		<path id="Fill-165" class="st8" d="M403.1,209.3v2.7c-0.1,1.2-1.1,2.2-2.3,2.1l0,0h-10.7c-1.2,0.1-2.3-0.9-2.3-2.1v-2.7
			c0.1-1.2,1.1-2.2,2.3-2.1h10.7C402,207.1,403,208.1,403.1,209.3L403.1,209.3L403.1,209.3"/>
		<path id="Fill-167" class="st8" d="M403.1,202.3v2.7c-0.1,1.2-1.1,2.2-2.3,2.1h-10.7c-1.2,0-2.3-0.9-2.3-2.1v-2.7
			c0.1-1.2,1.1-2.2,2.3-2.1h10.7C402,200.2,403,201.1,403.1,202.3L403.1,202.3L403.1,202.3"/>
		<path id="Fill-169" class="st8" d="M385,209.3v2.7c-0.1,1.2-1.1,2.2-2.3,2.1H372c-1.2,0.1-2.3-0.9-2.3-2.1l0,0l0,0v-2.7
			c0.1-1.2,1.1-2.2,2.3-2.1l0,0h10.7C383.9,207.1,384.9,208.1,385,209.3"/>
		<path id="Fill-171" class="st8" d="M332.6,202.3v9.7c-0.1,1.2-1.1,2.2-2.3,2.1l0,0h-87c-1.2,0.1-2.3-0.9-2.3-2.1l0,0l0,0v-9.7
			c0.1-1.2,1.1-2.2,2.3-2.1l0,0h87C331.6,200.1,332.6,201.1,332.6,202.3L332.6,202.3L332.6,202.3"/>
		<path id="Fill-174" class="st9" d="M244.4,183.3c1.2,0,2.3,0.9,2.3,2.1v9.7c-0.1,1.2-1.1,2.2-2.3,2.1h-10.6
			c-1.2,0.1-2.3-0.9-2.3-2.1v-9.7c0.1-1.2,1.1-2.2,2.3-2.1H244.4z"/>
		<path id="Fill-176" class="st9" d="M211.1,185.4v9.7c-0.1,1.2-1.1,2.2-2.3,2.1h-25.5c-1.2,0.1-2.3-0.9-2.3-2.1l0,0l0,0v-9.7
			c0.1-1.2,1.1-2.2,2.3-2.1h25.5C210,183.3,211,184.2,211.1,185.4"/>
		<path id="Fill-178" class="st9" d="M420.4,185.4v9.7c-0.1,1.2-1.1,2.2-2.3,2.1l0,0h-25.5c-1.2,0.1-2.3-0.9-2.3-2.1v-9.7
			c0.1-1.2,1.1-2.2,2.3-2.1h25.5C419.4,183.3,420.4,184.2,420.4,185.4"/>
		<path id="Fill-180" class="st9" d="M229,185.4v9.7c-0.1,1.2-1.1,2.2-2.3,2.1h-10.6c-1.2,0.1-2.3-0.9-2.3-2.1l0,0l0,0v-9.7
			c0.1-1.2,1.1-2.2,2.3-2.1h10.6C227.9,183.3,228.9,184.2,229,185.4"/>
		<path id="Fill-182" class="st9" d="M264.3,185.4v9.7c-0.1,1.2-1.1,2.2-2.3,2.1h-10.6c-1.2,0.1-2.3-0.9-2.3-2.1l0,0l0,0v-9.7
			c0.1-1.2,1.1-2.2,2.3-2.1H262C263.2,183.3,264.3,184.2,264.3,185.4"/>
		<path id="Fill-184" class="st9" d="M281.9,185.4v9.7c-0.1,1.2-1.1,2.2-2.3,2.1l0,0H269c-1.2,0.1-2.3-0.9-2.3-2.1l0,0l0,0v-9.7
			c0.1-1.2,1.1-2.2,2.3-2.1h10.6C280.8,183.3,281.9,184.2,281.9,185.4"/>
		<path id="Fill-186" class="st9" d="M299.7,185.4v9.7c-0.1,1.2-1.1,2.2-2.3,2.1l0,0h-10.6c-1.2,0.1-2.3-0.9-2.3-2.1l0,0l0,0v-9.7
			c0.1-1.2,1.1-2.2,2.3-2.1h10.6C298.6,183.3,299.6,184.2,299.7,185.4"/>
		<path id="Fill-188" class="st9" d="M317.3,185.4v9.7c-0.1,1.2-1.1,2.2-2.3,2.1h-10.6c-1.2,0.1-2.3-0.9-2.3-2.1v-9.7
			c0.1-1.2,1.1-2.2,2.3-2.1H315C316.2,183.3,317.2,184.2,317.3,185.4"/>
		<path id="Fill-190" class="st9" d="M334.9,185.4v9.7c-0.1,1.2-1.1,2.2-2.3,2.1l0,0H322c-1.2,0.1-2.3-0.9-2.3-2.1l0,0l0,0v-9.7
			c0.1-1.2,1.1-2.2,2.3-2.1h10.6C333.8,183.3,334.8,184.2,334.9,185.4"/>
		<path id="Fill-192" class="st9" d="M352.6,185.4v9.7c-0.1,1.2-1.1,2.2-2.3,2.1h-10.6c-1.2,0.1-2.3-0.9-2.3-2.1v-9.7
			c0.1-1.2,1.1-2.2,2.3-2.1h10.6C351.5,183.3,352.6,184.2,352.6,185.4"/>
		<path id="Fill-194" class="st9" d="M370.2,185.4v9.7c-0.1,1.2-1.1,2.2-2.3,2.1l0,0h-10.6c-1.2,0.1-2.3-0.9-2.3-2.1v-9.7
			c0.1-1.2,1.1-2.2,2.3-2.1h10.6C369.2,183.3,370.2,184.2,370.2,185.4"/>
		<path id="Fill-196" class="st9" d="M387.9,185.4v9.7c-0.1,1.2-1.1,2.2-2.3,2.1l0,0H375c-1.2,0.1-2.3-0.9-2.3-2.1l0,0l0,0v-9.7
			c0.1-1.2,1.1-2.2,2.3-2.1h10.6C386.7,183.3,387.8,184.2,387.9,185.4"/>
		<path id="Fill-198" class="st9" d="M219.4,169.1v9.7c-0.1,1.2-1.1,2.2-2.3,2.1l0,0h-10.6c-1.2,0.1-2.3-0.9-2.3-2.1l0,0l0,0v-9.7
			c0-1.2,1.1-2.2,2.3-2.1l0,0h10.6C218.4,166.9,219.4,167.9,219.4,169.1C219.5,169.1,219.5,169.1,219.4,169.1L219.4,169.1"/>
		<path id="Fill-200" class="st9" d="M237.2,169.1v9.7c-0.1,1.2-1.1,2.2-2.3,2.1h-10.6c-1.2,0.1-2.3-0.9-2.3-2.1v-9.7
			c0.1-1.2,1.1-2.2,2.3-2.1h10.6C236.1,167,237.1,167.9,237.2,169.1"/>
		<path id="Fill-202" class="st9" d="M254.8,169.1v9.7c-0.1,1.2-1.1,2.2-2.3,2.1l0,0h-10.6c-1.2,0.1-2.3-0.9-2.3-2.1l0,0l0,0v-9.7
			c0.1-1.2,1.1-2.2,2.3-2.1l0,0h10.6C253.7,167,254.8,167.9,254.8,169.1L254.8,169.1L254.8,169.1"/>
		<path id="Fill-204" class="st9" d="M272.4,169.1v9.7c-0.1,1.2-1.1,2.2-2.3,2.1l0,0h-10.6c-1.2,0.1-2.3-0.9-2.3-2.1l0,0l0,0v-9.7
			c0-1.2,1.1-2.2,2.3-2.1l0,0h10.6C271.4,166.9,272.4,167.9,272.4,169.1C272.5,169.1,272.5,169.1,272.4,169.1L272.4,169.1"/>
		<path id="Fill-206" class="st9" d="M290.1,169.1v9.7c-0.1,1.2-1.1,2.2-2.3,2.1l0,0h-10.6c-1.2,0.1-2.3-0.9-2.3-2.1v-9.7
			c0-1.2,1.1-2.2,2.3-2.1l0,0h10.6C289.1,166.9,290.1,167.9,290.1,169.1L290.1,169.1L290.1,169.1"/>
		<path id="Fill-208" class="st9" d="M307.8,169.1v9.7c-0.1,1.2-1.1,2.2-2.3,2.1h-10.7c-1.2,0.1-2.3-0.9-2.3-2.1l0,0l0,0v-9.7
			c0.1-1.2,1.1-2.2,2.3-2.1l0,0h10.6C306.7,167,307.7,167.9,307.8,169.1"/>
		<path id="Fill-210" class="st9" d="M325.4,169.1v9.7c-0.1,1.2-1.1,2.2-2.3,2.1h-10.6c-1.2,0.1-2.3-0.9-2.3-2.1l0,0l0,0v-9.7
			c0.1-1.2,1.1-2.2,2.3-2.1l0,0h10.6C324.3,167,325.3,167.9,325.4,169.1"/>
		<path id="Fill-212" class="st9" d="M343.1,169.1v9.7c-0.1,1.2-1.1,2.2-2.3,2.1h-10.6c-1.2,0.1-2.3-0.9-2.3-2.1l0,0l0,0v-9.7
			c0.1-1.2,1.1-2.2,2.3-2.1l0,0h10.6C342,167,343.1,167.9,343.1,169.1"/>
		<path id="Fill-214" class="st9" d="M360.7,169.1v9.7c-0.1,1.2-1.1,2.2-2.3,2.1l0,0h-10.6c-1.2,0.1-2.3-0.9-2.3-2.1l0,0l0,0v-9.7
			c0.1-1.2,1.1-2.2,2.3-2.1l0,0h10.6C359.6,167,360.7,167.9,360.7,169.1L360.7,169.1L360.7,169.1"/>
		<path id="Fill-216" class="st9" d="M378.3,169.1v9.7c-0.1,1.2-1.1,2.2-2.3,2.1h-10.6c-1.2,0.1-2.3-0.9-2.3-2.1v-9.7
			c0.1-1.2,1.1-2.2,2.3-2.1H376C377.3,167,378.3,167.9,378.3,169.1"/>
		<path id="Fill-218" class="st9" d="M396,169.1v9.7c-0.1,1.2-1.1,2.2-2.3,2.1l0,0h-10.6c-1.2,0.1-2.3-0.9-2.3-2.1l0,0l0,0v-9.7
			c0.1-1.2,1.1-2.2,2.3-2.1l0,0h10.6C394.9,167,395.9,167.9,396,169.1L396,169.1L396,169.1"/>
		<path id="Fill-220" class="st9" d="M420.4,169.1v9.7c-0.1,1.2-1.1,2.2-2.3,2.1l0,0h-17.5c-1.2,0.1-2.3-0.9-2.3-2.1v-9.7
			c0.1-1.2,1.1-2.2,2.3-2.1h17.5C419.4,167,420.4,167.9,420.4,169.1L420.4,169.1L420.4,169.1"/>
		<path id="Fill-222" class="st9" d="M201.8,169.1v9.7c-0.1,1.2-1.1,2.2-2.3,2.1h-16.2c-1.2,0.1-2.3-0.9-2.3-2.1l0,0l0,0v-9.7
			c0.1-1.2,1.1-2.2,2.3-2.1l0,0h16.2C200.7,167,201.8,167.9,201.8,169.1"/>
		<path id="Fill-224" class="st9" d="M208.5,152.7v9.7c-0.1,1.2-1.1,2.2-2.3,2.1h-10.6c-1.2,0.1-2.3-0.9-2.3-2.1v-9.7
			c0.1-1.2,1.1-2.2,2.3-2.1h10.6C207.4,150.6,208.4,151.5,208.5,152.7"/>
		<path id="Fill-226" class="st9" d="M226.2,152.7v9.7c-0.1,1.2-1.1,2.2-2.3,2.1h-10.6c-1.2,0.1-2.3-0.9-2.3-2.1v-9.7
			c0.1-1.2,1.1-2.2,2.3-2.1h10.6C225.1,150.6,226.2,151.5,226.2,152.7"/>
		<path id="Fill-228" class="st9" d="M243.9,152.7v9.7c-0.1,1.2-1.1,2.2-2.3,2.1H231c-1.2,0.1-2.3-0.9-2.3-2.1v-9.7
			c0.1-1.2,1.1-2.2,2.3-2.1h10.6C242.7,150.6,243.8,151.5,243.9,152.7"/>
		<path id="Fill-230" class="st9" d="M261.5,152.7v9.7c-0.1,1.2-1.1,2.2-2.3,2.1h-10.6c-1.2,0.1-2.3-0.9-2.3-2.1v-9.7
			c0.1-1.2,1.1-2.2,2.3-2.1h10.6C260.4,150.6,261.4,151.5,261.5,152.7"/>
		<path id="Fill-232" class="st9" d="M279.2,152.7v9.7c-0.1,1.2-1.1,2.2-2.3,2.1h-10.6c-1.2,0.1-2.3-0.9-2.3-2.1v-9.7
			c0.1-1.2,1.1-2.2,2.3-2.1h10.6C278.1,150.6,279.1,151.5,279.2,152.7"/>
		<path id="Fill-234" class="st9" d="M296.8,152.7v9.7c-0.1,1.2-1.1,2.2-2.3,2.1h-10.6c-1.2,0.1-2.3-0.9-2.3-2.1v-9.7
			c0.1-1.2,1.1-2.2,2.3-2.1h10.6C295.7,150.6,296.8,151.5,296.8,152.7"/>
		<path id="Fill-236" class="st9" d="M314.4,152.7v9.7c-0.1,1.2-1.1,2.2-2.3,2.1h-10.6c-1.2,0.1-2.3-0.9-2.3-2.1v-9.7
			c0.1-1.2,1.1-2.2,2.3-2.1h10.6C313.4,150.6,314.4,151.5,314.4,152.7"/>
		<path id="Fill-238" class="st9" d="M332.2,152.7v9.7c-0.1,1.2-1.1,2.2-2.3,2.1h-10.6c-1.2,0.1-2.3-0.9-2.3-2.1v-9.7
			c0.1-1.2,1.1-2.2,2.3-2.1h10.6C331.1,150.6,332.1,151.5,332.2,152.7"/>
		<path id="Fill-240" class="st9" d="M349.8,152.7v9.7c-0.1,1.2-1.1,2.2-2.3,2.1h-10.6c-1.2,0.1-2.3-0.9-2.3-2.1v-9.7
			c0.1-1.2,1.1-2.2,2.3-2.1h10.7C348.7,150.6,349.8,151.5,349.8,152.7"/>
		<path id="Fill-242" class="st9" d="M367.4,152.7v9.7c-0.1,1.2-1.1,2.2-2.3,2.1h-10.6c-1.2,0.1-2.3-0.9-2.3-2.1v-9.7
			c0.1-1.2,1.1-2.2,2.3-2.1h10.6C366.4,150.6,367.4,151.5,367.4,152.7"/>
		<path id="Fill-244" class="st9" d="M385,152.7v9.7c-0.1,1.2-1.1,2.2-2.3,2.1h-10.6c-1.2,0.1-2.3-0.9-2.3-2.1v-9.7
			c0.1-1.2,1.1-2.2,2.3-2.1h10.6C383.9,150.6,384.9,151.5,385,152.7"/>
		<path id="Fill-246" class="st9" d="M402.6,152.7v9.7c-0.1,1.2-1.1,2.2-2.3,2.1h-10.6c-1.2,0.1-2.3-0.9-2.3-2.1v-9.7
			c0.1-1.2,1.1-2.2,2.3-2.1h10.6C401.5,150.6,402.6,151.5,402.6,152.7"/>
		<path id="Fill-248" class="st9" d="M420.2,152.7v9.7c-0.1,1.2-1.1,2.2-2.3,2.1h-10.6c-1.2,0.1-2.3-0.9-2.3-2.1v-9.7
			c0.1-1.2,1.1-2.2,2.3-2.1h10.6C419.1,150.6,420.2,151.5,420.2,152.7"/>
		<path id="Fill-250" class="st9" d="M191.4,152.7v9.7c-0.1,1.2-1.1,2.2-2.3,2.1h-5.8c-1.2,0.1-2.3-0.9-2.3-2.1v-9.7
			c0.1-1.2,1.1-2.2,2.3-2.1h5.8C190.3,150.6,191.4,151.5,191.4,152.7"/>
		<path id="Fill-252" class="st9" d="M196.2,136.6v9.7c-0.1,1.2-1.1,2.2-2.3,2.1h-10.6c-1.2,0.1-2.3-0.9-2.3-2.1v-9.7
			c0.1-1.2,1.1-2.2,2.3-2.1h10.6C195.1,134.5,196.2,135.4,196.2,136.6"/>
		<path id="Fill-254" class="st9" d="M212.8,136.6v9.7c-0.1,1.2-1.1,2.2-2.3,2.1h-10.6c-1.2,0-2.3-0.9-2.3-2.1v-9.7
			c0.1-1.2,1.1-2.2,2.3-2.1h10.6C211.7,134.5,212.7,135.4,212.8,136.6"/>
		<path id="Fill-256" class="st9" d="M229.7,136.6v9.7c-0.1,1.2-1.1,2.2-2.3,2.1h-10.6c-1.2,0-2.3-0.9-2.3-2.1v-9.7
			c0.1-1.2,1.1-2.2,2.3-2.1h10.6C228.6,134.5,229.7,135.4,229.7,136.6"/>
		<path id="Fill-258" class="st9" d="M246.2,136.4v9.7c-0.1,1.2-1.1,2.2-2.3,2.1h-10.6c-1.2,0.1-2.3-0.9-2.3-2.1v-9.7
			c0.1-1.2,1.1-2.2,2.3-2.1h10.6C245.1,134.2,246.2,135.1,246.2,136.4"/>
		<path id="Fill-260" class="st9" d="M262.9,136.6v9.7c-0.1,1.2-1.1,2.2-2.3,2.1H250c-1.2,0-2.3-0.9-2.3-2.1v-9.7
			c0.1-1.2,1.1-2.2,2.3-2.1h10.6C261.8,134.5,262.8,135.4,262.9,136.6"/>
		<path id="Fill-262" class="st9" d="M279.7,136.4v9.7c-0.1,1.2-1.1,2.2-2.3,2.1h-10.6c-1.2,0.1-2.3-0.9-2.3-2.1v-9.7
			c0.1-1.2,1.1-2.2,2.3-2.1h10.6C278.6,134.2,279.6,135.1,279.7,136.4"/>
		<path id="Fill-264" class="st9" d="M296.3,136.6v9.7c-0.1,1.2-1.1,2.2-2.3,2.1h-10.6c-1.2,0.1-2.3-0.9-2.3-2.1v-9.7
			c0.1-1.2,1.1-2.2,2.3-2.1H294C295.2,134.5,296.3,135.4,296.3,136.6"/>
		<path id="Fill-266" class="st9" d="M313,136.6v9.7c-0.1,1.2-1.1,2.2-2.3,2.1h-10.6c-1.2,0.1-2.3-0.9-2.3-2.1v-9.7
			c0.1-1.2,1.1-2.2,2.3-2.1h10.6C311.9,134.5,312.9,135.4,313,136.6"/>
		<path id="Fill-268" class="st9" d="M329.7,136.4v9.7c-0.1,1.2-1.1,2.2-2.3,2.1h-10.6c-1.2,0.1-2.3-0.9-2.3-2.1v-9.7
			c0.1-1.2,1.1-2.2,2.3-2.1h10.6C328.6,134.2,329.6,135.1,329.7,136.4"/>
		<path id="Fill-270" class="st9" d="M346.6,136.6v9.7c-0.1,1.2-1.1,2.2-2.3,2.1h-10.6c-1.2,0-2.3-0.9-2.3-2.1v-9.7
			c0.1-1.2,1.1-2.2,2.3-2.1h10.6C345.5,134.5,346.5,135.4,346.6,136.6"/>
		<path id="Fill-272" class="st9" d="M363.6,136.6v9.7c-0.1,1.2-1.1,2.2-2.3,2.1h-10.6c-1.2,0.1-2.3-0.9-2.3-2.1v-9.7
			c0.1-1.2,1.1-2.2,2.3-2.1h10.6C362.5,134.5,363.5,135.4,363.6,136.6"/>
		<path id="Fill-274" class="st9" d="M380.6,136.6v9.7c-0.1,1.2-1.1,2.2-2.3,2.1h-10.6c-1.2,0.1-2.3-0.9-2.3-2.1v-9.7
			c0.1-1.2,1.1-2.2,2.3-2.1h10.6C379.5,134.5,380.5,135.4,380.6,136.6"/>
		<path id="Fill-276" class="st9" d="M398,136.4v9.7c-0.1,1.2-1.1,2.2-2.3,2.1h-10.6c-1.2,0.1-2.3-0.9-2.3-2.1v-9.7
			c0.1-1.2,1.1-2.2,2.3-2.1h10.6C396.9,134.2,397.9,135.1,398,136.4"/>
		<path id="Fill-278" class="st9" d="M195.7,125.8v4.9c0,0.6-1.1,1.1-2.4,1.1h-10.9c-1.3,0-2.4-0.5-2.4-1.1v-4.9
			c0-0.6,1.1-1.1,2.4-1.1h10.9C194.6,124.7,195.7,125.2,195.7,125.8"/>
		<path id="Fill-280" class="st9" d="M212.6,125.8v4.9c0,0.6-1.1,1.1-2.4,1.1h-10.9c-1.3,0-2.4-0.5-2.4-1.1v-4.9
			c0-0.6,1.1-1.1,2.4-1.1h10.9C211.6,124.7,212.6,125.2,212.6,125.8"/>
		<path id="Fill-282" class="st9" d="M230,125.8v4.9c0,0.6-1.1,1.1-2.4,1.1h-10.8c-1.3,0-2.4-0.5-2.4-1.1v-4.9
			c0-0.6,1.1-1.1,2.4-1.1h10.9C228.9,124.7,230,125.2,230,125.8"/>
		<path id="Fill-284" class="st9" d="M246.9,125.6v5c0,0.6-1.1,1.1-2.4,1.1h-10.9c-1.3,0-2.4-0.5-2.4-1.1v-5c0-0.6,1.1-1.1,2.4-1.1
			h10.9C245.8,124.5,246.9,125,246.9,125.6"/>
		<path id="Fill-286" class="st9" d="M264,125.8v4.9c0,0.6-1.1,1.1-2.4,1.1h-10.9c-1.3,0-2.4-0.5-2.4-1.1v-4.9
			c0-0.6,1.1-1.1,2.4-1.1h10.9C262.9,124.7,264,125.2,264,125.8"/>
		<path id="Fill-288" class="st9" d="M281.2,125.6v5c0,0.6-1.1,1.1-2.4,1.1h-10.9c-1.3,0-2.4-0.5-2.4-1.1v-5c0-0.6,1.1-1.1,2.4-1.1
			h10.9C280.1,124.5,281.2,125,281.2,125.6"/>
		<path id="Fill-290" class="st9" d="M298.3,125.8v4.9c0,0.6-1.1,1.1-2.4,1.1H285c-1.3,0-2.4-0.5-2.4-1.1v-4.9
			c0-0.6,1.1-1.1,2.4-1.1h10.9C297.2,124.7,298.3,125.2,298.3,125.8"/>
		<path id="Fill-292" class="st9" d="M315.3,125.8v4.9c0,0.6-1.1,1.1-2.4,1.1H302c-1.3,0-2.4-0.5-2.4-1.1v-4.9c0-0.6,1-1.1,2.4-1.1
			h10.9C314.3,124.7,315.3,125.2,315.3,125.8"/>
		<path id="Fill-294" class="st9" d="M332.4,125.6v5c0,0.6-1.1,1.1-2.4,1.1h-10.9c-1.3,0-2.4-0.5-2.4-1.1v-5c0-0.6,1.1-1.1,2.4-1.1
			H330C331.3,124.5,332.4,125,332.4,125.6"/>
		<path id="Fill-296" class="st9" d="M349.8,125.8v4.9c0,0.6-1.1,1.1-2.4,1.1h-10.9c-1.3,0-2.4-0.5-2.4-1.1v-4.9
			c0-0.6,1.1-1.1,2.4-1.1h10.9C348.7,124.7,349.8,125.2,349.8,125.8"/>
		<path id="Fill-298" class="st9" d="M367.2,125.8v4.9c0,0.6-1.1,1.1-2.4,1.1h-10.9c-1.3,0-2.4-0.5-2.4-1.1v-4.9
			c0-0.6,1.1-1.1,2.4-1.1h10.9C366.1,124.7,367.2,125.2,367.2,125.8"/>
		<path id="Fill-300" class="st9" d="M384.6,125.8v4.9c0,0.6-1.1,1.1-2.4,1.1h-10.9c-1.3,0-2.4-0.5-2.4-1.1v-4.9
			c0-0.6,1.1-1.1,2.4-1.1h10.9C383.6,124.7,384.6,125.2,384.6,125.8"/>
		<path id="Fill-302" class="st9" d="M402.4,125.6v5c0,0.6-1.1,1.1-2.4,1.1h-10.9c-1.3,0-2.4-0.5-2.4-1.1v-5c0-0.6,1.1-1.1,2.4-1.1
			H400C401.4,124.5,402.4,125,402.4,125.6"/>
		<path id="Fill-304" class="st9" d="M420.2,125.6v5c0,0.6-1.1,1.1-2.4,1.1h-10.9c-1.3,0-2.4-0.5-2.4-1.1v-5c0-0.6,1.1-1.1,2.4-1.1
			h10.9C419.2,124.5,420.2,125,420.2,125.6"/>
		<path id="Fill-306" class="st9" d="M420.2,136.4v9.7c0,1.2-1.4,2.1-3,2.1h-14c-1.7,0-3.1-0.9-3.1-2.1v-9.7c0-1.2,1.4-2.1,3.1-2.1
			h14C418.9,134.2,420.2,135.2,420.2,136.4"/>
		<path id="Fill-308" class="st9" d="M191.4,201.7v9.7c-0.1,1.2-1.1,2.2-2.3,2.1h-5.8c-1.2,0.1-2.3-0.9-2.3-2.1v-9.7
			c0.1-1.2,1.1-2.2,2.3-2.1h5.8C190.3,199.6,191.4,200.5,191.4,201.7"/>
		<path id="Fill-310" class="st9" d="M204.3,201.7v9.7c-0.1,1.2-1.1,2.2-2.3,2.1h-5.8c-1.2,0.1-2.3-0.9-2.3-2.1v-9.7
			c0.1-1.2,1.1-2.2,2.3-2.1h5.8C203.2,199.6,204.2,200.5,204.3,201.7"/>
		<path id="Fill-312" class="st9" d="M217.1,201.7v9.7c-0.1,1.2-1.1,2.2-2.3,2.1H209c-1.2,0.1-2.3-0.9-2.3-2.1v-9.7
			c0.1-1.2,1.1-2.2,2.3-2.1h5.8C216,199.6,217.1,200.5,217.1,201.7"/>
		<path id="Fill-314" class="st9" d="M366.4,201.7v9.7c-0.1,1.2-1.1,2.2-2.3,2.1h-5.8c-1.2,0-2.3-0.9-2.3-2.1v-9.7
			c0.1-1.2,1.1-2.2,2.3-2.1h5.8C365.3,199.6,366.3,200.5,366.4,201.7"/>
		<path id="Fill-316" class="st9" d="M238.3,201.7v9.7c-0.1,1.2-1.1,2.2-2.3,2.1h-14.1c-1.2,0.1-2.3-0.9-2.3-2.1v-9.7
			c0.1-1.2,1.1-2.2,2.3-2.1H236C237.2,199.6,238.2,200.5,238.3,201.7"/>
		<path id="Fill-318" class="st9" d="M353.4,201.7v9.7c-0.1,1.2-1.1,2.2-2.3,2.1H337c-1.2,0.1-2.3-0.9-2.3-2.1v-9.7
			c0.1-1.2,1.1-2.2,2.3-2.1h14.1C352.3,199.6,353.4,200.5,353.4,201.7"/>
		<path id="Fill-320" class="st9" d="M420.3,208.7v2.7c-0.1,1.2-1.1,2.2-2.3,2.1h-10.7c-1.2,0.1-2.3-0.9-2.3-2.1l0,0l0,0v-2.7
			c0.1-1.2,1.1-2.2,2.3-2.1l0,0H418C419.2,206.5,420.2,207.5,420.3,208.7"/>
		<path id="Fill-322" class="st9" d="M402.6,208.7v2.7c-0.1,1.2-1.1,2.2-2.3,2.1h-10.8c-1.2,0.1-2.3-0.9-2.3-2.1l0,0l0,0v-2.7
			c0.1-1.2,1.1-2.2,2.3-2.1l0,0h10.7C401.5,206.5,402.5,207.5,402.6,208.7"/>
		<path id="Fill-324" class="st9" d="M402.6,201.7v2.7c-0.1,1.2-1.1,2.2-2.3,2.1h-10.8c-1.2,0.1-2.3-0.9-2.3-2.1v-2.7
			c0.1-1.2,1.1-2.2,2.3-2.1h10.7C401.5,199.6,402.5,200.5,402.6,201.7"/>
		<path id="Fill-326" class="st9" d="M384.5,208.7v2.7c-0.1,1.2-1.1,2.2-2.3,2.1l0,0h-10.8c-1.2,0.1-2.3-0.9-2.3-2.1v-2.7
			c0.1-1.2,1.1-2.2,2.3-2.1h10.7C383.4,206.5,384.4,207.5,384.5,208.7L384.5,208.7L384.5,208.7"/>
		<path id="Fill-328" class="st9" d="M332.2,201.7v9.7c-0.1,1.2-1.1,2.2-2.3,2.1h-87c-1.2,0.1-2.3-0.9-2.3-2.1v-9.7
			c0.1-1.2,1.1-2.2,2.3-2.1h87C331.1,199.6,332.1,200.5,332.2,201.7"/>
		<polygon id="Fill-330" class="st10" points="197.5,114.8 403.5,114.8 403.5,106.3 197.5,106.3 		"/>
		<path id="Fill-332" class="st11" d="M399.3,100.1H201.7c-2.3,0-4.2,1.9-4.2,4.2v4.1h205.9v-4.1C403.5,102,401.6,100.1,399.3,100.1
			L399.3,100.1L399.3,100.1"/>
		<polyline id="Fill-333" class="st12" points="404.4,49.5 404.4,59.6 404.4,59.6 404.4,61.6 244.9,61.6 244.9,59.6 244.9,59.6 
			244.9,49.5 		"/>
		<path id="Fill-334" class="st12" d="M161.5,49.5v47c0,5,4.1,9.1,9.3,9.8l0,0c0.5,0.1,0.9,0.1,1.4,0.1h256.4c6,0,10.8-4.4,10.8-9.8
			v-47"/>
		<path id="Fill-335" d="M238.6,61.6h174.5 M439.4,49.5H161.5v41.8c0.1,3.1,2.8,5.5,5.9,5.4h266.1c3.1,0.1,5.7-2.3,5.9-5.4"/>
		<polygon id="Fill-336" class="st13" points="244.9,59.2 404.4,59.2 404.4,49.5 244.9,49.5 		"/>
		<polyline id="Fill-337" class="st13" points="426.7,49.5 426.7,86.9 174.2,86.9 174.2,49.5 238.6,49.5 		"/>
		<path id="Fill-338" class="st14" d="M326.4,71.3H276c-0.8,0-1.4,0.6-1.4,1.4v12.8c0,0.8,0.6,1.4,1.4,1.4h50.5
			c0.8,0,1.4-0.6,1.4-1.4V72.8C327.8,72,327.2,71.3,326.4,71.3"/>
		<polygon id="Fill-339" class="st15" points="241.2,59.1 413.3,59.1 413.3,49.5 241.2,49.5 		"/>
		<path id="Fill-340" class="st16" d="M186.2,49.5v16.7c0.1,1.5,1.5,2.7,3,2.6h220.9c1.5,0.1,2.9-1,3-2.6v-6.5H244.9V49.5"/>
		<path id="Stroke-341" class="st17" d="M413.1,59.6H186.7"/>
		<polyline id="Stroke-342" class="st17" points="244.9,59.6 244.9,59.6 244.9,49.5 		"/>
		<path id="Fill-343" class="st18" d="M279.5,297.6c0-1.2,1.9-2.2,4.3-2.2h37.3c2.4,0,4.3,1,4.3,2.2H279.5z"/>
		<path id="Fill-344" class="st1" d="M325.3,297.7c0,1.2-1.9,2.2-4.3,2.2h-37.2c-2.4,0-4.3-1-4.3-2.2H325.3z"/>
		<path id="Fill-345" class="st19" d="M288.3,85.1c0,0.3-0.2,0.5-0.5,0.5l0,0c-0.3,0-0.5-0.2-0.5-0.5s0.2-0.5,0.5-0.5
			C288,84.6,288.2,84.8,288.3,85.1C288.2,85.1,288.2,85.1,288.3,85.1L288.3,85.1"/>
		<path id="Fill-346" class="st20" d="M288.9,82.6h-4.6c-0.4,0-0.8-0.3-0.9-0.8v-7.4c0-0.4,0.4-0.8,0.9-0.8h3.3l-1.2,3.1
			c-0.1,0.3,0.1,0.6,0.5,0.6h0.6c0.2,0,0.4,0.1,0.5,0.3l0,0c0,0.1,0.1,0.1,0.1,0.2L288.9,82.6z"/>
		<path id="Fill-347" class="st21" d="M292.4,74.4v7.4c0,0.5-0.4,0.8-0.9,0.8h-2.6l-0.6-4.8c0-0.1,0-0.1-0.1-0.2l0,0
			c-0.1-0.2-0.3-0.3-0.5-0.3h-0.6c-0.4,0-0.6-0.3-0.5-0.6l1.1-3.1h3.8C292,73.6,292.4,73.9,292.4,74.4"/>
		<path id="Stroke-348" class="st22" d="M285.4,76.7v-1.4"/>
		<path id="Stroke-349" class="st22" d="M289.8,76.7v-1.4"/>
		<path id="Stroke-350" class="st22" d="M285.4,79.8c0,0,2.5,1.7,4.8,0"/>
		<path id="Fill-351" class="st23" d="M304.7,82.6h-6.5c-0.7,0-1.3-0.5-1.3-1.2l0,0l0,0v-6.6c0-0.7,0.5-1.3,1.2-1.3l0,0h6.6
			c0.7,0,1.3,0.5,1.3,1.2l0,0v6.6C306,82,305.4,82.6,304.7,82.6L304.7,82.6L304.7,82.6"/>
		<path id="Fill-352" class="st24" d="M304.4,82.2h-5.9c-0.7,0-1.3-0.5-1.3-1.2l0,0l0,0v-5.9c0-0.7,0.5-1.3,1.2-1.3l0,0h5.9
			c0.7,0,1.3,0.6,1.3,1.3V81C305.7,81.7,305.1,82.3,304.4,82.2"/>
		<text transform="matrix(1 0 0 1 297.9998 79.35)" class="st25 st26 st27">Xd</text>
		<path id="Fill-354" class="st28" d="M318.1,83.4h-6.3c-0.7,0-1.2-0.6-1.2-1.3v-6.3c0-0.7,0.5-1.3,1.2-1.3l0,0h6.3
			c0.7,0,1.3,0.6,1.3,1.3l0,0l0,0v6.3C319.4,82.8,318.8,83.4,318.1,83.4L318.1,83.4L318.1,83.4"/>
		<path id="Fill-356" class="st29" d="M318.1,82.7h-6.3c-0.7,0-1.2-0.6-1.2-1.3v-6.3c0-0.7,0.5-1.3,1.2-1.3l0,0h6.3
			c0.7,0,1.3,0.6,1.3,1.3l0,0l0,0v6.3C319.4,82.1,318.8,82.7,318.1,82.7L318.1,82.7L318.1,82.7"/>
		<path id="Fill-358" class="st30" d="M317.1,81.7h-4.4c-0.7,0-1.2-0.6-1.2-1.3V76c0-0.7,0.5-1.3,1.2-1.3l0,0h4.4
			c0.7,0,1.3,0.6,1.3,1.3v4.4C318.4,81.1,317.8,81.7,317.1,81.7"/>
		<polygon id="Fill-360" class="st31" points="314.5,75.4 312.1,75.4 312.1,81 314.5,81 314.5,80.1 313.3,80.1 313.3,76.3 
			314.5,76.3 		"/>
		<polygon id="Fill-362" class="st31" points="315.3,81 317.9,81 317.9,75.4 315.3,75.4 315.3,76.4 316.6,76.4 316.6,80.1 
			315.3,80.1 		"/>
		<path id="Fill-364" class="st32" d="M172.4,107c0,0-9.9-1.4-10.9,7.1l49.4,35.2h231.2v-35.2c0,0,0.3-6.4-7.8-7.1
			C425.8,107.1,172.4,107,172.4,107"/>
	</g>
	<g>
		<g>
			<path class="st33" d="M509,277.6c-4.6,10.4-16.5,15.2-26.7,10.7l-9.8-4.3c-10.2-4.5-14.7-16.5-10.1-26.9L509,277.6z"/>
			<g>
				<path class="st34" d="M532.3,226l-22.2,50.7c-4.6,10.4-16.7,15.1-27.1,10.6l-10-4.4c-10.4-4.6-15.1-16.7-10.6-27.1l22.2-50.7
					c4.6-10.4,16.7-15.1,27.1-10.6l10,4.4C532.2,203.4,536.9,215.6,532.3,226z"/>
				<path class="st15" d="M474.7,283.6l-1.7-0.8c-10.4-4.6-15.1-16.7-10.6-27.1l22.2-50.7c4.6-10.4,16.7-15.1,27.1-10.6l1.7,0.8
					c-10.4-4.6-22.5,0.2-27.1,10.6l-22.2,50.7C459.6,266.9,464.3,279,474.7,283.6z"/>
				<path class="st35" d="M511.9,272.5l-1.8,4c-4.6,10.4-16.7,15.1-27.1,10.6l-10-4.4c-10.4-4.6-15.1-16.7-10.6-27.1l1.8-4
					c-4.6,10.4,0.2,22.5,10.6,27.1l10,4.4C495.2,287.7,507.3,282.9,511.9,272.5z"/>
				<path class="st35" d="M482.9,209.1l1.8-4c4.6-10.4,16.7-15.1,27.1-10.6l10,4.4c10.4,4.6,15.1,16.7,10.6,27.1l-1.8,4
					c4.6-10.4-0.2-22.5-10.6-27.1l-10-4.4C499.6,193.9,487.5,198.7,482.9,209.1z"/>
				<g>
					<path class="st36" d="M483.6,269.8c-0.1,0-0.1,0-0.2-0.1c0,0-0.1-0.1-0.1-0.1c-0.1-0.1-0.2-0.3-0.3-0.5c-0.2-0.5-0.2-1-0.2-1.5
						c0-0.6,0.1-1.2,0.4-1.7c0.2-0.4,0.4-0.7,0.8-1c0.4-0.3,0.9-0.4,1.5-0.3c0.2,0,0.4,0.1,0.6,0.2c0.2,0.1,0.3,0.3,0.5,0.4
						c0.1,0.1,0.3,0.2,0.5,0.2c0.1,0,0.3,0,0.4,0c0.2,0,0.4,0,0.6,0.1c0.4,0.2,0.7,0.4,0.9,0.8c0.1,0.2,0.1,0.3,0.2,0.5c0,0,0,0,0,0
						c-0.2,0-0.4,0.1-0.5,0.2c-0.4,0.2-0.7,0.6-0.8,1c-0.1,0.3-0.1,0.6,0,1c0.1,0.2,0.2,0.4,0.3,0.5c0,0,0,0.1,0,0.1
						c-0.1,0.1-0.1,0.1-0.2,0.2c-0.3,0.3-0.5,0.5-0.8,0.6c-0.2,0.1-0.4,0.3-0.7,0.3c-0.2,0.1-0.4,0-0.7-0.1
						c-0.2-0.1-0.3-0.2-0.4-0.3c-0.3-0.3-0.6-0.5-1-0.5c-0.1,0-0.2,0-0.3,0C483.9,269.8,483.7,269.8,483.6,269.8z"/>
					<path class="st36" d="M486.8,264.9c0.2-0.8,1.2-1.3,2.1-1c0,0.1,0,0.1-0.1,0.2c-0.2,0.4-0.6,0.7-1.1,0.9
						C487.4,265,487.2,265,486.8,264.9C486.9,264.9,486.8,264.9,486.8,264.9z"/>
				</g>
			</g>
		</g>
	</g>
	<circle class="st37" cx="103.4" cy="116.4" r="36.8"/>
	<circle class="st38" cx="103.4" cy="113.9" r="37.5"/>
	<circle class="st39" cx="103.4" cy="113.9" r="30.6"/>
	<path class="st40" d="M128.6,113.9c0,3.4-2.9,4.8-3.1,9c-0.3,6.2-3.5,11.2-8.1,14c-3.8,2.3-9.2,2.2-13.9,2.2
		c-13.9,0-25.2-11.3-25.2-25.2c0-4.3,8-2.5,13.3-4.9c2.9-1.4,2.1-9.5,4-10.6c5.6-3.3,0.7-9.6,8-9.6c6.4,0,8.7,3.7,14.3,5.8
		C125.3,97.4,128.6,106.4,128.6,113.9z"/>
</g>
</svg>
