<svg id="Layer_1" data-name="Layer 1" xmlns="http://www.w3.org/2000/svg" xmlns:xlink="http://www.w3.org/1999/xlink" viewBox="0 0 800 352.09"><defs><style>.cls-1,.cls-36,.cls-37,.cls-38,.cls-40,.cls-41,.cls-42,.cls-43,.cls-44,.cls-45,.cls-47,.cls-48,.cls-52,.cls-53,.cls-54,.cls-55,.cls-56,.cls-57,.cls-60,.cls-61,.cls-64,.cls-65,.cls-66{fill:none;}.cls-1{stroke:#afafaf;}.cls-1,.cls-36,.cls-37,.cls-38,.cls-40,.cls-41,.cls-42,.cls-43,.cls-44,.cls-45,.cls-47,.cls-48,.cls-52,.cls-53,.cls-54,.cls-55,.cls-56,.cls-57,.cls-60,.cls-61,.cls-62,.cls-63,.cls-64,.cls-65,.cls-66,.cls-67{stroke-miterlimit:10;}.cls-1,.cls-37,.cls-38,.cls-40,.cls-41,.cls-42,.cls-43,.cls-44,.cls-45,.cls-47,.cls-48,.cls-52,.cls-53,.cls-60,.cls-61,.cls-62,.cls-63,.cls-64,.cls-65,.cls-66,.cls-67{stroke-width:2px;}.cls-2,.cls-35,.cls-7{font-size:12px;}.cls-2{font-family:CircularStd-Bold, Circular Std;font-weight:700;}.cls-3{letter-spacing:0.01em;}.cls-4{letter-spacing:-0.02em;}.cls-35,.cls-5{letter-spacing:0em;}.cls-6{letter-spacing:0em;}.cls-35,.cls-7{font-family:CircularStd-Medium, Circular Std;}.cls-8{letter-spacing:-0.01em;}.cls-9{letter-spacing:-0.04em;}.cls-10{letter-spacing:0em;}.cls-11{letter-spacing:0em;}.cls-12{letter-spacing:0em;}.cls-13{letter-spacing:0em;}.cls-14{letter-spacing:-0.02em;}.cls-15{letter-spacing:0em;}.cls-16{letter-spacing:-0.01em;}.cls-17{letter-spacing:-0.01em;}.cls-18{letter-spacing:0em;}.cls-19{letter-spacing:-0.01em;}.cls-20{letter-spacing:0em;}.cls-21{letter-spacing:0em;}.cls-22{letter-spacing:0em;}.cls-23{letter-spacing:-0.04em;}.cls-24{letter-spacing:0em;}.cls-25{letter-spacing:-0.03em;}.cls-26{letter-spacing:0em;}.cls-27{letter-spacing:0em;}.cls-28{letter-spacing:0em;}.cls-29{letter-spacing:0.01em;}.cls-30{letter-spacing:-0.02em;}.cls-31{letter-spacing:-0.03em;}.cls-32{letter-spacing:-0.01em;}.cls-33{letter-spacing:0.01em;}.cls-34{letter-spacing:-0.01em;}.cls-36,.cls-54,.cls-55,.cls-56,.cls-57{stroke-width:4px;}.cls-36{stroke:url(#linear-gradient);}.cls-37{stroke:url(#linear-gradient-2);}.cls-38{stroke:url(#linear-gradient-3);}.cls-39{letter-spacing:0em;}.cls-40{stroke:url(#linear-gradient-4);}.cls-41{stroke:url(#linear-gradient-5);}.cls-42{stroke:url(#linear-gradient-6);}.cls-43{stroke:url(#linear-gradient-7);}.cls-44{stroke:url(#linear-gradient-8);}.cls-45{stroke:url(#linear-gradient-9);}.cls-46{letter-spacing:-0.01em;}.cls-47{stroke:url(#linear-gradient-10);}.cls-48{stroke:url(#linear-gradient-11);}.cls-49{letter-spacing:-0.03em;}.cls-50{letter-spacing:-0.02em;}.cls-51{letter-spacing:0.01em;}.cls-52{stroke:url(#linear-gradient-12);}.cls-53{stroke:url(#linear-gradient-13);}.cls-54{stroke:url(#linear-gradient-14);}.cls-55{stroke:url(#linear-gradient-15);}.cls-56{stroke:url(#linear-gradient-16);}.cls-57{stroke:url(#linear-gradient-17);}.cls-58{letter-spacing:0.02em;}.cls-59{letter-spacing:-0.02em;}.cls-60{stroke:url(#linear-gradient-18);}.cls-61{stroke:url(#linear-gradient-19);}.cls-62{fill:#2d2d2d;}.cls-62,.cls-64{stroke:#2d2d2d;}.cls-63{fill:#c40000;}.cls-63,.cls-66{stroke:#c40000;}.cls-65,.cls-67{stroke:#00c600;}.cls-67{fill:#00c600;}</style><linearGradient id="linear-gradient" x1="10.92" y1="56.59" x2="110.92" y2="56.59" gradientUnits="userSpaceOnUse"><stop offset="0" stop-color="#50007f"/><stop offset="0.13" stop-color="#5d098e"/><stop offset="1" stop-color="#b243ff"/></linearGradient><linearGradient id="linear-gradient-2" x1="12.01" y1="153.09" x2="110.01" y2="153.09" gradientUnits="userSpaceOnUse"><stop offset="0" stop-color="#0049a8"/><stop offset="1" stop-color="#1ca2e3"/></linearGradient><linearGradient id="linear-gradient-3" x1="311.19" y1="153.09" x2="431.19" y2="153.09" xlink:href="#linear-gradient-2"/><linearGradient id="linear-gradient-4" x1="488.13" y1="153.09" x2="624.18" y2="153.09" xlink:href="#linear-gradient-2"/><linearGradient id="linear-gradient-5" x1="488.13" y1="227.09" x2="624.18" y2="227.09" xlink:href="#linear-gradient-2"/><linearGradient id="linear-gradient-6" x1="488.13" y1="297.42" x2="624.18" y2="297.42" xlink:href="#linear-gradient-2"/><linearGradient id="linear-gradient-7" x1="664.51" y1="153.59" x2="784.51" y2="153.59" xlink:href="#linear-gradient-2"/><linearGradient id="linear-gradient-8" x1="148.4" y1="153.09" x2="272.4" y2="153.09" xlink:href="#linear-gradient-2"/><linearGradient id="linear-gradient-9" x1="302.69" y1="227.09" x2="439.69" y2="227.09" xlink:href="#linear-gradient-2"/><linearGradient id="linear-gradient-10" x1="302.69" y1="298.59" x2="439.69" y2="298.59" xlink:href="#linear-gradient-2"/><linearGradient id="linear-gradient-11" x1="148.4" y1="227.09" x2="272.4" y2="227.09" xlink:href="#linear-gradient-2"/><linearGradient id="linear-gradient-12" x1="148.4" y1="301.59" x2="272.4" y2="301.59" xlink:href="#linear-gradient-2"/><linearGradient id="linear-gradient-13" x1="12.01" y1="227.09" x2="110.01" y2="227.09" xlink:href="#linear-gradient-2"/><linearGradient id="linear-gradient-14" x1="479.02" y1="57.09" x2="633.29" y2="57.09" xlink:href="#linear-gradient"/><linearGradient id="linear-gradient-15" x1="664.51" y1="57.09" x2="785.51" y2="57.09" xlink:href="#linear-gradient"/><linearGradient id="linear-gradient-16" x1="306.35" y1="56.35" x2="436.02" y2="56.35" xlink:href="#linear-gradient"/><linearGradient id="linear-gradient-17" x1="145.56" y1="56.35" x2="275.23" y2="56.35" xlink:href="#linear-gradient"/><linearGradient id="linear-gradient-18" x1="664.51" y1="227.09" x2="784.51" y2="227.09" xlink:href="#linear-gradient-2"/><linearGradient id="linear-gradient-19" x1="664.51" y1="297.42" x2="784.51" y2="297.42" xlink:href="#linear-gradient-2"/></defs><title>hiven_userflow_rev</title><line class="cls-1" x1="60.34" y1="88.59" x2="60.34" y2="128.59"/><line class="cls-1" x1="60.51" y1="178.09" x2="60.51" y2="202.09"/><line class="cls-1" x1="556.16" y1="252.09" x2="556.16" y2="272.92"/><line class="cls-1" x1="724.51" y1="252.09" x2="724.51" y2="272.92"/><line class="cls-1" x1="724.51" y1="178.09" x2="724.51" y2="202.59"/><line class="cls-1" x1="724.51" y1="89.09" x2="724.51" y2="129.09"/><text class="cls-2" transform="translate(23.24 59.92)"><tspan class="cls-3">L</tspan><tspan x="6.79" y="0">anding </tspan><tspan class="cls-4" x="48.06" y="0">P</tspan><tspan class="cls-5" x="55.12" y="0">a</tspan><tspan class="cls-6" x="61.56" y="0">ge</tspan></text><text class="cls-7" transform="translate(354.03 150.92)"><tspan class="cls-8">S<tspan class="cls-6" x="7.1" y="0">elect</tspan></tspan><tspan class="cls-9" x="-13.81" y="14.4">W</tspan><tspan x="-2.05" y="14.4">o</tspan><tspan class="cls-10" x="4.9" y="14.4">r</tspan><tspan x="9.49" y="14.4">ksp</tspan><tspan class="cls-11" x="28.75" y="14.4">a</tspan><tspan class="cls-12" x="35.12" y="14.4">c</tspan><tspan x="41.55" y="14.4">e</tspan></text><text class="cls-7" transform="translate(702.42 149.86)"><tspan class="cls-13">B<tspan class="cls-6" x="7.34" y="0">ooking</tspan></tspan><tspan class="cls-14" x="-14.04" y="14.4">C</tspan><tspan class="cls-6" x="-5.16" y="14.4">onfi</tspan><tspan class="cls-10" x="16.1" y="14.4">r</tspan><tspan class="cls-6" x="20.69" y="14.4">m</tspan><tspan class="cls-5" x="31.16" y="14.4">a</tspan><tspan class="cls-10" x="37.52" y="14.4">t</tspan><tspan x="41.93" y="14.4">ion</tspan></text><text class="cls-7" transform="translate(314.69 225.92)"><tspan class="cls-8">S</tspan><tspan class="cls-6" x="7.1" y="0">elec</tspan><tspan class="cls-15" x="29.94" y="0">t</tspan><tspan x="34.28" y="0">ed </tspan><tspan class="cls-9" x="51.06" y="0">W</tspan><tspan x="62.82" y="0">o</tspan><tspan class="cls-10" x="69.77" y="0">r</tspan><tspan x="74.35" y="0">ksp</tspan><tspan class="cls-11" x="93.61" y="0">a</tspan><tspan class="cls-16" x="99.98" y="0">c</tspan><tspan class="cls-6" x="106.41" y="0">e</tspan><tspan x="24.4" y="14.4">In</tspan><tspan class="cls-17" x="34.79" y="14.4">f</tspan><tspan class="cls-6" x="38.81" y="14.4">o</tspan><tspan class="cls-18" x="45.76" y="14.4">r</tspan><tspan class="cls-6" x="50.34" y="14.4">m</tspan><tspan class="cls-5" x="60.81" y="14.4">a</tspan><tspan class="cls-10" x="67.17" y="14.4">t</tspan><tspan x="71.58" y="14.4">ion</tspan></text><text class="cls-7" transform="translate(171.99 156.92)">In<tspan class="cls-15" x="10.39" y="0">p</tspan><tspan x="17.6" y="0">ut </tspan><tspan class="cls-19" x="31.88" y="0">A</tspan><tspan class="cls-6" x="40.3" y="0">dd</tspan><tspan class="cls-20" x="54.74" y="0">r</tspan><tspan class="cls-6" x="59.27" y="0">ess</tspan></text><text class="cls-2" transform="translate(319.01 46.67)"><tspan class="cls-21">S</tspan><tspan class="cls-6" x="7.2" y="0">ea</tspan><tspan class="cls-5" x="20.3" y="0">r</tspan><tspan class="cls-22" x="24.97" y="0">ch </tspan><tspan class="cls-23" x="41.54" y="0">W</tspan><tspan class="cls-6" x="53.41" y="0">o</tspan><tspan class="cls-24" x="60.42" y="0">r</tspan><tspan x="65.15" y="0">ksp</tspan><tspan class="cls-5" x="84.73" y="0">a</tspan><tspan class="cls-12" x="91.17" y="0">c</tspan><tspan x="97.71" y="0">e</tspan><tspan class="cls-14" x="2.93" y="14.4">P</tspan><tspan class="cls-5" x="9.99" y="14.4">a</tspan><tspan class="cls-22" x="16.43" y="14.4">ge </tspan><tspan class="cls-25" x="33.2" y="14.4">w</tspan><tspan class="cls-6" x="42.86" y="14.4">/ </tspan><tspan class="cls-5" x="51.52" y="14.4">M</tspan><tspan class="cls-20" x="62.93" y="14.4">a</tspan><tspan class="cls-26" x="69.37" y="14.4">t</tspan><tspan x="73.82" y="14.4">ched</tspan><tspan class="cls-27" x="5.52" y="28.8">L</tspan><tspan x="12.25" y="28.8">o</tspan><tspan class="cls-26" x="19.26" y="28.8">c</tspan><tspan class="cls-20" x="25.84" y="28.8">a</tspan><tspan class="cls-28" x="32.27" y="28.8">t</tspan><tspan x="36.78" y="28.8">ion + D</tspan><tspan class="cls-20" x="75.78" y="28.8">a</tspan><tspan class="cls-26" x="82.21" y="28.8">t</tspan><tspan x="86.66" y="28.8">es</tspan></text><text class="cls-2" transform="translate(494.8 55.92)"><tspan class="cls-29">B</tspan><tspan x="7.38" y="0">ooking </tspan><tspan class="cls-30" x="48.54" y="0">C</tspan><tspan class="cls-6" x="57.5" y="0">onfi</tspan><tspan class="cls-24" x="79.09" y="0">r</tspan><tspan x="83.82" y="0">m</tspan><tspan class="cls-15" x="94.45" y="0">a</tspan><tspan class="cls-28" x="100.88" y="0">t</tspan><tspan x="105.39" y="0">ion</tspan><tspan class="cls-14" x="47.71" y="14.4">P</tspan><tspan class="cls-5" x="54.76" y="14.4">a</tspan><tspan x="61.21" y="14.4">ge</tspan></text><text class="cls-2" transform="translate(673.41 56.92)"><tspan class="cls-31">P</tspan><tspan x="6.9" y="0">ost-</tspan><tspan class="cls-30" x="28.48" y="0">C</tspan><tspan class="cls-6" x="37.44" y="0">onfi</tspan><tspan class="cls-28" x="59.03" y="0">r</tspan><tspan x="63.76" y="0">m</tspan><tspan class="cls-20" x="74.39" y="0">a</tspan><tspan class="cls-24" x="80.82" y="0">t</tspan><tspan class="cls-6" x="85.33" y="0">ion</tspan><tspan class="cls-14" x="37.67" y="14.4">P</tspan><tspan class="cls-5" x="44.73" y="14.4">a</tspan><tspan x="51.17" y="14.4">ge</tspan></text><text class="cls-7" transform="translate(168.62 223.92)">In<tspan class="cls-15" x="10.39" y="0">p</tspan><tspan x="17.6" y="0">ut </tspan><tspan class="cls-32" x="31.88" y="0">P</tspan><tspan class="cls-20" x="38.95" y="0">r</tspan><tspan x="43.48" y="0">e</tspan><tspan class="cls-17" x="50.05" y="0">f</tspan><tspan x="54.07" y="0">e</tspan><tspan class="cls-10" x="60.65" y="0">r</tspan><tspan class="cls-20" x="65.23" y="0">r</tspan><tspan x="69.75" y="0">ed</tspan><tspan x="5.38" y="14.4">D</tspan><tspan class="cls-26" x="14.04" y="14.4">a</tspan><tspan class="cls-20" x="20.4" y="14.4">t</tspan><tspan class="cls-6" x="24.74" y="14.4">e</tspan><tspan class="cls-33" x="31.32" y="14.4">s</tspan><tspan class="cls-6" x="36.89" y="14.4">/ </tspan><tspan class="cls-34" x="45.33" y="14.4">T</tspan><tspan class="cls-22" x="52.46" y="14.4">imes</tspan></text><text class="cls-35" transform="translate(37.61 150.92)">L<tspan class="cls-6" x="6.64" y="0">og In / </tspan><tspan class="cls-15"><tspan x="1.4" y="14.4">S</tspan><tspan class="cls-22" x="8.55" y="14.4">ign </tspan><tspan class="cls-12" x="28.66" y="14.4">U</tspan><tspan class="cls-22" x="36.8" y="14.4">p</tspan></tspan></text><text class="cls-7" transform="translate(46.45 223.92)"><tspan class="cls-29">B</tspan><tspan x="7.34" y="0">ook</tspan><tspan class="cls-9" x="-17.08" y="14.4">W</tspan><tspan x="-5.32" y="14.4">o</tspan><tspan class="cls-10" x="1.63" y="14.4">r</tspan><tspan x="6.21" y="14.4">ksp</tspan><tspan class="cls-11" x="25.47" y="14.4">a</tspan><tspan class="cls-12" x="31.84" y="14.4">c</tspan><tspan x="38.27" y="14.4">e</tspan></text><rect class="cls-36" x="12.92" y="25.09" width="96" height="63"/><rect class="cls-37" x="13.01" y="128.59" width="96" height="49" rx="24.5" ry="24.5"/><rect class="cls-38" x="312.19" y="128.59" width="118" height="49" rx="24.5" ry="24.5"/><text class="cls-7" transform="translate(501.1 150.92)"><tspan class="cls-14">C</tspan><tspan class="cls-6" x="8.88" y="0">onfi</tspan><tspan class="cls-10" x="30.14" y="0">r</tspan><tspan class="cls-6" x="34.73" y="0">m </tspan><tspan class="cls-9" x="48.18" y="0">W</tspan><tspan x="59.94" y="0">o</tspan><tspan class="cls-10" x="66.89" y="0">r</tspan><tspan x="71.47" y="0">ksp</tspan><tspan class="cls-11" x="90.73" y="0">a</tspan><tspan class="cls-16" x="97.1" y="0">c</tspan><tspan class="cls-6" x="103.53" y="0">e</tspan><tspan class="cls-39"><tspan x="31.15" y="14.4">L</tspan><tspan class="cls-6" x="37.78" y="14.4">o</tspan><tspan class="cls-15" x="44.73" y="14.4">c</tspan><tspan class="cls-5" x="51.19" y="14.4">a</tspan><tspan class="cls-10" x="57.55" y="14.4">t</tspan><tspan class="cls-22" x="61.95" y="14.4">ion</tspan></tspan></text><rect class="cls-40" x="489.13" y="128.59" width="134.05" height="49" rx="24.5" ry="24.5"/><text class="cls-7" transform="translate(509.61 224.92)"><tspan class="cls-14">C<tspan class="cls-6" x="8.88" y="0">onfi</tspan><tspan class="cls-10" x="30.14" y="0">r</tspan><tspan class="cls-6" x="34.73" y="0">m </tspan><tspan class="cls-13" x="48.18" y="0">B</tspan><tspan class="cls-6" x="55.52" y="0">ooking</tspan></tspan><tspan class="cls-34" x="13.44" y="14.4">T</tspan><tspan x="20.57" y="14.4">ime + D</tspan><tspan class="cls-5" x="62.36" y="14.4">a</tspan><tspan class="cls-15" x="68.72" y="14.4">t</tspan><tspan x="73.07" y="14.4">e</tspan></text><rect class="cls-41" x="489.13" y="202.59" width="134.05" height="49" rx="24.5" ry="24.5"/><text class="cls-7" transform="translate(514.85 295.26)"><tspan class="cls-34">P</tspan><tspan class="cls-20" x="7.07" y="0">r</tspan><tspan class="cls-6" x="11.59" y="0">om</tspan><tspan class="cls-20" x="29.02" y="0">p</tspan><tspan x="36.23" y="0">t </tspan><tspan class="cls-5" x="43.58" y="0">U</tspan><tspan class="cls-15" x="51.76" y="0">s</tspan><tspan x="57.2" y="0">er </tspan><tspan class="cls-15" x="71.31" y="0">t</tspan><tspan x="75.66" y="0">o</tspan><tspan class="cls-15"><tspan x="-2.74" y="14.4">S</tspan><tspan class="cls-22" x="4.41" y="14.4">ign </tspan><tspan class="cls-12" x="24.52" y="14.4">U</tspan><tspan class="cls-22" x="32.66" y="14.4">p / </tspan><tspan class="cls-39" x="51.33" y="14.4">L</tspan><tspan class="cls-6" x="57.96" y="14.4">og In</tspan></tspan></text><rect class="cls-42" x="489.13" y="272.92" width="134.05" height="49" rx="24.5" ry="24.5"/><rect class="cls-43" x="665.51" y="129.09" width="118" height="49" rx="24.5" ry="24.5"/><rect class="cls-44" x="149.4" y="128.59" width="122" height="49" rx="24.5" ry="24.5"/><rect class="cls-45" x="303.69" y="202.59" width="135" height="49" rx="24.5" ry="24.5"/><text class="cls-7" transform="translate(331.77 297.42)"><tspan class="cls-13">B</tspan><tspan class="cls-6" x="7.34" y="0">ook </tspan><tspan class="cls-46" x="30.74" y="0">S</tspan><tspan x="37.85" y="0">elec</tspan><tspan class="cls-20" x="60.68" y="0">t</tspan><tspan class="cls-6" x="65.03" y="0">ed</tspan><tspan class="cls-9" x="8.45" y="14.4">W</tspan><tspan x="20.21" y="14.4">o</tspan><tspan class="cls-10" x="27.16" y="14.4">r</tspan><tspan x="31.74" y="14.4">ksp</tspan><tspan class="cls-11" x="51" y="14.4">a</tspan><tspan class="cls-12" x="57.37" y="14.4">c</tspan><tspan x="63.8" y="14.4">e</tspan></text><rect class="cls-47" x="303.69" y="274.09" width="135" height="49" rx="24.5" ry="24.5"/><rect class="cls-48" x="149.4" y="202.59" width="122" height="49" rx="24.5" ry="24.5"/><text class="cls-7" transform="translate(175.66 298.42)"><tspan class="cls-49">P</tspan><tspan x="6.8" y="0">e</tspan><tspan class="cls-24" x="13.38" y="0">r</tspan><tspan class="cls-15" x="17.98" y="0">s</tspan><tspan x="23.42" y="0">onali</tspan><tspan class="cls-5" x="50.02" y="0">z</tspan><tspan x="55.68" y="0">ed</tspan><tspan class="cls-8" x="-5.41" y="14.4">S</tspan><tspan class="cls-6" x="1.69" y="14.4">ea</tspan><tspan class="cls-20" x="14.65" y="14.4">r</tspan><tspan x="19.18" y="14.4">ch </tspan><tspan class="cls-50" x="35.53" y="14.4">R</tspan><tspan x="42.79" y="14.4">e</tspan><tspan class="cls-16" x="49.37" y="14.4">s</tspan><tspan class="cls-6" x="54.79" y="14.4">ul</tspan><tspan class="cls-51" x="64.91" y="14.4">t</tspan><tspan x="69.41" y="14.4">s</tspan></text><rect class="cls-52" x="149.4" y="277.09" width="122" height="49" rx="24.5" ry="24.5"/><rect class="cls-53" x="13.01" y="202.59" width="96" height="49" rx="24.5" ry="24.5"/><rect class="cls-54" x="481.02" y="25.59" width="150.27" height="63"/><rect class="cls-55" x="666.51" y="25.59" width="117" height="63"/><rect class="cls-56" x="308.35" y="24.85" width="125.67" height="63"/><text class="cls-2" transform="translate(158.22 52.67)"><tspan class="cls-21">S</tspan><tspan class="cls-6" x="7.2" y="0">ea</tspan><tspan class="cls-5" x="20.3" y="0">r</tspan><tspan class="cls-22" x="24.97" y="0">ch </tspan><tspan class="cls-23" x="41.54" y="0">W</tspan><tspan class="cls-6" x="53.41" y="0">o</tspan><tspan class="cls-24" x="60.42" y="0">r</tspan><tspan x="65.15" y="0">ksp</tspan><tspan class="cls-5" x="84.73" y="0">a</tspan><tspan class="cls-12" x="91.17" y="0">c</tspan><tspan x="97.71" y="0">e</tspan><tspan class="cls-14" x="38.53" y="14.4">P</tspan><tspan class="cls-5" x="45.58" y="14.4">a</tspan><tspan x="52.03" y="14.4">ge</tspan></text><rect class="cls-57" x="147.56" y="24.85" width="125.67" height="63"/><text></text><text class="cls-7" transform="translate(690.11 223.36)"><tspan class="cls-5">S</tspan><tspan class="cls-24" x="7.16" y="0">t</tspan><tspan class="cls-6" x="11.58" y="0">a</tspan><tspan class="cls-58" x="17.96" y="0">r</tspan><tspan x="22.8" y="0">t Online </tspan><tspan class="cls-14" x="-10.75" y="14.4">C</tspan><tspan class="cls-6" x="-1.87" y="14.4">on</tspan><tspan class="cls-28" x="11.97" y="14.4">t</tspan><tspan class="cls-11" x="16.39" y="14.4">a</tspan><tspan x="22.76" y="14.4">ct </tspan><tspan class="cls-59" x="36.6" y="14.4">w</tspan><tspan x="46.1" y="14.4">/ </tspan><tspan class="cls-5" x="54.54" y="14.4">H</tspan><tspan x="63.45" y="14.4">ost</tspan></text><rect class="cls-60" x="665.51" y="202.59" width="118" height="49" rx="24.5" ry="24.5"/><text></text><text class="cls-7" transform="translate(682.37 294.69)"><tspan class="cls-19">A</tspan><tspan x="8.41" y="0">dd </tspan><tspan class="cls-29" x="25.84" y="0">B</tspan><tspan x="33.18" y="0">ooking </tspan><tspan class="cls-20" x="73.71" y="0">t</tspan><tspan class="cls-6" x="78.06" y="0">o</tspan><tspan class="cls-50" x="17.47" y="14.4">C</tspan><tspan x="26.36" y="14.4">alen</tspan><tspan class="cls-5" x="49.4" y="14.4">d</tspan><tspan class="cls-6" x="56.6" y="14.4">ar</tspan></text><rect class="cls-61" x="665.51" y="272.92" width="118" height="49" rx="24.5" ry="24.5"/><text></text><line class="cls-62" x1="371.19" y1="88.59" x2="371.19" y2="128.59"/><polygon class="cls-62" points="368.85 125.09 371.19 128.59 373.52 125.09 368.85 125.09"/><line class="cls-62" x1="210.4" y1="88.59" x2="210.4" y2="128.59"/><polygon class="cls-62" points="208.06 125.09 210.4 128.59 212.73 125.09 208.06 125.09"/><line class="cls-62" x1="556.16" y1="88.59" x2="556.16" y2="128.59"/><polygon class="cls-62" points="553.82 125.09 556.16 128.59 558.49 125.09 553.82 125.09"/><polygon class="cls-63" points="363.84 178.09 361.51 174.59 359.17 178.09 363.84 178.09"/><line class="cls-64" x1="371.19" y1="178.09" x2="371.19" y2="202.09"/><polygon class="cls-62" points="368.85 201.09 371.19 204.59 373.52 201.09 368.85 201.09"/><line class="cls-64" x1="210.4" y1="178.09" x2="210.4" y2="202.09"/><polygon class="cls-62" points="208.06 201.09 210.4 204.59 212.73 201.09 208.06 201.09"/><line class="cls-64" x1="210.4" y1="252.09" x2="210.4" y2="276.09"/><polygon class="cls-62" points="208.06 275.09 210.4 278.59 212.73 275.09 208.06 275.09"/><line class="cls-64" x1="556.16" y1="178.09" x2="556.16" y2="202.09"/><polygon class="cls-62" points="553.82 201.09 556.16 204.59 558.49 201.09 553.82 201.09"/><path class="cls-65" d="M438.51,227.09h4a13,13,0,0,1,13,13v8a13,13,0,0,1-13,13h-48a13,13,0,0,0-13,13h0"/><path class="cls-66" d="M303.51,227.09h-1a12,12,0,0,1-12-12v-13a12,12,0,0,1,12-12h47a12,12,0,0,0,12-12h0"/><path class="cls-64" d="M438.51,298.59h7.56a17.33,17.33,0,0,0,17.33-17.33V74.42a17.33,17.33,0,0,1,17.34-17.33h0"/><path class="cls-64" d="M109,153.09h0A16.89,16.89,0,0,0,125.9,136.2V72.82A16.9,16.9,0,0,0,109,55.92h0"/><path class="cls-64" d="M109,227.09h0A16.89,16.89,0,0,0,125.9,210.2V72.82a16.9,16.9,0,0,1,16.89-16.9h4.77"/><path class="cls-64" d="M271.4,301.59h0a19.12,19.12,0,0,0,19.11-19.11v-212a17.84,17.84,0,0,1,17.84-17.84h0"/><polygon class="cls-67" points="379 274.04 381.34 277.54 383.67 274.04 379 274.04"/><polyline class="cls-65" points="434.69 226.21 429.15 231.75 425.69 228.29"/><line class="cls-66" x1="307.19" y1="223.21" x2="313.19" y2="229.21"/><line class="cls-66" x1="313.19" y1="223.21" x2="307.19" y2="229.21"/><polygon class="cls-62" points="306.6 55 310.1 52.67 306.6 50.33 306.6 55"/><polygon class="cls-62" points="145.81 58.26 149.31 55.92 145.81 53.59 145.81 58.26"/><polygon class="cls-62" points="478.99 59.34 482.49 57 478.99 54.67 478.99 59.34"/><path class="cls-64" d="M623.18,297.42h6.32a18.5,18.5,0,0,0,18.5-18.5V73.17a18.51,18.51,0,0,1,18.51-18.5h0A18.51,18.51,0,0,0,648,73.17V208.58a18.51,18.51,0,0,1-18.5,18.51h-6.32"/><polygon class="cls-62" points="664.76 57 668.26 54.67 664.76 52.33 664.76 57"/><polygon class="cls-62" points="109.34 53.67 105.84 56.01 109.34 58.34 109.34 53.67"/></svg>