<svg id="Layer_1" data-name="Layer 1" xmlns="http://www.w3.org/2000/svg" viewBox="0 0 434.11 152.11"><defs><style>.cls-1{opacity:0.5;}.cls-2{fill:#565656;}.cls-3{fill:#d6d6d6;}.cls-4{fill:#eff0f0;}.cls-5{fill:#e0e0e0;}.cls-6{fill:#f5f6f6;}.cls-7{fill:#c9c9c9;}.cls-8{fill:#e2e2e2;}.cls-9{fill:#4c4c4c;}.cls-10{fill:#141414;}.cls-11{fill:#b7b7b7;}.cls-12{fill:#848484;}.cls-13{fill:#353535;}.cls-14{fill:#9ffffa;}.cls-15{fill:#5a5a5a;}.cls-16{fill:#fff;}.cls-17{fill:#ebebeb;}.cls-18,.cls-23{fill:none;}.cls-18{stroke:#cbcbcb;}.cls-19{fill:#aaa;}.cls-20{fill:#282828;}.cls-21{fill:#29a5f4;}.cls-22{fill:#e7eef5;}.cls-23{stroke:#282828;stroke-linecap:round;stroke-width:0.25px;}.cls-24{fill:#f932bb;}.cls-25{fill:#2c011f;}.cls-26{fill:#fddbf2;}.cls-27{opacity:0.75;}.cls-28{fill:#0d5d90;}.cls-29{fill:#1ba9df;}.cls-30{fill:#fdfdfd;}.cls-31{fill:#4d4d4d;}.cls-32{fill:#4f4f4f;fill-opacity:0.44;}</style></defs><title>hiven-card-img</title><g id="Group-368"><g id="Group-3" class="cls-1"><path id="Fill-1" class="cls-2" d="M287.67,135.38v3.42a3.81,3.81,0,0,1-3.95,3.65H149a3.82,3.82,0,0,1-4-3.65v-3.42Z"/></g><g id="Group-6"><path id="Fill-4" class="cls-3" d="M288.14,130.62v5.16c0,3-1.79,5.48-4,5.48H148.59c-2.2,0-4-2.45-4-5.48v-5.16Z"/></g><path id="Fill-7" class="cls-4" d="M282.19,137.84H150.55a6,6,0,0,1-6-6h0V45a6,6,0,0,1,6-5.95H282.19A6,6,0,0,1,288.14,45h0v86.91a6,6,0,0,1-5.95,6h0"/><path id="Fill-9" class="cls-5" d="M237.1,133.22H196.62a3,3,0,0,1-3-3V103a3,3,0,0,1,3-3H237.1a3,3,0,0,1,3,3h0v27.24a3,3,0,0,1-3,3"/><path id="Fill-11" class="cls-6" d="M236.31,132.66H197.43a3,3,0,0,1-3-3V103.56a3,3,0,0,1,3-3h38.9a3,3,0,0,1,3,3v26.09a3,3,0,0,1-3,3"/><path id="Fill-13" class="cls-7" d="M278.43,96.9H154.31a1.84,1.84,0,0,1-1.84-1.84V48.26a1.84,1.84,0,0,1,1.84-1.84H278.43a1.84,1.84,0,0,1,1.85,1.84v46.8a1.84,1.84,0,0,1-1.85,1.84"/><path id="Fill-15" class="cls-8" d="M277.68,96.27H155.06a1.84,1.84,0,0,1-1.84-1.84V48.92a1.84,1.84,0,0,1,1.84-1.79H277.68a1.83,1.83,0,0,1,1.84,1.79V94.39a1.83,1.83,0,0,1-1.79,1.88h-.05"/><g id="Group-173"><path id="Fill-17" class="cls-9" d="M187.6,79.12a1.14,1.14,0,0,1,1.23,1.06h0v5a1.15,1.15,0,0,1-1.18,1.12h-5.53a1.14,1.14,0,0,1-1.19-1.09v-5a1.15,1.15,0,0,1,1.19-1.1Z"/><path id="Fill-19" class="cls-9" d="M170.44,80.19v5a1.14,1.14,0,0,1-1.19,1.09H156.09a1.14,1.14,0,0,1-1.19-1.09v-5a1.16,1.16,0,0,1,1.19-1.1h13.16a1.16,1.16,0,0,1,1.19,1.1"/><path id="Fill-21" class="cls-9" d="M278.58,80.19v5a1.14,1.14,0,0,1-1.19,1.09H264.23A1.14,1.14,0,0,1,263,85.19v-5a1.16,1.16,0,0,1,1.19-1.1h13.16a1.16,1.16,0,0,1,1.19,1.1h0"/><path id="Fill-23" class="cls-9" d="M179.67,80.19v5a1.14,1.14,0,0,1-1.19,1.09H173a1.16,1.16,0,0,1-1.2-1.09v-5a1.16,1.16,0,0,1,1.2-1.1h5.48a1.15,1.15,0,0,1,1.19,1.1"/><path id="Fill-25" class="cls-9" d="M197.93,80.19v5a1.14,1.14,0,0,1-1.19,1.09h-5.49a1.14,1.14,0,0,1-1.18-1.09v-5a1.14,1.14,0,0,1,1.18-1.1h5.49a1.16,1.16,0,0,1,1.19,1.1"/><path id="Fill-27" class="cls-9" d="M207,80.19v5a1.14,1.14,0,0,1-1.19,1.09h-5.49a1.14,1.14,0,0,1-1.19-1.09v-5a1.16,1.16,0,0,1,1.19-1.1h5.49a1.16,1.16,0,0,1,1.19,1.1"/><path id="Fill-29" class="cls-9" d="M216.19,80.19v5A1.14,1.14,0,0,1,215,86.28h-5.48a1.14,1.14,0,0,1-1.19-1.09v-5a1.14,1.14,0,0,1,1.19-1.1H215a1.16,1.16,0,0,1,1.19,1.1"/><path id="Fill-31" class="cls-9" d="M225.29,80.19v5a1.14,1.14,0,0,1-1.19,1.09h-5.49a1.13,1.13,0,0,1-1.18-1.09v-5a1.14,1.14,0,0,1,1.18-1.1h5.49a1.16,1.16,0,0,1,1.19,1.1"/><path id="Fill-33" class="cls-9" d="M234.39,80.19v5a1.15,1.15,0,0,1-1.18,1.12h-5.53a1.14,1.14,0,0,1-1.19-1.09v-5a1.16,1.16,0,0,1,1.19-1.1h5.49a1.15,1.15,0,0,1,1.22,1.08v0"/><path id="Fill-35" class="cls-9" d="M243.55,80.19v5a1.14,1.14,0,0,1-1.19,1.09h-5.48a1.15,1.15,0,0,1-1.2-1.09v-5a1.16,1.16,0,0,1,1.2-1.1h5.48a1.16,1.16,0,0,1,1.19,1.1"/><path id="Fill-37" class="cls-9" d="M252.65,80.19v5a1.14,1.14,0,0,1-1.19,1.09H246a1.14,1.14,0,0,1-1.19-1.06v-5a1.16,1.16,0,0,1,1.19-1.1h5.49a1.16,1.16,0,0,1,1.19,1.1h0"/><path id="Fill-39" class="cls-9" d="M261.76,80.19v5a1.15,1.15,0,0,1-1.2,1.09h-5.47a1.15,1.15,0,0,1-1.2-1.09v-5a1.16,1.16,0,0,1,1.2-1.1h5.47a1.16,1.16,0,0,1,1.2,1.1"/><path id="Fill-41" class="cls-9" d="M174.75,71.79v5a1.15,1.15,0,0,1-1.2,1.09h-5.47a1.14,1.14,0,0,1-1.19-1.09v-5a1.15,1.15,0,0,1,1.19-1.09h5.47a1.16,1.16,0,0,1,1.2,1.09"/><path id="Fill-43" class="cls-9" d="M183.92,71.79v5a1.15,1.15,0,0,1-1.2,1.09h-5.48a1.14,1.14,0,0,1-1.19-1.09v-5a1.15,1.15,0,0,1,1.19-1.09h5.48a1.16,1.16,0,0,1,1.2,1.09"/><path id="Fill-45" class="cls-9" d="M193,71.79v5a1.14,1.14,0,0,1-1.19,1.09h-5.48a1.16,1.16,0,0,1-1.2-1.09v-5a1.16,1.16,0,0,1,1.2-1.09h5.48A1.15,1.15,0,0,1,193,71.79"/><path id="Fill-47" class="cls-9" d="M202.11,71.79v5a1.14,1.14,0,0,1-1.19,1.09h-5.48a1.14,1.14,0,0,1-1.19-1.09v-5a1.15,1.15,0,0,1,1.19-1.09h5.48a1.15,1.15,0,0,1,1.19,1.09"/><path id="Fill-49" class="cls-9" d="M211.28,71.79v5a1.16,1.16,0,0,1-1.2,1.09h-5.5a1.15,1.15,0,0,1-1.2-1.09v-5a1.16,1.16,0,0,1,1.2-1.09h5.47a1.16,1.16,0,0,1,1.2,1.09"/><path id="Fill-51" class="cls-9" d="M220.37,71.79v5a1.14,1.14,0,0,1-1.19,1.09H213.7a1.16,1.16,0,0,1-1.2-1.09v-5a1.16,1.16,0,0,1,1.2-1.09h5.48a1.15,1.15,0,0,1,1.19,1.09"/><path id="Fill-53" class="cls-9" d="M229.47,71.79v5a1.14,1.14,0,0,1-1.19,1.09H222.8a1.14,1.14,0,0,1-1.19-1.09v-5a1.15,1.15,0,0,1,1.19-1.09h5.48a1.15,1.15,0,0,1,1.19,1.09"/><path id="Fill-55" class="cls-9" d="M238.64,71.79v5a1.16,1.16,0,0,1-1.2,1.09H232a1.14,1.14,0,0,1-1.19-1.09v-5A1.15,1.15,0,0,1,232,70.7h5.48a1.16,1.16,0,0,1,1.2,1.09"/><path id="Fill-57" class="cls-9" d="M247.73,71.79v5a1.14,1.14,0,0,1-1.16,1.09h-5.48a1.14,1.14,0,0,1-1.19-1.09v-5a1.15,1.15,0,0,1,1.19-1.09h5.48a1.16,1.16,0,0,1,1.2,1.09"/><path id="Fill-59" class="cls-9" d="M256.83,71.79v5a1.14,1.14,0,0,1-1.19,1.09h-5.49A1.14,1.14,0,0,1,249,76.8v-5a1.15,1.15,0,0,1,1.19-1.09h5.48a1.15,1.15,0,0,1,1.19,1.09"/><path id="Fill-61" class="cls-9" d="M265.93,71.79v5a1.14,1.14,0,0,1-1.19,1.09h-5.49a1.14,1.14,0,0,1-1.19-1.09v-5a1.15,1.15,0,0,1,1.19-1.09h5.49a1.15,1.15,0,0,1,1.19,1.09"/><path id="Fill-63" class="cls-9" d="M278.58,71.79v5a1.14,1.14,0,0,1-1.19,1.09h-9a1.15,1.15,0,0,1-1.24-1.06v-5a1.16,1.16,0,0,1,1.2-1.09h9a1.15,1.15,0,0,1,1.19,1.09"/><path id="Fill-65" class="cls-9" d="M165.66,71.79v5a1.16,1.16,0,0,1-1.2,1.09h-8.37a1.14,1.14,0,0,1-1.19-1.09v-5a1.15,1.15,0,0,1,1.19-1.09h8.37a1.16,1.16,0,0,1,1.2,1.09"/><path id="Fill-67" class="cls-9" d="M169.1,63.33v5a1.15,1.15,0,0,1-1.16,1.13h-5.48a1.15,1.15,0,0,1-1.19-1.09v-5a1.14,1.14,0,0,1,1.19-1.09h5.48a1.15,1.15,0,0,1,1.2,1.09"/><path id="Fill-69" class="cls-9" d="M178.26,63.33v5a1.15,1.15,0,0,1-1.18,1.13h-5.49a1.16,1.16,0,0,1-1.2-1.09v-5a1.15,1.15,0,0,1,1.2-1.09h5.48a1.14,1.14,0,0,1,1.19,1.09"/><path id="Fill-71" class="cls-9" d="M187.36,63.33v5a1.16,1.16,0,0,1-1.18,1.13h-5.5a1.15,1.15,0,0,1-1.19-1.09v-5a1.14,1.14,0,0,1,1.19-1.09h5.48a1.15,1.15,0,0,1,1.2,1.09"/><path id="Fill-73" class="cls-9" d="M196.45,63.33v5a1.14,1.14,0,0,1-1.16,1.13h-5.51a1.15,1.15,0,0,1-1.19-1.09v-5a1.14,1.14,0,0,1,1.19-1.09h5.49a1.13,1.13,0,0,1,1.18,1.09"/><path id="Fill-75" class="cls-9" d="M205.62,63.33v5a1.15,1.15,0,0,1-1.18,1.13H199a1.16,1.16,0,0,1-1.2-1.09v-5a1.15,1.15,0,0,1,1.2-1.09h5.47a1.15,1.15,0,0,1,1.2,1.09"/><path id="Fill-77" class="cls-9" d="M214.72,63.33v5a1.15,1.15,0,0,1-1.16,1.13H208a1.15,1.15,0,0,1-1.19-1.09v-5A1.14,1.14,0,0,1,208,62.24h5.48a1.14,1.14,0,0,1,1.19,1.09"/><path id="Fill-79" class="cls-9" d="M223.81,63.33v5a1.14,1.14,0,0,1-1.16,1.13h-5.51A1.15,1.15,0,0,1,216,68.38v-5a1.14,1.14,0,0,1,1.19-1.09h5.49a1.13,1.13,0,0,1,1.18,1.09"/><path id="Fill-81" class="cls-9" d="M233,63.33v5a1.15,1.15,0,0,1-1.18,1.13h-5.49a1.15,1.15,0,0,1-1.18-1.13h0v-5a1.14,1.14,0,0,1,1.19-1.09h5.48a1.15,1.15,0,0,1,1.2,1.09"/><path id="Fill-83" class="cls-9" d="M242.1,63.33v5A1.13,1.13,0,0,1,241,69.47H235.4a1.15,1.15,0,0,1-1.19-1.09v-5a1.14,1.14,0,0,1,1.19-1.09h5.49a1.14,1.14,0,0,1,1.21,1.07v0"/><path id="Fill-85" class="cls-9" d="M251.18,63.33v5A1.15,1.15,0,0,1,250,69.47h-5.5a1.15,1.15,0,0,1-1.19-1.09v-5a1.14,1.14,0,0,1,1.19-1.09H250a1.14,1.14,0,0,1,1.19,1.09"/><path id="Fill-87" class="cls-9" d="M260.28,63.33v5a1.16,1.16,0,0,1-1.18,1.13h-5.5a1.15,1.15,0,0,1-1.19-1.09v-5a1.14,1.14,0,0,1,1.19-1.09h5.48a1.16,1.16,0,0,1,1.2,1.09"/><path id="Fill-89" class="cls-9" d="M269.37,63.33v5a1.15,1.15,0,0,1-1.17,1.13h-5.5a1.16,1.16,0,0,1-1.2-1.09v-5a1.16,1.16,0,0,1,1.2-1.09h5.48a1.14,1.14,0,0,1,1.19,1.09"/><path id="Fill-91" class="cls-9" d="M278.47,63.33v5a1.15,1.15,0,0,1-1.16,1.13H271.8a1.15,1.15,0,0,1-1.19-1.09v-5a1.14,1.14,0,0,1,1.19-1.09h5.48a1.14,1.14,0,0,1,1.19,1.09"/><path id="Fill-93" class="cls-9" d="M160.28,63.33v5a1.17,1.17,0,0,1-1.18,1.13h-3a1.15,1.15,0,0,1-1.19-1.09v-5a1.14,1.14,0,0,1,1.19-1.09h3a1.16,1.16,0,0,1,1.2,1.09"/><path id="Fill-95" class="cls-9" d="M162.77,55v5a1.15,1.15,0,0,1-1.2,1.09h-5.48A1.14,1.14,0,0,1,154.9,60V55a1.15,1.15,0,0,1,1.19-1.09h5.48a1.16,1.16,0,0,1,1.2,1.09"/><path id="Fill-97" class="cls-9" d="M171.31,55v5a1.15,1.15,0,0,1-1.2,1.09h-5.47A1.14,1.14,0,0,1,163.48,60V55a1.15,1.15,0,0,1,1.19-1.09h5.48a1.16,1.16,0,0,1,1.2,1.09"/><path id="Fill-99" class="cls-9" d="M180.08,55v5a1.16,1.16,0,0,1-1.2,1.09h-5.49A1.14,1.14,0,0,1,172.2,60V55a1.15,1.15,0,0,1,1.19-1.09h5.49a1.16,1.16,0,0,1,1.2,1.09"/><path id="Fill-101" class="cls-9" d="M188.59,54.86v5a1.15,1.15,0,0,1-1.2,1.09h-5.47a1.15,1.15,0,0,1-1.2-1.09v-5a1.15,1.15,0,0,1,1.2-1.09h5.47a1.15,1.15,0,0,1,1.2,1.09"/><path id="Fill-103" class="cls-9" d="M197.2,55v5a1.16,1.16,0,0,1-1.2,1.09h-5.48a1.16,1.16,0,0,1-1.2-1.09V55a1.16,1.16,0,0,1,1.2-1.09H196A1.16,1.16,0,0,1,197.2,55"/><path id="Fill-105" class="cls-9" d="M205.86,54.86v5A1.14,1.14,0,0,1,204.68,61h-5.46A1.14,1.14,0,0,1,198,59.87v-5a1.14,1.14,0,0,1,1.19-1.09h5.48a1.14,1.14,0,0,1,1.19,1.09"/><path id="Fill-107" class="cls-9" d="M214.47,55v5a1.14,1.14,0,0,1-1.19,1.09h-5.49A1.13,1.13,0,0,1,206.61,60V55a1.13,1.13,0,0,1,1.18-1.09h5.49A1.15,1.15,0,0,1,214.47,55"/><path id="Fill-109" class="cls-9" d="M223.08,55v5a1.15,1.15,0,0,1-1.2,1.09h-5.47a1.15,1.15,0,0,1-1.2-1.09V55a1.16,1.16,0,0,1,1.2-1.09h5.47a1.16,1.16,0,0,1,1.2,1.09"/><path id="Fill-111" class="cls-9" d="M231.69,54.86v5a1.16,1.16,0,0,1-1.2,1.09H225a1.16,1.16,0,0,1-1.2-1.09v-5a1.16,1.16,0,0,1,1.2-1.09h5.48a1.16,1.16,0,0,1,1.2,1.09"/><path id="Fill-113" class="cls-9" d="M240.42,55v5a1.14,1.14,0,0,1-1.19,1.09h-5.48a1.16,1.16,0,0,1-1.2-1.09V55a1.16,1.16,0,0,1,1.2-1.09h5.48A1.15,1.15,0,0,1,240.42,55"/><path id="Fill-115" class="cls-9" d="M249.25,55v5a1.14,1.14,0,0,1-1.19,1.09h-5.48a1.15,1.15,0,0,1-1.2-1.09V55a1.16,1.16,0,0,1,1.2-1.09h5.48A1.15,1.15,0,0,1,249.25,55"/><path id="Fill-117" class="cls-9" d="M258,55v5a1.14,1.14,0,0,1-1.19,1.09h-5.47A1.14,1.14,0,0,1,250.15,60V55a1.15,1.15,0,0,1,1.19-1.09h5.48A1.15,1.15,0,0,1,258,55"/><path id="Fill-119" class="cls-9" d="M267,54.86v5A1.14,1.14,0,0,1,265.78,61H260.3a1.15,1.15,0,0,1-1.22-1.07v-5a1.14,1.14,0,0,1,1.19-1.09h5.49a1.14,1.14,0,0,1,1.18,1.09"/><path id="Fill-121" class="cls-9" d="M162.47,49.38v2.56c0,.31-.54.56-1.22.56h-5.62c-.67,0-1.22-.25-1.22-.56V49.38c0-.3.55-.55,1.22-.55h5.62c.68,0,1.22.25,1.22.55"/><path id="Fill-123" class="cls-9" d="M171.23,49.38v2.56c0,.31-.54.56-1.22.56h-5.64c-.67,0-1.23-.25-1.23-.56V49.38c0-.3.56-.55,1.23-.55H170c.68,0,1.22.25,1.22.55"/><path id="Fill-125" class="cls-9" d="M180.21,49.38v2.56c0,.31-.54.56-1.22.56h-5.62c-.67,0-1.23-.25-1.23-.56V49.38c0-.3.56-.55,1.23-.55H179c.68,0,1.22.25,1.22.55"/><path id="Fill-127" class="cls-9" d="M188.94,49.31v2.56c0,.3-.54.55-1.22.55H182.1c-.67,0-1.23-.25-1.23-.55V49.31c0-.31.56-.56,1.23-.56h5.62c.68,0,1.22.25,1.22.56"/><path id="Fill-129" class="cls-9" d="M197.76,49.38v2.56c0,.31-.55.56-1.22.56h-5.63c-.67,0-1.22-.25-1.22-.56V49.38c0-.3.55-.55,1.22-.55h5.63c.67,0,1.22.25,1.22.55"/><path id="Fill-131" class="cls-9" d="M206.65,49.31v2.56c0,.3-.55.55-1.22.55h-5.62c-.68,0-1.23-.25-1.23-.55V49.31c0-.31.55-.56,1.23-.56h5.66c.67,0,1.22.25,1.22.56"/><path id="Fill-133" class="cls-9" d="M215.47,49.38v2.56c0,.31-.56.56-1.23.56h-5.62c-.67,0-1.22-.25-1.22-.56V49.38c0-.3.55-.55,1.22-.55h5.62c.67,0,1.23.25,1.23.55"/><path id="Fill-135" class="cls-9" d="M224.29,49.38v2.56c0,.31-.55.56-1.23.56h-5.62c-.68,0-1.22-.25-1.22-.56V49.38c0-.3.54-.55,1.22-.55h5.62c.68,0,1.23.25,1.23.55"/><path id="Fill-137" class="cls-9" d="M233.11,49.31v2.56c0,.3-.56.55-1.23.55h-5.62c-.68,0-1.22-.25-1.22-.55V49.31c0-.31.54-.56,1.22-.56h5.62c.67,0,1.23.25,1.23.56"/><path id="Fill-139" class="cls-9" d="M242.1,49.38v2.56c0,.31-.54.56-1.22.56h-5.66c-.67,0-1.22-.25-1.22-.56V49.38c0-.3.55-.55,1.22-.55h5.62c.67,0,1.22.25,1.22.55"/><path id="Fill-141" class="cls-9" d="M251,49.38v2.56c0,.31-.55.56-1.22.56H244.2c-.68,0-1.23-.25-1.23-.56V49.38c0-.3.55-.55,1.23-.55h5.62c.67,0,1.22.25,1.22.55"/><path id="Fill-143" class="cls-9" d="M260.07,49.38v2.56c0,.31-.54.56-1.22.56h-5.62c-.67,0-1.23-.25-1.23-.56V49.38c0-.3.56-.55,1.23-.55h5.62c.68,0,1.22.25,1.22.55"/><path id="Fill-145" class="cls-9" d="M269.28,49.31v2.56c0,.3-.56.55-1.23.55h-5.62c-.68,0-1.22-.25-1.22-.55V49.31c0-.31.54-.56,1.22-.56H268c.67,0,1.22.25,1.22.56"/><path id="Fill-147" class="cls-9" d="M278.47,49.31v2.56c0,.3-.54.55-1.22.55h-5.62c-.67,0-1.22-.25-1.22-.55V49.31c0-.31.55-.56,1.22-.56h5.62c.68,0,1.22.25,1.22.56"/><path id="Fill-149" class="cls-9" d="M278.47,54.86v5c0,.6-.71,1.09-1.57,1.09h-7.24c-.89,0-1.58-.49-1.58-1.09v-5c0-.6.7-1.09,1.58-1.09h7.24c.89,0,1.57.49,1.57,1.09"/><path id="Fill-151" class="cls-9" d="M160.28,88.63v5a1.16,1.16,0,0,1-1.2,1.09h-3a1.15,1.15,0,0,1-1.19-1.09v-5a1.14,1.14,0,0,1,1.19-1.09h3a1.16,1.16,0,0,1,1.2,1.09"/><path id="Fill-153" class="cls-9" d="M166.92,88.63v5a1.16,1.16,0,0,1-1.2,1.09h-3a1.14,1.14,0,0,1-1.18-1.09v-5a1.14,1.14,0,0,1,1.18-1.09h3a1.16,1.16,0,0,1,1.2,1.09"/><path id="Fill-155" class="cls-9" d="M173.55,88.63v5a1.15,1.15,0,0,1-1.19,1.09h-3a1.13,1.13,0,0,1-1.18-1.09v-5a1.13,1.13,0,0,1,1.18-1.09h3a1.14,1.14,0,0,1,1.19,1.09"/><path id="Fill-157" class="cls-9" d="M250.66,88.63v5a1.16,1.16,0,0,1-1.2,1.09h-3a1.15,1.15,0,0,1-1.19-1.09v-5a1.14,1.14,0,0,1,1.19-1.09h3a1.16,1.16,0,0,1,1.2,1.09"/><path id="Fill-159" class="cls-9" d="M184.47,88.63v5a1.15,1.15,0,0,1-1.19,1.09H176a1.15,1.15,0,0,1-1.19-1.09v-5A1.14,1.14,0,0,1,176,87.54h7.28a1.14,1.14,0,0,1,1.19,1.09"/><path id="Fill-161" class="cls-9" d="M244,88.63v5a1.15,1.15,0,0,1-1.19,1.09h-7.28a1.16,1.16,0,0,1-1.2-1.09v-5a1.16,1.16,0,0,1,1.2-1.09h7.28A1.14,1.14,0,0,1,244,88.63"/><path id="Fill-163" class="cls-9" d="M278.51,92.23v1.41a1.16,1.16,0,0,1-1.2,1.09h-5.53a1.16,1.16,0,0,1-1.2-1.09V92.23a1.14,1.14,0,0,1,1.2-1.09h5.53a1.14,1.14,0,0,1,1.2,1.08h0"/><path id="Fill-165" class="cls-9" d="M269.36,92.23v1.41a1.16,1.16,0,0,1-1.2,1.09h-5.5a1.15,1.15,0,0,1-1.19-1.09V92.23a1.14,1.14,0,0,1,1.19-1.09h5.53a1.14,1.14,0,0,1,1.2,1.08h0"/><path id="Fill-167" class="cls-9" d="M269.36,88.63V90a1.16,1.16,0,0,1-1.2,1.09h-5.5a1.16,1.16,0,0,1-1.23-1.06V88.63a1.15,1.15,0,0,1,1.19-1.1h5.57a1.15,1.15,0,0,1,1.2,1.09"/><path id="Fill-169" class="cls-9" d="M260,92.23v1.41a1.14,1.14,0,0,1-1.18,1.09h-5.54a1.16,1.16,0,0,1-1.2-1.09V92.23a1.14,1.14,0,0,1,1.19-1.09h5.55A1.13,1.13,0,0,1,260,92.23"/><path id="Fill-171" class="cls-9" d="M233,88.63v5a1.16,1.16,0,0,1-1.2,1.09H186.83a1.16,1.16,0,0,1-1.2-1.09v-5a1.16,1.16,0,0,1,1.2-1.09h44.95a1.15,1.15,0,0,1,1.2,1.09"/></g><path id="Fill-174" class="cls-10" d="M187.39,78.81a1.13,1.13,0,0,1,1.19,1.07v5A1.13,1.13,0,0,1,187.41,86h-5.5a1.15,1.15,0,0,1-1.19-1.09v-5a1.14,1.14,0,0,1,1.19-1.09Z"/><path id="Fill-176" class="cls-10" d="M170.19,79.9v5A1.13,1.13,0,0,1,169,86H155.84a1.14,1.14,0,0,1-1.19-1.09h0v-5a1.13,1.13,0,0,1,1.19-1.09H169a1.13,1.13,0,0,1,1.19,1.08h0"/><path id="Fill-178" class="cls-10" d="M278.34,79.9v5a1.15,1.15,0,0,1-1.2,1.09H264a1.15,1.15,0,0,1-1.2-1.09h0v-5A1.13,1.13,0,0,1,264,78.81h13.16a1.14,1.14,0,0,1,1.2,1.08h0"/><path id="Fill-180" class="cls-10" d="M179.42,79.9v5A1.13,1.13,0,0,1,178.23,86h-5.48a1.14,1.14,0,0,1-1.23-1v-5a1.13,1.13,0,0,1,1.19-1.09h5.48a1.14,1.14,0,0,1,1.2,1.08h0"/><path id="Fill-182" class="cls-10" d="M197.69,79.9v5A1.15,1.15,0,0,1,196.54,86h-5.48a1.15,1.15,0,0,1-1.2-1.09h0v-5a1.14,1.14,0,0,1,1.2-1.09h5.48a1.13,1.13,0,0,1,1.19,1.08h0"/><path id="Fill-184" class="cls-10" d="M206.78,79.9v5A1.14,1.14,0,0,1,205.59,86h-5.48a1.15,1.15,0,0,1-1.2-1.09h0v-5a1.14,1.14,0,0,1,1.2-1.09h5.48a1.13,1.13,0,0,1,1.19,1.08h0"/><path id="Fill-186" class="cls-10" d="M216,79.9v5A1.14,1.14,0,0,1,214.76,86h-5.48a1.15,1.15,0,0,1-1.2-1.09h0v-5a1.13,1.13,0,0,1,1.19-1.09h5.48a1.14,1.14,0,0,1,1.2,1.08h0"/><path id="Fill-188" class="cls-10" d="M225.05,79.9v5a1.15,1.15,0,0,1-1.2,1.09h-5.48a1.14,1.14,0,0,1-1.19-1.09h0v-5a1.13,1.13,0,0,1,1.19-1.09h5.48a1.14,1.14,0,0,1,1.2,1.08h0"/><path id="Fill-190" class="cls-10" d="M234.14,79.9v5A1.14,1.14,0,0,1,233,86h-5.48a1.15,1.15,0,0,1-1.2-1.09h0v-5a1.14,1.14,0,0,1,1.2-1.09H233a1.13,1.13,0,0,1,1.19,1.08h0"/><path id="Fill-192" class="cls-10" d="M243.31,79.9v5A1.14,1.14,0,0,1,242.12,86h-5.5a1.15,1.15,0,0,1-1.19-1.09v-5a1.14,1.14,0,0,1,1.19-1.09h5.48a1.14,1.14,0,0,1,1.2,1.08h0"/><path id="Fill-194" class="cls-10" d="M252.41,79.9v5a1.15,1.15,0,0,1-1.2,1.09h-5.48a1.16,1.16,0,0,1-1.2-1.09h0v-5a1.14,1.14,0,0,1,1.2-1.09h5.48a1.14,1.14,0,0,1,1.2,1.08h0"/><path id="Fill-196" class="cls-10" d="M261.5,79.9v5A1.14,1.14,0,0,1,260.31,86h-5.48a1.15,1.15,0,0,1-1.2-1.09h0v-5a1.14,1.14,0,0,1,1.2-1.09h5.48a1.13,1.13,0,0,1,1.19,1.08h0"/><path id="Fill-198" class="cls-10" d="M174.51,71.48v5a1.14,1.14,0,0,1-1.19,1.09h-5.49a1.14,1.14,0,0,1-1.2-1.09h0v-5a1.15,1.15,0,0,1,1.17-1.12h5.5a1.15,1.15,0,0,1,1.2,1.09h0"/><path id="Fill-200" class="cls-10" d="M183.67,71.48v5a1.15,1.15,0,0,1-1.2,1.09H177a1.13,1.13,0,0,1-1.19-1.09h0v-5A1.14,1.14,0,0,1,177,70.36h5.5a1.15,1.15,0,0,1,1.2,1.09h0"/><path id="Fill-202" class="cls-10" d="M192.76,71.48v5a1.12,1.12,0,0,1-1.17,1.09h-5.5a1.14,1.14,0,0,1-1.17-1.09v-5a1.15,1.15,0,0,1,1.17-1.12h5.49a1.13,1.13,0,0,1,1.18,1.08h0"/><path id="Fill-204" class="cls-10" d="M201.9,71.48v5a1.15,1.15,0,0,1-1.2,1.09h-5.51A1.13,1.13,0,0,1,194,76.48h0v-5a1.15,1.15,0,0,1,1.17-1.12h5.5a1.14,1.14,0,0,1,1.22,1.06s0,0,0,.06"/><path id="Fill-206" class="cls-10" d="M211,71.48v5a1.13,1.13,0,0,1-1.18,1.09h-5.5a1.14,1.14,0,0,1-1.19-1.09v-5a1.15,1.15,0,0,1,1.17-1.12h5.51A1.13,1.13,0,0,1,211,71.44h0"/><path id="Fill-208" class="cls-10" d="M220.12,71.48v5A1.12,1.12,0,0,1,219,77.57h-5.49a1.14,1.14,0,0,1-1.2-1.09h0v-5a1.15,1.15,0,0,1,1.17-1.12h5.51a1.13,1.13,0,0,1,1.18,1.08h0"/><path id="Fill-210" class="cls-10" d="M229.23,71.48v5a1.15,1.15,0,0,1-1.2,1.09h-5.48a1.13,1.13,0,0,1-1.19-1.09h0v-5a1.14,1.14,0,0,1,1.17-1.12H228a1.15,1.15,0,0,1,1.2,1.09h0"/><path id="Fill-212" class="cls-10" d="M238.39,71.48v5a1.14,1.14,0,0,1-1.19,1.09h-5.49a1.13,1.13,0,0,1-1.22-1v-5a1.13,1.13,0,0,1,1.15-1.12h5.56a1.15,1.15,0,0,1,1.19,1.09"/><path id="Fill-214" class="cls-10" d="M247.47,71.48v5a1.15,1.15,0,0,1-1.2,1.09h-5.48a1.14,1.14,0,0,1-1.2-1.09h0v-5a1.15,1.15,0,0,1,1.17-1.12h5.53a1.16,1.16,0,0,1,1.18,1.12h0"/><path id="Fill-216" class="cls-10" d="M256.59,71.48v5a1.15,1.15,0,0,1-1.2,1.09h-5.48a1.13,1.13,0,0,1-1.19-1.09h0v-5a1.14,1.14,0,0,1,1.17-1.12h5.5a1.15,1.15,0,0,1,1.2,1.09h0"/><path id="Fill-218" class="cls-10" d="M265.68,71.48v5a1.13,1.13,0,0,1-1.19,1.09H259a1.14,1.14,0,0,1-1.2-1.09h0v-5A1.15,1.15,0,0,1,259,70.36h5.51a1.14,1.14,0,0,1,1.19,1.09h0"/><path id="Fill-220" class="cls-10" d="M278.34,71.48v5a1.15,1.15,0,0,1-1.2,1.09h-9a1.14,1.14,0,0,1-1.19-1.09v-5a1.14,1.14,0,0,1,1.17-1.12h9.05a1.15,1.15,0,0,1,1.2,1.09h0"/><path id="Fill-222" class="cls-10" d="M165.41,71.48v5a1.13,1.13,0,0,1-1.19,1.09h-8.38a1.13,1.13,0,0,1-1.19-1.09h0v-5a1.14,1.14,0,0,1,1.17-1.12h8.4a1.14,1.14,0,0,1,1.19,1.09h0"/><path id="Fill-224" class="cls-10" d="M168.84,63v5a1.16,1.16,0,0,1-1.2,1.09h-5.48A1.16,1.16,0,0,1,161,68V63a1.16,1.16,0,0,1,1.2-1.09h5.48a1.16,1.16,0,0,1,1.2,1.09"/><path id="Fill-226" class="cls-10" d="M178,63v5a1.14,1.14,0,0,1-1.19,1.09h-5.48A1.14,1.14,0,0,1,170.15,68V63a1.14,1.14,0,0,1,1.19-1.09h5.48A1.14,1.14,0,0,1,178,63"/><path id="Fill-228" class="cls-10" d="M187.12,63v5a1.16,1.16,0,0,1-1.2,1.09h-5.47a1.16,1.16,0,0,1-1.2-1.09V63a1.16,1.16,0,0,1,1.2-1.09h5.48a1.16,1.16,0,0,1,1.2,1.09"/><path id="Fill-230" class="cls-10" d="M196.21,63v5A1.14,1.14,0,0,1,195,69.11h-5.48a1.16,1.16,0,0,1-1.2-1.09V63a1.16,1.16,0,0,1,1.2-1.09H195A1.14,1.14,0,0,1,196.21,63"/><path id="Fill-232" class="cls-10" d="M205.37,63v5a1.14,1.14,0,0,1-1.19,1.09H198.7A1.14,1.14,0,0,1,197.51,68V63a1.14,1.14,0,0,1,1.19-1.09h5.48A1.14,1.14,0,0,1,205.37,63"/><path id="Fill-234" class="cls-10" d="M214.48,63v5a1.16,1.16,0,0,1-1.2,1.09H207.8A1.14,1.14,0,0,1,206.61,68V63a1.14,1.14,0,0,1,1.19-1.09h5.48a1.16,1.16,0,0,1,1.2,1.09"/><path id="Fill-236" class="cls-10" d="M223.57,63v5a1.14,1.14,0,0,1-1.19,1.09H216.9A1.15,1.15,0,0,1,215.7,68V63a1.15,1.15,0,0,1,1.2-1.09h5.48A1.14,1.14,0,0,1,223.57,63"/><path id="Fill-238" class="cls-10" d="M232.73,63v5a1.14,1.14,0,0,1-1.19,1.09H226A1.14,1.14,0,0,1,224.83,68V63A1.14,1.14,0,0,1,226,61.92h5.49A1.14,1.14,0,0,1,232.7,63"/><path id="Fill-240" class="cls-10" d="M241.84,63v5a1.16,1.16,0,0,1-1.2,1.09h-5.48A1.16,1.16,0,0,1,234,68V63a1.16,1.16,0,0,1,1.2-1.09h5.48a1.16,1.16,0,0,1,1.2,1.09"/><path id="Fill-242" class="cls-10" d="M250.93,63v5a1.14,1.14,0,0,1-1.2,1.09h-5.47a1.15,1.15,0,0,1-1.2-1.09V63a1.15,1.15,0,0,1,1.2-1.09h5.47a1.14,1.14,0,0,1,1.2,1.09"/><path id="Fill-244" class="cls-10" d="M260,63v5a1.14,1.14,0,0,1-1.19,1.09h-5.49A1.14,1.14,0,0,1,252.16,68V63a1.14,1.14,0,0,1,1.19-1.09h5.49A1.14,1.14,0,0,1,260,63"/><path id="Fill-246" class="cls-10" d="M269.12,63v5a1.13,1.13,0,0,1-1.18,1.09h-5.49A1.14,1.14,0,0,1,261.26,68V63a1.14,1.14,0,0,1,1.19-1.09h5.49A1.13,1.13,0,0,1,269.12,63"/><path id="Fill-248" class="cls-10" d="M278.23,63v5a1.15,1.15,0,0,1-1.2,1.09h-5.44a1.16,1.16,0,0,1-1.2-1.09V63a1.16,1.16,0,0,1,1.2-1.09h5.48A1.14,1.14,0,0,1,278.26,63"/><path id="Fill-250" class="cls-10" d="M160,63v5a1.14,1.14,0,0,1-1.19,1.09h-3A1.14,1.14,0,0,1,154.65,68V63a1.14,1.14,0,0,1,1.19-1.09h3A1.14,1.14,0,0,1,160,63"/><path id="Fill-252" class="cls-10" d="M162.52,54.7v5a1.14,1.14,0,0,1-1.2,1.09h-5.48a1.13,1.13,0,0,1-1.19-1.09h0v-5a1.14,1.14,0,0,1,1.19-1.09h5.48a1.15,1.15,0,0,1,1.2,1.09h0"/><path id="Fill-254" class="cls-10" d="M171.06,54.7v5a1.13,1.13,0,0,1-1.18,1.09h-5.51a1.14,1.14,0,0,1-1.19-1.09v-5a1.14,1.14,0,0,1,1.19-1.09h5.48A1.13,1.13,0,0,1,171,54.69h0"/><path id="Fill-256" class="cls-10" d="M179.83,54.7v5a1.15,1.15,0,0,1-1.17,1.09h-5.47A1.14,1.14,0,0,1,172,59.7h0v-5a1.14,1.14,0,0,1,1.2-1.09h5.47a1.14,1.14,0,0,1,1.2,1.09h0"/><path id="Fill-258" class="cls-10" d="M188.34,54.55v5a1.13,1.13,0,0,1-1.18,1.09h-5.49a1.15,1.15,0,0,1-1.22-1.07v-5a1.14,1.14,0,0,1,1.19-1.09h5.49a1.13,1.13,0,0,1,1.18,1.08h0"/><path id="Fill-260" class="cls-10" d="M197,54.7v5a1.13,1.13,0,0,1-1.18,1.09h-5.49a1.14,1.14,0,0,1-1.19-1.09v-5a1.14,1.14,0,0,1,1.19-1.09h5.49A1.13,1.13,0,0,1,197,54.69h0"/><path id="Fill-262" class="cls-10" d="M205.62,54.55v5a1.14,1.14,0,0,1-1.19,1.09H199a1.15,1.15,0,0,1-1.2-1.09h0v-5a1.14,1.14,0,0,1,1.2-1.09h5.47a1.14,1.14,0,0,1,1.2,1.08h0"/><path id="Fill-264" class="cls-10" d="M214.23,54.7v5a1.15,1.15,0,0,1-1.2,1.09h-5.48a1.14,1.14,0,0,1-1.19-1.09v-5a1.15,1.15,0,0,1,1.2-1.09H213a1.15,1.15,0,0,1,1.2,1.09h0"/><path id="Fill-266" class="cls-10" d="M222.83,54.7v5a1.14,1.14,0,0,1-1.19,1.09h-5.45A1.13,1.13,0,0,1,215,59.7h0v-5a1.13,1.13,0,0,1,1.19-1.09h5.48a1.15,1.15,0,0,1,1.2,1.09h0"/><path id="Fill-268" class="cls-10" d="M231.44,54.55v5a1.14,1.14,0,0,1-1.19,1.09h-5.49a1.14,1.14,0,0,1-1.19-1.08h0v-5a1.13,1.13,0,0,1,1.18-1.09h5.5a1.14,1.14,0,0,1,1.19,1.09"/><path id="Fill-270" class="cls-10" d="M240.17,54.7v5A1.13,1.13,0,0,1,239,60.79H233.5a1.13,1.13,0,0,1-1.22-1v-5a1.12,1.12,0,0,1,1.17-1.09H239a1.14,1.14,0,0,1,1.19,1.09"/><path id="Fill-272" class="cls-10" d="M249,54.7v5a1.15,1.15,0,0,1-1.2,1.09h-5.48a1.15,1.15,0,0,1-1.2-1.09h0v-5a1.15,1.15,0,0,1,1.2-1.09h5.48A1.15,1.15,0,0,1,249,54.7h0"/><path id="Fill-274" class="cls-10" d="M257.75,54.7v5a1.14,1.14,0,0,1-1.2,1.09H251a1.14,1.14,0,0,1-1.2-1.09h0v-5a1.15,1.15,0,0,1,1.2-1.09h5.48a1.14,1.14,0,0,1,1.19,1.09h0"/><path id="Fill-276" class="cls-10" d="M266.73,54.55v5a1.14,1.14,0,0,1-1.2,1.09h-5.48a1.14,1.14,0,0,1-1.19-1.09h0v-5a1.14,1.14,0,0,1,1.19-1.09h5.48a1.14,1.14,0,0,1,1.2,1.08h0"/><path id="Fill-278" class="cls-10" d="M162.22,49.07V51.6c0,.3-.54.55-1.22.55h-5.57c-.68,0-1.22-.25-1.22-.55V49.07c0-.31.54-.56,1.22-.56H161c.68,0,1.23.25,1.23.56"/><path id="Fill-280" class="cls-10" d="M171,49.07V51.6c0,.3-.55.55-1.22.55h-5.62c-.68,0-1.23-.25-1.23-.55V49.07c0-.31.55-.56,1.23-.56h5.58c.67,0,1.22.25,1.22.56"/><path id="Fill-282" class="cls-10" d="M180,49.07V51.6c0,.3-.55.55-1.23.55h-5.61c-.68,0-1.23-.25-1.23-.55V49.07c0-.31.55-.56,1.23-.56h5.61c.68,0,1.23.25,1.23.56"/><path id="Fill-284" class="cls-10" d="M188.69,49v2.55c0,.31-.54.56-1.22.56h-5.62c-.67,0-1.22-.25-1.22-.56V49c0-.3.55-.55,1.22-.55h5.62c.68,0,1.22.25,1.22.55"/><path id="Fill-286" class="cls-10" d="M197.51,49.07V51.6c0,.3-.55.55-1.22.55h-5.62c-.68,0-1.22-.25-1.22-.55V49.07c0-.31.54-.56,1.22-.56h5.62c.67,0,1.22.25,1.22.56"/><path id="Fill-288" class="cls-10" d="M206.36,49v2.55c0,.31-.54.56-1.22.56h-5.62c-.67,0-1.22-.25-1.22-.56V49c0-.3.55-.55,1.22-.55h5.62c.68,0,1.22.25,1.22.55"/><path id="Fill-290" class="cls-10" d="M215.22,49.07V51.6c0,.3-.55.55-1.23.55h-5.61c-.68,0-1.22-.25-1.22-.55V49.07c0-.31.54-.56,1.22-.56H214c.68,0,1.23.25,1.23.56"/><path id="Fill-292" class="cls-10" d="M224,49.07V51.6c0,.3-.55.55-1.23.55H217.2c-.68,0-1.22-.25-1.22-.55V49.07c0-.31.54-.56,1.22-.56h5.61c.68,0,1.23.25,1.23.56"/><path id="Fill-294" class="cls-10" d="M232.86,49v2.55c0,.31-.55.56-1.23.56H226c-.68,0-1.22-.25-1.22-.56V49c0-.3.54-.55,1.22-.55h5.61c.68,0,1.23.25,1.23.55"/><path id="Fill-296" class="cls-10" d="M241.82,49.07V51.6c0,.3-.56.55-1.23.55H235c-.67,0-1.23-.25-1.23-.55V49.07c0-.31.56-.56,1.23-.56h5.62c.67,0,1.22.25,1.22.56"/><path id="Fill-298" class="cls-10" d="M250.82,49.07V51.6c0,.3-.55.55-1.22.55H244c-.68,0-1.22-.25-1.22-.55V49.07c0-.31.54-.56,1.22-.56h5.62c.67,0,1.22.25,1.22.56"/><path id="Fill-300" class="cls-10" d="M259.82,49.07V51.6c0,.3-.54.55-1.22.55H253c-.68,0-1.23-.25-1.23-.55V49.07c0-.31.55-.56,1.23-.56h5.61c.68,0,1.22.25,1.22.56"/><path id="Fill-302" class="cls-10" d="M269,49v2.55c0,.31-.55.56-1.23.56h-5.62c-.67,0-1.22-.25-1.22-.56V49c0-.3.55-.55,1.22-.55h5.62c.68,0,1.23.25,1.23.55"/><path id="Fill-304" class="cls-10" d="M278.23,49v2.55c0,.31-.55.56-1.23.56h-5.62c-.67,0-1.22-.25-1.22-.56V49c0-.3.55-.55,1.22-.55H277c.68,0,1.23.25,1.23.55"/><path id="Fill-306" class="cls-10" d="M278.23,54.55v5c0,.61-.71,1.09-1.58,1.09h-7.24c-.89,0-1.57-.48-1.57-1.09v-5c0-.61.7-1.09,1.57-1.09h7.24c.89,0,1.58.48,1.58,1.09"/><path id="Fill-308" class="cls-10" d="M160,88.31v5a1.15,1.15,0,0,1-1.18,1.09h-3a1.14,1.14,0,0,1-1.19-1.09h0v-5a1.14,1.14,0,0,1,1.19-1.09h3A1.15,1.15,0,0,1,160,88.3h0"/><path id="Fill-310" class="cls-10" d="M166.66,88.31v5a1.14,1.14,0,0,1-1.18,1.09h-3a1.14,1.14,0,0,1-1.19-1.09h0v-5a1.13,1.13,0,0,1,1.19-1.09h3a1.13,1.13,0,0,1,1.18,1.09"/><path id="Fill-312" class="cls-10" d="M173.3,88.31v5a1.15,1.15,0,0,1-1.18,1.09h-3a1.15,1.15,0,0,1-1.18-1.09v-5a1.15,1.15,0,0,1,1.2-1.09h3a1.15,1.15,0,0,1,1.17,1.09"/><path id="Fill-314" class="cls-10" d="M250.41,88.31v5a1.15,1.15,0,0,1-1.16,1.09h-3a1.15,1.15,0,0,1-1.2-1.09h0v-5a1.15,1.15,0,0,1,1.2-1.09h3a1.14,1.14,0,0,1,1.19,1.08h0"/><path id="Fill-316" class="cls-10" d="M184.22,88.31v5a1.14,1.14,0,0,1-1.17,1.09h-7.29a1.15,1.15,0,0,1-1.2-1.09h0v-5a1.15,1.15,0,0,1,1.2-1.09H183a1.14,1.14,0,0,1,1.19,1.08h0"/><path id="Fill-318" class="cls-10" d="M243.71,88.31v5a1.15,1.15,0,0,1-1.19,1.09h-7.28a1.15,1.15,0,0,1-1.18-1.09h0v-5a1.15,1.15,0,0,1,1.18-1.09h7.29a1.15,1.15,0,0,1,1.19,1.09"/><path id="Fill-320" class="cls-10" d="M278.26,91.9v1.42a1.13,1.13,0,0,1-1.19,1.09h-5.54a1.15,1.15,0,0,1-1.19-1.09V91.9a1.15,1.15,0,0,1,1.19-1.09h5.54a1.15,1.15,0,0,1,1.19,1.09"/><path id="Fill-322" class="cls-10" d="M269.11,91.9v1.42a1.15,1.15,0,0,1-1.19,1.09h-5.54a1.15,1.15,0,0,1-1.2-1.09h0V91.9a1.16,1.16,0,0,1,1.2-1.09h5.54a1.15,1.15,0,0,1,1.19,1.09"/><path id="Fill-324" class="cls-10" d="M269.11,88.31v1.41a1.14,1.14,0,0,1-1.19,1.09h-5.54a1.15,1.15,0,0,1-1.2-1.09V88.31a1.14,1.14,0,0,1,1.2-1.09h5.54a1.15,1.15,0,0,1,1.19,1.09"/><path id="Fill-326" class="cls-10" d="M259.77,91.9v1.42a1.14,1.14,0,0,1-1.2,1.09H253a1.15,1.15,0,0,1-1.19-1.09V91.9A1.15,1.15,0,0,1,253,90.81h5.54a1.16,1.16,0,0,1,1.2,1.09"/><path id="Fill-328" class="cls-10" d="M232.73,88.31v5a1.14,1.14,0,0,1-1.18,1.09h-45a1.15,1.15,0,0,1-1.19-1.08h0v-5a1.15,1.15,0,0,1,1.18-1.09h45a1.14,1.14,0,0,1,1.19,1.08h0"/><polygon id="Fill-330" class="cls-11" points="163.19 43.42 269.56 43.42 269.56 39.03 163.19 39.03 163.19 43.42"/><path id="Fill-332" class="cls-12" d="M267.39,35.83h-102A2.16,2.16,0,0,0,163.2,38h0v2.12H269.53V38a2.16,2.16,0,0,0-2.16-2.17h0"/><polyline id="Fill-333" class="cls-13" points="270.04 9.66 270.04 14.88 270.04 14.92 270.04 15.95 187.64 15.95 187.64 14.92 187.64 14.88 187.64 9.66"/><path id="Fill-334" class="cls-13" d="M144.6,9.66V33.94a5.26,5.26,0,0,0,4.83,5h0a4.49,4.49,0,0,0,.73.06H282.57a5.37,5.37,0,0,0,5.57-5.1V9.66"/><path id="Fill-335" d="M184.41,16h90.14m13.59-6.26H144.6V31.24a2.92,2.92,0,0,0,3,2.78H285.1a2.91,2.91,0,0,0,3-2.78"/><polygon id="Fill-336" class="cls-14" points="187.64 14.67 270.04 14.67 270.04 9.66 187.64 9.66 187.64 14.67"/><polyline id="Fill-337" class="cls-14" points="281.58 9.66 281.58 29 151.16 29 151.16 9.66 184.41 9.66"/><path id="Fill-338" class="cls-15" d="M229.76,21H203.68a.73.73,0,0,0-.73.73h0v6.58a.73.73,0,0,0,.73.73h26.07a.73.73,0,0,0,.73-.73h0V21.69a.73.73,0,0,0-.73-.73h0"/><polygon id="Fill-339" class="cls-16" points="185.77 14.64 274.65 14.64 274.65 9.66 185.77 9.66 185.77 14.64"/><path id="Fill-340" class="cls-17" d="M157.34,9.66V18.3a1.46,1.46,0,0,0,1.55,1.33H273a1.47,1.47,0,0,0,1.56-1.33V15h-87V9.66"/><path id="Stroke-341" class="cls-18" d="M274.55,14.87h-117"/><polyline id="Stroke-342" class="cls-18" points="187.64 14.92 187.64 14.88 187.64 9.66"/><path id="Fill-343" class="cls-19" d="M205.51,137.85c0-.62,1-1.11,2.22-1.11H227c1.22,0,2.21.49,2.21,1.11Z"/><path id="Fill-344" class="cls-2" d="M229.2,137.87c0,.61-1,1.11-2.21,1.11H207.73c-1.22,0-2.22-.5-2.22-1.11Z"/><path id="Fill-345" class="cls-20" d="M210.05,28.08a.25.25,0,0,1-.25.25.25.25,0,0,1,0-.5h0a.25.25,0,0,1,.25.25"/><path id="Fill-346" class="cls-21" d="M210.4,26.77H208a.43.43,0,0,1-.43-.41V22.53a.41.41,0,0,1,.43-.4h1.74l-.59,1.59a.26.26,0,0,0,.18.32h.43a.33.33,0,0,1,.26.13h0v.08Z"/><path id="Fill-347" class="cls-22" d="M212.21,22.53v3.83a.45.45,0,0,1-.47.41H210.4l-.33-2.5a.11.11,0,0,0,0-.08h0a.31.31,0,0,0-.25-.13h-.35a.26.26,0,0,1-.27-.24.14.14,0,0,1,0-.09l.58-1.59h1.93a.44.44,0,0,1,.47.4"/><path id="Stroke-348" class="cls-23" d="M208.57,23.76V23"/><path id="Stroke-349" class="cls-23" d="M210.83,23.76V23"/><path id="Stroke-350" class="cls-23" d="M208.57,25.31a2.22,2.22,0,0,0,2.47,0"/><path id="Fill-351" class="cls-24" d="M218.55,26.77h-3.38a.65.65,0,0,1-.65-.65V22.74a.65.65,0,0,1,.65-.65h3.38a.63.63,0,0,1,.65.63v3.4a.65.65,0,0,1-.65.65"/><path id="Fill-352" class="cls-25" d="M218.38,26.58h-3a.65.65,0,0,1-.65-.65v-3a.65.65,0,0,1,.65-.65h3a.65.65,0,0,1,.65.65v3a.65.65,0,0,1-.65.65"/><g id="Xd"><path class="cls-26" d="M214.91,25.58l.79-1.2L215,23.27h.54L216,24l.44-.75H217l-.73,1.13.8,1.18h-.56l-.51-.8-.52.8Z"/><path class="cls-26" d="M218.81,25.58h-.41v-.24a.52.52,0,0,1-.24.2.47.47,0,0,1-.28.07.59.59,0,0,1-.49-.23.93.93,0,0,1-.21-.64.88.88,0,0,1,.2-.64.68.68,0,0,1,.51-.23.63.63,0,0,1,.48.23v-.83h.44Zm-1.17-.89a.72.72,0,0,0,.07.38.33.33,0,0,0,.3.17.35.35,0,0,0,.26-.13.59.59,0,0,0,.1-.39.66.66,0,0,0-.1-.41.35.35,0,0,0-.49,0l0,0a.53.53,0,0,0-.1.4Z"/></g><g id="Group-367" class="cls-27"><path id="Fill-354" class="cls-28" d="M225.46,27.18h-3.27a.65.65,0,0,1-.65-.65V23.25a.66.66,0,0,1,.65-.66h3.27a.66.66,0,0,1,.65.66v3.28a.65.65,0,0,1-.65.65"/><path id="Fill-356" class="cls-29" d="M225.46,26.83h-3.27a.65.65,0,0,1-.65-.65V22.9a.65.65,0,0,1,.65-.65h3.27a.65.65,0,0,1,.65.65v3.28a.65.65,0,0,1-.65.65"/><path id="Fill-358" class="cls-30" d="M225,26.32h-2.24a.66.66,0,0,1-.66-.65V23.41a.66.66,0,0,1,.66-.65H225a.65.65,0,0,1,.65.65v2.28a.65.65,0,0,1-.65.65"/><polygon id="Fill-360" class="cls-31" points="223.59 23.07 222.37 23.07 222.37 25.95 223.59 25.95 223.59 25.46 222.97 25.46 222.97 23.52 223.59 23.52 223.59 23.07"/><polygon id="Fill-362" class="cls-31" points="224.05 25.95 225.34 25.95 225.34 23.07 224.05 23.07 224.05 23.56 224.69 23.56 224.69 25.5 224.05 25.5 224.05 25.95"/><g id="Group-366"><path id="Fill-364" class="cls-32" d="M150.22,39.38s-5.13-.74-5.62,3.65l25.51,18.16h119.4V43s.15-3.28-4-3.65H150.22"/></g></g></g></svg>