<?xml version="1.0" encoding="utf-8"?>
<!-- Generator: Adobe Illustrator 22.1.0, SVG Export Plug-In . SVG Version: 6.00 Build 0)  -->
<svg version="1.1" id="Layer_1" xmlns="http://www.w3.org/2000/svg" xmlns:xlink="http://www.w3.org/1999/xlink" x="0px" y="0px"
	 viewBox="0 0 64 64" style="enable-background:new 0 0 64 64;" xml:space="preserve">
<style type="text/css">
	.st0{fill:#003FA3;}
	.st1{fill:#E6C1B3;}
	.st2{fill:none;}
</style>
<title>logo</title>
<g>
	<path class="st0" d="M20.9,20c6.6,0,12,5.4,12,12s-5.4,12-12,12s-12-5.4-12-12S14.3,20,20.9,20 M20.9,15c-9.4,0-17,7.6-17,17
		s7.6,17,17,17s17-7.6,17-17l0,0C37.9,22.6,30.3,15,20.9,15z"/>
	<polygon class="st1" points="55,48.1 47.6,39.2 53.6,32 47.6,24.8 55,15.9 58.8,19.1 54.1,24.8 60.1,32 54.1,39.2 58.8,44.9 	"/>
	<rect x="-0.2" y="-0.2" class="st2" width="64.1" height="64.1"/>
</g>
</svg>
