<svg id="Layer_1" data-name="Layer 1" xmlns="http://www.w3.org/2000/svg" viewBox="0 0 800 600"><defs><style>.cls-1{fill:#ec407a;}.cls-2{fill:#7e57c2;}.cls-3{fill:#42a5f5;}.cls-4{fill:#66bb6a;}.cls-5{fill:#26c6da;}.cls-6{fill:#ffca28;}</style></defs><title>nso-motif-guidelines</title><path class="cls-1" d="M121,344.92a43.75,43.75,0,0,1,0-87.5,4.23,4.23,0,1,1,0,8.45,35.3,35.3,0,1,0,34.11,44.44,4.23,4.23,0,1,1,8.17,2.19A43.81,43.81,0,0,1,121,344.92Z"/><path class="cls-2" d="M126.54,319.17a4.23,4.23,0,0,1-4.23-4.23V296.05a4.23,4.23,0,0,1,4.23-4.23h32.64a4.23,4.23,0,1,1,0,8.46H130.77v14.66A4.23,4.23,0,0,1,126.54,319.17Z"/><path class="cls-3" d="M222.42,305.39a4.23,4.23,0,1,1,0-8.45,15.65,15.65,0,0,0,0-31.29,4.23,4.23,0,1,1,0-8.45,24.1,24.1,0,1,1,0,48.19Z"/><path class="cls-4" d="M225.37,344.92a4.23,4.23,0,0,1-.47-8.44,15.63,15.63,0,0,0,9.6-25.37,4.23,4.23,0,1,1,6.51-5.4,24.09,24.09,0,0,1-15,39.16A4.44,4.44,0,0,1,225.37,344.92Z"/><path class="cls-3" d="M191.71,344.91a4.24,4.24,0,0,1-4.23-4.23v-79a4.23,4.23,0,0,1,4.21-4.23l32-.17h0a4.23,4.23,0,0,1,0,8.46l-27.76.15v74.83A4.23,4.23,0,0,1,191.71,344.91Z"/><path class="cls-4" d="M225.37,344.91H206a4.23,4.23,0,1,1,0-8.46h19.37a4.23,4.23,0,0,1,0,8.46Z"/><path class="cls-5" d="M304,343a4.33,4.33,0,0,1-1-.14,43.09,43.09,0,1,1,36.32-76.39,4.23,4.23,0,0,1-5.05,6.79,34.24,34.24,0,0,0-20.59-6.78,34.64,34.64,0,0,0-8.58,68.19A4.23,4.23,0,0,1,304,343Z"/><path class="cls-6" d="M316.35,344.06a4.23,4.23,0,0,1-.28-8.45,34.72,34.72,0,0,0,32.23-34.55,34.15,34.15,0,0,0-4-16.13,4.23,4.23,0,0,1,7.48-3.94,42.46,42.46,0,0,1,5,20.07,43.21,43.21,0,0,1-40.12,43Z"/><path class="cls-1" d="M121,185.72a43.75,43.75,0,0,1,0-87.5,4.24,4.24,0,0,1,3.36,1.65l38.19,49.76a4.24,4.24,0,0,1,.73,3.67A43.81,43.81,0,0,1,121,185.72Zm-2-79a35.29,35.29,0,1,0,35.57,46.33Z"/><path class="cls-2" d="M126.54,160a4.23,4.23,0,0,1-4.23-4.23v-18.9a4.22,4.22,0,0,1,4.23-4.22h32.64a4.23,4.23,0,1,1,0,8.45H130.77v14.67A4.24,4.24,0,0,1,126.54,160Z"/><path class="cls-3" d="M191.71,185.71a4.06,4.06,0,0,1-1.37-.23,4.23,4.23,0,0,1-2.86-4v-79a4.24,4.24,0,0,1,4.21-4.23l30.05-.15a3.82,3.82,0,0,1,.68-.06,24.1,24.1,0,0,1,2.15,48.1l-29.52,38A4.23,4.23,0,0,1,191.71,185.71Zm4.23-79.06v62.5l23.14-29.78a4.25,4.25,0,0,1,3.34-1.63,15.64,15.64,0,0,0,1.21-31.24Z"/><path class="cls-4" d="M225.37,185.72a4.23,4.23,0,0,1-.47-8.44,15.63,15.63,0,0,0,9.6-25.37,4.23,4.23,0,1,1,6.51-5.4,24.09,24.09,0,0,1-15,39.16A3.31,3.31,0,0,1,225.37,185.72Z"/><path class="cls-4" d="M225.37,185.71H206a4.23,4.23,0,1,1,0-8.46h19.37a4.23,4.23,0,0,1,0,8.46Z"/><path class="cls-5" d="M304,183.75a4.19,4.19,0,0,1-1-.13,43.1,43.1,0,1,1,36.32-76.4,4.24,4.24,0,0,1,1.3,5.21l-32.75,68.91A4.23,4.23,0,0,1,304,183.75Zm9.63-76.52a34.64,34.64,0,0,0-11.88,67.18l29.61-62.31A34.26,34.26,0,0,0,313.66,107.23Z"/><path class="cls-6" d="M316.35,184.86a4.23,4.23,0,0,1-.28-8.45,34.7,34.7,0,0,0,32.23-34.54,34.1,34.1,0,0,0-4-16.13,4.23,4.23,0,1,1,7.48-3.95,42.5,42.5,0,0,1,5,20.08,43.19,43.19,0,0,1-40.12,43Z"/><path class="cls-1" d="M113.71,419.07a39.53,39.53,0,1,0,41.71,54.28,8.5,8.5,0,0,0-1.09-8.43l-32.72-42.63A8.53,8.53,0,0,0,113.71,419.07Z"/><path class="cls-2" d="M124.42,476.26a4.24,4.24,0,0,1-4.23-4.23V453.14a4.23,4.23,0,0,1,4.23-4.23h32.65a4.23,4.23,0,1,1,0,8.46H128.65V472A4.23,4.23,0,0,1,124.42,476.26Z"/><path class="cls-3" d="M221.57,418.56l-28.81.15a3.18,3.18,0,0,0-3.16,3.18v66.6a3.18,3.18,0,0,0,5.69,1.95l24.11-31a3.3,3.3,0,0,1,2.39-1.22,19.87,19.87,0,0,0-1.48-39.69"/><path class="cls-4" d="M223.25,502a4.24,4.24,0,0,1-4.24-4.23,4.2,4.2,0,0,1,3.77-4.2,15.63,15.63,0,0,0,9.6-25.38,4.23,4.23,0,1,1,6.51-5.4,24.09,24.09,0,0,1-15,39.16A3.18,3.18,0,0,1,223.25,502Z"/><path class="cls-4" d="M223.26,502H203.85a4.23,4.23,0,1,1,0-8.46h19.37a4.23,4.23,0,0,1,0,8.46Z"/><path class="cls-5" d="M298.29,494.68c-20.08-7.3-32.45-30.7-21.51-54.55A34.54,34.54,0,0,1,294.4,423c13.53-5.86,26.87-4.32,37.12,1.84a4.28,4.28,0,0,1,1.58,5.38l-29.62,62.33A4.17,4.17,0,0,1,298.29,494.68Z"/><path class="cls-6" d="M314.23,501.14a4.23,4.23,0,0,1-.28-8.45,34.7,34.7,0,0,0,32.23-34.54,34.2,34.2,0,0,0-4-16.13,4.23,4.23,0,0,1,7.48-3.95,43.09,43.09,0,0,1-35.16,63.06Z"/><path d="M462.21,162.19v-18.9a1.77,1.77,0,0,1,1.1-1.66,1.74,1.74,0,0,1,1.94.42l7.64,8.08,7.65-8.08a1.78,1.78,0,0,1,2-.42,1.73,1.73,0,0,1,1.1,1.66v18.9a1.8,1.8,0,0,1-3.6,0V147.81L474.2,154a1.7,1.7,0,0,1-1.26.56,1.73,1.73,0,0,1-1.28-.56l-5.83-6.16v14.39A1.81,1.81,0,0,1,464,164,1.84,1.84,0,0,1,462.21,162.19Z"/><path d="M496.28,148.71a7.65,7.65,0,1,1-7.65,7.65A7.68,7.68,0,0,1,496.28,148.71Zm-4,7.65a4,4,0,1,0,4-4.05A4.06,4.06,0,0,0,492.23,156.36Z"/><path d="M518.67,160.93a1.81,1.81,0,0,1-.5,2.5,5,5,0,0,1-2.85.87,5.13,5.13,0,0,1-5.13-5.1v-6.8h-.68a1.8,1.8,0,0,1,0-3.6h.68v-5.19a1.8,1.8,0,1,1,3.6,0v5.19h3.28a1.8,1.8,0,1,1,0,3.6h-3.28v6.77a1.52,1.52,0,0,0,1.53,1.51,1.62,1.62,0,0,0,.85-.25A1.82,1.82,0,0,1,518.67,160.93Z"/><path d="M524.52,142.26a1.8,1.8,0,0,1,1.8,1.8,1.8,1.8,0,1,1-1.8-1.8Zm.11,6.45a1.81,1.81,0,0,1,1.81,1.8v11.7a1.8,1.8,0,1,1-3.6,0v-11.7A1.8,1.8,0,0,1,524.63,148.71Z"/><path d="M540.72,142.39a1.79,1.79,0,0,1,.49,2.5,1.8,1.8,0,0,1-2.5.47,1.5,1.5,0,0,0-2.33,1.26v2.18h3.17a1.8,1.8,0,1,1,0,3.6h-3.17v9.81a1.8,1.8,0,1,1-3.6,0V152.4H532a1.8,1.8,0,1,1,0-3.6h.77v-2.18a5.08,5.08,0,0,1,7.94-4.23Z"/><path d="M558.26,152.76a11.23,11.23,0,0,1,18.62-8.48,1.81,1.81,0,0,1,.18,2.54,1.79,1.79,0,0,1-2.54.18,7.75,7.75,0,0,0-5-1.86,7.65,7.65,0,0,0,0,15.29,7.23,7.23,0,0,0,4.37-1.39v-4.39h-4.12a1.8,1.8,0,0,1,0-3.6h6a1.7,1.7,0,0,1,1.74,1.74v7.15a1.7,1.7,0,0,1-.59,1.35,11.13,11.13,0,0,1-7.33,2.74A11.29,11.29,0,0,1,558.26,152.76Z"/><path d="M595.34,150.51v7.05a6.41,6.41,0,1,1-12.82,0v-7.05a1.8,1.8,0,1,1,3.6,0v7.05a2.81,2.81,0,1,0,5.62,0v-7.05a1.8,1.8,0,0,1,3.6,0Z"/><path d="M602.17,142.26a1.8,1.8,0,0,1,1.8,1.8,1.8,1.8,0,1,1-3.59,0A1.8,1.8,0,0,1,602.17,142.26Zm.12,6.45a1.81,1.81,0,0,1,1.8,1.8v11.7a1.8,1.8,0,0,1-3.6,0v-11.7A1.81,1.81,0,0,1,602.29,148.71Z"/><path d="M616.77,164a7.65,7.65,0,0,1,0-15.3,7.28,7.28,0,0,1,4,1.17v-6.57a1.8,1.8,0,0,1,3.6,0v18.9a1.78,1.78,0,0,1-1.77,1.8,1.74,1.74,0,0,1-1.67-1.21A7.67,7.67,0,0,1,616.77,164Zm0-3.6a4,4,0,1,0-4-4A4.06,4.06,0,0,0,616.77,160.41Z"/><path d="M641.27,162.77a7.64,7.64,0,1,1,3.33-7.49v.07l0,.23a1.77,1.77,0,0,1-1.12,1.86,1.29,1.29,0,0,1-.66.16h-9.67a4.17,4.17,0,0,0,3.87,2.83,4,4,0,0,0,2.23-.67,1.78,1.78,0,0,1,2.49.49A1.86,1.86,0,0,1,641.27,162.77Zm-7.92-8.12h7.33a4,4,0,0,0-7.33,0Z"/><path d="M677,162.3a1.81,1.81,0,0,1-1.8,1.8H664.48a1.92,1.92,0,0,1-1.86-1.87V143.34a1.8,1.8,0,0,1,3.6,0V160.5h8.93A1.81,1.81,0,0,1,677,162.3Z"/><path d="M682.53,142.26a1.79,1.79,0,0,1,1.79,1.8,1.8,1.8,0,1,1-1.79-1.8Zm.11,6.45a1.81,1.81,0,0,1,1.8,1.8v11.7a1.8,1.8,0,0,1-3.6,0v-11.7A1.81,1.81,0,0,1,682.64,148.71Z"/><path d="M691.27,148.71a1.8,1.8,0,0,1,1.46.75,6.08,6.08,0,0,1,2.93-.75,6.19,6.19,0,0,1,6.19,6.19v7.31a1.8,1.8,0,0,1-3.6,0V154.9a2.59,2.59,0,0,0-5.18,0v7.31a1.8,1.8,0,0,1-3.6,0v-11.7A1.81,1.81,0,0,1,691.27,148.71Z"/><path d="M718.74,162.77a7.64,7.64,0,1,1,3.33-7.49v.07l0,.23a1.77,1.77,0,0,1-1.12,1.86,1.29,1.29,0,0,1-.66.16h-9.67a4.17,4.17,0,0,0,3.87,2.83,4,4,0,0,0,2.23-.67,1.78,1.78,0,0,1,2.49.49A1.86,1.86,0,0,1,718.74,162.77Zm-7.92-8.12h7.33a4,4,0,0,0-7.33,0Z"/><path d="M732.15,164a6.42,6.42,0,0,1-4.5-1.82,1.8,1.8,0,0,1,2.54-2.54,2.75,2.75,0,0,0,2.25.76c.39,0,.95-.49.93-.83s-.07-.7-2-1.55-3.94-1.94-4.16-4.55a4.63,4.63,0,0,1,4.18-4.72,6.37,6.37,0,0,1,5.11,1.8,1.8,1.8,0,1,1-2.54,2.54,2.73,2.73,0,0,0-2.25-.76c-.27,0-1,.41-.95.83s.07.7,2,1.55,3.94,1.94,4.16,4.55C737.17,162,734.7,164,732.15,164Z"/><path d="M569.44,229.65v-17h2.88v14.29h7.8v2.73Z"/><path d="M585.09,212a1.82,1.82,0,0,1,1.82,1.83,1.81,1.81,0,0,1-3.62,0A1.82,1.82,0,0,1,585.09,212Zm-1.37,17.62V218h2.76v11.69Z"/><path d="M594.06,229.65h-2.78V218H594v1.56a3.89,3.89,0,0,1,3.46-1.89c2.86,0,4.22,2.06,4.22,4.63v7.39h-2.78v-6.91c0-1.44-.65-2.59-2.4-2.59a2.46,2.46,0,0,0-2.43,2.76Z"/><path d="M616.6,226.32a5.25,5.25,0,0,1-5.28,3.69A6.22,6.22,0,0,1,611,217.6c3.6,0,5.72,2.38,5.72,6.08a3.44,3.44,0,0,1-.08.88h-8.54a3.12,3.12,0,0,0,3.19,3.05,2.82,2.82,0,0,0,2.93-2Zm-2.66-3.8a2.62,2.62,0,0,0-2.88-2.59,2.81,2.81,0,0,0-2.86,2.59Z"/><path d="M622,225.81a2.19,2.19,0,0,0,2.38,2c1.15,0,1.75-.62,1.75-1.34s-.43-1.1-1.37-1.3l-1.73-.38c-2.06-.46-3.14-1.8-3.14-3.41a4.05,4.05,0,0,1,4.3-3.77c3.26,0,4.32,2.11,4.51,3.27l-2.35.67a2,2,0,0,0-2.16-1.75,1.52,1.52,0,0,0-1.69,1.34,1.29,1.29,0,0,0,1.18,1.23l1.78.36c2.2.48,3.36,1.82,3.36,3.55S627.38,230,624.4,230c-3.38,0-4.68-2.21-4.82-3.53Z"/><path d="M553,299.6h-2.11v6.72H548v-17h6.53a5,5,0,0,1,5.33,5.16,4.81,4.81,0,0,1-3.84,4.85l3.84,7h-3.27Zm1-2.55c1.78,0,2.93-1,2.93-2.59s-1.15-2.61-2.93-2.61h-3.09v5.2Z"/><path d="M574.71,300.46a6.06,6.06,0,1,1-6.07-6.19A6,6,0,0,1,574.71,300.46Zm-2.81,0c0-2.42-1.53-3.67-3.26-3.67s-3.27,1.25-3.27,3.67,1.56,3.72,3.27,3.72S571.9,302.91,571.9,300.46Z"/><path d="M582.82,306.65A4.32,4.32,0,0,1,578.4,302v-7.37h2.79v6.86c0,1.44.67,2.67,2.35,2.67a2.34,2.34,0,0,0,2.45-2.62v-6.91h2.78v9.55a21.26,21.26,0,0,0,.12,2.14h-2.66a8.48,8.48,0,0,1-.1-1.3A3.72,3.72,0,0,1,582.82,306.65Z"/><path d="M596.36,306.32h-2.79V294.63h2.72v1.56a3.88,3.88,0,0,1,3.45-1.9c2.86,0,4.23,2.07,4.23,4.64v7.39h-2.79v-6.91c0-1.44-.65-2.6-2.4-2.6-1.58,0-2.42,1.23-2.42,2.76Z"/><path d="M619.35,304.18a20.26,20.26,0,0,0,.12,2.14H616.8a13.72,13.72,0,0,1-.11-1.51,3.87,3.87,0,0,1-3.44,1.8c-3.36,0-5.61-2.64-5.61-6.17,0-3.36,2.28-6.12,5.57-6.12,2,0,3.07.93,3.43,1.68v-7.06h2.71Zm-5.79,0c1.83,0,3.1-1.51,3.1-3.75s-1.25-3.62-3.07-3.62-3.17,1.42-3.17,3.65S611.67,304.16,613.56,304.16Z"/><path d="M634.54,303a5.26,5.26,0,0,1-5.28,3.7,6.22,6.22,0,0,1-.29-12.41c3.6,0,5.72,2.38,5.72,6.07a3.55,3.55,0,0,1-.08.89h-8.54a3.12,3.12,0,0,0,3.19,3,2.83,2.83,0,0,0,2.93-2Zm-2.66-3.79A2.62,2.62,0,0,0,629,296.6a2.8,2.8,0,0,0-2.86,2.59Z"/><path d="M649.35,304.18a20.26,20.26,0,0,0,.12,2.14H646.8a13.72,13.72,0,0,1-.11-1.51,3.87,3.87,0,0,1-3.44,1.8c-3.36,0-5.61-2.64-5.61-6.17,0-3.36,2.28-6.12,5.57-6.12,2,0,3.07.93,3.43,1.68v-7.06h2.71Zm-5.79,0c1.83,0,3.1-1.51,3.1-3.75s-1.25-3.62-3.07-3.62-3.17,1.42-3.17,3.65S641.67,304.16,643.56,304.16Z"/><path d="M556.13,374.49a8.53,8.53,0,0,1,8.57-8.88c4.32,0,6.89,2.54,7.66,5.52l-2.71.91a4.73,4.73,0,0,0-4.95-3.72c-2.81,0-5.62,2-5.62,6.17s2.74,6.09,5.64,6.09a5.08,5.08,0,0,0,5.07-3.74l2.64.87a7.65,7.65,0,0,1-7.71,5.64A8.43,8.43,0,0,1,556.13,374.49Z"/><path d="M580.13,383.32a4.32,4.32,0,0,1-4.41-4.65V371.3h2.78v6.86c0,1.44.67,2.67,2.35,2.67a2.34,2.34,0,0,0,2.45-2.62V371.3h2.79v9.55a18.76,18.76,0,0,0,.12,2.14h-2.67a8.68,8.68,0,0,1-.09-1.3A3.74,3.74,0,0,1,580.13,383.32Z"/><path d="M597.72,374.06a5.8,5.8,0,0,0-.91-.08c-2.16,0-3.14,1.25-3.14,3.44V383h-2.79V371.3h2.72v1.87a3.54,3.54,0,0,1,3.38-2,4.21,4.21,0,0,1,.74.07Z"/><path d="M607.59,383H604.8l-4.75-11.69h3.07l3.1,8.35,3-8.35h2.93Z"/><path d="M625.4,379.65a5.27,5.27,0,0,1-5.28,3.7,6.22,6.22,0,0,1-.29-12.41c3.6,0,5.71,2.37,5.71,6.07a4.61,4.61,0,0,1-.07.89h-8.55a3.15,3.15,0,0,0,3.2,3.05,2.81,2.81,0,0,0,2.92-2Zm-2.67-3.79a2.62,2.62,0,0,0-2.88-2.6,2.8,2.8,0,0,0-2.85,2.6Z"/><path d="M640.21,380.85c0,1.06.09,1.94.11,2.14h-2.66a11.57,11.57,0,0,1-.12-1.52,3.82,3.82,0,0,1-3.43,1.8c-3.36,0-5.62-2.64-5.62-6.16,0-3.36,2.28-6.13,5.57-6.13,2,0,3.07.94,3.43,1.69v-7.06h2.72Zm-5.79,0c1.82,0,3.1-1.52,3.1-3.75s-1.25-3.62-3.07-3.62-3.17,1.41-3.17,3.65S632.53,380.83,634.42,380.83Z"/><path d="M534.71,442.27a8.87,8.87,0,1,1-8.64,8.86A8.54,8.54,0,0,1,534.71,442.27Zm0,15c2.89,0,5.72-2,5.72-6.15S537.6,445,534.71,445s-5.68,2-5.68,6.14S531.86,457.28,534.71,457.28Z"/><path d="M547.38,464.21V448h2.69v1.59a4.2,4.2,0,0,1,3.72-1.85c3.46,0,5.41,2.64,5.41,6.1s-2.14,6.14-5.5,6.14a4.22,4.22,0,0,1-3.55-1.61v5.88Zm5.89-14c-1.83,0-3.15,1.44-3.15,3.63s1.32,3.67,3.15,3.67,3.14-1.44,3.14-3.67S555.14,450.17,553.27,450.17Z"/><path d="M573.43,456.32a5.26,5.26,0,0,1-5.28,3.69,6.22,6.22,0,0,1-.29-12.41c3.6,0,5.71,2.38,5.71,6.08a4.37,4.37,0,0,1-.07.88H565a3.14,3.14,0,0,0,3.2,3.05,2.81,2.81,0,0,0,2.92-2Zm-2.67-3.8a2.62,2.62,0,0,0-2.88-2.59,2.8,2.8,0,0,0-2.85,2.59Z"/><path d="M580.22,459.65h-2.79V448h2.72v1.56a3.87,3.87,0,0,1,3.45-1.89c2.86,0,4.23,2.06,4.23,4.63v7.39H585v-6.91c0-1.44-.65-2.59-2.4-2.59-1.58,0-2.42,1.22-2.42,2.76Z"/><path d="M599.8,459.65v-17h10.51v2.69h-7.63v4.51h6.91v2.62h-6.91V457h7.63v2.69Z"/><path d="M617.27,459.65h-2.78V448h2.71v1.56a3.89,3.89,0,0,1,3.46-1.89c2.85,0,4.22,2.06,4.22,4.63v7.39H622.1v-6.91c0-1.44-.65-2.59-2.4-2.59-1.59,0-2.43,1.22-2.43,2.76Z"/><path d="M640.27,457.52c0,1.05.09,1.94.11,2.13h-2.66a11.25,11.25,0,0,1-.12-1.51,3.84,3.84,0,0,1-3.43,1.8c-3.36,0-5.62-2.64-5.62-6.17,0-3.36,2.28-6.12,5.57-6.12,2,0,3.07.94,3.43,1.68v-7.06h2.72Zm-5.79,0c1.82,0,3.1-1.51,3.1-3.74s-1.25-3.63-3.07-3.63-3.17,1.42-3.17,3.65S632.59,457.49,634.48,457.49Z"/><path d="M655.46,456.32a5.27,5.27,0,0,1-5.28,3.69,6.22,6.22,0,0,1-.29-12.41c3.6,0,5.71,2.38,5.71,6.08a4.37,4.37,0,0,1-.07.88H647a3.14,3.14,0,0,0,3.2,3.05,2.83,2.83,0,0,0,2.93-2Zm-2.67-3.8a2.62,2.62,0,0,0-2.88-2.59,2.8,2.8,0,0,0-2.85,2.59Z"/><path d="M670.27,457.52c0,1.05.09,1.94.11,2.13h-2.66a11.25,11.25,0,0,1-.12-1.51,3.85,3.85,0,0,1-3.43,1.8c-3.36,0-5.62-2.64-5.62-6.17,0-3.36,2.28-6.12,5.57-6.12,2,0,3.07.94,3.43,1.68v-7.06h2.72Zm-5.79,0c1.82,0,3.1-1.51,3.1-3.74s-1.25-3.63-3.08-3.63-3.16,1.42-3.16,3.65S662.58,457.49,664.48,457.49Z"/><path d="M464.91,285.19a1.82,1.82,0,0,0,0-.32,1.93,1.93,0,0,1,0-.24Z"/></svg>