<?xml version="1.0" encoding="utf-8"?>
<!-- Generator: Adobe Illustrator 22.1.0, SVG Export Plug-In . SVG Version: 6.00 Build 0)  -->
<svg version="1.1" id="Layer_1" xmlns="http://www.w3.org/2000/svg" xmlns:xlink="http://www.w3.org/1999/xlink" x="0px" y="0px"
	 viewBox="0 0 600 356" style="enable-background:new 0 0 600 356;" xml:space="preserve">
<style type="text/css">
	.st0{fill:#FBC304;}
	.st1{fill:#003161;}
	.st2{fill:#F4BF3B;}
	.st3{opacity:0.67;fill:#44340D;enable-background:new    ;}
	.st4{opacity:0.48;}
	.st5{fill:#544115;}
	.st6{fill:#F4F4F4;}
	.st7{fill:#2A4DAA;}
	.st8{fill:#66BB6A;}
	.st9{fill:#42A5F5;}
	.st10{fill:#EC407A;}
	.st11{fill:#FFCA28;}
	.st12{fill:none;stroke:#DDD5BF;stroke-width:0.25;stroke-miterlimit:10;}
	.st13{opacity:0.42;fill:#19163A;enable-background:new    ;}
	.st14{fill:#CEC8B6;}
	.st15{fill:#F7F0DA;}
	.st16{fill:none;}
	.st17{fill:#C5C8D5;}
	.st18{fill:#686A84;}
	.st19{fill:#4D526D;}
	.st20{fill:#D0D2DD;}
	.st21{fill:#E1E3E8;}
	.st22{fill:#545454;}
</style>
<title>nso-splash</title>
<path class="st0" d="M3.5,0h593c1.9,0,3.5,1.6,3.5,3.5v349c0,1.9-1.6,3.5-3.5,3.5H3.5c-1.9,0-3.5-1.6-3.5-3.5V3.5C0,1.6,1.6,0,3.5,0
	z"/>
<polygon class="st1" points="145.7,182 150.3,191.7 149,192.6 134.1,201.8 127.4,192 144.3,182.8 "/>
<polygon class="st1" points="107.2,101.6 111.8,111.3 110.8,112 95.6,121.4 88.9,111.6 106.1,102.2 "/>
<polygon class="st1" points="95.6,80 409.9,25 405.9,28.2 405.9,28.3 184,212.9 169.2,225.2 165.8,228 149,192.6 144.3,182.8 
	110.8,112 106.1,102.2 "/>
<polygon class="st2" points="105.1,83 392.6,32.2 169.4,217 "/>
<path class="st1" d="M172.5,118.3l10-4.7l-12.6-18.9l-15.7,9.3c-2.9,1.7-4.1,5.5-2.5,8.5l23.6,48.2c2,4.1,7,5.9,11.2,3.8
	c0,0,0,0,0.1,0l11-5.5c3.7-1.9,5.2-6.4,3.4-10.1c-0.1-0.2-0.2-0.3-0.2-0.5l-7.8-13.2l-8.4,4.1l4.8,10.4l-4.7,1.7l-20.2-37.6
	c-0.5-0.9-0.1-2,0.7-2.4c0.1,0,0.2-0.1,0.2-0.1l1.6-0.6c0.8-0.3,1.8,0.1,2.2,0.9L172.5,118.3z"/>
<path class="st1" d="M200.2,78.7l-14.7,10l31,62.1l9.3-6.9l-7.1-14.7l5.9-4.7l11.2,13.3l8.8-6.1L200.2,78.7z M207.6,114.9l-4.5-11.2
	l5.7-2.7l7.8,8.8L207.6,114.9z"/>
<polygon class="st1" points="226.6,66.5 218.9,72.5 252.3,121.8 268.1,110.7 263.2,103.6 255.2,108.9 "/>
<polygon class="st3" points="405.9,28.2 407.1,31.3 171.8,227.1 169.2,225.2 184,212.9 "/>
<g class="st4">
	<path class="st5" d="M344.3,281.3l-16.5-19.7L273,195.9c-3.6-4.3-9.9-4.8-14.2-1.3l-38.3,32c-4.3,3.6-4.8,9.9-1.3,14.2l54.8,65.6
		l16.5,19.7c2.5,3,6.5,4.3,10.2,3.3c1.5-0.4,2.8-1.1,4-2l38.3-32c1-0.9,1.8-1.9,2.5-3C347.4,288.8,346.9,284.4,344.3,281.3z"/>
</g>
<path class="st0" d="M265.2,193.3l57.2,68.5l-51.8,43.3l-57.2-68.5c-2.5-3-2.1-7.6,0.9-10.1c0,0,0,0,0,0l6-5
	c0.6-0.5,1.6-0.4,2.1,0.2c1,1.1,2.7,1.3,3.8,0.3l22.4-18.7c0.5-0.4,0.8-1,0.9-1.6l0-0.3c0-0.1,0-0.2,0-0.3c0-0.6-0.2-1.3-0.6-1.7
	l0,0c-0.5-0.6-0.4-1.6,0.2-2.1l6-5C258.2,189.8,262.7,190.3,265.2,193.3z"/>
<path d="M267.5,192l56.9,68.1l-2,1.6l-57.2-68.5c-2.5-3-7.1-3.4-10.1-0.9l-6,5c-0.6,0.5-0.7,1.5-0.2,2.1l0,0
	c0.4,0.5,0.6,1.1,0.6,1.7c0,0.1,0,0.2,0,0.3l0,0.3c-0.1,0.6-0.4,1.2-0.9,1.6L226.1,222c-1.1,0.9-2.8,0.8-3.8-0.3
	c-0.5-0.6-1.5-0.7-2.1-0.2c0,0,0,0,0,0l-6,5c-3,2.5-3.5,7.1-0.9,10.1c0,0,0,0,0,0l57.2,68.5l-2.1,1.7l-56.9-68.1
	c-3.7-4.4-3.1-11,1.3-14.7l39.8-33.2C257.1,187,263.7,187.5,267.5,192C267.5,192,267.5,192,267.5,192z"/>
<path d="M324.4,260.2l17.1,20.5c2.7,3.3,3.2,7.8,1.3,11.6c-0.6,1.2-1.5,2.3-2.6,3.2l-39.8,33.2c-1.2,1-2.6,1.7-4.1,2.1
	c-3.9,1-8-0.3-10.6-3.4l-17.1-20.5l2.1-1.7L288,326c2.5,3,7.1,3.4,10.1,0.9l40.9-34.1c3-2.5,3.4-7.1,0.9-10.1l-17.4-20.9
	L324.4,260.2z"/>
<path d="M265.2,193.3l74.6,89.4c2.5,3,2.1,7.6-0.9,10.1l-40.9,34.1c-3,2.5-7.6,2.1-10.1-0.9l-74.6-89.3c-2.5-3-2.1-7.6,0.9-10.1
	c0,0,0,0,0,0l6-5c0.6-0.5,1.6-0.4,2.1,0.2c1,1.1,2.7,1.3,3.8,0.3l22.4-18.7c0.5-0.4,0.8-1,0.9-1.6l0-0.3c0-0.1,0-0.2,0-0.3
	c0-0.6-0.2-1.3-0.6-1.7l0,0c-0.5-0.6-0.4-1.6,0.2-2.1l6-5C258.1,189.8,262.7,190.2,265.2,193.3C265.2,193.3,265.2,193.3,265.2,193.3
	z"/>
<path class="st6" d="M265.2,193.3l74.6,89.4c2.5,3,2.1,7.6-0.9,10.1l-40.9,34.1c-3,2.5-7.6,2.1-10.1-0.9l-74.6-89.3
	c-2.5-3-2.1-7.6,0.9-10.1c0,0,0,0,0,0l6-5c0.6-0.5,1.6-0.4,2.1,0.2c1,1.1,2.7,1.3,3.8,0.3l22.4-18.7c0.5-0.4,0.8-1,0.9-1.6l0-0.3
	c0-0.1,0-0.2,0-0.3c0-0.6-0.2-1.3-0.6-1.7l0,0c-0.5-0.6-0.4-1.6,0.2-2.1l6-5C258.1,189.8,262.7,190.2,265.2,193.3
	C265.2,193.3,265.2,193.3,265.2,193.3z"/>
<rect x="216.2" y="226.5" transform="matrix(0.7593 -0.6507 0.6507 0.7593 -94.3822 206.2102)" width="30.8" height="8.4"/>
<path class="st7" d="M246,214.6c1.2-1,3-0.8,4,0.4c1,1.2,0.8,3-0.4,4c-1.2,1-3,0.8-4-0.3C244.6,217.5,244.7,215.7,246,214.6
	C246,214.6,246,214.6,246,214.6L246,214.6 M245.1,213.6L245.1,213.6c-1.8,1.5-2,4.2-0.5,5.9c0,0,0,0,0,0l0,0c1.5,1.7,4.1,2,5.8,0.5
	l0.1-0.1c1.8-1.5,2-4.1,0.5-5.9C249.5,212.3,246.9,212.1,245.1,213.6z"/>
<path class="st7" d="M262.4,200.9c1.2-1,3-0.8,4,0.4c1,1.2,0.8,3-0.4,4l-8.5,7.1c-1.2,1-3,0.8-4-0.4c-1-1.2-0.8-3,0.4-4L262.4,200.9
	L262.4,200.9 M261.6,199.8L261.6,199.8l-8.4,7.1c-1.8,1.5-2,4.1-0.5,5.9c0,0,0,0,0,0l0,0c1.5,1.7,4.1,2,5.8,0.5l0.1,0l8.4-7.1
	c1.8-1.5,2-4.1,0.5-5.9c0,0,0,0,0,0l0,0C266,198.6,263.3,198.4,261.6,199.8C261.6,199.8,261.6,199.8,261.6,199.8z"/>
<path class="st8" d="M229.4,245.8l40.6-34.2c1.5-1.3,3.8-1.1,5.1,0.4l14.1,16.7c1.3,1.5,1.1,3.8-0.4,5.1l-40.6,34.2
	c-1.5,1.3-3.8,1.1-5.1-0.4L229,250.9C227.7,249.4,227.9,247.1,229.4,245.8z"/>
<path class="st9" d="M249.8,270l40.6-34.2c1.5-1.3,3.8-1.1,5.1,0.4l14.1,16.7c1.3,1.5,1.1,3.8-0.4,5.1l-40.6,34.2
	c-1.5,1.3-3.8,1.1-5.1-0.4l-14.1-16.7C248.1,273.6,248.3,271.3,249.8,270z"/>
<path class="st10" d="M270.3,294.2l40.6-34.2c1.5-1.3,3.8-1.1,5.1,0.4l14.1,16.7c1.3,1.5,1.1,3.8-0.4,5.1L289,316.5
	c-1.5,1.3-3.8,1.1-5.1-0.4l-14.1-16.7C268.5,297.8,268.7,295.5,270.3,294.2z"/>
<path class="st11" d="M341,290c-0.4,1.1-1.1,2-2,2.7l-40.9,34.1c-1,0.9-2.3,1.4-3.6,1.6l-4.3-5.1c-1.2-1.5-1-3.6,0.4-4.9l40.8-34.4
	c1.5-1.2,3.6-1,4.9,0.4L341,290z"/>
<g>
	<polyline class="st12" points="289.4,172.1 289.7,172.4 301.6,186.4 	"/>
	<line class="st12" x1="349" y1="242.3" x2="353.4" y2="247.6"/>
	<line class="st12" x1="301.6" y1="186.4" x2="289.7" y2="172.4"/>
	<line class="st12" x1="349" y1="242.3" x2="353.4" y2="247.6"/>
	<line class="st12" x1="349" y1="242.3" x2="353.4" y2="247.6"/>
	<line class="st12" x1="349" y1="242.3" x2="353.4" y2="247.6"/>
	<line class="st12" x1="349" y1="242.3" x2="353.4" y2="247.6"/>
	<line class="st12" x1="349" y1="242.3" x2="353.4" y2="247.6"/>
	<line class="st12" x1="349" y1="242.3" x2="353.4" y2="247.6"/>
	<path class="st13" d="M414.2,65.6L414.2,65.6c0.7,0.1,1.2,0.5,1.7,1.1l82.2,96.7c0.4,0.6,0.4,1.3-0.2,1.8l0,0L374.6,269.6
		c-0.6,0.4-1.3,0.4-1.8-0.2l0,0l-1.1-1.4l0,0l0.1-0.1l0.3-0.2l0.5-0.4l123.5-104.6"/>
	<path class="st14" d="M496.3,164.8l-122.8,104c-0.6,0.6-1.7,0.5-2.2-0.2l0,0l-0.3-0.3l-0.3-0.3l-0.3-0.3l-0.3-0.3l-0.3-0.3l-1-1.2
		l0,0l0.2-0.1l125-105.8l0.2-0.1l0.4,0.6l0.3,0.3l0.3,0.3l0.4,0.6l0.7,0.9C497.1,163.3,497.1,164.3,496.3,164.8z"/>
	<path class="st15" d="M494.7,160.5c0.3,1,0,2-0.8,2.7L372.6,266c-0.8,0.7-1.9,0.8-2.9,0.3c-0.3-0.2-0.6-0.4-0.8-0.6l0,0l0,0
		l-15-17.6l-4.4-5.2l-47.2-56l-10.6-12.5l-0.4-0.6l-0.3-0.3l-0.3-0.3l-0.3-0.4c-1-1.1-0.8-2.7,0.3-3.7c0,0,0,0,0.1-0.1l0.7-0.6
		l0.6-0.4l0.8-0.7l0.6-0.4l3.3-2.8l0.6-0.4l0.8-0.7l0,0l0.6-0.4l3.4-2.9l0,0l0.6-0.4l0.8-0.7l0.6-0.4l0,0l3.4-2.9l0,0l0.6-0.4
		l0.8-0.7l0,0l0.6-0.4l3.4-2.9l0.6-0.4l0.8-0.7l0.6-0.4l0,0l3.6-3.3l0.6-0.4l0.8-0.7l0.6-0.4l3.4-2.9l0,0l0.6-0.4l0.8-0.7l0.6-0.4
		l3.5-3l0,0l0.6-0.4l0.8-0.7l0.6-0.4l3.4-2.9l0,0l0.6-0.4l0.8-0.7l0.6-0.4l3.4-2.9l0.6-0.4l0.8-0.7l0,0l0.6-0.4l3.4-2.9l0,0l0.6-0.4
		l0.8-0.7l0.6-0.4l3.4-2.9l0.6-0.4l0.8-0.7l0.6-0.4l3.4-2.9l0,0l0.6-0.4l0.8-0.7l0.6-0.4l3.4-2.9l0,0l0.6-0.4l0.8-0.7l0,0l0.6-0.4
		l3.4-2.9l0,0l0.6-0.4l0,0l0.8-0.7l0.6-0.4l3.4-2.9l0.6-0.4l0.8-0.7l0.6-0.4l3.4-2.9l0,0l0.6-0.4l0.8-0.7l0.6-0.4l0,0l3.3-2.8
		l0.6-0.4l0.8-0.7l0.6-0.4l3.4-2.9l0.6-0.4l0.8-0.7l0,0l0.6-0.4l3.4-2.9l0.6-0.4l0.8-0.7l0.6-0.4l3.4-2.9l0.6-0.4l0.8-0.7l0.6-0.4
		l0,0l3.3-2.8l0.6-0.4l0.8-0.7l0.6-0.4l4.6-4.3l0.6-0.4l0.8-0.7l0,0l0.6-0.4l0.2-0.1c1.1-1,2.7-0.8,3.7,0.3c0,0,0,0,0.1,0.1
		l78.8,92.9C494.4,159.7,494.6,160.1,494.7,160.5z"/>
	<path class="st12" d="M368.3,265.2L368.3,265.2L368.3,265.2l0.7,0.8l0.4,0.6c0.5,0.7,1.5,0.8,2.3,0.2l0,0l122.8-104
		c0.7-0.5,0.8-1.5,0.2-2.3l0,0"/>
	<path class="st12" d="M368.3,265.2L368.3,265.2L368.3,265.2l0.7,0.8l0.4,0.6l0.3,0.3c0.5,0.7,1.5,0.8,2.3,0.2l0,0l122.8-104
		c0.7-0.5,0.8-1.5,0.2-2.3c0,0,0,0-0.1-0.1"/>
	<path class="st12" d="M370.3,267.5c0.4,0.6,1.2,0.7,1.9,0.4c0.2-0.1,0.3-0.2,0.4-0.3l122.8-104.1c0.1-0.1,0.2-0.2,0.3-0.3
		c0.4-0.6,0.4-1.4-0.2-1.9"/>
	<path class="st12" d="M370.5,267.8c0.3,0.3,0.7,0.6,1.1,0.5c0.4,0,0.8-0.1,1.1-0.4l122.9-104c0.3-0.3,0.5-0.6,0.6-1.1
		c0.1-0.4-0.1-0.9-0.3-1.2"/>
	<path class="st12" d="M370.8,268.1c0.2,0.3,0.4,0.3,0.6,0.5c0.6,0.2,1.2,0.2,1.7-0.2l122.8-104c0.5-0.4,0.6-1,0.6-1.5
		c-0.1-0.3-0.2-0.5-0.4-0.7"/>
	<path class="st12" d="M371.1,268.4c0.1,0.1,0.2,0.1,0.3,0.3c0.6,0.4,1.4,0.4,1.9,0l122.8-104.1c0.6-0.4,0.7-1.2,0.4-1.9
		c-0.1-0.1-0.2-0.3-0.2-0.4"/>
	<path class="st12" d="M368.3,265.2L368.3,265.2L368.3,265.2l0.7,0.8l0,0l0.4,0.6l0.3,0.3l0.3,0.3c0.5,0.7,1.5,0.8,2.3,0.2l0,0
		l122.8-104.1c0.7-0.5,0.8-1.5,0.2-2.3l0,0"/>
	<line class="st16" x1="406.1" y1="83.9" x2="405.5" y2="83.2"/>
	<line class="st16" x1="408.8" y1="80.3" x2="409.4" y2="81.1"/>
	<path class="st17" d="M408.3,76.7l-2.4,2.1c-0.2,0.2-0.6,0.2-0.8,0c0,0,0,0-0.1-0.1l-0.8-1.1c-0.2-0.2-0.2-0.6,0-0.8
		c0,0,0,0,0.1-0.1l2.4-2.1c0.2-0.2,0.6-0.2,0.8,0c0,0,0,0,0.1,0.1l0.8,1.1C408.5,76,408.5,76.4,408.3,76.7z"/>
	<path class="st17" d="M406.2,74.1l-2.7,2.3c-0.2,0.1-0.4,0.1-0.6,0c0,0,0,0-0.1-0.1l-0.1-0.1c-0.1-0.2-0.1-0.4,0-0.6l0,0l2.7-2.3
		c0.2-0.1,0.4-0.1,0.6,0l0,0l0.1,0.1C406.4,73.7,406.4,73.9,406.2,74.1C406.3,74.1,406.3,74.1,406.2,74.1z"/>
	<path class="st18" d="M404.9,76.1L404.9,76.1c0,0.2,0,0.4-0.1,0.4c-0.1,0.1-0.3,0.2-0.3,0.1l-0.1,0l-0.3-0.4l-0.6-0.7l-1.1-1.3
		l-1-1.1l-1.1-1.3c-0.1-0.2-0.1-0.4,0.1-0.5l0,0l0.1-0.1c0.2-0.1,0.3-0.1,0.4,0.1l1.1,1.3l0.9,1l1.1,1.3l0.6,0.7l0.3,0.3L404.9,76.1
		z"/>
	<path class="st19" d="M405.8,77.8c-0.2,0.1-0.4,0.1-0.5-0.1l0,0l-0.9-1.2l-0.1-0.1l-0.3-0.4l-0.6-0.7l-1.1-1.3l-1-1.1
		c-0.1-0.2-0.1-0.4,0.1-0.5l0,0l0.1-0.1c0.2-0.1,0.3-0.1,0.4,0.1l0.9,1l1.1,1.3l0.6,0.7l0.3,0.3l0.1,0.2l0,0l0,0l0.9,1.2
		c0.2,0.1,0.3,0.3,0.2,0.5C406,77.7,405.9,77.8,405.8,77.8z"/>
	<path class="st18" d="M406.1,74.8c0.1,0.1,0.1,0.2,0.1,0.2c0.1,0.1,0,0.2-0.1,0.3c-0.1,0.1-0.3,0.2-0.3,0.1l-0.1-0.1l0,0l-0.3-0.4
		l-0.6-0.7l-1.1-1.3l-0.9-1l-1.1-1.3c-0.1-0.2-0.1-0.4,0.1-0.5l0,0l0.1-0.1c0.2-0.1,0.3-0.1,0.4,0.1l1.1,1.3l0,0l1,1.1l1.1,1.3l0,0
		l0.6,0.7L406.1,74.8z"/>
	<path class="st19" d="M407.4,76.5c-0.2,0.1-0.4,0.1-0.5-0.1l0,0l-1-1.2l-0.1-0.1l0,0l-0.3-0.4l0,0l-0.6-0.7l-1.1-1.3l-0.9-1
		c-0.1-0.2-0.1-0.4,0.1-0.5l0,0l0.1-0.1c0.1-0.1,0.3-0.1,0.4,0.1l0,0l1,1.1l1.1,1.3l0,0l0.6,0.7l0.3,0.3l0.2,0.1l0.9,1.2
		C407.6,76.2,407.6,76.4,407.4,76.5z"/>
	<path class="st17" d="M413.4,72.3l-2.4,2c-0.2,0.2-0.6,0.2-0.8,0c0,0,0,0-0.1-0.1l-0.8-1.1c-0.2-0.2-0.2-0.6,0-0.8c0,0,0,0,0.1-0.1
		l2.4-2.1c0.2-0.2,0.6-0.2,0.8,0c0,0,0,0,0.1,0.1l0.8,1.1C413.6,71.7,413.7,72.1,413.4,72.3z"/>
	<path class="st17" d="M411.4,69.8l-2.7,2.3c-0.2,0.1-0.4,0.1-0.6,0l0,0l-0.1-0.1c-0.1-0.2-0.1-0.4,0-0.6l0,0l2.7-2.3
		c0.2-0.1,0.4-0.1,0.6,0l0,0l0.1,0.1C411.5,69.4,411.5,69.7,411.4,69.8L411.4,69.8z"/>
	<path class="st18" d="M410,71.7L410,71.7c0,0.2,0,0.4-0.1,0.4c-0.1,0.1-0.3,0.2-0.3,0.1l-0.1,0l-0.3-0.4l-0.6-0.7l-1.1-1.3l-1-1.1
		l-1.1-1.3c-0.1-0.2-0.1-0.4,0-0.5l0,0l0.1-0.1c0.2-0.1,0.3-0.1,0.4,0.1l1.1,1.3l0.9,1l1.1,1.3l0.6,0.7l0.3,0.3L410,71.7z"/>
	<path class="st19" d="M411,73.5c-0.1,0.2-0.4,0.2-0.5,0l0,0l-1-1.2l-0.1-0.1l-0.3-0.4l-0.6-0.7l-1.1-1.3l-1-1.1
		c-0.1-0.2-0.1-0.4,0.1-0.5l0,0l0.1-0.1c0.2-0.1,0.3-0.1,0.4,0.1l0.9,1l1.1,1.3l0.6,0.7l0.3,0.3l0.1,0.2l0,0l0,0l0.9,1.2
		C411,73.2,411.1,73.3,411,73.5C411,73.4,411,73.4,411,73.5z"/>
	<path class="st18" d="M411.3,70.7c0.1,0.1,0,0.2-0.2,0.3c-0.1,0.1-0.3,0.2-0.3,0.1l-0.1,0l0,0l-0.3-0.4l-0.6-0.7l-1.1-1.3l-1-1.1
		l-1.1-1.3c-0.1-0.2-0.1-0.4,0.1-0.5l0,0l0.1-0.1c0.2-0.1,0.3-0.1,0.4,0.1l1.1,1.3l0,0l1,1.1l1.1,1.3l0,0l0.6,0.7l0.3,0.3
		C411.2,70.6,411.3,70.6,411.3,70.7z"/>
	<path class="st19" d="M412.2,72.4c-0.2,0.1-0.4,0.1-0.5-0.1l0,0l-1-1.2l-0.1-0.1l0,0l-0.3-0.4l-0.6-0.7l-1.1-1.3l-1-1.1
		c-0.1-0.2-0.1-0.4,0.1-0.5l0,0l0.1-0.1c0.1-0.1,0.3-0.1,0.4,0.1l0,0l1,1.1l1.1,1.3l0,0l0.6,0.7l0.3,0.3l0.2,0.1l1,1.1
		C412.5,72,412.5,72.2,412.2,72.4C412.3,72.3,412.3,72.3,412.2,72.4z"/>
	<line class="st16" x1="398.7" y1="88.9" x2="399.3" y2="89.8"/>
	<line class="st16" x1="395.9" y1="92.5" x2="395.3" y2="91.8"/>
	<path class="st17" d="M398.1,85.2l-2.4,2.1c-0.2,0.2-0.6,0.2-0.8,0c0,0,0,0-0.1-0.1l-0.8-1.1c-0.2-0.2-0.2-0.6,0-0.8
		c0,0,0,0,0.1-0.1l2.4-2.1c0.2-0.2,0.6-0.2,0.8,0c0,0,0,0,0.1,0.1l0.8,1.1C398.4,84.7,398.4,85,398.1,85.2L398.1,85.2z"/>
	<path class="st17" d="M396.1,82.7l-2.7,2.3c-0.2,0.1-0.4,0.1-0.6,0l0,0l-0.1-0.1c-0.1-0.2-0.1-0.4,0-0.6l0,0l2.7-2.3
		c0.2-0.1,0.4-0.1,0.6,0l0,0l0.1,0.1C396.4,82.3,396.4,82.5,396.1,82.7L396.1,82.7z"/>
	<path class="st18" d="M394.6,84.5c0.1,0.1,0.1,0.2,0.1,0.2c0.1,0.1,0,0.2-0.1,0.3c-0.1,0.1-0.3,0.2-0.3,0.1c0,0-0.1,0-0.2-0.1l0,0
		l-0.3-0.4l-0.6-0.7l-1.1-1.3l-1-1.1l-1.1-1.3c-0.1-0.2-0.1-0.4,0.1-0.5l0,0l0.1-0.1c0.2-0.1,0.3-0.1,0.4,0.1l1.1,1.3l0,0l0.9,1
		l1.1,1.3l0.6,0.7L394.6,84.5z"/>
	<path class="st19" d="M395.7,86.4c-0.2,0.1-0.4,0.1-0.5-0.1l0,0l-1-1.1l-0.1-0.2l0,0l-0.3-0.4l0,0l-0.6-0.7l-1.1-1.3l-1-1.1
		c-0.2-0.1-0.1-0.4,0-0.5l0,0l0.1-0.1c0.1-0.1,0.3-0.1,0.4,0.1l0,0l0.9,1l1.1,1.3l0.6,0.7l0.3,0.3l0.1,0.2l0.9,1.2
		C395.8,85.9,395.9,86.3,395.7,86.4z"/>
	<path class="st18" d="M396.1,83.5L396.1,83.5c0,0.2,0,0.4-0.1,0.4c-0.1,0.1-0.3,0.2-0.3,0.1l-0.1,0l0,0l-0.3-0.4l-0.6-0.7l-1.1-1.3
		l-1-1.1l-1.1-1.3c-0.1-0.2-0.1-0.4,0.1-0.5l0,0l0.1-0.1c0.2-0.1,0.3-0.1,0.4,0.1L393,80l0,0l1,1.1l1.1,1.3l0.6,0.7L396.1,83.5
		L396.1,83.5L396.1,83.5z"/>
	<path class="st19" d="M397.1,85.2c-0.2,0.1-0.4,0.1-0.5-0.1l0,0l-0.9-1.2l-0.1-0.2l0,0l-0.3-0.4l-0.6-0.7l-1.1-1.1l-1-1.1
		c-0.2-0.1-0.2-0.4,0-0.5l0,0l0.1-0.1c0.1-0.1,0.3-0.1,0.4,0.1l0,0l1,1.1l1.1,1.3l0.6,0.7l0.3,0.3l0,0l0.1,0.2l0,0l1,1.1
		c0.2,0.1,0.3,0.3,0.2,0.5C397.2,85.2,397.1,85.2,397.1,85.2z"/>
	<path class="st17" d="M403.2,80.9l-2.4,2.1c-0.2,0.2-0.6,0.2-0.8,0c0,0,0,0-0.1-0.1l-0.8-1.1c-0.2-0.2-0.2-0.6,0-0.8
		c0,0,0,0,0.1-0.1l2.4-2.1c0.2-0.2,0.6-0.2,0.8,0c0,0,0,0,0.1,0.1l0.8,1.1C403.6,80.3,403.4,80.7,403.2,80.9L403.2,80.9z"/>
	<path class="st17" d="M401.3,78.4l-2.7,2.3c-0.2,0.1-0.4,0.1-0.6,0l0,0l-0.1-0.1c-0.1-0.2-0.1-0.4,0-0.6l0,0l2.7-2.3
		c0.2-0.1,0.4-0.1,0.6,0l0,0l0.1,0.1C401.4,78,401.4,78.2,401.3,78.4L401.3,78.4z"/>
	<path class="st18" d="M399.9,80.4L399.9,80.4c0,0.2,0,0.4-0.1,0.4c-0.1,0.1-0.3,0.2-0.3,0.1c0,0-0.1,0-0.2-0.1l0,0l-0.3-0.4
		l-0.6-0.7l-1.1-1.3l-1-1.1l-1.1-1.3c-0.1-0.2-0.1-0.4,0.1-0.5l0,0l0.1-0.1c0.2-0.1,0.3-0.1,0.4,0.1l1.1,1.3l0,0l1,1.1l1.1,1.3l0,0
		l0.6,0.7l0.3,0.3L399.9,80.4z"/>
	<path class="st19" d="M400.9,82.1c-0.2,0.1-0.4,0.1-0.5,0l0,0l-1-1.1l-0.1-0.2l0,0l-0.3-0.4l0,0l-0.6-0.7l-1.1-1.3l-1-1.1
		c-0.1-0.2-0.1-0.4,0-0.5l0,0l0.1-0.1c0.1-0.1,0.3-0.1,0.4,0.1l0,0l1,1.1l1.1,1.4l0.6,0.7l0.3,0.3l0.1,0.2l0,0l0.9,1.2
		C401,81.8,401.1,82,400.9,82.1C400.9,81.9,400.9,82.1,400.9,82.1z"/>
	<path class="st18" d="M401.1,79.1c0.1,0.1,0.1,0.1,0.1,0.2s0,0.2-0.1,0.3c-0.1,0.1-0.3,0.2-0.3,0.1c0,0-0.1,0-0.2-0.1l-0.3-0.4
		l-0.6-0.7l0,0l-1.1-1.3l-0.9-1l0,0l-1.1-1.3c-0.1-0.2-0.1-0.4,0-0.5l0,0l0.1-0.1c0.2-0.1,0.3-0.1,0.4,0.1l1.1,1.3l0,0l0.9,1l0,0
		l1.1,1.3l0.6,0.7l0,0L401.1,79.1z"/>
	<path class="st19" d="M402.3,80.9c-0.2,0.1-0.4,0.1-0.5-0.1l0,0l-1-1.2l-0.1-0.2l-0.3-0.4l-0.6-0.7l0,0l-1.1-1.3l-0.9-1l0,0
		c-0.1-0.2-0.1-0.3,0.1-0.5l0,0l0.1-0.1c0.1-0.1,0.3-0.1,0.4,0.1l0,0l0.9,1l0,0l1.1,1.3l0.6,0.7l0,0l0.3,0.4l0.1,0.2l1,1.1
		C402.3,80.6,402.3,80.8,402.3,80.9z"/>
	<line class="st16" x1="388.5" y1="97.5" x2="389.1" y2="98.3"/>
	<line class="st16" x1="385.9" y1="101.2" x2="385.2" y2="100.4"/>
	<path class="st17" d="M388,93.9l-2.4,2c-0.2,0.2-0.6,0.2-0.8,0c0,0,0,0-0.1-0.1l-0.8-1.1c-0.2-0.2-0.2-0.6,0-0.8c0,0,0,0,0.1-0.1
		l2.4-2.1c0.2-0.2,0.6-0.2,0.8,0c0,0,0,0,0.1,0.1l0.9,1.2C388.2,93.3,388.2,93.6,388,93.9L388,93.9z"/>
	<path class="st17" d="M385.9,91.4l-2.7,2.3c-0.2,0.1-0.4,0.1-0.6,0l0,0l-0.1-0.1c-0.1-0.2-0.1-0.4,0-0.6l0,0l2.7-2.3
		c0.2-0.1,0.4-0.1,0.6,0l0,0l0.1,0.1C386.1,90.9,386.2,91.1,385.9,91.4L385.9,91.4z"/>
	<path class="st18" d="M384.6,93.3L384.6,93.3L384.6,93.3c0,0.2,0,0.4-0.1,0.4c-0.1,0.1-0.3,0.2-0.3,0.1l-0.1,0l-0.3-0.4l-0.6-0.7
		l-1.1-1.3l-0.9-1l-1.1-1.3c-0.1-0.2-0.2-0.3,0-0.5c0,0,0,0,0.1-0.1l0.1-0.1c0.2-0.1,0.3-0.1,0.4,0.1l1.1,1.3l1,1.1l1.1,1.3l0.6,0.7
		L384.6,93.3L384.6,93.3z"/>
	<path class="st19" d="M385.5,95c-0.1,0.2-0.4,0.2-0.5,0l0,0l-1-1.2l-0.1-0.2l-0.3-0.4l-0.6-0.7l-1.1-1.3l-0.9-1
		c-0.1-0.2-0.1-0.4,0-0.5l0,0l0.1-0.1c0.1-0.1,0.3-0.1,0.4,0.1l1,1.1l1.1,1.3l0.6,0.7l0.3,0.3l0.1,0.2l0,0l0,0l0.9,1.2
		C385.6,94.8,385.6,95,385.5,95C385.6,94.9,385.6,95,385.5,95z"/>
	<path class="st18" d="M385.8,92c0.1,0.1,0.1,0.2,0.1,0.2c0.1,0.1,0,0.2-0.1,0.3s-0.3,0.2-0.3,0.1l-0.1,0l0,0l-0.3-0.4l-0.6-0.7
		l-1.1-1.3l-1-1.1l-1.1-1.3c-0.1-0.2-0.1-0.4,0.1-0.5l0,0l0.1-0.1c0.2-0.1,0.3-0.1,0.4,0.1l1.1,1.3l0,0l1,1.1l1.1,1.3l0,0l0.6,0.7
		L385.8,92z"/>
	<path class="st19" d="M386.9,93.9c-0.2,0.1-0.4,0.1-0.5-0.1l0,0l-0.9-1.2l-0.1-0.2l0,0l-0.3-0.4l0,0l-0.6-0.7l-1.1-1.3l-1-1.1
		c-0.1-0.2-0.1-0.4,0.1-0.5l0,0l0.1-0.1c0.1-0.1,0.3-0.1,0.4,0.1l0,0l1,1.1l1.1,1.3l0,0l0.6,0.7l0.3,0.3l0.1,0.2l0.9,1.2
		C387.1,93.4,387,93.7,386.9,93.9z"/>
	<path class="st17" d="M393.1,89.5l-2.4,2.1c-0.2,0.2-0.6,0.2-0.8,0c0,0,0,0-0.1-0.1l-0.8-1.1c-0.2-0.2-0.2-0.6,0-0.8
		c0,0,0,0,0.1-0.1l2.4-2.1c0.2-0.2,0.6-0.2,0.8,0c0,0,0,0,0.1,0.1l0.8,1.1C393.3,88.9,393.3,89.3,393.1,89.5z"/>
	<path class="st17" d="M391.1,87l-2.7,2.3c-0.2,0.1-0.4,0.1-0.6,0l0,0l-0.1-0.1c-0.1-0.2-0.1-0.4,0-0.6l0,0l2.7-2.3
		c0.2-0.1,0.4-0.1,0.6,0l0,0l0.1,0.1C391.2,86.6,391.2,86.9,391.1,87L391.1,87z"/>
	<path class="st18" d="M389.7,89L389.7,89L389.7,89c0,0.2,0,0.4-0.1,0.4c-0.1,0.1-0.3,0.2-0.3,0.1c-0.1-0.1-0.1,0-0.2-0.1l-0.3-0.4
		l-0.6-0.7l-1.1-1.3l-1-1.1l-1.1-1.3c-0.1-0.2-0.1-0.4,0.1-0.5l0,0l0.1-0.1c0.2-0.1,0.3-0.1,0.4,0.1l1.1,1.3l0.9,1l1.1,1.3l0.6,0.7
		l0.3,0.3L389.7,89z"/>
	<path class="st19" d="M390.7,90.7c-0.2,0.1-0.4,0.1-0.5-0.1l0,0l-1-1.2l-0.1-0.2l-0.3-0.4l-0.6-0.7l-1.1-1.3l-1-1.1
		c-0.1-0.2-0.1-0.4,0.1-0.5l0,0l0.1-0.1c0.2-0.1,0.3-0.1,0.4,0.1l0.9,1l1.1,1.3l0.6,0.7l0.3,0.3l0.1,0.2l0,0l0,0l0.9,1.2
		c0.1,0,0.3,0.3,0.2,0.5C390.8,90.6,390.7,90.7,390.7,90.7z"/>
	<path class="st18" d="M391,88c0.1,0.1,0,0.2-0.2,0.3c-0.1,0.1-0.3,0.2-0.3,0.1l-0.1,0l0,0l-0.3-0.4l-0.6-0.7l-1.1-1.4l-1-1.1
		l-1.1-1.3c-0.1-0.2-0.1-0.4,0.1-0.5l0,0l0.1-0.1c0.2-0.1,0.3-0.1,0.4,0.1l1.1,1.3l0,0l1,1.1l1.1,1.4l0,0l0.6,0.7l0.3,0.3
		C390.9,87.8,391,87.9,391,88z"/>
	<path class="st19" d="M391.9,89.6c-0.2,0.1-0.4,0.1-0.5-0.1l0,0l-0.9-1.2l-0.1-0.2l0,0l-0.3-0.4l-0.6-0.7l-1.1-1.4l-1-1.1
		c-0.2-0.1-0.2-0.4,0-0.5l0,0l0.1-0.1c0.1-0.1,0.3-0.1,0.4,0.1l0,0l1,1.1l1.1,1.4l0,0l0.6,0.7l0.3,0.3l0.1,0.2l0.9,1.2
		C392.2,89.1,392.2,89.3,391.9,89.6C392,89.5,392,89.5,391.9,89.6z"/>
	<line class="st16" x1="378.4" y1="106" x2="379" y2="106.9"/>
	<line class="st16" x1="375.6" y1="109.8" x2="374.9" y2="109"/>
	<path class="st17" d="M377.8,102.3l-2.6,2.2c-0.2,0.2-0.6,0.2-0.8,0l-0.1-0.1l-0.9-1c-0.2-0.2-0.2-0.6,0.1-0.9c0,0,0,0,0.1-0.1
		l2.6-2.2c0.2-0.2,0.6-0.2,0.8,0l0.1,0.1l0.9,1C378.1,101.7,378.2,102.1,377.8,102.3z"/>
	<path class="st17" d="M375.8,99.9l-2.7,2.3c-0.2,0.1-0.4,0.1-0.6,0l0,0l-0.1-0.1c-0.1-0.2-0.1-0.4,0-0.6l0,0l2.7-2.3
		c0.2-0.1,0.4-0.1,0.6,0l0,0l0.1,0.1C376,99.4,376,99.7,375.8,99.9C375.9,99.8,375.8,99.9,375.8,99.9z"/>
	<path class="st18" d="M374.3,101.7c0.1,0.1,0.1,0.2,0.1,0.2c0.1,0.1,0,0.2-0.1,0.3c-0.1,0.1-0.3,0.2-0.3,0.1l-0.1,0l0,0l-0.3-0.4
		l-0.6-0.7l-1.1-1.3l-0.9-1l-1.1-1.3c-0.1-0.2-0.1-0.4,0.1-0.5l0,0l0.1-0.1c0.2-0.1,0.3-0.1,0.4,0.1l1.1,1.3l0,0l1,1.1l1.1,1.3
		l0.6,0.7L374.3,101.7z"/>
	<path class="st19" d="M375.3,103.5c-0.2,0.1-0.4,0.1-0.5-0.1l0,0l-1-1.2l-0.1-0.2l0,0l-0.3-0.4l0,0l-0.7-0.8l-1.1-1.4l-1-1.1
		c-0.1-0.2-0.1-0.4,0.1-0.5l0,0l0.1-0.1c0.2-0.1,0.3-0.1,0.4,0.1l0,0l1,1.1l1.1,1.4l0.7,0.8l0.3,0.3l0.1,0.2l1,1.2
		C375.5,103.1,375.5,103.3,375.3,103.5z"/>
	<path class="st18" d="M375.8,100.7C375.8,100.7,375.7,100.8,375.8,100.7c0,0.2,0,0.4-0.1,0.4c-0.1,0.1-0.3,0.2-0.3,0.1l-0.1,0l0,0
		l-0.3-0.4l-0.6-0.7l-1.1-1.3l-1-1.1l-1.1-1.3c-0.1-0.2-0.1-0.4,0-0.5c0,0,0,0,0.1-0.1l0.1-0.1c0.1-0.1,0.3-0.1,0.4,0.1l1.1,1.3l0,0
		l1,1.1l1.1,1.3l0.6,0.7L375.8,100.7L375.8,100.7L375.8,100.7z"/>
	<path class="st19" d="M376.8,102.3c-0.2,0.1-0.4,0.1-0.5-0.1l0,0l-1-1.2l-0.1-0.2l0,0l-0.3-0.4l-0.7-0.8l-1.1-1.4l-1-1.1
		c-0.1-0.2-0.1-0.4,0.1-0.5l0,0l0.1-0.1c0.2-0.1,0.3-0.1,0.4,0.1l0,0l1,1.1l1.1,1.4l0.7,0.8l0.3,0.3l0,0l0.1,0.2l0,0l1,1.2
		c0.2,0.1,0.2,0.4,0.2,0.5C376.8,102.3,376.8,102.3,376.8,102.3z"/>
	<path class="st17" d="M383.2,97.8l-2.6,2.2c-0.2,0.2-0.6,0.2-0.8,0l-0.1-0.1l-0.9-1c-0.2-0.2-0.2-0.6,0.1-0.9c0,0,0,0,0.1-0.1
		l2.6-2.2c0.2-0.2,0.6-0.2,0.8,0l0.1,0.1l0.9,1C383.5,97.1,383.5,97.5,383.2,97.8z"/>
	<path class="st17" d="M380.9,95.5l-2.7,2.3c-0.2,0.1-0.4,0.1-0.6,0l0,0l-0.1-0.1c-0.1-0.2-0.1-0.4,0-0.6l0,0l2.7-2.3
		c0.2-0.1,0.4-0.1,0.6,0l0,0l0.1,0.1C381.1,95.2,381.1,95.4,380.9,95.5L380.9,95.5z"/>
	<path class="st18" d="M379.5,97.6c0.1,0.1,0,0.2-0.2,0.3c-0.1,0.1-0.3,0.2-0.3,0.1l-0.1,0l0,0l-0.3-0.4l-0.6-0.7l-1.1-1.3l-1-1.1
		l-1.1-1.3c-0.1-0.2-0.1-0.4,0.1-0.5l0,0l0.1-0.1c0.2-0.1,0.3-0.1,0.4,0.1l1.1,1.3l0,0l1,1.1l1.1,1.3l0,0l0.6,0.7l0.3,0.3
		C379.4,97.5,379.5,97.6,379.5,97.6z"/>
	<path class="st19" d="M380.5,99.2c-0.2,0.1-0.4,0.1-0.5-0.1l0,0l-1-1.1l-0.1-0.2l0,0l-0.3-0.4l-0.6-0.7l-1.1-1.3l-1-1.1
		c-0.1-0.2-0.1-0.4,0-0.5l0,0l0.1-0.1c0.1-0.1,0.3-0.1,0.4,0.1l0,0l1,1.1l1.1,1.3l0.6,0.7l0.3,0.3l0.1,0.2l0.9,1.2
		C380.7,98.9,380.7,99.1,380.5,99.2L380.5,99.2z"/>
	<path class="st18" d="M380.8,96.3c0.1,0.2,0.1,0.4,0.1,0.6c-0.1,0.1-0.3,0.2-0.3,0.1c0,0-0.1,0-0.2-0.1l-0.3-0.4l-0.6-0.7l0,0
		l-1.1-1.3l-0.9-1l0,0l-1.1-1.3c-0.1-0.2-0.1-0.4,0.1-0.5l0,0l0.1-0.1c0.2-0.1,0.3-0.1,0.4,0.1l1.1,1.3l0,0l1,1.1l0,0l1.1,1.3
		l0.6,0.7l0,0L380.8,96.3z"/>
	<path class="st19" d="M381.8,98.1c-0.2,0.1-0.4,0.1-0.5,0l0,0l-1-1.2l-0.1-0.2l-0.3-0.4l-0.6-0.7l0,0l-1.1-1.3l-0.9-1l0,0
		c-0.1-0.2-0.1-0.3,0.1-0.5l0,0l0.1-0.1c0.1-0.1,0.3-0.1,0.4,0.1l0,0l1,1.1l0,0l1.1,1.3l0.6,0.7l0,0l0.3,0.3l0.1,0.2l0.9,1.2
		C382,97.6,382.1,98,381.8,98.1C381.9,98.1,381.9,98.1,381.8,98.1z"/>
	<line class="st16" x1="364.5" y1="107.7" x2="365.2" y2="108.5"/>
	<line class="st16" x1="361.7" y1="111.6" x2="360.9" y2="110.7"/>
	<path class="st17" d="M367,111.5l-2.6,2.2c-0.2,0.2-0.6,0.2-0.8,0c0,0,0,0-0.1-0.1l-0.9-1.2c-0.2-0.2-0.2-0.6,0-0.8l0.1-0.1
		l2.6-2.2c0.2-0.2,0.6-0.2,0.8,0l0.1,0.1l0.9,1C367.3,110.8,367.3,111.2,367,111.5z"/>
	<path class="st17" d="M364.8,108.8l-2.9,2.5c-0.2,0.1-0.5,0.2-0.6,0l0,0l-0.1-0.1c-0.1-0.2-0.2-0.5,0-0.6l0,0l2.9-2.5
		c0.2-0.1,0.5-0.2,0.6,0l0,0l0.1,0.1C365,108.3,365.1,108.6,364.8,108.8L364.8,108.8z"/>
	<path class="st18" d="M363.3,110.7c0.1,0.1,0.1,0.2,0.1,0.2c0,0.1-0.1,0.3-0.2,0.3c-0.1,0.1-0.3,0.2-0.4,0.1c0,0-0.1,0-0.2-0.1
		l-0.3-0.4l-0.7-0.8l-1.1-1.4l0,0l-1-1.1l-1.1-1.4c-0.1-0.2-0.1-0.4,0.1-0.5l0,0l0.1-0.1c0.2-0.1,0.4,0,0.4,0.1l1.1,1.4l0,0l1,1.1
		l1.1,1.4l0.7,0.8L363.3,110.7z"/>
	<path class="st19" d="M364.5,112.7c-0.2,0.1-0.4,0.1-0.5-0.1l0,0l-1-1.2l-0.4-0.6l-0.7-0.8l-1.1-1.4l0,0l-1-1.1
		c-0.1-0.2-0.1-0.4,0.1-0.5l0,0l0.1-0.1c0.2-0.1,0.3-0.1,0.4,0.1l0,0l1,1.1l1.1,1.4l0.7,0.8l0,0l0.3,0.4l0.1,0.2l1,1.2
		C364.7,112.2,364.6,112.5,364.5,112.7z"/>
	<path class="st18" d="M364.9,109.7c0.1,0.1,0,0.2-0.2,0.3c-0.1,0.1-0.3,0.2-0.4,0.1c0,0-0.1,0-0.2-0.1l0,0l-0.3-0.4l-0.7-0.8
		l-1.1-1.4l-1-1.1l-1.1-1.4c-0.1-0.2-0.1-0.4,0.1-0.5l0,0l0.1-0.1c0.2-0.1,0.3-0.1,0.4,0.1l1.1,1.4l1.1,1.1l1.1,1.4l0.7,0.8l0.3,0.3
		C364.8,109.6,364.8,109.6,364.9,109.7z"/>
	<path class="st19" d="M365.9,111.5c-0.2,0.1-0.4,0.1-0.5-0.1l0,0l-1-1.2l-0.1-0.2l0,0l-0.3-0.4l-0.7-0.8l-1.1-1.4l-1-1.1
		c-0.1-0.2-0.1-0.4,0.1-0.5l0,0l0.1-0.1c0.2-0.1,0.3-0.1,0.4,0.1l0.9,1l1.1,1.4l0.7,0.8l0.3,0.3l0.1,0.2l1,1.2
		C366,111.1,366,111.3,365.9,111.5z"/>
	<path class="st17" d="M372.4,107l-2.6,2.2c-0.2,0.2-0.6,0.2-0.8,0l-0.1-0.1l-0.9-1.2c-0.2-0.2-0.2-0.6,0-0.8l0.1-0.1l2.6-2.2
		c0.2-0.2,0.6-0.2,0.8,0c0,0,0,0,0.1,0.1l0.9,1.2C372.7,106.3,372.7,106.7,372.4,107L372.4,107z"/>
	<path class="st17" d="M370.2,104.3l-2.9,2.5c-0.2,0.1-0.5,0.2-0.6,0l0,0l-0.1-0.1c-0.1-0.2-0.2-0.5,0-0.6l0,0l2.9-2.5
		c0.2-0.1,0.5-0.2,0.6,0l0,0l0.1,0.1C370.4,103.8,370.5,104,370.2,104.3L370.2,104.3z"/>
	<path class="st18" d="M368.8,106.3L368.8,106.3c0,0.2,0,0.4-0.1,0.4c-0.1,0.1-0.3,0.2-0.4,0.1c-0.1-0.1-0.1,0-0.2-0.1l-0.3-0.4
		l-0.7-0.8l0,0l-1.1-1.4l0,0l-1-1.1l-1.1-1.4c-0.1-0.2-0.1-0.4,0.1-0.5l0,0l0.1-0.1c0.2-0.1,0.3-0.1,0.4,0.1l1.2,1.5l1,1.1l0,0
		l1.1,1.4l0.7,0.8l0.3,0.3L368.8,106.3z"/>
	<path class="st19" d="M369.9,108.2c-0.2,0.1-0.4,0.1-0.5-0.1l0,0l-1-1.2l-0.4-0.6l-0.7-0.8l-1.1-1.4l0,0l-1-1.1
		c-0.1-0.2-0.1-0.4,0.1-0.5l0,0l0.1-0.1c0.2-0.1,0.3-0.1,0.4,0.1l1,1.1l0,0l1.1,1.4l0.7,0.8l0,0l0.3,0.3l0.1,0.2l0,0l1,1.2
		c0.2,0.1,0.2,0.4,0.2,0.5C369.9,108.1,369.9,108.1,369.9,108.2z"/>
	<path class="st18" d="M370.2,105.3c0.1,0.1,0,0.2-0.2,0.3c-0.1,0.1-0.3,0.2-0.4,0.1c0,0-0.1,0-0.2-0.1l0,0l-0.3-0.4l-0.7-0.8
		l-1.1-1.4l-1-1.1l-1.1-1.4c-0.1-0.2-0.1-0.4,0.1-0.5l0,0l0.1-0.1c0.2-0.1,0.3-0.1,0.4,0.1l1.1,1.4l1,1.1l1.1,1.4l0,0l0.7,0.8
		l0.3,0.3C370.2,105,370.2,105.1,370.2,105.3z"/>
	<path class="st19" d="M371.3,106.9c-0.2,0.1-0.4,0.1-0.5-0.1l0,0l-1-1.2l-0.1-0.2l0,0l-0.3-0.4l-0.7-0.8l-1.1-1.4l-1-1.1
		c-0.1-0.2-0.1-0.4,0.1-0.5l0,0l0.1-0.1c0.2-0.1,0.3-0.1,0.4,0.1l1,1.1l1.1,1.4l0,0l0.7,0.8l0.3,0.3l0.1,0.2l1,1.2
		C371.4,106.6,371.4,106.8,371.3,106.9z"/>
	<line class="st16" x1="353.8" y1="116.8" x2="354.5" y2="117.6"/>
	<line class="st16" x1="351" y1="120.6" x2="350.3" y2="119.8"/>
	<path class="st17" d="M356.3,120.6l-2.6,2.2c-0.2,0.2-0.6,0.2-0.8,0c0,0,0,0-0.1-0.1l-0.9-1c-0.2-0.2-0.2-0.6,0-0.8
		c0,0,0,0,0.1-0.1l2.6-2.2c0.2-0.2,0.6-0.2,0.9,0.1c0,0,0,0,0.1,0.1l0.8,1.1C356.7,119.9,356.6,120.3,356.3,120.6z"/>
	<path class="st17" d="M354.2,117.9l-2.9,2.5c-0.1,0.2-0.5,0.2-0.6,0l0,0l-0.1-0.1c-0.2-0.1-0.2-0.5,0-0.6l0,0l2.9-2.5
		c0.1-0.2,0.5-0.2,0.6,0l0,0l0.1,0.1C354.3,117.5,354.3,117.7,354.2,117.9L354.2,117.9z"/>
	<path class="st18" d="M352.8,120c0.1,0.1,0,0.2-0.2,0.3c-0.1,0.1-0.3,0.2-0.3,0.1c0,0-0.1,0-0.2-0.1l0,0l-0.3-0.4l-0.7-0.8
		l-1.1-1.4l-1-1.1l-1.1-1.4c-0.1-0.2-0.1-0.4,0.1-0.5l0,0l0.1-0.1c0.2-0.1,0.3-0.1,0.4,0.1l1.1,1.4l1,1.1l1.1,1.4l0.7,0.8l0.3,0.3
		C352.7,119.9,352.8,120,352.8,120z"/>
	<path class="st19" d="M353.8,121.8c-0.2,0.1-0.4,0.1-0.5-0.1l0,0l-1-1.2l-0.1-0.2l0,0l-0.3-0.4l0,0l-0.7-0.8l-1.1-1.4l-1-1.1
		c-0.2-0.1-0.2-0.4-0.1-0.6l0,0l0.1-0.1c0.2-0.1,0.3-0.1,0.4,0.1l1,1.1l1.1,1.4l0.7,0.8l0.3,0.3l0.1,0.2l1,1.2
		C353.9,121.4,353.9,121.6,353.8,121.8z"/>
	<path class="st18" d="M354.1,118.8L354.1,118.8L354.1,118.8c0,0.2,0,0.4-0.1,0.4c-0.1,0.1-0.3,0.2-0.4,0.1c0,0-0.1,0-0.2-0.1l0,0
		l-0.3-0.4l-0.7-0.8l-1.1-1.4l-1-1.1l-1.1-1.4c-0.2-0.1-0.1-0.4,0-0.6l0,0l0.1-0.1c0.2-0.1,0.3-0.1,0.4,0.1l1.1,1.4l1,1.1l1.1,1.4
		l0.7,0.8l0.3,0.3L354.1,118.8z"/>
	<path class="st19" d="M355.1,120.6c-0.2,0.1-0.4,0.1-0.5-0.1l0,0l-1-1.2l-0.1-0.2l0,0l-0.3-0.4l0,0l-0.7-0.8l-1.1-1.4l-1-1.1
		c-0.2-0.1-0.2-0.4-0.1-0.6l0,0l0.1-0.1c0.2-0.1,0.3-0.1,0.4,0.1l1,1.1l1.1,1.4l0.7,0.8l0.3,0.3l0.1,0.2l0,0l0.1,0.1l1,1.2
		C355.4,120.2,355.4,120.4,355.1,120.6C355.2,120.5,355.1,120.6,355.1,120.6z"/>
	<path class="st17" d="M361.7,116l-2.6,2.2c-0.2,0.2-0.6,0.2-0.8,0c0,0,0,0-0.1-0.1l-0.9-1c-0.2-0.2-0.2-0.6,0-0.8c0,0,0,0,0.1-0.1
		l2.6-2.2c0.2-0.2,0.6-0.2,0.8,0l0.1,0.1l0.9,1C362,115.5,361.9,115.8,361.7,116z"/>
	<path class="st17" d="M359.6,113.4l-2.9,2.5c-0.2,0.1-0.5,0.2-0.6,0l0,0l-0.1-0.1c-0.2-0.1-0.2-0.5,0-0.6l0,0l2.9-2.5
		c0.2-0.1,0.5-0.2,0.6,0l0,0l0.1,0.1C359.8,112.9,359.7,113.2,359.6,113.4L359.6,113.4z"/>
	<path class="st18" d="M358.1,115.5c0.1,0.1,0,0.2-0.2,0.3c-0.1,0.1-0.3,0.2-0.3,0.1c0,0-0.1,0-0.2-0.1l0,0l-0.3-0.4l-0.7-0.8
		l-1.1-1.4l-1-1.1l-1.1-1.4c-0.1-0.2-0.1-0.4,0.1-0.5l0,0l0.1-0.1c0.2-0.1,0.3-0.1,0.4,0.1l1.1,1.4l1,1.1l1.1,1.4l0.7,0.8l0.3,0.3
		C358.1,115.3,358.1,115.4,358.1,115.5z"/>
	<path class="st19" d="M359.2,117.2c-0.2,0.1-0.4,0.1-0.5-0.1l0,0l-1-1.2l-0.1-0.2l0,0l-0.3-0.4l-0.7-0.8l-1.1-1.4l-1-1.1
		c-0.1-0.2-0.1-0.4,0.1-0.5l0,0l0.1-0.1c0.2-0.1,0.3-0.1,0.4,0.1l1,1.1l1.1,1.4l0.7,0.8l0.3,0.3l0.1,0.2l1,1.2
		C359.3,116.9,359.3,117.1,359.2,117.2z"/>
	<path class="st18" d="M359.5,114.2L359.5,114.2c0,0.2,0,0.4-0.1,0.4c-0.1,0.1-0.3,0.2-0.4,0.1c0,0-0.1,0-0.2-0.1l0,0l-0.3-0.4
		l-0.7-0.8l-1.1-1.4l-1-1.1l-1.1-1.4c-0.2-0.1-0.2-0.4-0.1-0.6l0,0l0.1-0.1c0.2-0.1,0.3-0.1,0.4,0.1l1.1,1.4l1,1.1l1.1,1.4l0.7,0.8
		l0.3,0.4L359.5,114.2z"/>
	<path class="st19" d="M360.5,116c-0.2,0.1-0.4,0.1-0.5-0.1l0,0l-1-1.2l-0.1-0.2l0,0l-0.3-0.4l0,0l-0.7-0.8l-1.1-1.4l-1-1.1
		c-0.1-0.2-0.1-0.4,0.1-0.5l0,0l0.1-0.1c0.2-0.1,0.3-0.1,0.4,0.1l1,1.1l1.1,1.4l0.7,0.8l0.3,0.4l0.1,0.2l0,0l0,0l1,1.2
		c0.2,0.1,0.3,0.3,0.2,0.5C360.6,116,360.6,116,360.5,116z"/>
	<line class="st16" x1="343" y1="125.8" x2="343.8" y2="126.7"/>
	<line class="st16" x1="340.1" y1="129.8" x2="339.4" y2="129"/>
	<path class="st17" d="M345.5,129.7l-2.6,2.2c-0.2,0.2-0.6,0.2-0.8,0c0,0,0,0-0.1-0.1l-0.9-1c-0.2-0.2-0.2-0.6,0-0.8
		c0,0,0,0,0.1-0.1l2.6-2.2c0.2-0.2,0.6-0.2,0.9,0.1c0,0,0,0,0.1,0.1l0.8,1.1C345.8,129.1,345.8,129.5,345.5,129.7z"/>
	<path class="st17" d="M343.4,127.1l-2.9,2.5c-0.2,0.1-0.5,0.2-0.6,0l0,0l-0.1-0.1c-0.2-0.1-0.2-0.5,0-0.6l0,0l2.9-2.5
		c0.1-0.2,0.5-0.2,0.6,0l0,0l0.1,0.1C343.6,126.6,343.6,126.8,343.4,127.1C343.4,127,343.4,127.1,343.4,127.1z"/>
	<path class="st18" d="M341.8,129c0.1,0.1,0.1,0.1,0.1,0.2l0,0c0.1,0.1,0,0.2-0.2,0.3c-0.1,0.1-0.3,0.2-0.4,0.1
		c-0.1-0.1-0.1,0-0.2-0.1l-0.3-0.4l-0.6-0.8l0,0l-1.1-1.4l-1-1.1l-1.1-1.4c-0.1-0.2-0.1-0.4,0.1-0.5l0,0l0.1-0.1
		c0.2-0.1,0.3-0.1,0.4,0.1l1.1,1.4l0,0l1,1.1l1.1,1.4l0.7,0.8L341.8,129z"/>
	<path class="st19" d="M342.9,130.9c-0.2,0.1-0.4,0.1-0.5-0.1l0,0l-1-1.2L341,129l-0.7-0.8l-1.1-1.4l-1-1.1
		c-0.1-0.2-0.1-0.4,0.1-0.5l0,0l0.1-0.1c0.2-0.1,0.3-0.1,0.4,0.1l0,0l1,1.1l1.1,1.4l0.7,0.8l0,0l0.3,0.4l0.1,0.2l1,1.2
		C343.1,130.4,343.2,130.7,342.9,130.9C343,130.8,342.9,130.9,342.9,130.9z"/>
	<path class="st18" d="M343.4,128c0.1,0.1,0,0.2-0.2,0.3c-0.1,0.1-0.3,0.2-0.3,0.1c0,0-0.1,0-0.2-0.1l0,0l-0.3-0.4l-0.7-0.8
		l-1.1-1.4l-1-1.1l-1.1-1.4c-0.1-0.2-0.1-0.4,0.1-0.5l0,0l0.1-0.1c0.2-0.1,0.3-0.1,0.4,0.1l1.1,1.4l1,1.1l1.1,1.4l0,0l0.7,0.8
		l0.3,0.3C343.3,127.8,343.4,127.9,343.4,128z"/>
	<path class="st19" d="M344.4,129.7c-0.2,0.1-0.4,0.1-0.5-0.1l0,0l-1-1.2l-0.1-0.2l0,0l-0.3-0.4l-0.7-0.8l-1.1-1.4l-1-1.1
		c-0.1-0.2-0.1-0.4,0.1-0.5l0,0l0.1-0.1c0.2-0.1,0.3-0.1,0.4,0.1l1,1.1l1.1,1.4l0,0l0.7,0.8l0.3,0.3l0.2,0.1l1,1.2
		C344.6,129.2,344.6,129.6,344.4,129.7z"/>
	<path class="st17" d="M350.9,125.1l-2.6,2.2c-0.2,0.2-0.6,0.2-0.8,0c0,0,0,0-0.1-0.1l-0.9-1c-0.2-0.2-0.2-0.6,0-0.8
		c0,0,0,0,0.1-0.1l2.5-2.3c0.2-0.2,0.6-0.2,0.9,0.1c0,0,0,0,0.1,0.1l0.8,1.1C351.2,124.5,351.2,125,350.9,125.1z"/>
	<path class="st17" d="M348.8,122.4l-2.9,2.5c-0.1,0.2-0.5,0.2-0.6,0l0,0l-0.1-0.1c-0.1-0.2-0.2-0.5,0-0.6l0,0l2.9-2.5
		c0.1-0.2,0.5-0.2,0.6,0l0,0l0.1,0.1C349,122,349,122.3,348.8,122.4L348.8,122.4z"/>
	<path class="st18" d="M347.3,124.6L347.3,124.6c0,0.2,0,0.4-0.1,0.4c-0.1,0.1-0.3,0.2-0.4,0.1c-0.1-0.1-0.1,0-0.2-0.1l-0.3-0.4
		l-0.7-0.8l-1.1-1.4l0,0l-1-1.1l-1.1-1.4c-0.1-0.2-0.1-0.4,0.1-0.5l0,0l0.1-0.1c0.2-0.1,0.3-0.1,0.4,0.1l1.1,1.4l0,0l1,1.1l1.1,1.4
		l0.7,0.8l0.3,0.3L347.3,124.6z"/>
	<path class="st19" d="M348.3,126.4c-0.2,0.1-0.4,0.1-0.5-0.1l0,0l-1-1.2l-0.4-0.6l-0.7-0.8l-1.1-1.4l0,0l-1-1.1
		c-0.2-0.1-0.1-0.4,0-0.6l0,0l0.1-0.1c0.2-0.1,0.3-0.1,0.4,0.1l0,0l1,1.1l1.1,1.4l0.7,0.8l0.3,0.3l0.1,0.2l0.1,0.1l1,1.2
		c0.2,0.1,0.3,0.3,0.2,0.5C348.4,126.3,348.4,126.3,348.3,126.4z"/>
	<path class="st18" d="M348.8,123.4c0,0.2-0.1,0.4-0.3,0.4c-0.1,0.1-0.1,0-0.2,0c0,0-0.1,0-0.2-0.1l0,0l-0.3-0.4l-0.7-0.8l-1.1-1.4
		l-1-1.1l-1.1-1.4c-0.1-0.2-0.1-0.4,0.1-0.5l0,0l0.1-0.1c0.2-0.1,0.3-0.1,0.4,0.1l1.1,1.4l1,1.1l1.1,1.4l0.7,0.8l0.3,0.3
		C348.7,123.3,348.7,123.3,348.8,123.4z"/>
	<path class="st19" d="M349.8,125.2c-0.2,0.1-0.4,0.1-0.5-0.1l0,0l-1-1.2l-0.1-0.2l0,0l-0.3-0.4l-0.7-0.8l-1.1-1.4l-1-1.1
		c-0.2-0.1-0.2-0.4,0-0.5l0,0l0.1-0.1c0.2-0.1,0.3-0.1,0.4,0.1l1,1.1l1.1,1.4l0.7,0.8l0.3,0.3l0.2,0.2l1,1.2
		C349.9,124.8,349.9,125,349.8,125.2z"/>
	<line class="st16" x1="332.3" y1="135" x2="333" y2="135.9"/>
	<path class="st17" d="M334.8,138.8l-2.6,2.2c-0.2,0.2-0.6,0.2-0.8,0c0,0,0,0-0.1-0.1l-0.9-1.2c-0.2-0.2-0.2-0.6,0-0.8l0.1-0.1
		l2.6-2.2c0.2-0.2,0.6-0.2,0.8,0c0,0,0,0,0.1,0.1l0.9,1.2C335,138.2,335,138.5,334.8,138.8z"/>
	<path class="st17" d="M332.7,136.2l-2.9,2.5c-0.1,0.2-0.4,0.1-0.6,0l0,0l-0.1-0.1c-0.1-0.2-0.2-0.5,0-0.6l0,0l2.9-2.5
		c0.1-0.2,0.4-0.1,0.6,0l0,0l0.1,0.1C332.9,135.7,332.8,136,332.7,136.2L332.7,136.2z"/>
	<path class="st18" d="M331.2,138.3c0.1,0.1,0,0.2-0.2,0.3c-0.1,0.1-0.3,0.2-0.4,0.1c0,0-0.1,0-0.2-0.1l0,0l-0.3-0.4l-0.7-0.8
		l-1.1-1.4l-1-1.1l-1.1-1.4c-0.2-0.1-0.2-0.4-0.1-0.6l0,0l0.1-0.1c0.2-0.1,0.3-0.1,0.4,0.1l1.2,1.3l1,1.1l1.1,1.4l0,0l0.7,0.8
		l0.3,0.3C331.2,138.1,331.2,138.2,331.2,138.3z"/>
	<path class="st19" d="M332.3,140c-0.2,0.1-0.4,0.1-0.5-0.1l0,0l-1-1.2l-0.1-0.2l0,0l-0.3-0.4l-0.7-0.8l-1.1-1.4l-1-1.1
		c-0.1-0.2-0.1-0.4,0.1-0.5l0,0l0.1-0.1c0.2-0.1,0.3-0.1,0.4,0.1l1,1.1l1.1,1.4l0.7,0.8l0.3,0.3l0.1,0.2l1,1.2
		C332.5,139.6,332.5,139.9,332.3,140z"/>
	<path class="st18" d="M332.6,137L332.6,137c0,0.2,0,0.4-0.2,0.5c-0.1,0.1-0.3,0.2-0.3,0.1c0,0-0.1,0-0.2-0.1l0,0l-0.3-0.4l-0.7-0.8
		l-1.1-1.4l-1-1.1l-1.1-1.4c-0.2-0.1-0.1-0.4,0-0.6l0,0l0.1-0.1c0.2-0.1,0.3-0.1,0.4,0.1l1.1,1.4l1,1.1l1.1,1.4l0.7,0.8l0.3,0.3
		L332.6,137z"/>
	<path class="st19" d="M333.6,138.8c-0.2,0.1-0.4,0.1-0.5-0.1l0,0l-1-1.2l-0.1-0.2l0,0l-0.3-0.4l0,0l-0.7-0.8l-1.1-1.4l-1-1.1
		c-0.1-0.2-0.1-0.4,0.1-0.5l0,0l0.1-0.1c0.2-0.1,0.3-0.1,0.4,0.1l1,1.1l1.1,1.4l0.7,0.8l0.3,0.3l0.1,0.2l0,0l0,0l1,1.2
		c0.2,0.1,0.2,0.4,0.1,0.6C333.8,138.7,333.7,138.8,333.6,138.8z"/>
	<path class="st17" d="M340.2,134.2l-2.6,2.2c-0.2,0.2-0.6,0.2-0.8,0c0,0,0,0-0.1-0.1l-0.9-1.2c-0.2-0.2-0.2-0.6,0-0.8l0.1-0.1
		l2.6-2.2c0.2-0.2,0.6-0.2,0.8,0c0,0,0,0,0.1,0.1l0.9,1.2C340.4,133.6,340.4,134,340.2,134.2z"/>
	<path class="st17" d="M338.1,131.5l-2.9,2.5c-0.1,0.2-0.4,0.1-0.6,0l0,0l-0.1-0.1c-0.2-0.1-0.1-0.4,0-0.6l0,0l2.9-2.5
		c0.2-0.1,0.5-0.2,0.6,0l0,0l0.1,0.1C338.3,131.1,338.3,131.3,338.1,131.5L338.1,131.5z"/>
	<path class="st18" d="M336.6,133.7c0.1,0.1,0,0.2-0.1,0.4c-0.1,0.1-0.3,0.2-0.4,0.1l-0.1,0l0,0l-0.3-0.4l-0.7-0.8l-1.1-1.4l-1-1.1
		l-1.1-1.4c-0.2-0.1-0.1-0.4,0-0.5c0,0,0,0,0.1-0.1l0.1-0.1c0.2-0.1,0.3-0.1,0.4,0.1l1.1,1.4l1,1.1l1.1,1.4l0.7,0.8l0.3,0.3
		C336.5,133.5,336.6,133.6,336.6,133.7z"/>
	<path class="st19" d="M337.7,135.5c-0.2,0.1-0.4,0.1-0.5-0.1l0,0l-1-1.2L336,134l0,0l-0.3-0.4l-0.7-0.8l-1.1-1.4l-1-1.1
		c-0.2-0.1-0.2-0.4,0-0.5l0,0l0.1-0.1c0.2-0.1,0.3-0.1,0.4,0.1l1,1.1l1.1,1.4l0.7,0.8l0.3,0.3l0.1,0.2l1,1.2
		C337.8,135,337.8,135.3,337.7,135.5L337.7,135.5z"/>
	<path class="st18" d="M338,132.4L338,132.4c0,0.2,0,0.4-0.1,0.4c-0.1,0.1-0.3,0.2-0.4,0.1c0,0-0.1,0-0.2-0.1l0,0l-0.3-0.4l-0.7-0.8
		l-1.1-1.4l-1-1.1l-1.1-1.4c-0.2-0.1-0.2-0.4-0.1-0.6l0,0l0.1-0.1c0.2-0.1,0.3-0.1,0.4,0.1l1.1,1.4l1,1.1l1.1,1.4l0.7,0.8l0.3,0.3
		L338,132.4z"/>
	<path class="st19" d="M339,134.2c-0.1,0.2-0.4,0.2-0.5,0l0,0l-1-1.2l-0.1-0.2l0,0l-0.3-0.4l0,0l-0.7-0.8l-1.1-1.4l-1-1.1
		c-0.2-0.1-0.2-0.4-0.1-0.6l0,0l0.1-0.1c0.2-0.1,0.3-0.1,0.4,0.1l1,1.1l1.1,1.4l0.7,0.8l0.3,0.3l0.1,0.2l0,0l0,0l1,1.2
		C339.1,133.8,339.2,134,339,134.2C339.1,134.2,339,134.2,339,134.2z"/>
	<line class="st16" x1="318.6" y1="148" x2="317.9" y2="147.1"/>
	<line class="st16" x1="321.4" y1="144.2" x2="322.2" y2="145"/>
	<path class="st17" d="M324,148l-2.6,2.2c-0.2,0.2-0.6,0.2-0.8,0c0,0,0,0-0.1-0.1l-0.9-1.2c-0.2-0.2-0.2-0.6,0-0.8l0.1-0.1l2.6-2.2
		c0.2-0.2,0.6-0.2,0.8,0c0,0,0,0,0.1,0.1l0.9,1.2C324.2,147.3,324.2,147.7,324,148z"/>
	<path class="st17" d="M321.7,145.3l-2.9,2.5c-0.1,0.2-0.5,0.2-0.6,0l0,0l-0.1-0.1c-0.1-0.2-0.2-0.5,0-0.6l0,0l2.9-2.5
		c0.2-0.1,0.5-0.2,0.6,0l0,0l0.1,0.1C322.1,144.9,322,145.1,321.7,145.3C321.8,145.2,321.8,145.2,321.7,145.3z"/>
	<path class="st18" d="M320.3,147.4L320.3,147.4L320.3,147.4c0,0.2,0,0.4-0.1,0.4c-0.1,0.1-0.3,0.2-0.4,0.1c0,0-0.1,0-0.2-0.1
		l-0.3-0.4l-0.7-0.8l-1.1-1.4l-1-1.1l0,0l-1.1-1.4c-0.2-0.1-0.2-0.4,0-0.5l0,0l0.1-0.1c0.2-0.1,0.3-0.1,0.4,0.1l1.1,1.4l0,0l1,1.1
		l1.2,1.5l0.7,0.8l0.3,0.3C320.3,147.3,320.3,147.3,320.3,147.4z"/>
	<path class="st19" d="M321.4,149.2c-0.1,0.2-0.4,0.1-0.5,0c0,0,0,0-0.1-0.1l-1-1.2l-0.1-0.2l-0.3-0.4l-0.7-0.8l-1.2-1.5l-1-1.1l0,0
		c-0.1-0.2-0.1-0.4,0.1-0.5l0.1-0.1c0.2-0.1,0.3-0.1,0.4,0.1l0,0l1,1.1l1.1,1.4l0.7,0.8l0.4,0.5l0,0l0,0l1,1.2
		c0.2,0.1,0.2,0.4,0.2,0.5C321.4,149.2,321.4,149.2,321.4,149.2z"/>
	<path class="st18" d="M321.8,146.2c0.1,0.1,0,0.2-0.2,0.3c-0.1,0.1-0.3,0.2-0.4,0.1c0,0-0.1,0-0.2-0.1l0,0l-0.3-0.4l-0.7-0.8
		l-1.1-1.4l-1-1.1l-1.1-1.4c-0.2-0.1-0.1-0.4,0-0.6l0,0l0.1-0.1c0.2-0.1,0.3-0.1,0.4,0.1l1.1,1.4l0,0l1,1.1l1.1,1.4l0.7,0.8l0.3,0.3
		C321.7,146,321.7,146.1,321.8,146.2z"/>
	<path class="st19" d="M322.8,148c-0.2,0.1-0.4,0.1-0.5-0.1l0,0l-1-1.2l-0.1-0.2l0,0l-0.3-0.4l-0.7-0.8L319,144l-1-1.1
		c-0.2-0.1-0.2-0.4-0.1-0.6l0,0l0.1-0.1c0.2-0.1,0.3-0.1,0.4,0.1l0,0l1,1.1l1.1,1.4l0.7,0.8l0.3,0.3l0.2,0.2l1,1.2
		C322.9,147.5,323,147.8,322.8,148L322.8,148z"/>
	<path class="st17" d="M329.4,143.4l-2.6,2.2c-0.2,0.2-0.6,0.2-0.8,0c0,0,0,0-0.1-0.1l-0.8-1.1c-0.2-0.2-0.2-0.6,0-0.8
		c0,0,0,0,0.1-0.1l2.6-2.2c0.2-0.2,0.6-0.2,0.8,0c0,0,0,0,0.1,0.1l0.9,1.2C329.6,142.8,329.6,143.2,329.4,143.4z"/>
	<path class="st17" d="M327.1,140.8l-2.9,2.5c-0.1,0.2-0.5,0.2-0.6,0l0,0l-0.1-0.1c-0.1-0.2-0.2-0.5,0-0.6l0,0l2.9-2.5
		c0.1-0.2,0.5-0.2,0.6,0l0,0l0.1,0.1C327.3,140.3,327.4,140.5,327.1,140.8C327.2,140.7,327.2,140.7,327.1,140.8z"/>
	<path class="st18" d="M325.7,142.9c0.1,0.1,0,0.2-0.2,0.3c-0.1,0.1-0.3,0.2-0.4,0.1c0,0-0.1,0-0.2-0.1l0,0l-0.3-0.4l-0.7-0.8
		l-1.1-1.4l-1-1.1l-1.1-1.4c-0.1-0.2-0.1-0.4,0.1-0.5l0,0l0.1-0.1c0.2-0.1,0.3-0.1,0.4,0.1l1.1,1.4l1,1.1l1.1,1.4l0.7,0.8l0.3,0.3
		C325.7,142.7,325.8,142.8,325.7,142.9z"/>
	<path class="st19" d="M326.8,144.6c-0.1,0.2-0.4,0.2-0.6,0.1l0,0l-1-1.2l-0.1-0.2l0,0l-0.3-0.4l-0.7-0.8l-1.1-1.4l-1-1.1
		c-0.1-0.2-0.1-0.4,0.1-0.5l0,0l0.1-0.1c0.2-0.1,0.3-0.1,0.4,0.1l1,1.1l1.1,1.4l0.7,0.8l0.3,0.3l0.2,0.1l1,1.2
		C327,144.2,327,144.4,326.8,144.6z"/>
	<path class="st18" d="M327.1,141.6L327.1,141.6c0,0.2,0,0.4-0.1,0.4c-0.1,0.1-0.3,0.2-0.4,0.1c0,0-0.1,0-0.2-0.1l0,0l-0.3-0.4
		l-0.7-0.8l-1.1-1.4l-1-1.1l-1.1-1.4c-0.2-0.1-0.2-0.4-0.1-0.6l0,0l0.1-0.1c0.2-0.1,0.3-0.1,0.4,0.1l1.3,1.4l0,0l1,1.1l1.1,1.4l0,0
		l0.7,0.8l0.3,0.3L327.1,141.6z"/>
	<path class="st19" d="M328.2,143.4c-0.2,0.1-0.4,0.1-0.5-0.1l0,0l-1-1.2l-0.1-0.2l0,0l-0.3-0.4l0,0l-0.7-0.8l-1.1-1.4l-1-1.1
		c-0.1-0.2-0.1-0.4,0.1-0.5l0,0l0.1-0.1c0.2-0.1,0.3-0.1,0.4,0.1l0,0l1,1.1l1.1,1.4l0,0l0.7,0.8l0.3,0.3l0.1,0.2l0.1,0.1l1,1.2
		c0.2,0.1,0.2,0.4,0.1,0.6C328.3,143.4,328.3,143.4,328.2,143.4z"/>
	<line class="st16" x1="310.8" y1="153.2" x2="311.5" y2="154"/>
	<line class="st16" x1="307.9" y1="157.1" x2="307.2" y2="156.3"/>
	<path class="st17" d="M313.2,157.1l-2.6,2.2c-0.2,0.2-0.6,0.2-0.8,0l-0.1-0.1l-0.9-1.2c-0.2-0.2-0.2-0.6,0-0.8l0.1-0.1l2.6-2.2
		c0.2-0.2,0.6-0.2,0.8,0c0,0,0,0,0.1,0.1l0.9,1.2C313.6,156.4,313.4,156.8,313.2,157.1L313.2,157.1z"/>
	<path class="st17" d="M311.1,154.4l-2.9,2.5c-0.2,0.1-0.5,0.2-0.6,0l0,0l-0.1-0.1c-0.1-0.2-0.2-0.5,0-0.6l0,0l2.9-2.5
		c0.2-0.1,0.5-0.2,0.6,0l0,0l0.1,0.1C311.3,153.9,311.3,154.1,311.1,154.4L311.1,154.4z"/>
	<path class="st18" d="M309.6,156.4L309.6,156.4L309.6,156.4c0,0.1-0.1,0.3-0.1,0.4c-0.1,0.1-0.3,0.2-0.4,0.1l-0.1,0l-0.3-0.4
		l-0.7-0.8l-1.1-1.4l0,0l-1-1.1l-1.1-1.4c-0.2-0.1-0.2-0.4,0-0.5l0,0l0.1-0.1c0.2-0.1,0.3-0.1,0.4,0.1l1.1,1.4l1,1.1l1.1,1.4
		l0.7,0.8l0.3,0.3L309.6,156.4z"/>
	<path class="st19" d="M310.7,158.3c-0.2,0.1-0.4,0.1-0.5-0.1l0,0l-1-1.2l-0.1-0.2l-0.3-0.4l-0.7-0.8l-1.2-1.3l-1-1.1
		c-0.2-0.1-0.2-0.4,0-0.5l0,0l0.1-0.1c0.2-0.1,0.3-0.1,0.4,0.1l1,1.1l1.1,1.4l0.7,0.8l0.3,0.3l0.1,0.2l0,0l0,0l1,1.2
		c0.1,0,0.3,0.3,0.3,0.4C310.7,158.2,310.8,158.2,310.7,158.3z"/>
	<path class="st18" d="M311,155.1c0.1,0.1,0.1,0.1,0.1,0.2c0.1,0.1,0,0.2-0.2,0.3c-0.1,0.1-0.3,0.2-0.4,0.1c-0.1-0.1-0.1,0-0.2-0.1
		l-0.3-0.4l-0.7-0.8l-1.1-1.4l-1-1.1l0,0l-1.1-1.4c-0.1-0.2-0.1-0.4,0.1-0.5l0,0l0.1-0.1c0.2-0.1,0.3-0.1,0.4,0.1l1.1,1.4l0,0l1,1.1
		l1.1,1.4l0.7,0.8L311,155.1L311,155.1z"/>
	<path class="st19" d="M312.1,157c-0.2,0.1-0.4,0.1-0.5-0.1l0,0l-1-1.2l-0.4-0.6l-0.7-0.8l-1.1-1.4l0,0l-1-1.1l0,0
		c-0.2-0.1-0.2-0.4-0.1-0.6l0,0l0.1-0.1c0.2-0.1,0.3-0.1,0.4,0.1l0,0l1,1.1l1.1,1.4l0.7,0.8l0.3,0.3l0,0l0.1,0.2l1,1.2
		C312.2,156.6,312.2,156.8,312.1,157z"/>
	<path class="st17" d="M318.7,152.4l-2.6,2.2c-0.2,0.2-0.6,0.2-0.8,0c0,0,0,0-0.1-0.1l-0.9-1.2c-0.2-0.2-0.2-0.6,0-0.8
		c0,0,0,0,0.1-0.1l2.6-2.2c0.2-0.2,0.6-0.2,0.8,0c0,0,0,0,0.1,0.1l0.9,1C318.9,151.8,318.9,152.2,318.7,152.4z"/>
	<path class="st17" d="M316.5,149.9l-2.9,2.5c-0.2,0.1-0.5,0.2-0.6,0l0,0l-0.1-0.1c-0.1-0.2-0.2-0.5,0-0.6l0,0l2.9-2.5
		c0.2-0.1,0.5-0.2,0.6,0l0,0l0.1,0.1C316.7,149.4,316.7,149.6,316.5,149.9L316.5,149.9z"/>
	<path class="st18" d="M315,151.9L315,151.9L315,151.9c0,0.2,0,0.4-0.1,0.4s-0.3,0.2-0.4,0.1c0,0-0.1,0-0.2-0.1l0,0l-0.3-0.4
		l-0.7-0.8l-1.1-1.4l-1-1.1l-1.1-1.4c-0.1-0.2-0.1-0.4,0.1-0.5l0,0l0.1-0.1c0.2-0.1,0.3-0.1,0.4,0.1l1.1,1.4l1,1.1l1.1,1.4l0.7,0.8
		l0.3,0.3L315,151.9z"/>
	<path class="st19" d="M316.1,153.7c-0.2,0.1-0.4,0.1-0.5-0.1l0,0l-1-1.2l-0.1-0.2l0,0l-0.3-0.4l0,0l-0.7-0.8l-1.1-1.4l-1-1.1
		c-0.2-0.1-0.2-0.4-0.1-0.6l0,0l0.1-0.1c0.2-0.1,0.3-0.1,0.4,0.1l1,1.1l1.1,1.4l0.7,0.8l0.3,0.3l0.1,0.2l0,0l0,0l1,1.2
		c0.2,0.1,0.2,0.4,0.2,0.5S316.1,153.7,316.1,153.7z"/>
	<path class="st18" d="M316.4,150.7c0.1,0.1,0,0.2-0.2,0.3c-0.1,0.1-0.3,0.2-0.3,0.1c0,0-0.1,0-0.2-0.1l-0.3-0.4l-0.7-0.8l-1.1-1.4
		l-1-1.1l-1.1-1.4c-0.1-0.2-0.1-0.4,0.1-0.5l0,0l0.1-0.1c0.2-0.1,0.3-0.1,0.4,0.1l1.1,1.4l0,0l1,1.1l0,0l1.1,1.4l0.7,0.8l0,0
		l0.3,0.4C316.3,150.7,316.4,150.7,316.4,150.7z"/>
	<path class="st19" d="M317.5,152.5c-0.2,0.1-0.4,0.1-0.5-0.1l0,0l-1-1.2l-0.1-0.2l-0.3-0.4l-0.7-0.8l-1.1-1.4l-1-1.1
		c-0.2-0.1-0.2-0.4,0-0.5l0,0l0.1-0.1c0.2-0.1,0.3-0.1,0.4,0.1l0,0l1,1.1l0,0l1.1,1.4l0.7,0.8l0,0l0.3,0.4l0.1,0.2l1,1.2
		c0.2,0.1,0.2,0.4,0.1,0.6C317.5,152.5,317.5,152.5,317.5,152.5z"/>
	<line class="st16" x1="297.1" y1="166.2" x2="296.4" y2="165.4"/>
	<line class="st16" x1="299.9" y1="162.3" x2="300.7" y2="163.2"/>
	<path class="st17" d="M302.4,166.1l-2.6,2.2c-0.2,0.2-0.6,0.2-0.8,0l-0.1-0.1l-0.9-1c-0.2-0.2-0.2-0.6,0.1-0.9c0,0,0,0,0.1-0.1
		l2.6-2.2c0.2-0.2,0.6-0.2,0.8,0l0.1,0.1l0.9,1C302.7,165.5,302.7,166,302.4,166.1z"/>
	<path class="st17" d="M300.3,163.5l-2.9,2.5c-0.2,0.1-0.5,0.2-0.6,0l0,0l-0.1-0.1c-0.2-0.1-0.2-0.5,0-0.6l0,0l2.9-2.5
		c0.2-0.1,0.5-0.2,0.6,0l0,0l0.1,0.1C300.6,163,300.5,163.3,300.3,163.5L300.3,163.5z"/>
	<path class="st18" d="M298.8,165.6C298.8,165.6,298.8,165.7,298.8,165.6c0,0.2,0,0.4-0.1,0.4s-0.3,0.2-0.3,0.1c0,0-0.1,0-0.2-0.1
		l-0.3-0.4l-0.7-0.8l-1.1-1.4l-1-1.1l0,0l-1.1-1.4c-0.1-0.2-0.1-0.4,0.1-0.5l0,0l0.1-0.1c0.2-0.1,0.3-0.1,0.4,0.1l1.1,1.4l0,0l1,1.1
		l1.2,1.5l0.7,0.8L298.8,165.6L298.8,165.6z"/>
	<path class="st19" d="M299.9,167.5c-0.2,0.1-0.4,0.1-0.5,0c0,0,0,0-0.1-0.1l-1-1.2l-0.1-0.2l-0.3-0.4l-0.7-0.8l-1.1-1.4l-1-1.1l0,0
		c-0.1-0.2-0.1-0.4,0.1-0.5l0.1-0.1c0.2-0.1,0.3-0.1,0.4,0.1l0,0l1,1.1l1.1,1.4l0.7,0.8l0.3,0.3l0.1,0.2l0,0l1,1.2
		c0.2,0.1,0.2,0.4,0,0.5C299.9,167.3,299.9,167.3,299.9,167.5z"/>
	<path class="st18" d="M300.3,164.5c0.1,0.1,0,0.2-0.2,0.3c-0.1,0.1-0.3,0.2-0.4,0.1c-0.1-0.1-0.1,0-0.2-0.1l-0.3-0.4l-0.7-0.8
		l-1.1-1.4l-1-1.1l-1.1-1.4c-0.1-0.2-0.1-0.4,0.1-0.5l0,0l0.1-0.1c0.2-0.1,0.3-0.1,0.4,0.1l1.1,1.4l0,0l1,1.1l1.1,1.4l0.7,0.8
		l0.3,0.3C300.2,164.3,300.3,164.4,300.3,164.5z"/>
	<path class="st19" d="M301.3,166.2c-0.2,0.1-0.4,0.1-0.5-0.1l0,0l-1-1.2l-0.1-0.2l-0.3-0.4l-0.7-0.8l-1.1-1.4l0,0l-1-1.1
		c-0.1-0.2-0.1-0.4,0.1-0.5l0,0l0.1-0.1c0.2-0.1,0.3-0.1,0.4,0.1l0,0l1,1.1l1.1,1.4l0.7,0.8l0.3,0.3l0.2,0.1l1,1.2
		C301.5,165.7,301.5,166,301.3,166.2L301.3,166.2z"/>
	<path class="st17" d="M307.8,161.6l-2.6,2.2c-0.2,0.2-0.6,0.2-0.8,0c0,0,0,0-0.1-0.1l-0.9-1.2c-0.2-0.2-0.2-0.6,0-0.8
		c0,0,0,0,0.1-0.1l2.6-2.2c0.2-0.2,0.6-0.2,0.8,0l0.1,0.1l0.9,1C308.2,160.9,308.1,161.3,307.8,161.6z"/>
	<path class="st17" d="M305.7,159l-2.9,2.5c-0.2,0.1-0.5,0.2-0.6,0l0,0l-0.1-0.1c-0.1-0.2-0.2-0.5,0-0.6l0,0l2.9-2.5
		c0.2-0.1,0.5-0.2,0.6,0l0,0l0.1,0.1C305.9,158.6,305.9,158.8,305.7,159C305.7,159,305.7,159,305.7,159z"/>
	<path class="st18" d="M304.2,161.1c0.1,0.1,0,0.2-0.2,0.3c-0.1,0.1-0.3,0.2-0.4,0.1c0,0-0.1,0-0.2-0.1l0,0l-0.3-0.4l-0.7-0.8
		l-1.1-1.4l-1-1.1l-1.1-1.4c-0.2-0.1-0.2-0.4-0.1-0.6l0,0l0.1-0.1c0.2-0.1,0.3-0.1,0.4,0.1l1.1,1.4l1,1.1l1.1,1.4l0.7,0.8l0.3,0.3
		C304.2,160.9,304.3,161,304.2,161.1z"/>
	<path class="st19" d="M305.3,162.8c-0.2,0.1-0.4,0.1-0.5-0.1l0,0l-1-1.2l-0.1-0.2l0,0l-0.3-0.4l-0.7-0.8l-1.1-1.4l-1-1.1
		c-0.2-0.1-0.2-0.4-0.1-0.6l0,0l0.1-0.1c0.2-0.1,0.3-0.1,0.4,0.1l1,1.1l1.1,1.4l0.7,0.8l0.3,0.3l0.1,0.2l1,1.2
		C305.4,162.4,305.4,162.6,305.3,162.8z"/>
	<path class="st18" d="M305.7,159.9L305.7,159.9c0,0.2,0,0.4-0.1,0.4s-0.3,0.2-0.4,0.1c0,0-0.1,0-0.2-0.1l0,0l-0.3-0.4l-0.7-0.8
		l-1.1-1.4l-1-1.1l-1.1-1.3c-0.2-0.1-0.1-0.4,0-0.6l0,0l0.1-0.1c0.2-0.1,0.3-0.1,0.4,0.1l1.1,1.4l0,0l1,1.1l1.1,1.4l0,0l0.7,0.8
		l0.3,0.3L305.7,159.9z"/>
	<path class="st19" d="M306.7,161.7c-0.2,0.1-0.4,0.1-0.5-0.1l0,0l-1-1.2l-0.1-0.2l0,0l-0.3-0.4l0,0L304,159l-1.1-1.4l-1-1.1
		c-0.1-0.2-0.1-0.4,0.1-0.5l0,0l0.1-0.1c0.2-0.1,0.3-0.1,0.4,0.1l0,0l1,1.1l0,0l1.1,1.4l0,0l0.7,0.8l0.3,0.3l0.1,0.2l0,0l1,1.2
		c0.1,0,0.3,0.3,0.3,0.4C306.9,161.6,306.8,161.6,306.7,161.7z"/>
	<path class="st17" d="M297.2,170.7l-2.6,2.2c-0.2,0.2-0.6,0.2-0.8,0c0,0,0,0-0.1-0.1l-0.9-1c-0.2-0.2-0.2-0.6,0-0.8
		c0,0,0,0,0.1-0.1l2.6-2.2c0.2-0.2,0.6-0.2,0.9,0.1c0,0,0,0,0.1,0.1l0.8,1.1C297.4,170.1,297.4,170.4,297.2,170.7z"/>
	<path class="st17" d="M294.9,168l-2.9,2.5c-0.1,0.2-0.5,0.2-0.6,0l0,0l-0.1-0.1c-0.2-0.1-0.2-0.5,0-0.6l0,0l2.9-2.5
		c0.1-0.2,0.5-0.2,0.6,0l0,0l0.1,0.1C295.2,167.6,295.2,167.8,294.9,168L294.9,168z"/>
	<path class="st18" d="M293.5,170.1L293.5,170.1c0,0.2,0,0.4-0.1,0.4s-0.3,0.2-0.3,0.1c0,0-0.1,0-0.2-0.1l0,0l-0.3-0.4l-0.7-0.8
		l-1.1-1.4l-1-1.1l-1.1-1.4c-0.2-0.1-0.2-0.4-0.1-0.6l0,0l0.1-0.1c0.2-0.1,0.3-0.1,0.4,0.1l1.1,1.4l1,1.1l1.3,1.4l0.7,0.8l0.3,0.3
		L293.5,170.1z"/>
	<path class="st19" d="M294.6,171.9c-0.2,0.1-0.4,0.1-0.5-0.1l0,0l-1-1.2l-0.1-0.2l0,0l-0.3-0.4l0,0l-0.7-0.8l-1.1-1.4l-1-1.1
		c-0.2-0.1-0.2-0.4-0.1-0.6l0,0l0.1-0.1c0.2-0.1,0.3-0.1,0.4,0.1l1,1.1l1.1,1.4l0.7,0.8l0.3,0.3l0.1,0.2l0,0l0,0l1,1.2
		c0.2,0.1,0.3,0.3,0.2,0.5C294.7,171.8,294.7,171.9,294.6,171.9z"/>
	<path class="st18" d="M294.9,168.8c0.1,0.1,0.1,0.1,0.1,0.2s0,0.2-0.2,0.3c-0.1,0.1-0.3,0.2-0.4,0.1c0,0-0.1,0-0.2-0.1l-0.3-0.4
		l-0.7-0.8l-1.1-1.4l-1-1.1l-1.1-1.4c-0.1-0.2-0.1-0.4,0.1-0.5l0,0l0.1-0.1c0.2-0.1,0.3-0.1,0.4,0.1l1.1,1.4l0,0l1,1.1l1.1,1.4
		l0.7,0.8l0,0L294.9,168.8z"/>
	<path class="st19" d="M296,170.8c-0.2,0.1-0.4,0.1-0.5-0.1l0,0l-1-1.2l-0.1-0.2l-0.3-0.4l-0.7-0.8l-1.1-1.4l-1-1.1
		c-0.1-0.2-0.1-0.4,0.1-0.5l0,0l0.1-0.1c0.2-0.1,0.3-0.1,0.4,0.1l0,0l1,1.1l1.1,1.4l0.7,0.8l0,0l0.3,0.4l0.1,0.2l1,1.2
		C296.2,170.3,296.2,170.6,296,170.8C296,170.7,296,170.7,296,170.8z"/>
	<ellipse transform="matrix(0.7631 -0.6463 0.6463 0.7631 40.9654 282.9405)" class="st20" cx="406.4" cy="85.6" rx="2" ry="1.7"/>
	
		<ellipse transform="matrix(0.7631 -0.6463 0.6463 0.7631 40.7004 283.3726)" class="st21" cx="406.8" cy="86.2" rx="1.8" ry="1.4"/>
	
		<ellipse transform="matrix(0.7631 -0.6463 0.6463 0.7631 40.5197 283.6873)" class="st18" cx="407.2" cy="86.6" rx="1.8" ry="1.4"/>
	<ellipse transform="matrix(0.7631 -0.6463 0.6463 0.7631 3.4417 261.6335)" class="st20" cx="358.6" cy="126.1" rx="2" ry="1.7"/>
	
		<ellipse transform="matrix(0.7631 -0.6463 0.6463 0.7631 3.2375 262.1002)" class="st21" cx="359.1" cy="126.6" rx="1.8" ry="1.4"/>
	<ellipse transform="matrix(0.7631 -0.6463 0.6463 0.7631 3.0579 262.4154)" class="st18" cx="359.4" cy="127" rx="1.8" ry="1.4"/>
	
		<ellipse transform="matrix(0.7631 -0.6463 0.6463 0.7631 -34.0762 240.3113)" class="st20" cx="310.7" cy="166.6" rx="2" ry="1.7"/>
	
		<ellipse transform="matrix(0.7631 -0.6463 0.6463 0.7631 -34.3433 240.7429)" class="st21" cx="311.2" cy="167.2" rx="1.8" ry="1.4"/>
	
		<ellipse transform="matrix(0.7631 -0.6463 0.6463 0.7631 -34.5229 241.0582)" class="st18" cx="311.5" cy="167.6" rx="1.8" ry="1.4"/>
</g>
<path class="st22" d="M356.3,169.4c-2.9-0.2-4.9,2.2-6.3,4.4c-1.1,1.7,1.6,3.4,2.6,1.7c0.9-1.5,2.8-4.3,4.7-2.3
	c1.4,1.5,1.2,4,0.5,5.8c-2,4.9-7.5,6.6-12.2,7.7c-2.4,0.6-4.4,0.8-6.1-1.3c-1.4-1.8-2-4.1-2.3-6.2c-0.7-4.9,0.6-10.4,5.6-12.4
	c1.9-0.7,0.5-3.5-1.4-2.8c-5.1,2-7.6,7.5-7.5,12.8c0.1,4.6,1.4,10.8,6,12.9c2.4,1.1,5,0.5,7.5-0.2c2.8-0.7,5.6-1.6,8.1-3.2
	c3.9-2.5,7-7.3,5.8-12.1C360.7,172,358.9,169.6,356.3,169.4z"/>
<path class="st22" d="M375.8,160.6c-2.1-1.6-4.7-2.4-7.2-3c-4.4-1-10.1-0.3-10.9,5.1c-0.2,1.1,0.7,1.6,1.6,1.6
	c1.2,1.9,2.6,3.8,4,5.5c1.4,1.7,3.2,3.4,5.5,3.7c2.1,0.3,4.1-0.6,5.8-1.8c1.7-1.2,4-3.1,4.4-5.2C379.4,164.3,377.5,162,375.8,160.6z
	 M374.9,167.3c-1.8,1.9-4.4,4.4-7.1,2.6c-1.3-0.9-2.4-2.3-3.3-3.6c-1.2-1.5-2.2-3-3.2-4.7c1.4-2.1,5.6-1.3,7.6-0.8
	C371.2,161.6,378,164.1,374.9,167.3z"/>
<path class="st22" d="M385.5,205.5c-3.9-2.4-8.5-2.3-12.1-0.3c-0.3-1.6-1.1-3.2-2.4-4.4c-3.5-3.4-9.6-3.1-12.8,0.5
	c-1.3,1.5-0.1,3.6,1.4,3.6l17.1,19.1c0.4,0.5,1,0.7,1.5,0.7c0.7,1.1,2.5,1.6,3.6,0.3c1.6-1.9,3.1-3.7,4.7-5.6
	c1.3-1.6,3.5-3.4,4.1-5.4C391.6,210.7,388,207.1,385.5,205.5z M368,203.5c1.5,1.3,1.9,3.4,1.3,5.2c-0.1,0.2-0.3,0.4-0.4,0.6
	l-5.8-6.4C364.7,202.2,366.6,202.3,368,203.5z M386.3,211.9c0.6,1.4-0.8,2.4-1.7,3.4c-1.6,2-3.3,3.9-4.9,5.9l-7.9-8.8
	c0.4-0.6,0.8-1.3,1-1.9c2.7-3,7.4-3.7,11-1.3C384.7,209.9,385.8,210.9,386.3,211.9z"/>
<path class="st22" d="M389.9,184.9c-1.8,2.9-3.9,5.5-6.4,7.9c-1.5,1.5,0,3.8,1.7,3.6c1.2,1.4,2.3,2.7,3.5,4c0,1,0.9,1.9,1.9,2
	c1.5,1.6,3.1,3.3,4.7,4.9c1.3,1.3,3.4,0.5,3.5-1.2c0.2-1.5,0.9-2.9,2.2-3.7c2.2-1.4,0.4-5-1.8-3.6c-1.5,0.9-2.6,2.1-3.3,3.4
	c-0.6-0.6-1.2-1.3-1.9-2l3.8-3.4c1.9-1.7-0.8-4.8-2.7-3l-3.8,3.4c-1-1.1-2-2.3-3.1-3.5c1.9-2.1,3.6-4.3,5.1-6.6
	C394.7,184.8,391.3,182.6,389.9,184.9z"/>
<path class="st22" d="M420.5,185c-6.2-2.3-12.6-4.3-19.1-5.8c0,0,0,0-0.1,0c-1.4-0.9-3.8,0.7-2.9,2.7c2.4,5.4,4.9,10.8,7.4,16.2
	c1.1,2.4,4.7,0.6,3.6-1.8c-0.6-1.3-1.2-2.6-1.8-3.9c1.8-1.8,3.3-3.7,4.6-5.9c2.3,0.8,4.7,1.6,7,2.4
	C421.7,189.8,422.9,185.9,420.5,185z M405.8,188.4c-0.7-1.5-1.3-2.9-2-4.4c1.5,0.4,2.9,0.8,4.4,1.2
	C407.5,186.3,406.7,187.4,405.8,188.4z"/>
<path class="st22" d="M433.7,173.7c-4.1-0.6-8.1-0.8-12.2-0.8c3.1-2.9,5.7-6.6,2.7-9.9c-1.8-2-4.7-2.3-7.1-1.3
	c-3.1,1.2-5,4.2-7.7,6.1c-1.2,0.8-0.9,2.1,0,2.8c0.1,0.2,0.2,0.4,0.3,0.5c1.3,1.5,2.5,2.9,3.8,4.3c0.1,0.7,0.7,1.4,1.5,1.6
	c1.9,2.1,3.9,4.2,5.8,6.2c1.8,1.9,4.8-0.8,3-2.7c-1.2-1.2-2.3-2.4-3.4-3.6c4.4-0.1,8.7,0.2,13.1,0.8
	C436,178.1,436.2,174.1,433.7,173.7z M421.1,165.7c1,1.2-1.2,2.8-1.9,3.6c-1,1-2.1,1.9-3.2,2.9c-0.8-0.9-1.6-1.8-2.4-2.8
	C415.8,167.2,419.5,163.6,421.1,165.7z"/>
<path class="st22" d="M440.3,160.7c-1.3-0.4-2.6-0.4-3.9-0.1c-1.2,0.3-2.7,1.8-3.9,1.6c-0.8-0.1-4.4-2.9-4.4-3.6
	c0-0.9,3.1-2.7,4.1-3.1c2.3-1.2,0.5-4.8-1.8-3.6c-2.4,1.2-6.3,3.6-6.4,6.7c-0.1,2.9,3.8,5.5,5.9,6.8c1.1,0.7,2.2,1.2,3.5,1
	c1.5-0.2,2.5-1.3,3.9-1.7c1.2-0.3,2.6,0,3.5,0.8c0.6,0.5,1.4,1.3,0.8,2.1c-0.4,0.5-2,0.5-2.5,0.6c-2.6,0.3-1.8,4.3,0.8,4
	c3-0.3,6.5-1.9,6.1-5.5C445.5,163.7,443,161.5,440.3,160.7z"/>
</svg>
