<svg xmlns="http://www.w3.org/2000/svg" xmlns:xlink="http://www.w3.org/1999/xlink" width="2400" height="1800" viewBox="0 0 2400 1800"><defs><filter id="a" x="49" y="445" width="436" height="872" filterUnits="userSpaceOnUse"><feOffset dx="5" dy="5" input="SourceAlpha"/><feGaussianBlur stdDeviation="10" result="b"/><feFlood flood-opacity="0.455"/><feComposite operator="in" in2="b"/><feComposite in="SourceGraphic"/></filter><filter id="c" x="510" y="47" width="434" height="869" filterUnits="userSpaceOnUse"><feOffset dx="5" dy="5" input="SourceAlpha"/><feGaussianBlur stdDeviation="10" result="d"/><feFlood flood-opacity="0.455"/><feComposite operator="in" in2="d"/><feComposite in="SourceGraphic"/></filter><filter id="e" x="980" y="455" width="434" height="869" filterUnits="userSpaceOnUse"><feOffset dx="5" dy="5" input="SourceAlpha"/><feGaussianBlur stdDeviation="10" result="f"/><feFlood flood-opacity="0.455"/><feComposite operator="in" in2="f"/><feComposite in="SourceGraphic"/></filter><filter id="g" x="508" y="894" width="432" height="869" filterUnits="userSpaceOnUse"><feOffset dx="5" dy="5" input="SourceAlpha"/><feGaussianBlur stdDeviation="10" result="h"/><feFlood flood-opacity="0.455"/><feComposite operator="in" in2="h"/><feComposite in="SourceGraphic"/></filter><filter id="i" x="1452" y="418" width="912" height="977" filterUnits="userSpaceOnUse"><feOffset dx="6" dy="6" input="SourceAlpha"/><feGaussianBlur stdDeviation="10" result="j"/><feFlood flood-opacity="0.365"/><feComposite operator="in" in2="j"/><feComposite in="SourceGraphic"/></filter><clipPath id="l"><rect width="2400" height="1800"/></clipPath></defs><g id="k" clip-path="url(#l)"><rect width="2400" height="1800" fill="#fff"/><g transform="translate(-97 24)"><g transform="matrix(1, 0, 0, 1, 97, -24)" filter="url(#a)"><rect width="376" height="812" transform="translate(74 470)" fill="#fff"/></g><rect width="375" height="812" transform="translate(172 446)" fill="#525252" opacity="0"/><g transform="translate(172 446)"><rect width="375" height="812" fill="#b9b9b9"/><path d="M1344,0l377.163,812.956" transform="translate(-1344)" fill="none" stroke="#000" stroke-width="2"/><path d="M1721.163,0,1343.424,815.284" transform="translate(-1344)" fill="none" stroke="#000" stroke-width="2"/></g><g transform="translate(172 446)"><rect width="375" height="812" fill="#e3e3e3"/><path d="M1344,0l377.163,812.956" transform="translate(-1344)" fill="none" stroke="#000" stroke-width="2"/><path d="M1721.163,0,1343.424,815.284" transform="translate(-1344)" fill="none" stroke="#000" stroke-width="2"/></g><g transform="translate(172 1224)"><rect width="134" height="5" rx="2.5" transform="translate(121 20)"/></g><g transform="translate(190 506)" fill="#f7f7f7" stroke="#5d5d5d" stroke-width="1"><rect width="339" height="90" stroke="none"/><rect x="0.5" y="0.5" width="338" height="89" fill="none"/></g><text transform="translate(283 806)" fill="#d0d0d0" font-size="20" font-family="HelveticaNeue, Helvetica Neue" opacity="0"><tspan x="0" y="0">Recent Searches</tspan></text><g transform="translate(182 439)"><text transform="translate(66 99)" fill="#aaa" font-size="20" font-family="HelveticaNeue, Helvetica Neue"><tspan x="0" y="0">search query</tspan></text><text transform="translate(66 138)" fill="#292929" font-size="28" font-family="HelveticaNeue, Helvetica Neue"><tspan x="0" y="0">Web Site Name</tspan></text></g><g transform="translate(172 446)"><text transform="translate(43 112)" fill="#a8a8a8" font-size="16" font-family="HelveticaNeue, Helvetica Neue"><tspan x="0" y="0">0</tspan></text><g transform="translate(30 89)" fill="none" stroke="#a8a8a8" stroke-width="2"><circle cx="17" cy="17" r="17" stroke="none"/><circle cx="17" cy="17" r="16" fill="none"/></g></g><text transform="translate(494 560)" fill="#a8a8a8" font-size="20" font-family="HelveticaNeue-Bold, Helvetica Neue" font-weight="700"><tspan x="0" y="0">i</tspan></text><g transform="translate(172 446)"><g transform="translate(245 719)" fill="#fff" stroke="#707070" stroke-width="1"><circle cx="24" cy="24" r="24" stroke="none"/><circle cx="24" cy="24" r="23.5" fill="none"/></g><path d="M5067,7373.665l6.559,6.559,12.069-12.069" transform="translate(-4806.748 -6631.597)" fill="none" stroke="#00790e" stroke-linecap="round" stroke-linejoin="round" stroke-width="4"/></g><g transform="translate(172 446)"><g transform="translate(82 719)" fill="#fff" stroke="#707070" stroke-width="1"><circle cx="24" cy="24" r="24" stroke="none"/><circle cx="24" cy="24" r="23.5" fill="none"/></g><path d="M4908.147,7367.557l15.848,15.848" transform="translate(-4810 -6633)" fill="none" stroke="#e50000" stroke-linecap="round" stroke-width="4"/><path d="M4908.147,7367.557l15.848,15.848" transform="translate(7481.552 -4173.59) rotate(90)" fill="none" stroke="#e50000" stroke-linecap="round" stroke-width="4"/></g><g transform="translate(172 575)" opacity="0"><g transform="translate(18 680)" fill="#f7f7f7" stroke="#00790e" stroke-width="2"><rect width="339" height="90" stroke="none"/><rect x="1" y="1" width="337" height="88" fill="none"/></g><g transform="translate(-18 615)"><text transform="translate(66 99)" fill="#00790e" font-size="20" font-family="HelveticaNeue, Helvetica Neue"><tspan x="0" y="0">Saved</tspan></text><text transform="translate(66 134)" fill="#292929" font-size="28" font-family="HelveticaNeue, Helvetica Neue"><tspan x="0" y="0">Web Site Name</tspan></text></g></g></g><g transform="translate(-203 -35)"><g transform="matrix(1, 0, 0, 1, 203, 35)" filter="url(#c)"><rect width="374" height="809" transform="translate(535 72)" fill="#fff"/></g><rect width="375" height="812" transform="translate(737 104)" fill="#525252"/><g transform="translate(737 104)"><rect width="375" height="812" fill="#b9b9b9"/><path d="M1344,0l377.163,812.956" transform="translate(-1344)" fill="none" stroke="#000" stroke-width="2"/><path d="M1721.163,0,1343.424,815.284" transform="translate(-1344)" fill="none" stroke="#000" stroke-width="2"/></g><g transform="translate(737 104)"><g transform="translate(245 719)" fill="#fff" stroke="#707070" stroke-width="1"><circle cx="24" cy="24" r="24" stroke="none"/><circle cx="24" cy="24" r="23.5" fill="none"/></g><path d="M5067,7373.665l6.559,6.559,12.069-12.069" transform="translate(-4806.748 -6631.597)" fill="none" stroke="#00790e" stroke-linecap="round" stroke-linejoin="round" stroke-width="4"/></g><g transform="translate(737 104)"><g transform="translate(82 719)" fill="#fff" stroke="#707070" stroke-width="1"><circle cx="24" cy="24" r="24" stroke="none"/><circle cx="24" cy="24" r="23.5" fill="none"/></g><path d="M4908.147,7367.557l15.848,15.848" transform="translate(-4810 -6633)" fill="none" stroke="#e50000" stroke-linecap="round" stroke-width="4"/><path d="M4908.147,7367.557l15.848,15.848" transform="translate(7481.552 -4173.59) rotate(90)" fill="none" stroke="#e50000" stroke-linecap="round" stroke-width="4"/></g><g transform="translate(755 164)" fill="#f7f7f7" stroke="#5d5d5d" stroke-width="1"><rect width="339" height="90" stroke="none"/><rect x="0.5" y="0.5" width="338" height="89" fill="none"/></g><text transform="translate(848 464)" fill="#d0d0d0" font-size="20" font-family="HelveticaNeue, Helvetica Neue" opacity="0"><tspan x="0" y="0">Recent Searches</tspan></text><g transform="translate(747 97)"><text transform="translate(66 99)" fill="#aaa" font-size="20" font-family="HelveticaNeue, Helvetica Neue"><tspan x="0" y="0">search query</tspan></text><text transform="translate(66 138)" fill="#292929" font-size="28" font-family="HelveticaNeue, Helvetica Neue"><tspan x="0" y="0">Web Site Name 2</tspan></text></g><text transform="translate(780 198)" fill="#a8a8a8" font-size="16" font-family="HelveticaNeue, Helvetica Neue" opacity="0"><tspan x="0" y="0">0</tspan></text><text transform="translate(780 216)" fill="#030303" font-size="16" font-family="HelveticaNeue, Helvetica Neue"><tspan x="0" y="0">1</tspan></text><g transform="translate(767 193)" fill="none" stroke="#a8a8a8" stroke-width="2"><circle cx="17" cy="17" r="17" stroke="none"/><circle cx="17" cy="17" r="16" fill="none"/></g><text transform="translate(1059 218)" fill="#a8a8a8" font-size="20" font-family="HelveticaNeue-Bold, Helvetica Neue" font-weight="700"><tspan x="0" y="0">i</tspan></text><g transform="translate(737 104)"><g transform="translate(18 680)" fill="#f7f7f7" stroke="#00790e" stroke-width="2"><rect width="339" height="90" stroke="none"/><rect x="1" y="1" width="337" height="88" fill="none"/></g><g transform="translate(-18 615)"><text transform="translate(66 99)" fill="#00790e" font-size="20" font-family="HelveticaNeue, Helvetica Neue"><tspan x="0" y="0">Saved</tspan></text><text transform="translate(66 134)" fill="#292929" font-size="28" font-family="HelveticaNeue, Helvetica Neue"><tspan x="0" y="0">Web Site Name</tspan></text></g></g><g transform="translate(737 882)"><rect width="134" height="5" rx="2.5" transform="translate(121 20)"/></g></g><g transform="translate(267 373)"><g transform="matrix(1, 0, 0, 1, -267, -373)" filter="url(#e)"><rect width="374" height="809" transform="translate(1005 480)" fill="#fff"/></g><rect width="375" height="812" transform="translate(737 104)" fill="#525252"/><g transform="translate(737 104)"><rect width="375" height="812" fill="#b9b9b9"/><path d="M1344,0l377.163,812.956" transform="translate(-1344)" fill="none" stroke="#000" stroke-width="2"/><path d="M1721.163,0,1343.424,815.284" transform="translate(-1344)" fill="none" stroke="#000" stroke-width="2"/></g><g transform="translate(737 104)"><g transform="translate(245 719)" fill="#fff" stroke="#707070" stroke-width="1"><circle cx="24" cy="24" r="24" stroke="none"/><circle cx="24" cy="24" r="23.5" fill="none"/></g><path d="M5067,7373.665l6.559,6.559,12.069-12.069" transform="translate(-4806.748 -6631.597)" fill="none" stroke="#00790e" stroke-linecap="round" stroke-linejoin="round" stroke-width="4"/></g><g transform="translate(737 104)"><g transform="translate(82 719)" fill="#fff" stroke="#707070" stroke-width="1"><circle cx="24" cy="24" r="24" stroke="none"/><circle cx="24" cy="24" r="23.5" fill="none"/></g><path d="M4908.147,7367.557l15.848,15.848" transform="translate(-4810 -6633)" fill="none" stroke="#e50000" stroke-linecap="round" stroke-width="4"/><path d="M4908.147,7367.557l15.848,15.848" transform="translate(7481.552 -4173.59) rotate(90)" fill="none" stroke="#e50000" stroke-linecap="round" stroke-width="4"/></g><g transform="translate(755 164)" fill="#f7f7f7" stroke="#5d5d5d" stroke-width="1"><rect width="339" height="90" stroke="none"/><rect x="0.5" y="0.5" width="338" height="89" fill="none"/></g><text transform="translate(848 464)" fill="#d0d0d0" font-size="20" font-family="HelveticaNeue, Helvetica Neue" opacity="0"><tspan x="0" y="0">Recent Searches</tspan></text><g transform="translate(747 97)"><text transform="translate(66 99)" fill="#aaa" font-size="20" font-family="HelveticaNeue, Helvetica Neue"><tspan x="0" y="0">search query</tspan></text><text transform="translate(66 138)" fill="#292929" font-size="28" font-family="HelveticaNeue, Helvetica Neue"><tspan x="0" y="0">Web Site Name 2</tspan></text></g><text transform="translate(780 198)" fill="#a8a8a8" font-size="16" font-family="HelveticaNeue, Helvetica Neue" opacity="0"><tspan x="0" y="0">0</tspan></text><text transform="translate(780 216)" fill="#030303" font-size="16" font-family="HelveticaNeue, Helvetica Neue"><tspan x="0" y="0">1</tspan></text><g transform="translate(767 193)" fill="none" stroke="#a8a8a8" stroke-width="2"><circle cx="17" cy="17" r="17" stroke="none"/><circle cx="17" cy="17" r="16" fill="none"/></g><text transform="translate(1059 218)" fill="#a8a8a8" font-size="20" font-family="HelveticaNeue-Bold, Helvetica Neue" font-weight="700"><tspan x="0" y="0">i</tspan></text><g transform="translate(737 882)"><rect width="134" height="5" rx="2.5" transform="translate(121 20)"/></g></g><g transform="translate(-203 -35)"><g transform="matrix(1, 0, 0, 1, 203, 35)" filter="url(#g)"><rect width="372" height="809" transform="translate(533 919)" fill="#fff"/></g><rect width="375" height="812" transform="translate(733 951)" fill="#525252"/><g transform="translate(733 951)"><rect width="375" height="812" fill="#b9b9b9"/><path d="M1344,0l377.163,812.956" transform="translate(-1344)" fill="none" stroke="#000" stroke-width="2"/><path d="M1721.163,0,1343.424,815.284" transform="translate(-1344)" fill="none" stroke="#000" stroke-width="2"/></g><g transform="translate(751 1011)" fill="#f7f7f7" stroke="#5d5d5d" stroke-width="1"><rect width="339" height="90" stroke="none"/><rect x="0.5" y="0.5" width="338" height="89" fill="none"/></g><text transform="translate(844 1311)" fill="#d0d0d0" font-size="20" font-family="HelveticaNeue, Helvetica Neue" opacity="0"><tspan x="0" y="0">Recent Searches</tspan></text><g transform="translate(743 944)"><text transform="translate(66 99)" fill="#aaa" font-size="20" font-family="HelveticaNeue, Helvetica Neue"><tspan x="0" y="0">search query</tspan></text><text transform="translate(66 138)" fill="#292929" font-size="28" font-family="HelveticaNeue, Helvetica Neue"><tspan x="0" y="0">Web Site Name 2</tspan></text></g><text transform="translate(776 1063)" fill="#a8a8a8" font-size="16" font-family="HelveticaNeue, Helvetica Neue"><tspan x="0" y="0">0</tspan></text><g transform="translate(763 1040)" fill="none" stroke="#a8a8a8" stroke-width="2"><circle cx="17" cy="17" r="17" stroke="none"/><circle cx="17" cy="17" r="16" fill="none"/></g><text transform="translate(1055 1065)" fill="#a8a8a8" font-size="20" font-family="HelveticaNeue-Bold, Helvetica Neue" font-weight="700"><tspan x="0" y="0">i</tspan></text><g transform="translate(751 1631)" fill="#f7f7f7" stroke="#e50000" stroke-width="2"><rect width="339" height="90" stroke="none"/><rect x="1" y="1" width="337" height="88" fill="none"/></g><g transform="translate(715 1566)"><text transform="translate(66 99)" fill="#e50000" font-size="20" font-family="HelveticaNeue, Helvetica Neue"><tspan x="0" y="0">Passed</tspan></text><text transform="translate(66 134)" fill="#292929" font-size="28" font-family="HelveticaNeue, Helvetica Neue"><tspan x="0" y="0">Web Site Name</tspan></text></g><g transform="translate(733 1729)"><rect width="134" height="5" rx="2.5" transform="translate(121 20)"/></g></g><path d="M3135.624,9400.993V8974.334h205.545" transform="translate(-2772 -8187)" fill="none" stroke="#00790e" stroke-linecap="round" stroke-linejoin="round" stroke-width="6"/><path d="M2973.156,9400.993v432.281h364.393" transform="translate(-2772 -8187)" fill="none" stroke="#e50000" stroke-linecap="round" stroke-linejoin="round" stroke-width="6"/><g transform="matrix(1, 0, 0, 1, 0, 0)" filter="url(#i)"><rect width="852" height="917" transform="translate(1476 442)" fill="#fff"/></g><path d="M3841.772,8685.643h68.866v413.82h75.86" transform="translate(-2962 -8209)" fill="none" stroke="#242424" stroke-linecap="round" stroke-linejoin="round" stroke-width="6"/><path d="M3986.5,8685.643h-68.866v413.82h-75.86" transform="translate(-2969 -7766)" fill="none" stroke="#242424" stroke-linecap="round" stroke-linejoin="round" stroke-width="6"/></g></svg>