<svg id="Layer_1" data-name="Layer 1" xmlns="http://www.w3.org/2000/svg" viewBox="0 0 814 485"><defs><style>.cls-1,.cls-31{font-size:12px;font-family:CircularStd-Medium, Circular Std;}.cls-2{letter-spacing:-0.01em;}.cls-3{letter-spacing:0em;}.cls-4{letter-spacing:0em;}.cls-5{letter-spacing:-0.02em;}.cls-6{letter-spacing:0em;}.cls-7{letter-spacing:-0.02em;}.cls-8{letter-spacing:-0.01em;}.cls-9{letter-spacing:0.01em;}.cls-10{letter-spacing:-0.02em;}.cls-11{letter-spacing:-0.04em;}.cls-12{letter-spacing:0em;}.cls-13{letter-spacing:0em;}.cls-14{letter-spacing:-0.04em;}.cls-15{letter-spacing:0em;}.cls-16{letter-spacing:-0.02em;}.cls-17{letter-spacing:-0.01em;}.cls-18{letter-spacing:0em;}.cls-19{letter-spacing:-0.01em;}.cls-20{letter-spacing:0.02em;}.cls-21{letter-spacing:-0.01em;}.cls-22,.cls-33{fill:none;}.cls-22,.cls-40{stroke:#000;}.cls-22,.cls-33,.cls-40{stroke-miterlimit:10;stroke-width:2px;}.cls-23{letter-spacing:-0.02em;}.cls-24{letter-spacing:0em;}.cls-25{letter-spacing:-0.01em;}.cls-26{letter-spacing:-0.03em;}.cls-27{letter-spacing:0em;}.cls-28{letter-spacing:0em;}.cls-29{letter-spacing:-0.05em;}.cls-30{letter-spacing:0em;}.cls-31{fill:#898989;}.cls-32{letter-spacing:0.01em;}.cls-33{stroke:#898989;}.cls-34{letter-spacing:-0.01em;}.cls-35{letter-spacing:0em;}.cls-36{letter-spacing:0em;}.cls-37{letter-spacing:0em;}.cls-38{letter-spacing:-0.02em;}.cls-39{letter-spacing:0.01em;}.cls-40{fill:#fff;}</style></defs><title>search-userflow</title><text class="cls-1" transform="translate(24.3 93.27)"><tspan class="cls-2">S</tspan><tspan class="cls-3" x="7.1" y="0">ea</tspan><tspan class="cls-4" x="20.06" y="0">r</tspan><tspan x="24.59" y="0">ch </tspan><tspan class="cls-5" x="40.94" y="0">P</tspan><tspan class="cls-6" x="47.89" y="0">a</tspan><tspan x="54.26" y="0">ge</tspan></text><text class="cls-1" transform="translate(164.75 89.07)"><tspan class="cls-2">S</tspan><tspan class="cls-3" x="7.1" y="0">ea</tspan><tspan class="cls-4" x="20.06" y="0">r</tspan><tspan x="24.59" y="0">ch </tspan><tspan class="cls-7" x="40.94" y="0">R</tspan><tspan x="48.2" y="0">e</tspan><tspan class="cls-8" x="54.78" y="0">s</tspan><tspan x="60.2" y="0">ul</tspan><tspan class="cls-9" x="70.32" y="0">t</tspan><tspan x="74.82" y="0">s </tspan><tspan class="cls-10" x="28.16" y="14.4">P</tspan><tspan class="cls-6" x="35.1" y="14.4">a</tspan><tspan x="41.48" y="14.4">ge</tspan></text><text class="cls-1" transform="translate(337.93 93.27)"><tspan class="cls-11">W</tspan><tspan x="11.76" y="0">ebp</tspan><tspan class="cls-6" x="32.83" y="0">a</tspan><tspan x="39.2" y="0">ge</tspan></text><text class="cls-1" transform="translate(24.03 188.2)">In<tspan class="cls-12" x="10.39" y="0">p</tspan><tspan x="17.6" y="0">ut </tspan><tspan class="cls-12" x="31.88" y="0">s</tspan><tspan x="37.33" y="0">ea</tspan><tspan class="cls-4" x="50.29" y="0">r</tspan><tspan class="cls-3" x="54.81" y="0">ch</tspan><tspan class="cls-4" x="21.11" y="14.4">t</tspan><tspan class="cls-3" x="25.45" y="14.4">e</tspan><tspan class="cls-13" x="32.03" y="14.4">r</tspan><tspan x="36.61" y="14.4">m</tspan></text><text class="cls-1" transform="translate(148.06 180.69)"><tspan class="cls-14">K</tspan><tspan x="7.76" y="0">eep p</tspan><tspan class="cls-6" x="38.39" y="0">a</tspan><tspan x="44.76" y="0">ge open, and</tspan><tspan x="-3.52" y="14.4">open n</tspan><tspan class="cls-2" x="34.01" y="14.4">e</tspan><tspan x="40.5" y="14.4">w p</tspan><tspan class="cls-6" x="60.49" y="14.4">a</tspan><tspan x="66.86" y="14.4">ge in n</tspan><tspan class="cls-2" x="103.41" y="14.4">e</tspan><tspan x="109.91" y="14.4">w</tspan><tspan class="cls-15" x="24.78" y="28.8">t</tspan><tspan class="cls-3" x="29.19" y="28.8">a</tspan><tspan class="cls-16" x="35.58" y="28.8">b/</tspan><tspan x="47.75" y="28.8">wind</tspan><tspan class="cls-17" x="74.81" y="28.8">o</tspan><tspan class="cls-18" x="81.61" y="28.8">w</tspan></text><text class="cls-1" transform="translate(162.12 285.63)"><tspan class="cls-19">C</tspan><tspan x="8.98" y="0">lick </tspan><tspan class="cls-17" x="31.34" y="0">t</tspan><tspan x="35.58" y="0">he </tspan><tspan class="cls-4" x="52.02" y="0">s</tspan><tspan class="cls-3" x="57.47" y="0">ea</tspan><tspan class="cls-4" x="70.43" y="0">r</tspan><tspan x="74.95" y="0">ch</tspan><tspan x="5.74" y="14.4">q</tspan><tspan class="cls-12" x="12.89" y="14.4">u</tspan><tspan x="19.78" y="14.4">e</tspan><tspan class="cls-20" x="26.36" y="14.4">r</tspan><tspan x="31.16" y="14.4">y di</tspan><tspan class="cls-4" x="51.05" y="14.4">r</tspan><tspan x="55.58" y="14.4">ec</tspan><tspan class="cls-21" x="68.64" y="14.4">t</tspan><tspan class="cls-3" x="72.88" y="14.4">ly</tspan></text><rect class="cls-22" x="13" y="67.57" width="91" height="44" rx="8" ry="8"/><rect class="cls-22" x="319" y="67.57" width="91" height="44" rx="8" ry="8"/><text class="cls-1" transform="translate(694 86.7)"><tspan class="cls-23">C</tspan><tspan class="cls-3" x="8.88" y="0">on</tspan><tspan class="cls-13" x="22.72" y="0">t</tspan><tspan x="27.12" y="0">i</tspan><tspan class="cls-2" x="30.3" y="0">n</tspan><tspan class="cls-12" x="37.1" y="0">u</tspan><tspan class="cls-3" x="43.99" y="0">e</tspan><tspan class="cls-2" x="6.3" y="14.4">S</tspan><tspan class="cls-3" x="13.4" y="14.4">ea</tspan><tspan class="cls-4" x="26.36" y="14.4">r</tspan><tspan x="30.89" y="14.4">ch</tspan></text><rect class="cls-22" x="674" y="68" width="91" height="44" rx="8" ry="8"/><text class="cls-1" transform="translate(704.84 448.6)"><tspan class="cls-24">D</tspan><tspan x="8.69" y="0">one</tspan><tspan class="cls-2" x="-13" y="14.4">S</tspan><tspan class="cls-3" x="-5.9" y="14.4">ea</tspan><tspan class="cls-4" x="7.06" y="14.4">r</tspan><tspan x="11.59" y="14.4">ching</tspan></text><rect class="cls-22" x="673.89" y="430.1" width="91" height="44" rx="8" ry="8"/><rect class="cls-22" x="153.79" y="70.57" width="105.21" height="44" rx="7.95" ry="7.95"/><rect class="cls-22" x="131.29" y="161.01" width="149.71" height="60.75" rx="30.38" ry="30.38"/><rect class="cls-22" x="144" y="265.35" width="124" height="47.56" rx="23.78" ry="23.78"/><rect class="cls-22" x="6.25" y="169.84" width="103.75" height="43.73" rx="21.86" ry="21.86"/><text class="cls-1" transform="translate(483.98 164.56)"><tspan class="cls-11">W</tspan><tspan x="11.76" y="0">ebp</tspan><tspan class="cls-6" x="32.83" y="0">a</tspan><tspan x="39.2" y="0">ge in</tspan><tspan class="cls-25" x="65.89" y="0">f</tspan><tspan x="69.91" y="0">o does</tspan><tspan class="cls-12" x="106.07" y="0">n</tspan><tspan x="112.92" y="0">&apos;t</tspan><tspan class="cls-4" x="-0.55" y="14.4">s</tspan><tspan class="cls-3" x="4.9" y="14.4">eem </tspan><tspan class="cls-4" x="31.51" y="14.4">r</tspan><tspan class="cls-3" x="36.03" y="14.4">el</tspan><tspan class="cls-19" x="45.8" y="14.4">e</tspan><tspan class="cls-12" x="52.25" y="14.4">v</tspan><tspan x="58.52" y="14.4">ant en</tspan><tspan class="cls-12" x="92.61" y="14.4">ou</tspan><tspan x="106.41" y="14.4">gh</tspan></text><rect class="cls-22" x="473" y="148" width="141" height="40"/><text class="cls-1" transform="translate(491.35 235.5)"><tspan class="cls-26">F</tspan><tspan class="cls-12" x="6.29" y="0">o</tspan><tspan x="13.2" y="0">und in</tspan><tspan class="cls-25" x="47.28" y="0">f</tspan><tspan x="51.3" y="0">o</tspan><tspan class="cls-13" x="58.25" y="0">r</tspan><tspan class="cls-3" x="62.83" y="0">m</tspan><tspan class="cls-27" x="73.31" y="0">a</tspan><tspan class="cls-13" x="79.67" y="0">t</tspan><tspan x="84.07" y="0">ion</tspan><tspan x="30.01" y="14.4">needed</tspan></text><rect class="cls-22" x="476" y="219" width="131" height="40"/><text class="cls-1" transform="translate(491.35 448.5)"><tspan class="cls-26">F</tspan><tspan class="cls-12" x="6.29" y="0">o</tspan><tspan x="13.2" y="0">und in</tspan><tspan class="cls-25" x="47.28" y="0">f</tspan><tspan x="51.3" y="0">o</tspan><tspan class="cls-13" x="58.25" y="0">r</tspan><tspan class="cls-3" x="62.83" y="0">m</tspan><tspan class="cls-27" x="73.31" y="0">a</tspan><tspan class="cls-13" x="79.67" y="0">t</tspan><tspan x="84.07" y="0">ion</tspan><tspan x="30.01" y="14.4">needed</tspan></text><rect class="cls-22" x="476" y="432" width="131" height="40"/><text class="cls-1" transform="translate(466 306.5)">In<tspan class="cls-25" x="10.39" y="0">f</tspan><tspan class="cls-3" x="14.41" y="0">o</tspan><tspan class="cls-28" x="21.36" y="0">r</tspan><tspan class="cls-3" x="25.94" y="0">m</tspan><tspan class="cls-27" x="36.42" y="0">a</tspan><tspan class="cls-13" x="42.78" y="0">t</tspan><tspan x="47.18" y="0">ion might be u</tspan><tspan class="cls-4" x="125.87" y="0">s</tspan><tspan x="131.31" y="0">e</tspan><tspan class="cls-12" x="137.89" y="0">f</tspan><tspan class="cls-3" x="142.05" y="0">u</tspan><tspan class="cls-4" x="148.98" y="0">l</tspan><tspan x="152.13" y="0">,</tspan><tspan class="cls-4" x="14.37" y="14.4">b</tspan><tspan x="21.58" y="14.4">ut do</tspan><tspan class="cls-29" x="50.03" y="14.4">n</tspan><tspan x="56.36" y="14.4">’t </tspan><tspan class="cls-4" x="66.47" y="14.4">w</tspan><tspan class="cls-3" x="76.2" y="14.4">ant </tspan><tspan class="cls-4" x="96.83" y="14.4">t</tspan><tspan x="101.18" y="14.4">o </tspan><tspan class="cls-13" x="111.1" y="14.4">r</tspan><tspan class="cls-18" x="115.68" y="14.4">isk it</tspan></text><rect class="cls-22" x="460.39" y="290" width="167" height="40"/><text class="cls-1" transform="translate(489.14 377.5)"><tspan class="cls-2">S</tspan><tspan class="cls-3" x="7.1" y="0">eems u</tspan><tspan class="cls-4" x="46.12" y="0">s</tspan><tspan class="cls-3" x="51.56" y="0">e</tspan><tspan class="cls-12" x="58.14" y="0">f</tspan><tspan x="62.3" y="0">ul and I’ll</tspan><tspan class="cls-30" x="-0.66" y="14.4">c</tspan><tspan x="5.77" y="14.4">ome b</tspan><tspan class="cls-6" x="40" y="14.4">a</tspan><tspan x="46.37" y="14.4">ck </tspan><tspan class="cls-4" x="62.36" y="14.4">t</tspan><tspan class="cls-3" x="66.71" y="14.4">o it </tspan><tspan class="cls-27" x="87.17" y="14.4">la</tspan><tspan class="cls-12" x="96.69" y="14.4">t</tspan><tspan x="101.04" y="14.4">er</tspan></text><rect class="cls-22" x="475.39" y="361" width="139" height="40"/><text class="cls-31" transform="translate(330.75 171.35)"><tspan class="cls-19">C</tspan><tspan x="8.98" y="0">lo</tspan><tspan class="cls-12" x="19.12" y="0">s</tspan><tspan x="24.56" y="0">e </tspan><tspan class="cls-15" x="34.12" y="0">t</tspan><tspan x="38.53" y="0">ab </tspan><tspan class="cls-19" x="55.14" y="0">(</tspan><tspan class="cls-32" x="58.82" y="0">1</tspan><tspan x="63.42" y="0">)</tspan></text><rect class="cls-33" x="318.75" y="151.56" width="91.21" height="32.19" rx="16.1" ry="16.1"/><text class="cls-31" transform="translate(329.65 455.33)"><tspan class="cls-34">C</tspan><tspan x="8.98" y="0">lo</tspan><tspan class="cls-12" x="19.12" y="0">s</tspan><tspan x="24.56" y="0">e </tspan><tspan class="cls-35" x="34.12" y="0">t</tspan><tspan x="38.53" y="0">ab </tspan><tspan class="cls-35" x="55.14" y="0">(</tspan><tspan class="cls-12" x="58.98" y="0">2</tspan><tspan x="65.39" y="0">)</tspan></text><rect class="cls-33" x="318.75" y="435.64" width="91.21" height="32.19" rx="16.1" ry="16.1"/><text class="cls-31" transform="translate(324.34 313.65)"><tspan class="cls-14">K</tspan><tspan x="7.76" y="0">eep </tspan><tspan class="cls-15" x="31.14" y="0">t</tspan><tspan x="35.56" y="0">ab open</tspan></text><rect class="cls-33" x="313.75" y="293.71" width="101.21" height="32.19" rx="16.1" ry="16.1"/><text class="cls-31" transform="translate(315.64 377.39)"><tspan class="cls-36">B</tspan><tspan class="cls-3" x="7.34" y="0">ookma</tspan><tspan class="cls-13" x="44.63" y="0">r</tspan><tspan x="49.21" y="0">k </tspan><tspan class="cls-17" x="58.71" y="0">t</tspan><tspan x="62.95" y="0">he </tspan><tspan class="cls-15" x="79.39" y="0">t</tspan><tspan class="cls-3" x="83.81" y="0">ab</tspan><tspan x="15.9" y="14.4">and clo</tspan><tspan class="cls-12" x="56" y="14.4">s</tspan><tspan x="61.45" y="14.4">e it </tspan></text><rect class="cls-33" x="301.75" y="360.23" width="125.21" height="41.31" rx="20.66" ry="20.66"/><text class="cls-31" transform="translate(324.88 235.46)"><tspan class="cls-8">B</tspan><tspan class="cls-6" x="7.22" y="0">a</tspan><tspan x="13.6" y="0">ck click and</tspan><tspan x="5.39" y="14.4">n</tspan><tspan class="cls-30" x="12.27" y="14.4">a</tspan><tspan x="18.6" y="14.4">vi</tspan><tspan class="cls-8" x="28.08" y="14.4">g</tspan><tspan class="cls-37" x="35.09" y="14.4">a</tspan><tspan class="cls-4" x="41.45" y="14.4">t</tspan><tspan class="cls-3" x="45.79" y="14.4">e </tspan><tspan class="cls-12" x="55.34" y="14.4">o</tspan><tspan x="62.25" y="14.4">ut</tspan></text><rect class="cls-33" x="301.75" y="218.31" width="125.21" height="41.31" rx="20.66" ry="20.66"/><text class="cls-31" transform="translate(677.5 161.46)"><tspan class="cls-38">R</tspan><tspan class="cls-3" x="7.26" y="0">ein</tspan><tspan class="cls-4" x="23.9" y="0">p</tspan><tspan x="31.12" y="0">ut </tspan><tspan class="cls-4" x="45.4" y="0">s</tspan><tspan x="50.84" y="0">ea</tspan><tspan class="cls-4" x="63.8" y="0">r</tspan><tspan x="68.33" y="0">ch</tspan><tspan class="cls-4" x="25.34" y="14.4">r</tspan><tspan class="cls-3" x="29.87" y="14.4">e</tspan><tspan class="cls-8" x="36.44" y="14.4">s</tspan><tspan x="41.87" y="14.4">ult</tspan></text><rect class="cls-33" x="655.75" y="144.31" width="125.21" height="41.31" rx="20.66" ry="20.66"/><text class="cls-31" transform="translate(671.8 235.46)"><tspan class="cls-4">N</tspan><tspan class="cls-30" x="9.14" y="0">a</tspan><tspan x="15.47" y="0">vi</tspan><tspan class="cls-8" x="24.95" y="0">g</tspan><tspan class="cls-27" x="31.96" y="0">a</tspan><tspan class="cls-12" x="38.32" y="0">t</tspan><tspan x="42.66" y="0">e b</tspan><tspan class="cls-6" x="59.46" y="0">a</tspan><tspan class="cls-3" x="65.83" y="0">ck </tspan><tspan class="cls-12" x="81.83" y="0">t</tspan><tspan x="86.17" y="0">o</tspan><tspan class="cls-4" x="13.13" y="14.4">r</tspan><tspan x="17.65" y="14.4">e</tspan><tspan class="cls-30" x="24.23" y="14.4">s</tspan><tspan x="29.65" y="14.4">ul</tspan><tspan class="cls-39" x="39.77" y="14.4">t</tspan><tspan class="cls-18" x="44.27" y="14.4">s p</tspan><tspan class="cls-6" x="59.98" y="14.4">a</tspan><tspan x="66.35" y="14.4">ge</tspan></text><rect class="cls-33" x="655.75" y="218.31" width="125.21" height="41.31" rx="20.66" ry="20.66"/><path class="cls-22" d="M674,90h-5.39A20.61,20.61,0,0,0,648,110.61V289.39A20.61,20.61,0,0,1,627.39,310h0"/><line class="cls-22" x1="607" y1="452.1" x2="674" y2="452.1"/><circle class="cls-40" cx="781" cy="165" r="4"/><circle class="cls-40" cx="781" cy="239" r="4"/><path class="cls-22" d="M785,165h0a17,17,0,0,0,17-17V35a17,17,0,0,0-17-17H75A17,17,0,0,0,58,35V70.57"/><line class="cls-40" x1="410" y1="168" x2="473" y2="168"/><line class="cls-40" x1="427" y1="239" x2="476" y2="239"/><line class="cls-40" x1="415" y1="310" x2="460.39" y2="310"/><line class="cls-40" x1="427" y1="381" x2="475.39" y2="381"/><line class="cls-40" x1="410" y1="452" x2="476" y2="452"/><path class="cls-22" d="M607,239h0a41,41,0,0,0,41-41V347.39A33.61,33.61,0,0,1,614.39,381h0"/><path class="cls-22" d="M614,167.66h0a34,34,0,0,0,34-34v-8.12"/></svg>