<svg id="Layer_1" data-name="Layer 1" xmlns="http://www.w3.org/2000/svg" viewBox="0 0 434.11 152.11"><defs><style>.cls-1{fill:#123660;opacity:0.55;}.cls-2{fill:#fffae5;}.cls-3{fill:#0061ff;}.cls-4{fill:#ffafa2;}.cls-5{fill:#2d2d2d;}.cls-6{fill:#5e6f84;}.cls-7{fill:#fcf49c;stroke:#777a03;stroke-miterlimit:10;stroke-width:0.1px;}</style></defs><title>search-card-img</title><path class="cls-1" d="M192.16,110.3l-.75-97.55A11.36,11.36,0,0,0,179.85,1.39l-57,.4a11.47,11.47,0,0,0-11.35,11.55l.74,97.4h0l.19,29.33A11.39,11.39,0,0,0,119,150.4a10.93,10.93,0,0,0,5,1.12l57-.4a12.73,12.73,0,0,0,4.42-.86,11.3,11.3,0,0,0,7-10.62Zm-6.65,36.83a9,9,0,0,1-3.63.84l-35.47.26-23.15.27a7.4,7.4,0,0,1-4.25-1.22,7.75,7.75,0,0,1-3.74-6.61L115,110.88v-.17l-.73-97.9a8,8,0,0,1,1.43-4.51,4.48,4.48,0,0,1,.39-.53,6.84,6.84,0,0,1,.79-.82,2.05,2.05,0,0,1,.23-.2s0,0,.07-.06l.59-.45h0a4.53,4.53,0,0,1,.46-.3l.25-.13a5.73,5.73,0,0,1,.61-.3,5.48,5.48,0,0,1,.71-.27c.24-.07.5-.14.75-.19a6.37,6.37,0,0,1,.63-.1l.29,0,.72,0,8.52-.06h.29a1.43,1.43,0,0,1,1.09.63c0,.07.07.13.09.19a1.06,1.06,0,0,1,.1.26,1.3,1.3,0,0,1,.07.48.9.9,0,0,0,0,.23.36.36,0,0,0,0,.18,3.35,3.35,0,0,0,.84,1.69.67.67,0,0,0,.15.14l.19.14a2.82,2.82,0,0,0,1.83.58l32.17-.19a3,3,0,0,0,2-.72l.15-.19.16-.19a2.94,2.94,0,0,0,.64-1.82v0a1.5,1.5,0,0,1,1.55-1.64l8.53-.06a7.93,7.93,0,0,1,4.53,1.32,6.67,6.67,0,0,1,1.12.93,1.45,1.45,0,0,1,.22.21c.12.12.22.24.33.36s.25.32.37.49a.5.5,0,0,0,.07.08s0,0,0,0a5.94,5.94,0,0,1,.67,1.21c.11.23.2.48.29.73a7.2,7.2,0,0,1,.38,2.46l.68,92,0,6v.23l.43,29.61A7.66,7.66,0,0,1,185.51,147.13Z"/><path class="cls-2" d="M190.62,138.89a7.67,7.67,0,0,1-4.22,7,6.56,6.56,0,0,1-3.63.85l-35.28.41-23.07.17a8,8,0,0,1-8-7.83l-.23-29.68h0v-.18l-.71-97.82c0-.13,0-.24,0-.35a2.63,2.63,0,0,1,0-.49h0a2.6,2.6,0,0,1,0-.39,2.61,2.61,0,0,1,.1-.57,4.41,4.41,0,0,1,.16-.65,4.83,4.83,0,0,1,.22-.64.15.15,0,0,1,0-.06c.07-.17.15-.35.23-.52a.36.36,0,0,1,.05-.09,3.3,3.3,0,0,1,.18-.32c.09-.17.19-.32.27-.47s.28-.38.43-.56a0,0,0,0,1,0,0,5.39,5.39,0,0,1,.5-.56c.15-.16.31-.3.47-.45l.08-.06c.18-.15.38-.3.58-.45h0c.22-.15.43-.27.65-.4a7.08,7.08,0,0,1,.68-.32c.23-.1.47-.2.71-.28a6.8,6.8,0,0,1,.75-.18,4.44,4.44,0,0,1,.62-.1l.3,0c.23,0,.47,0,.71,0l8.53-.06h.28a1.65,1.65,0,0,1,1.25,1.48,3.22,3.22,0,0,0,.9,2.1s.06.06.1.09a.47.47,0,0,0,.15.13l.18.14a2.92,2.92,0,0,0,1.84.59L168.72,8a3,3,0,0,0,1.94-.71l.15-.2a1,1,0,0,0,.16-.19,2.94,2.94,0,0,0,.64-1.82v0a1.5,1.5,0,0,1,1.56-1.63l8.53-.07a7.91,7.91,0,0,1,4.52,1.33,5.84,5.84,0,0,1,1.12.92c.08.06.15.14.23.21l.32.36.38.49a.35.35,0,0,0,.06.09s0,0,0,0A7.56,7.56,0,0,1,189,8a6.67,6.67,0,0,1,.29.74,7.77,7.77,0,0,1,.36,2.28l.7,92.16,0,6v.22Z"/><path class="cls-3" d="M124.48,3.37h62.35a3.8,3.8,0,0,1,3.8,3.8V98.65a0,0,0,0,1,0,0H128.27a3.8,3.8,0,0,1-3.8-3.8V3.37A0,0,0,0,1,124.48,3.37Z"/><path class="cls-4" d="M116.35,120.62h63.1a3.8,3.8,0,0,1,3.8,3.8v22.87a0,0,0,0,1,0,0h-63.1a3.8,3.8,0,0,1-3.8-3.8V120.62A0,0,0,0,1,116.35,120.62Z" transform="translate(299.59 267.91) rotate(180)"/><path class="cls-5" d="M193.28,109.17l-.74-97.55A11.37,11.37,0,0,0,181,.26l-57,.4a11.49,11.49,0,0,0-11.36,11.56l.75,97.39h0l.19,29.34a11.39,11.39,0,0,0,6.53,10.32,10.83,10.83,0,0,0,5,1.12l57-.4a12.52,12.52,0,0,0,4.43-.86,11.28,11.28,0,0,0,7-10.62ZM186.64,146a8.83,8.83,0,0,1-3.63.84l-35.47.26-23.16.28a7.5,7.5,0,0,1-4.25-1.23,7.77,7.77,0,0,1-3.74-6.6l-.22-29.79v-.18l-.74-97.9a8,8,0,0,1,1.44-4.51,3.63,3.63,0,0,1,.38-.52,6.3,6.3,0,0,1,.8-.83l.22-.2.08-.06.59-.45h0a4.53,4.53,0,0,1,.46-.3,1.45,1.45,0,0,1,.25-.12,4.3,4.3,0,0,1,.61-.3,5,5,0,0,1,.71-.28c.24-.07.5-.13.75-.18a4.44,4.44,0,0,1,.62-.1l.3,0,.71,0,8.53-.07a1.41,1.41,0,0,1,.29,0,1.47,1.47,0,0,1,1.08.64.69.69,0,0,1,.1.19.82.82,0,0,1,.1.26,1.07,1.07,0,0,1,.06.47.66.66,0,0,0,0,.24.5.5,0,0,0,0,.17,3.35,3.35,0,0,0,.85,1.7.67.67,0,0,0,.15.14.8.8,0,0,0,.19.13,2.89,2.89,0,0,0,1.83.59L168.76,8a2.94,2.94,0,0,0,1.94-.71l.15-.2a1.54,1.54,0,0,0,.17-.19,2.89,2.89,0,0,0,.63-1.82V5.06a1.5,1.5,0,0,1,1.56-1.63l8.53-.06a7.83,7.83,0,0,1,4.52,1.32,5.91,5.91,0,0,1,1.13.92l.22.21.32.36.38.49a.47.47,0,0,0,.06.09v0A6.57,6.57,0,0,1,189.06,8a6.61,6.61,0,0,1,.28.74,7.11,7.11,0,0,1,.39,2.45l.67,92,0,6v.22l.42,29.61A7.66,7.66,0,0,1,186.64,146Z"/><path class="cls-2" d="M135.91,49.28a.74.74,0,0,0-.54-.71l-.78-.35a1.79,1.79,0,0,1-1.23-1.71,2.11,2.11,0,0,1,2.26-2,1.92,1.92,0,0,1,2.17,1.84l-1.16.2a.94.94,0,0,0-1.06-1,.88.88,0,0,0-1,.81.77.77,0,0,0,.51.7l.73.32a1.86,1.86,0,0,1,1.34,1.77,2.07,2.07,0,0,1-2.25,2,2.16,2.16,0,0,1-2.41-2.09.76.76,0,0,1,0-.19l1.16-.2a1.34,1.34,0,0,0,0,.19,1.15,1.15,0,0,0,1.22,1.21C135.53,50.06,135.9,49.74,135.91,49.28Z"/><path class="cls-2" d="M139.64,51,141,44.62h4l-.25,1.17H142l-.32,1.46h2.48l-.23,1.11h-2.48l-.32,1.48h2.74L143.62,51Z"/><path class="cls-2" d="M150.64,49.55h-2.47L147.35,51H146l3.74-6.39h1.42l1,6.39h-1.29Zm-1.83-1.14h1.66L150.14,46Z"/><path class="cls-2" d="M157.13,48.54h-.81L155.8,51h-1.24l1.35-6.39h2.22A1.63,1.63,0,0,1,160,46.26a2.16,2.16,0,0,1-1.61,2.12l1,2.63H158Zm.37-1.08a1.06,1.06,0,0,0,1.19-1c0-.43-.27-.72-.84-.72h-.93l-.38,1.76Z"/><path class="cls-2" d="M168.37,46.55l-1.21.36a1.49,1.49,0,0,0-1.56-1.24,2.28,2.28,0,0,0-2.11,2.51A1.62,1.62,0,0,0,165.15,50a1.79,1.79,0,0,0,1.68-1.2l1.12.46A3.06,3.06,0,0,1,165,51.15a2.75,2.75,0,0,1-2.82-2.9,3.54,3.54,0,0,1,3.47-3.76A2.51,2.51,0,0,1,168.37,46.55Z"/><path class="cls-2" d="M174.06,51l.56-2.65h-2.57L171.5,51h-1.25l1.35-6.39h1.25l-.54,2.57h2.56l.54-2.57h1.25L175.31,51Z"/><path class="cls-2" d="M130.3,135.89h-.52v1.68h-.73v-4.25h1.63a1.26,1.26,0,0,1,1.33,1.29,1.2,1.2,0,0,1-1,1.21l1,1.75h-.81Zm.25-.64a.65.65,0,0,0,.73-.64.66.66,0,0,0-.73-.66h-.77v1.3Z"/><path class="cls-2" d="M135.21,136.74a1.32,1.32,0,0,1-1.32.92,1.48,1.48,0,0,1-1.5-1.57,1.47,1.47,0,0,1,1.43-1.53,1.36,1.36,0,0,1,1.42,1.52c0,.11,0,.21,0,.22h-2.14a.79.79,0,0,0,.8.76.7.7,0,0,0,.73-.51Zm-.67-1a.66.66,0,0,0-.72-.65.7.7,0,0,0-.71.65Z"/><path class="cls-2" d="M136.38,136.11a.83.83,0,0,0,.82.91.74.74,0,0,0,.73-.54l.61.23a1.36,1.36,0,0,1-1.34.95,1.51,1.51,0,0,1-1.52-1.55,1.49,1.49,0,0,1,1.5-1.55,1.31,1.31,0,0,1,1.34,1l-.63.23a.68.68,0,0,0-.7-.55A.82.82,0,0,0,136.38,136.11Z"/><path class="cls-2" d="M141.72,136.74a1.32,1.32,0,0,1-1.32.92,1.48,1.48,0,0,1-1.5-1.57,1.47,1.47,0,0,1,1.43-1.53,1.36,1.36,0,0,1,1.42,1.52c0,.11,0,.21,0,.22H139.6a.79.79,0,0,0,.8.76.7.7,0,0,0,.73-.51Zm-.67-1a.66.66,0,0,0-.72-.65.7.7,0,0,0-.71.65Z"/><path class="cls-2" d="M143.12,137.57h-.7v-2.92h.68V135a1,1,0,0,1,.86-.48,1,1,0,0,1,1.06,1.16v1.85h-.7v-1.73c0-.36-.16-.65-.6-.65a.62.62,0,0,0-.6.7Z"/><path class="cls-2" d="M146.75,134.65h.61v.62h-.61v1.35c0,.26.11.37.37.37a1,1,0,0,0,.24,0v.58a1,1,0,0,1-.42.07.81.81,0,0,1-.88-.87v-1.47h-.54v-.62h.15a.42.42,0,0,0,.45-.46v-.44h.63Z"/><path class="cls-2" d="M151.76,134.52a.79.79,0,0,0-.84-.66.67.67,0,0,0-.73.61.56.56,0,0,0,.5.55l.61.13a1.25,1.25,0,0,1,1.15,1.22,1.35,1.35,0,0,1-1.5,1.29,1.52,1.52,0,0,1-1.65-1.31l.67-.19a.93.93,0,0,0,1,.85c.51,0,.77-.25.77-.59s-.2-.49-.57-.57l-.6-.13a1.21,1.21,0,0,1-1.08-1.19,1.51,1.51,0,0,1,2.94-.22Z"/><path class="cls-2" d="M155.69,136.74a1.32,1.32,0,0,1-1.32.92,1.48,1.48,0,0,1-1.49-1.57,1.46,1.46,0,0,1,1.42-1.53,1.37,1.37,0,0,1,1.43,1.52,1.59,1.59,0,0,1,0,.22h-2.14a.79.79,0,0,0,.8.76.7.7,0,0,0,.73-.51Zm-.67-1a.66.66,0,0,0-.72-.65.7.7,0,0,0-.71.65Z"/><path class="cls-2" d="M157.1,135.9l.75-.12c.16,0,.21-.11.21-.21s-.17-.44-.55-.44a.56.56,0,0,0-.6.53l-.64-.15a1.15,1.15,0,0,1,1.23-.95c.9,0,1.25.51,1.25,1.09v1.45a4.14,4.14,0,0,0,0,.47h-.65a2.23,2.23,0,0,1,0-.37,1,1,0,0,1-.9.46.92.92,0,0,1-1-.88A.9.9,0,0,1,157.1,135.9Zm1,.46v-.13l-.76.11c-.22,0-.39.16-.39.4a.39.39,0,0,0,.43.37A.66.66,0,0,0,158.06,136.36Z"/><path class="cls-2" d="M161.3,135.34l-.23,0c-.54,0-.79.31-.79.86v1.39h-.69v-2.92h.68v.47a.88.88,0,0,1,.84-.51l.19,0Z"/><path class="cls-2" d="M162.32,136.11a.83.83,0,0,0,.82.91.74.74,0,0,0,.73-.54l.61.23a1.36,1.36,0,0,1-1.34.95,1.51,1.51,0,0,1-1.52-1.55,1.49,1.49,0,0,1,1.5-1.55,1.31,1.31,0,0,1,1.34,1l-.63.23a.68.68,0,0,0-.71-.55A.82.82,0,0,0,162.32,136.11Z"/><path class="cls-2" d="M165.8,137.57h-.7v-4.34h.7v1.7a1,1,0,0,1,.83-.37,1,1,0,0,1,1.07,1.16v1.85H167v-1.73c0-.36-.16-.65-.6-.65a.61.61,0,0,0-.6.66Z"/><path class="cls-2" d="M171.13,136.74a1.3,1.3,0,0,1-1.32.92,1.48,1.48,0,0,1-1.49-1.57,1.46,1.46,0,0,1,1.42-1.53,1.37,1.37,0,0,1,1.43,1.52.76.76,0,0,1,0,.22H169a.77.77,0,0,0,.79.76.72.72,0,0,0,.74-.51Zm-.66-1a.66.66,0,0,0-.72-.65.71.71,0,0,0-.72.65Z"/><path class="cls-2" d="M172.19,136.61a.55.55,0,0,0,.59.5c.29,0,.44-.16.44-.34s-.11-.27-.34-.32l-.44-.1a.88.88,0,0,1-.78-.85,1,1,0,0,1,1.07-.94,1,1,0,0,1,1.13.81l-.59.17a.5.5,0,0,0-.54-.44.39.39,0,0,0-.42.34c0,.16.12.27.3.31l.44.09a.92.92,0,0,1,.84.89,1,1,0,0,1-1.1.93,1.1,1.1,0,0,1-1.21-.88Z"/><rect class="cls-2" x="132.54" y="78.71" width="50.7" height="0.75"/><rect class="cls-6" x="212.99" y="9.15" width="85.46" height="88" rx="2.49" ry="2.49" transform="translate(-2.18 11.87) rotate(-2.65)"/><rect class="cls-7" x="214.24" y="8.1" width="88" height="88" rx="2.49" ry="2.49" transform="translate(-2.13 11.99) rotate(-2.65)"/><rect class="cls-6" x="221.6" y="29.28" width="85.46" height="88" rx="2.49" ry="2.49" transform="translate(6.79 -21.14) rotate(4.64)"/><rect class="cls-7" x="221.97" y="28.48" width="88" height="88" rx="2.49" ry="2.49" transform="translate(6.73 -21.28) rotate(4.64)"/><rect class="cls-6" x="232.65" y="57.64" width="85.46" height="88" rx="2.49" ry="2.49" transform="translate(-3.96 11.45) rotate(-2.37)"/><rect class="cls-7" x="232.91" y="56.65" width="88" height="88" rx="2.49" ry="2.49" transform="translate(-3.92 11.51) rotate(-2.37)"/></svg>