<svg id="Layer_1" data-name="Layer 1" xmlns="http://www.w3.org/2000/svg" viewBox="0 0 600 356"><defs><style>.cls-1{fill:#0061ff;}.cls-2{fill:#fbc304;}.cls-3{fill:#19163a;opacity:0.42;isolation:isolate;}.cls-4{fill:#cec8b6;}.cls-5{fill:#f7f0da;}.cls-24,.cls-6,.cls-7{fill:none;}.cls-6{stroke:#ddd5bf;stroke-width:0.25px;}.cls-24,.cls-6{stroke-miterlimit:10;}.cls-8{fill:#c5c8d5;}.cls-9{fill:#686a84;}.cls-10{fill:#4d526d;}.cls-11{fill:#d0d2dd;}.cls-12{fill:#e1e3e8;}.cls-13{fill:#123660;opacity:0.55;}.cls-14,.cls-17,.cls-19{fill:#fffae5;}.cls-15{fill:#ffafa2;}.cls-16{fill:#2d2d2d;}.cls-17{font-size:12px;font-family:CircularStd-Bold, Circular Std;font-weight:700;letter-spacing:0.1em;}.cls-18{letter-spacing:0.1em;}.cls-19{font-size:8px;font-family:CircularStd-Medium, Circular Std;}.cls-20{letter-spacing:-0.02em;}.cls-21{letter-spacing:-0.01em;}.cls-22{letter-spacing:-0.01em;}.cls-23{letter-spacing:0em;}.cls-24{stroke:#fffae5;}</style></defs><title>search-splash</title><rect class="cls-1" y="1.5" width="600" height="356"/><path class="cls-2" d="M362.33,178.49a5.82,5.82,0,0,0-.54-1A4.9,4.9,0,0,1,362.33,178.49Z"/><path class="cls-3" d="M499.65,82.34h0a4.14,4.14,0,0,1,.91,2.82l.74,191.16a1.92,1.92,0,0,1-2,2l-243.48.63a1.9,1.9,0,0,1-2-2l0-2.6h0l.21,0,.41,0h.93l243.89-.67"/><path class="cls-4" d="M497.89,276.57,255.33,277a2.35,2.35,0,0,1-2.43-2.35l-.06-.62-.07-.61,0-.53-.06-.61-.06-.62,0-2.29h0l.41,0,246.7-.65.41-.05,0,1.15.06.61.06.62,0,1.14.08,1.76A2.71,2.71,0,0,1,497.89,276.57Z"/><path class="cls-5" d="M500.32,269.87a4,4,0,0,1-3.6,2.35l-239.44.52a3.78,3.78,0,0,1-3.57-2.33,2.58,2.58,0,0,1-.26-1.53h0l-.17-34.82V223.87L253,113.36l-.18-24.84V87.38l0-.73-.07-.62,0-.73a3.81,3.81,0,0,1,4-3.94l1.46,0h1.14l1.67,0h1.14l6.56,0h1.14l1.67,0h1.14l6.76,0h0l1.15,0,1.55-.06h1.14l6.65-.06h0l1.14,0,1.67,0h0l1.14,0,6.65-.06h1.15l1.66,0h1.15l6.55,0,1.14,0,1.67,0,1.14,0,6.77,0h1.14l1.55-.06h8.11l1.15,0,1.55,0,1.14,0,6.77,0h1.14l1.55-.06,1.14,0,6.65-.06h1.15l1.66,0h1.15l6.64-.06h0l1.15,0,1.66,0,1.15,0,6.76,0h1.14l1.56-.06h1.14l6.76,0h1.14l1.56-.06h1.14l6.65-.06h0l1.14,0,1.67,0h0l1.14,0,6.65-.06h1.14l1.67,0h1.14l6.76,0,1.15,0,1.55,0,1.14,0,6.76,0h1.15l1.66,0h1.15l6.44,0h1.14l1.67,0,1.14,0,6.65-.06,1.14,0,1.67,0h1.14l6.77,0h1.14l1.55-.06h1.14l6.77,0,1.14,0,1.67,0h1.14l6.44,0h1.15l1.66,0h1.14l6.65-.06,1.15,0,1.66,0h0l1.15,0,.32.08a3.8,3.8,0,0,1,3.94,4l1.09,183.54A3,3,0,0,1,500.32,269.87Z"/><path class="cls-6" d="M252.82,267.8h0l0,1.67,0,1.14a2.34,2.34,0,0,0,2.42,2.35l242.55-.64a2.35,2.35,0,0,0,2.34-2.43"/><path class="cls-6" d="M252.82,267.8h0l0,1.67,0,1.14.06.61a2.35,2.35,0,0,0,2.43,2.35l242.54-.64a2.35,2.35,0,0,0,2.35-2.42"/><path class="cls-6" d="M252.87,272.37a2.36,2.36,0,0,0,1.7,2.32c.21,0,.43.16.73,0l242.54-.64.62-.07a2.41,2.41,0,0,0,1.73-2.36"/><path class="cls-6" d="M252.94,273a2,2,0,0,0,.69,1.7,2.77,2.77,0,0,0,1.73.65l242.55-.64a2.54,2.54,0,0,0,1.69-.69,2.45,2.45,0,0,0,.75-1.85"/><path class="cls-6" d="M252.89,273.51a2.62,2.62,0,0,0,2.45,2.55l242.54-.64a2.43,2.43,0,0,0,2.16-1.26,2.27,2.27,0,0,0,.28-1.28"/><path class="cls-6" d="M252.84,274l.06.62a2.23,2.23,0,0,0,2.27,1.85l242.55-.64A2.27,2.27,0,0,0,500,274c0-.2.08-.31.15-.63"/><path class="cls-6" d="M252.82,267.8h0l0,1.67h0l0,1.14.06.61.06.62a2.35,2.35,0,0,0,2.43,2.35l242.54-.64a2.35,2.35,0,0,0,2.35-2.43"/><line class="cls-7" x1="479.44" y1="84.01" x2="479.47" y2="82.34"/><line class="cls-7" x1="486.44" y1="82.35" x2="486.41" y2="84.02"/><path class="cls-8" d="M485.59,89.2H480.5a.83.83,0,0,1-.93-.95V86.18a.83.83,0,0,1,.94-.93h5.1a.82.82,0,0,1,.93.94v2.08A.93.93,0,0,1,485.59,89.2Z"/><path class="cls-8" d="M485.79,84.08l-5.62,0c-.41,0-.66-.35-.7-.76l0-.2c-.05-.42.34-.66.76-.71l5.62,0c.41,0,.66.34.7.76l0,.2A.9.9,0,0,1,485.79,84.08Z"/><path class="cls-9" d="M482.15,85.08h0c-.19.23-.37.46-.58.48a.84.84,0,0,1-.54-.26.13.13,0,0,1,0-.2l-.09-.82-.05-1.56-.08-2.7,0-2.28L480.7,75c-.05-.41.25-.54.66-.59l.21,0c.32.07.34.28.47.58l.07,2.69,0,2.29.07,2.7.06,1.55,0,.73Z"/><path class="cls-10" d="M481.53,88.16c-.41,0-.54-.25-.59-.66L480.89,85l0-.21-.08-.82-.06-1.56-.07-2.69,0-2.29c0-.41.26-.54.67-.59l.2,0c.32.07.34.28.37.48l0,2.29.07,2.7.06,1.55,0,.73,0,.21h0l0,2.28C482.22,87.78,481.94,88.12,481.53,88.16Z"/><path class="cls-9" d="M484.92,84.69a.46.46,0,0,1-.07.32.93.93,0,0,1-.49.37.89.89,0,0,1-.54-.26.14.14,0,0,1,0-.21h0l0-.73-.05-1.55-.07-2.7,0-2.28L483.6,75c-.05-.41.25-.55.66-.59a.15.15,0,0,0,.21,0,.66.66,0,0,1,.48.58l.07,2.69h0l0,2.29.08,2.69h0l.05,1.56Z"/><path class="cls-10" d="M484.34,88.19c-.41,0-.54-.26-.59-.67L483.7,85l0-.21h0l0-.73h0l-.06-1.55-.07-2.7,0-2.28c0-.42.26-.55.67-.59l.21,0c.32.07.34.27.36.48h0l0,2.28.07,2.7h0L485,84l0,.73,0,.42,0,2.28C485,87.8,484.64,88.05,484.34,88.19Z"/><path class="cls-8" d="M496.4,89.12h-5.1a.83.83,0,0,1-.93-.94V86.11a.82.82,0,0,1,.94-.93h5.09a.82.82,0,0,1,.93.94v2.08A1.08,1.08,0,0,1,496.4,89.12Z"/><path class="cls-8" d="M496.39,84l-5.62,0c-.41,0-.66-.34-.7-.75l0-.21c-.05-.41.34-.66.76-.7l5.62,0c.41,0,.66.35.7.76l0,.21A.92.92,0,0,1,496.39,84Z"/><path class="cls-9" d="M492.75,85h0c-.18.22-.37.45-.57.47a.88.88,0,0,1-.55-.25.15.15,0,0,1,0-.21l-.09-.82,0-1.56L491.4,80l0-2.29L491.3,75c-.05-.41.25-.55.66-.59a.15.15,0,0,0,.21,0,.63.63,0,0,1,.47.57l.08,2.7,0,2.28.07,2.7.06,1.55,0,.73Z"/><path class="cls-10" d="M492.13,88.11c-.41,0-.54-.26-.59-.67L491.49,85l0-.21-.08-.82-.06-1.55-.07-2.7,0-2.28c0-.42.26-.55.67-.59a.15.15,0,0,0,.21,0,.64.64,0,0,1,.47.57l0,2.29.07,2.69.06,1.56,0,.73,0,.2h0l0,2.29C492.82,87.72,492.54,88.06,492.13,88.11Z"/><path class="cls-9" d="M495.47,85.16a.85.85,0,0,1-.48.36.83.83,0,0,1-.55-.25c-.11-.09,0-.21-.14-.3h0l0-.73-.05-1.55-.07-2.7,0-2.28-.07-2.7c-.05-.41.25-.55.66-.59a.15.15,0,0,0,.21,0,.63.63,0,0,1,.47.57l.05,2.49h0l0,2.29.07,2.7h0l.06,1.55,0,.73A.54.54,0,0,0,495.47,85.16Z"/><path class="cls-10" d="M494.94,88.13c-.41,0-.54-.26-.59-.67L494.3,85l0-.2h0l0-.74-.06-1.55-.07-2.7,0-2.28c-.05-.41.25-.55.66-.59l.21,0c.32.07.34.28.36.48h0l0,2.29.07,2.69h0l.06,1.56,0,.73,0,.41,0,2.28C495.54,87.86,495.35,88.09,494.94,88.13Z"/><line class="cls-7" x1="465.33" y1="82.35" x2="465.41" y2="84.11"/><line class="cls-7" x1="458.24" y1="84.13" x2="458.27" y2="82.46"/><path class="cls-8" d="M464.48,89.2h-5.09a.83.83,0,0,1-.93-.95V86.18a.83.83,0,0,1,.94-.93h5.1a.82.82,0,0,1,.93.94v2.08A.93.93,0,0,1,464.48,89.2Z"/><path class="cls-8" d="M464.68,84.08l-5.62,0c-.41,0-.66-.35-.7-.76l0-.21c0-.41.34-.66.76-.7l5.62,0c.41,0,.65.34.7.75l0,.21C465.37,83.7,465,84.15,464.68,84.08Z"/><path class="cls-9" d="M460.9,84.79a.52.52,0,0,1-.16.43c-.09.11-.28.34-.48.36a.87.87,0,0,1-.55-.26c-.11-.09,0-.2-.13-.29h0l0-.73-.06-1.56-.07-2.7,0-2.28-.07-2.7c0-.41.25-.54.67-.59a.13.13,0,0,0,.2,0c.32.07.34.28.48.58l.07,2.69h0l0,2.29.07,2.7.05,1.55Z"/><path class="cls-10" d="M460.42,88.16c-.41,0-.54-.25-.59-.66l.07-2.4,0-.21h0l0-.73h0l0-1.55-.07-2.7,0-2.28c0-.42.25-.55.67-.59l.2,0c.32.07.34.27.36.48h0l0,2.28.07,2.7.06,1.55,0,.73-.16.44,0,2.28C461,87.89,460.74,88.23,460.42,88.16Z"/><path class="cls-9" d="M463.74,85h0c-.19.23-.37.46-.58.48s-.43-.17-.55-.26,0-.2-.13-.3h0l0-.73-.06-1.55-.07-2.7,0-2.28-.07-2.7c0-.41.26-.54.67-.59l.2,0c.32.07.34.28.37.48l.07,2.7h0l0,2.29.07,2.69.05,1.56,0,.73h0Z"/><path class="cls-10" d="M463.12,88.09c-.41,0-.55-.25-.59-.67l0-2.49,0-.2h0l0-.73-.06-1.56-.07-2.69,0-2.29c0-.41.26-.54.67-.59l.2,0c.32.07.34.28.37.48h0l0,2.29.07,2.7.06,1.55,0,.73h0l0,.21-.09.11,0,2.28C463.83,87.91,463.55,88.26,463.12,88.09Z"/><path class="cls-8" d="M475.08,89.14H470a.82.82,0,0,1-.93-.94V86.13a.82.82,0,0,1,.94-.93h5.1a.82.82,0,0,1,.93.94v2.08A.77.77,0,0,1,475.08,89.14Z"/><path class="cls-8" d="M475.28,84l-5.62,0c-.41,0-.66-.34-.7-.76l0-.2c-.05-.41.34-.66.76-.7l5.62,0c.41,0,.66.35.7.76l0,.2C476,83.85,475.69,84,475.28,84Z"/><path class="cls-9" d="M471.64,85h0c-.18.22-.37.45-.57.47a.88.88,0,0,1-.55-.25c-.11-.1,0-.21-.14-.3h0l0-.73-.05-1.56L470.29,80l0-2.29L470.19,75c-.05-.42.25-.55.66-.59a.15.15,0,0,0,.21,0c.32.07.34.27.47.57l.08,2.7h0l0,2.28.07,2.7h0l.06,1.55,0,.73Z"/><path class="cls-10" d="M471,88.11c-.41,0-.54-.26-.59-.67l.07-2.4,0-.2h0l0-.74h0l-.06-1.55-.07-2.7,0-2.28c0-.41.25-.55.67-.59l.2,0c.32.07.34.28.36.48h0l0,2.29.07,2.69.06,1.56,0,.73,0,.2h0l0,2.29C471.73,87.93,471.34,88.18,471,88.11Z"/><path class="cls-9" d="M474.43,84.84a.46.46,0,0,1-.07.32.85.85,0,0,1-.48.36.88.88,0,0,1-.55-.25c-.11-.09,0-.21-.14-.3l0-.73-.05-1.55h0L473.1,80l0-2.29h0l0-2.6c0-.41.26-.55.67-.59l.2,0c.32.07.34.28.36.48l.08,2.7h0l0,2.28h0l.07,2.7.06,1.55h0Z"/><path class="cls-10" d="M473.83,88.13c-.41,0-.54-.26-.59-.67L473.19,85l0-.21,0-.73-.06-1.55h0l-.07-2.7,0-2.28h0c.07-.32.25-.55.57-.48l.21,0c.32.07.34.28.36.48h0l0,2.29h0l.07,2.7,0,1.55h0l.09.82-.07.32,0,2.29C474.43,87.86,474.15,88.2,473.83,88.13Z"/><line class="cls-7" x1="444.13" y1="82.46" x2="444.09" y2="84.13"/><line class="cls-7" x1="437.03" y1="84.24" x2="436.96" y2="82.48"/><path class="cls-8" d="M443.16,89.22h-5.09a.83.83,0,0,1-.93-1V86.2a.83.83,0,0,1,.95-.93h5.09a.82.82,0,0,1,.93.94v2.08C444.06,88.81,443.8,89.36,443.16,89.22Z"/><path class="cls-8" d="M443.36,84.1l-5.62,0c-.41,0-.66-.35-.7-.76l0-.2c0-.42.35-.66.76-.71l5.62,0c.41,0,.66.34.7.75l0,.21C444,83.83,443.78,84.06,443.36,84.1Z"/><path class="cls-9" d="M439.72,85.1h0c-.18.23-.37.46-.57.48a.87.87,0,0,1-.55-.26.14.14,0,0,1,0-.2l-.08-.83-.06-1.55-.07-2.7,0-2.28-.07-2.7c0-.41.25-.54.67-.59l.2,0c.32.07.34.28.48.58l.07,2.69,0,2.29.07,2.69,0,1.56,0,.73Z"/><path class="cls-10" d="M439.11,88.18c-.42,0-.55-.25-.59-.66l0-2.49,0-.21-.09-.82-.06-1.56-.07-2.69,0-2.29c0-.41.25-.55.66-.59l.21,0c.32.07.34.28.36.48l0,2.29.07,2.69.06,1.56,0,.73,0,.21h0l0,2.28C439.7,87.91,439.43,88.25,439.11,88.18Z"/><path class="cls-9" d="M442.4,84.83a.48.48,0,0,1-.07.32c-.09.11-.28.34-.48.36a.89.89,0,0,1-.55-.26c-.11-.09,0-.2-.14-.3h0l0-.73-.05-1.55-.08-2.7,0-2.28L441,75c-.05-.41.25-.54.66-.59a.14.14,0,0,0,.21,0,.64.64,0,0,1,.47.58l.07,2.69h0l0,2.29.07,2.69h0l.06,1.56Z"/><path class="cls-10" d="M441.92,88.2c-.42,0-.55-.25-.59-.66l-.05-2.49,0-.21h0l0-.73h0l0-1.55-.07-2.7,0-2.29c0-.41.25-.54.67-.58l.2,0c.32.08.34.28.36.49h0l0,2.28.07,2.7h0l.06,1.55,0,.73,0,.41,0,2.29C442.51,87.93,442.24,88.28,441.92,88.2Z"/><path class="cls-8" d="M453.88,89.26h-5.1a.82.82,0,0,1-.92-.94V86.24a.82.82,0,0,1,.94-.93h5.1a.83.83,0,0,1,.93,1v2.08A.94.94,0,0,1,453.88,89.26Z"/><path class="cls-8" d="M454,84.05l-5.62,0c-.41,0-.65-.34-.7-.76l0-.2c0-.41.35-.66.76-.7l5.62,0c.41,0,.66.35.7.76l0,.2C454.67,83.87,454.28,84.12,454,84.05Z"/><path class="cls-9" d="M450.32,85.05h0c-.18.22-.36.45-.57.47a.91.91,0,0,1-.55-.25c-.11-.1,0-.21-.13-.3l0-.73L449,82.68,449,80l0-2.29L448.87,75c0-.42.26-.55.67-.59l.2,0c.32.07.34.27.48.57l.07,2.7,0,2.28.07,2.7.06,1.55,0,.73Z"/><path class="cls-10" d="M449.71,88.13c-.41,0-.55-.26-.59-.67L449.07,85l0-.21,0-.73L449,82.48l-.07-2.7,0-2.28c0-.41.26-.55.67-.59a.14.14,0,0,0,.2,0,.65.65,0,0,1,.48.57l0,2.29.07,2.69.05,1.56,0,.73,0,.2h0l0,2.29C450.42,88,450,88.2,449.71,88.13Z"/><path class="cls-9" d="M453,85.18a.82.82,0,0,1-.48.36c-.21,0-.43-.16-.55-.25a.15.15,0,0,1,0-.21h0l0-.73L452,82.8l-.07-2.7,0-2.28-.07-2.7c0-.41.26-.55.67-.59l.21,0c.32.07.34.28.36.48l.07,2.7h0l0,2.28.07,2.7h0l.06,1.55,0,.73C453.11,84.86,453.13,85.07,453,85.18Z"/><path class="cls-10" d="M452.52,88.15c-.41,0-.55-.26-.59-.67L451.88,85l0-.21h0l0-.73-.06-1.55-.07-2.7,0-2.28c0-.41.26-.55.67-.59l.2,0c.32.07.34.28.36.48h0l0,2.29.07,2.69h0l.06,1.56,0,.73,0,.41,0,2.28C453.11,87.88,452.84,88.22,452.52,88.15Z"/><line class="cls-7" x1="422.93" y1="82.58" x2="422.89" y2="84.24"/><line class="cls-7" x1="415.81" y1="84.14" x2="415.75" y2="82.59"/><path class="cls-8" d="M422.08,89.42H417a.82.82,0,0,1-.93-.94V86.41a.83.83,0,0,1,.95-.93h5.09a.83.83,0,0,1,.93,1v2.07A.94.94,0,0,1,422.08,89.42Z"/><path class="cls-8" d="M422.16,84.22l-5.62,0c-.41,0-.66-.35-.7-.76l0-.2c0-.41.35-.66.76-.7l5.62,0c.41,0,.66.35.7.76l0,.2C423,83.92,422.57,84.17,422.16,84.22Z"/><path class="cls-9" d="M418.59,84.9a.54.54,0,0,1-.16.43c-.09.11-.28.34-.48.36a.88.88,0,0,1-.55-.25c-.11-.1,0-.21-.13-.3h0l0-.73-.05-1.56-.07-2.69,0-2.29-.07-2.69c-.05-.42.25-.55.66-.59a.15.15,0,0,0,.21,0c.32.07.34.27.48.57l.07,2.7h0l0,2.28.08,2.7.05,1.55Z"/><path class="cls-10" d="M417.9,88.3c-.41,0-.54-.26-.59-.67l.07-2.4,0-.21h0l0-.73h0l-.06-1.55-.07-2.7,0-2.28c0-.41.26-.55.67-.59l.2,0c.32.07.34.27.36.48h0l0,2.29.07,2.69.06,1.56,0,.73,0,.41,0,2.28C418.5,88,418.32,88.25,417.9,88.3Z"/><path class="cls-9" d="M421.22,85.15h0c-.19.22-.37.45-.58.47a.84.84,0,0,1-.54-.26.13.13,0,0,1,0-.2h0l0-.73-.05-1.56L420,80.18l0-2.29-.07-2.69c-.05-.41.25-.55.66-.59l.21,0c.32.07.34.27.36.48l.07,2.7h0l0,2.28.07,2.7.06,1.55,0,.73h0Z"/><path class="cls-10" d="M420.71,88.32c-.41,0-.54-.26-.59-.67l0-2.49,0-.21h0l0-.73L420,82.67,420,80l0-2.28c-.05-.41.25-.55.66-.59l.21,0c.32.07.34.27.36.48h0l0,2.28.07,2.7.06,1.55,0,.74h0l0,.2-.09.12,0,2.28A.64.64,0,0,1,420.71,88.32Z"/><path class="cls-8" d="M432.68,89.37h-5.1a.82.82,0,0,1-.93-.94V86.35a.82.82,0,0,1,.94-.93h5.09a.82.82,0,0,1,.93.94v2.08A1,1,0,0,1,432.68,89.37Z"/><path class="cls-8" d="M432.76,84.16l-5.62,0c-.41,0-.66-.35-.7-.76l0-.21c0-.41.35-.66.76-.7l5.62,0c.41,0,.66.35.7.76l0,.21A.63.63,0,0,1,432.76,84.16Z"/><path class="cls-9" d="M429,85.27a.85.85,0,0,1-.48.36.83.83,0,0,1-.55-.25c-.11-.09,0-.21-.13-.3h0l0-.73-.05-1.55-.07-2.7,0-2.28-.07-2.7c0-.41.25-.55.67-.59a.14.14,0,0,0,.2,0c.32.07.34.28.48.57l.07,2.7h0l0,2.28.07,2.7h0l.05,1.56,0,.73C429.1,85,429.12,85.16,429,85.27Z"/><path class="cls-10" d="M428.5,88.24c-.41,0-.54-.26-.58-.67l.06-2.4,0-.2h0l0-.73-.06-1.56L427.86,80l0-2.29c0-.41.26-.54.67-.59l.2,0c.32.07.34.28.37.48h0l0,2.29.07,2.7.06,1.55,0,.73.05.41,0,2.29C429.1,88,429,88.29,428.5,88.24Z"/><path class="cls-9" d="M432,84.86a.46.46,0,0,1-.07.32c-.09.11-.27.34-.48.36a.91.91,0,0,1-.55-.25c-.11-.09,0-.21-.13-.3l0-.73-.06-1.56h0L430.67,80l0-2.29h0l0-2.6c0-.41.26-.55.67-.59a.15.15,0,0,0,.21,0,.63.63,0,0,1,.47.57l.07,2.7h0l0,2.28h0l.07,2.7.06,1.56h0Z"/><path class="cls-10" d="M431.31,88.26c-.41,0-.54-.25-.58-.67l-.05-2.49,0-.2,0-.73-.05-1.56h0l-.07-2.69,0-2.29h0c.07-.32.25-.55.57-.47l.21,0c.32.08.34.28.36.49h0l0,2.28h0l.07,2.7.06,1.55h0l0,.73-.07.32,0,2.29C431.91,88,431.73,88.22,431.31,88.26Z"/><line class="cls-7" x1="401.5" y1="82.5" x2="401.46" y2="84.17"/><line class="cls-7" x1="394.4" y1="84.28" x2="394.44" y2="82.61"/><path class="cls-8" d="M400.65,89.35h-5.1a.83.83,0,0,1-.93-1V86.34a.82.82,0,0,1,.94-.93h5.09a.82.82,0,0,1,.93.94v2.08A.92.92,0,0,1,400.65,89.35Z"/><path class="cls-8" d="M400.64,84.26,395,84.21c-.41.05-.66-.34-.7-.76l0-.2c-.05-.41.34-.66.76-.7l5.62,0c.41,0,.66.35.7.76l0,.2C401.44,84,401.05,84.21,400.64,84.26Z"/><path class="cls-9" d="M397.18,85a.4.4,0,0,1-.07.32c-.09.11-.27.34-.48.36a.91.91,0,0,1-.55-.25c-.11-.1,0-.21-.13-.3l0-.73-.06-1.56-.07-2.69h0l0-2.29-.07-2.69c0-.42.26-.55.67-.59a.14.14,0,0,0,.2,0,.64.64,0,0,1,.48.57l.07,2.7h0l0,2.28.07,2.7.06,1.55Z"/><path class="cls-10" d="M396.59,88.32c-.41,0-.55-.26-.59-.67L396,85.16V84l-.06-1.56,0-2.81h0l0-2.28c0-.41.26-.55.67-.59a.14.14,0,0,0,.2,0c.32.07.35.27.48.57h0l0,2.29.07,2.69.06,1.56h0l0,.73-.07.32,0,2.28C397.18,88.05,396.79,88.29,396.59,88.32Z"/><path class="cls-9" d="M399.81,85.28c-.09.11-.28.34-.48.36a.88.88,0,0,1-.55-.25.15.15,0,0,1,0-.21h0l0-.73-.06-1.56-.07-2.69,0-2.29-.07-2.69c0-.41.26-.55.67-.59l.2,0c.32.07.34.27.48.57l.07,2.7,0,2.28L400,83l.05,1.56,0,.73C400,85.05,399.9,85.17,399.81,85.28Z"/><path class="cls-10" d="M399.4,88.34c-.41,0-.55-.26-.59-.67l-.05-2.49,0-.21h0l0-.73-.06-1.55-.07-2.7,0-2.28c0-.41.26-.55.67-.59a.14.14,0,0,0,.2,0,.65.65,0,0,1,.48.57L400,80l0,2.81,0,1.55,0,.73.05.41,0,2.29A.89.89,0,0,1,399.4,88.34Z"/><path class="cls-8" d="M411.25,89.3h-5.1a.82.82,0,0,1-.93-.94V86.28a.82.82,0,0,1,.94-.93h5.09a.83.83,0,0,1,.93,1v2.08A.93.93,0,0,1,411.25,89.3Z"/><path class="cls-8" d="M411.45,84.18l-5.62,0c-.41,0-.66-.35-.71-.76l0-.21c0-.41.35-.66.76-.7l5.62,0c.41,0,.66.35.7.76l0,.21C412,83.91,411.77,84.25,411.45,84.18Z"/><path class="cls-9" d="M407.81,85.18h0c-.19.23-.37.45-.58.48a.89.89,0,0,1-.54-.26c-.12-.09,0-.21-.14-.3l0-.73-.06-1.55h0l-.07-2.7h0l0-2.28-.07-2.7c0-.41.26-.55.67-.59a.15.15,0,0,0,.21,0,.65.65,0,0,1,.47.57l0,2.81,0,2.29h0l.07,2.7.05,1.55,0,.73Z"/><path class="cls-10" d="M407.19,88.26c-.41,0-.55-.26-.59-.67l.06-2.4V84.05l-.06-1.55-.07-2.7h0l0-2.28c0-.42.26-.55.67-.59l.21,0c.32.07.34.27.47.57l0,2.29h0l.07,2.69L408,84h0l0,.73-.07.32-.09.11,0,2.28C407.78,88,407.51,88.33,407.19,88.26Z"/><path class="cls-9" d="M410.41,85.22a.85.85,0,0,1-.48.36c-.21,0-.43-.16-.55-.25s0-.21-.13-.3h0l0-.73-.06-1.55-.07-2.7,0-2.29-.07-2.69c0-.41.25-.55.67-.59l.2,0c.32.07.34.27.48.57l.07,2.7,0,2.28.07,2.7h0l.05,1.55,0,.74Z"/><path class="cls-10" d="M410,88.28c-.41,0-.55-.25-.59-.67l-.05-2.49,0-.2h0l0-.73-.06-1.56-.07-2.69,0-2.29c0-.41.26-.55.67-.59l.2,0c.32.07.35.28.37.48l0,2.29.08,2.69h0l.05,1.56,0,.73.05.41,0,2.29C410.59,88,410.32,88.35,410,88.28Z"/><line class="cls-7" x1="380.3" y1="82.62" x2="380.26" y2="84.28"/><line class="cls-7" x1="373.29" y1="84.28" x2="373.24" y2="82.72"/><path class="cls-8" d="M379.44,89.46h-5.09a.82.82,0,0,1-.93-.94V86.45a.83.83,0,0,1,.95-.93h5.09a.83.83,0,0,1,.93.95v2.07A.94.94,0,0,1,379.44,89.46Z"/><path class="cls-8" d="M379.53,84.26l-5.62-.05c-.41.05-.66-.34-.7-.76l0-.2c-.05-.41.34-.66.76-.7l5.62,0c.41,0,.66.35.7.76l0,.2A.63.63,0,0,1,379.53,84.26Z"/><path class="cls-9" d="M375.8,85.37c-.1.11-.28.34-.49.36a.88.88,0,0,1-.54-.25c-.12-.1,0-.21-.14-.3h0l0-.73-.05-1.56-.08-2.69,0-2.29,0-2.81c0-.41.25-.54.66-.59l.21,0c.32.07.34.28.48.58l.07,2.69,0,2.29.08,2.69.05,1.56,0,.73Z"/><path class="cls-10" d="M375.39,88.43c-.42,0-.55-.26-.59-.67l-.05-2.49,0-.21h0l0-.73h0l-.05-1.55-.07-2.7,0-2.28c0-.41.25-.55.67-.59a.14.14,0,0,0,.2,0,.65.65,0,0,1,.48.57l0,2.29.08,2.69.05,1.56,0,.73.05.41,0,2.29C376,88.16,375.8,88.39,375.39,88.43Z"/><path class="cls-9" d="M378.7,85.28h0c-.19.22-.37.45-.58.47a.88.88,0,0,1-.54-.25c-.12-.09,0-.21-.14-.3h0l0-.73-.05-1.56-.08-2.69,0-2.29-.07-2.69c-.05-.41.25-.55.66-.59l.21,0c.32.07.34.27.47.57l.07,2.7,0,2.28.07,2.7-.05,1.46,0,.73Z"/><path class="cls-10" d="M378.08,88.36c-.41,0-.54-.26-.59-.67l.07-2.4,0-.2h0l0-.73h0l-.05-1.56-.07-2.7,0-2.28c0-.41.25-.55.67-.59a.14.14,0,0,0,.2,0,.65.65,0,0,1,.48.57l0,2.29.08,2.7-.15,1.57,0,.73,0,.21h0l0,2.28C378.88,88.07,378.49,88.31,378.08,88.36Z"/><path class="cls-8" d="M390.05,89.41H385a.82.82,0,0,1-.93-.94V86.39a.83.83,0,0,1,.95-.93h5.09a.82.82,0,0,1,.93.94v2.08C391.15,89,390.78,89.44,390.05,89.41Z"/><path class="cls-8" d="M390.24,84.29l-5.62,0c-.41,0-.66-.35-.7-.76l0-.21c0-.41.35-.66.76-.7l5.62,0c.41,0,.66.35.7.76l0,.21C391.05,84,390.66,84.25,390.24,84.29Z"/><path class="cls-9" d="M386.51,85.41c-.09.11-.27.34-.48.36s-.43-.17-.55-.26a.14.14,0,0,1,0-.2h0l0-.73L385.43,83l-.07-2.69,0-2.29-.07-2.7c0-.41.26-.54.67-.58l.21,0c.32.07.34.28.47.58l.07,2.69,0,2.29.07,2.7.06,1.55,0,.73C386.58,85.09,386.49,85.2,386.51,85.41Z"/><path class="cls-10" d="M386,88.37c-.41,0-.55-.25-.59-.67l0-2.49,0-.2h0l0-.73-.06-1.56L385.23,80l0-2.29c0-.41.25-.54.67-.59l.2,0c.32.07.34.28.36.48l0,2.29.07,2.7.06,1.55,0,.73,0,.41,0,2.29C386.58,88.1,386.31,88.44,386,88.37Z"/><path class="cls-9" d="M389.3,85.22h0a.65.65,0,0,1-.57.48.89.89,0,0,1-.55-.26c-.11-.09,0-.2-.14-.3h0l0-.73L388,82.86l-.07-2.7,0-2.28-.07-2.7c-.05-.41.25-.55.66-.59l.21,0c.32.07.34.28.47.58l.08,2.69,0,2.29.07,2.69.06,1.56,0,.73Z"/><path class="cls-10" d="M388.8,88.39c-.42,0-.55-.25-.59-.66l0-2.49,0-.21h0l0-.73h0l-.06-1.55-.07-2.7,0-2.29c0-.41.25-.54.67-.59a.13.13,0,0,0,.2,0,.65.65,0,0,1,.48.58l0,2.28.07,2.7.05,1.55,0,.73,0,.21h0l0,2.29C389.48,88,389.21,88.35,388.8,88.39Z"/><line class="cls-7" x1="359.09" y1="82.73" x2="359.06" y2="84.4"/><line class="cls-7" x1="351.98" y1="84.3" x2="351.92" y2="82.74"/><path class="cls-8" d="M358.13,89.48H353a.82.82,0,0,1-.93-.94V86.47a.82.82,0,0,1,.94-.93h5.1a.84.84,0,0,1,.93,1v2.08A.93.93,0,0,1,358.13,89.48Z"/><path class="cls-8" d="M358.33,84.37l-5.62,0c-.41,0-.66-.35-.71-.76l0-.21c0-.41.35-.66.76-.7l5.62,0c.41,0,.66.35.71.76l0,.21A.9.9,0,0,1,358.33,84.37Z"/><path class="cls-9" d="M354.67,85.16c-.1.12,0,.21-.08.32h0a.82.82,0,0,1-.48.36c-.2,0-.43-.16-.54-.25s0-.21-.14-.3l0-.73L353.4,83h0l-.07-2.7,0-2.29-.07-2.69c0-.41.26-.55.67-.59a.15.15,0,0,0,.21,0,.63.63,0,0,1,.47.57l.07,2.7h0l0,2.28.07,2.7.06,1.55Z"/><path class="cls-10" d="M354.07,88.45c-.41,0-.55-.26-.59-.67l.06-2.4V84.24l-.06-1.55L353.4,80l0-2.28c0-.42.26-.55.67-.59l.21,0c.32.07.34.27.47.57h0l0,2.28.07,2.7.06,1.56h0l0,.73-.07.32,0,2.28C354.67,88.18,354.39,88.52,354.07,88.45Z"/><path class="cls-9" d="M357.29,85.41a.85.85,0,0,1-.48.36.91.91,0,0,1-.55-.25c-.11-.09,0-.21-.13-.3h0l0-.73-.06-1.55-.07-2.7L356,78l-.07-2.69c0-.41.25-.55.67-.59l.2,0c.32.07.34.27.48.57l.07,2.7,0,2.28.07,2.7h0l.05,1.55,0,.73Z"/><path class="cls-10" d="M356.88,88.47c-.41,0-.55-.26-.59-.67l-.05-2.49,0-.2h0l0-.73-.06-1.56-.07-2.69,0-2.29c0-.41.26-.55.67-.59l.21,0c.31.07.34.28.36.48l0,2.29.07,2.69h0l.05,1.56,0,.73.05.41,0,2.29C357.48,88.2,357.29,88.43,356.88,88.47Z"/><path class="cls-8" d="M368.84,89.52h-5.09a.83.83,0,0,1-.93-1V86.5a.82.82,0,0,1,.95-.92h5.09a.82.82,0,0,1,.93.94v2.08A1,1,0,0,1,368.84,89.52Z"/><path class="cls-8" d="M368.93,84.31l-5.62,0c-.41,0-.66-.35-.7-.76l0-.21c0-.41.35-.66.76-.7l5.62,0c.42,0,.66.35.71.76l0,.21C369.73,84,369.34,84.27,368.93,84.31Z"/><path class="cls-9" d="M365.29,85.31h0c-.19.23-.37.46-.58.48a.89.89,0,0,1-.54-.26c-.12-.09,0-.2-.14-.3l0-.73L364,83l-.07-2.7h0l0-2.28-.07-2.7c0-.41.26-.54.67-.59a.14.14,0,0,0,.21,0,.64.64,0,0,1,.47.58l.07,2.69h0l0,2.29.07,2.69.06,1.56,0,.73Z"/><path class="cls-10" d="M364.67,88.39c-.41,0-.55-.25-.59-.66l.07-2.4,0-1.15-.06-1.55-.07-2.7h0l0-2.28c-.05-.41.25-.55.66-.59l.21,0c.32.07.34.28.36.48h0l0,2.29.07,2.69.06,1.56,0,.73-.07.32-.1.11,0,2.29C365.47,88.1,365.08,88.35,364.67,88.39Z"/><path class="cls-9" d="M368,85.45c-.1.11-.28.34-.49.36a.84.84,0,0,1-.54-.26.13.13,0,0,1,0-.2h0l0-.73-.05-1.56-.07-2.69,0-2.29-.07-2.69c-.05-.42.25-.55.66-.59l.21,0c.32.07.34.27.48.57l.07,2.7,0,2.28.08,2.7.05,1.55,0,.73C368.08,85.13,368.1,85.33,368,85.45Z"/><path class="cls-10" d="M367.48,88.41c-.41,0-.55-.25-.59-.66l-.05-2.49,0-.21h0l0-.73-.06-1.55-.07-2.7,0-2.29c0-.41.26-.54.67-.58l.21,0c.32.07.34.28.36.49l0,2.28.07,2.7.05,1.55,0,.73,0,.41,0,2.29C368.08,88.14,367.89,88.37,367.48,88.41Z"/><line class="cls-7" x1="337.78" y1="82.75" x2="337.74" y2="84.42"/><path class="cls-8" d="M337.13,89.58H332a.82.82,0,0,1-.93-.94V86.56a.82.82,0,0,1,.94-.93h5.1a.83.83,0,0,1,.93.95v2.08C338.12,89.06,337.54,89.53,337.13,89.58Z"/><path class="cls-8" d="M337.22,84.37l-5.62-.05c-.41.05-.66-.34-.71-.75l0-.21c0-.41.35-.66.76-.7l5.62,0c.41,0,.66.35.71.76l0,.21C337.81,84.1,337.54,84.44,337.22,84.37Z"/><path class="cls-9" d="M333.48,85.48c-.09.11-.27.34-.48.36a.88.88,0,0,1-.54-.25c-.12-.09,0-.21-.14-.3h0l0-.73L332.29,83l-.07-2.69,0-2.29-.07-2.69c0-.41.26-.55.67-.59l.21,0c.31.07.34.27.47.57l.07,2.7,0,2.28.07,2.7h0l.06,1.55,0,.73C333.46,85.28,333.58,85.37,333.48,85.48Z"/><path class="cls-10" d="M333,88.45c-.41,0-.55-.26-.59-.67l-.05-2.49,0-.21h0l0-.73-.06-1.55-.07-2.7,0-2.28c0-.41.26-.55.67-.59a.15.15,0,0,0,.21,0,.65.65,0,0,1,.47.57l0,2.29.07,2.69.06,1.56,0,.73,0,.41,0,2.29C333.56,88.18,333.28,88.52,333,88.45Z"/><path class="cls-9" d="M336.27,85.3h0c-.09.11,0,.2,0,0-.18.22-.37.45-.57.47a.91.91,0,0,1-.55-.25c-.11-.1,0-.21-.13-.3h0l0-.73L335,82.93l-.07-2.69,0-2.29-.07-2.69c0-.42.25-.55.67-.59l.2,0c.32.07.34.27.48.57l.07,2.7,0,2.28.07,2.7.05,1.55,0,.73Z"/><path class="cls-10" d="M335.77,88.47c-.41,0-.55-.26-.59-.67l.06-2.4,0-.2h0l0-.73h0l-.06-1.56-.07-2.69,0-2.29c-.05-.41.25-.54.66-.59a.15.15,0,0,0,.21,0,.64.64,0,0,1,.47.58l0,2.28.07,2.7.06,1.55,0,.73,0,.21h0l0,2.28C336.37,88.2,336.09,88.54,335.77,88.47Z"/><path class="cls-8" d="M347.73,89.52h-5.09a.83.83,0,0,1-.93-1V86.5a.83.83,0,0,1,.95-.93h5.09a.82.82,0,0,1,.93.94v2.08A.93.93,0,0,1,347.73,89.52Z"/><path class="cls-8" d="M347.73,84.42l-5.62,0c-.42,0-.66-.35-.71-.76l0-.2c0-.41.35-.66.76-.71l5.62.05c.41-.05.66.35.7.76l0,.2C348.53,84.13,348.14,84.38,347.73,84.42Z"/><path class="cls-9" d="M344.09,85.43c-.1.11-.28.34-.49.36a.89.89,0,0,1-.54-.26.13.13,0,0,1,0-.2h0l0-.74L343,83l-.07-2.7,0-2.28-.07-2.7c0-.41.25-.54.66-.59l.21,0c.32.07.34.28.48.58l.07,2.69,0,2.29.08,2.7.05,1.55,0,.73C344.16,85.11,344.18,85.31,344.09,85.43Z"/><path class="cls-10" d="M343.56,88.39c-.41,0-.55-.25-.59-.67l-.05-2.49,0-.2h0l0-.73-.06-1.56-.07-2.69,0-2.29c0-.41.26-.54.67-.59l.21,0c.32.07.34.28.36.48l0,2.29.07,2.7.05,1.55,0,.73,0,.41,0,2.29C344.16,88.12,343.88,88.46,343.56,88.39Z"/><path class="cls-9" d="M346.9,85.45h0a.54.54,0,0,1-.69.38.84.84,0,0,1-.55-.26.14.14,0,0,1,0-.2h0l0-.73-.06-1.56-.07-2.69,0-2.29,0-2.81c0-.41.26-.54.67-.59l.21,0c.32.07.34.28.47.58L347,78l0,2.29.07,2.69.06,1.56,0,.73Z"/><path class="cls-10" d="M346.28,88.53c-.41,0-.55-.26-.59-.67l-.05-2.49,0-.21h0l0-.73h0l-.06-1.55-.07-2.7,0-2.28c0-.41.26-.55.67-.59a.14.14,0,0,0,.2,0,.65.65,0,0,1,.48.57l0,2.29.07,2.69L347,84.4l0,.73,0,.2h0l0,2.29A.9.9,0,0,1,346.28,88.53Z"/><line class="cls-7" x1="309.46" y1="84.43" x2="309.4" y2="82.88"/><line class="cls-7" x1="316.46" y1="82.77" x2="316.43" y2="84.44"/><path class="cls-8" d="M315.61,89.62h-5.09a.82.82,0,0,1-.93-.94V86.6a.82.82,0,0,1,.94-.93h5.1a.82.82,0,0,1,.93.94v2.08A.93.93,0,0,1,315.61,89.62Z"/><path class="cls-8" d="M315.7,84.41l-5.62,0c-.42,0-.66-.35-.71-.76l0-.21c0-.41.35-.66.76-.7l5.62,0c.41,0,.66.35.7.76l0,.21C316.41,84.23,316.11,84.37,315.7,84.41Z"/><path class="cls-9" d="M312.06,85.41h0c-.19.23-.37.45-.58.47s-.43-.16-.55-.25,0-.21-.13-.3l0-.73-.06-1.55-.07-2.7,0-2.28h0l0-2.61c0-.41.26-.55.67-.59l.21,0c.32.07.34.28.36.48L312,78h0l0,2.28,0,2.61.05,1.55,0,.73Z"/><path class="cls-10" d="M311.44,88.49c-.41,0-.55-.26-.59-.67l-.05-2.49,0-.2,0-.74-.06-1.55-.07-2.7,0-2.28h0c.07-.32.26-.55.58-.48a.13.13,0,0,0,.2,0c.32.07.34.28.48.58h0l0,2.28.08,2.7.05,1.55v.94h0l0,2.28C312.15,88.31,311.76,88.56,311.44,88.49Z"/><path class="cls-9" d="M314.77,85.54a.87.87,0,0,1-.48.37c-.21,0-.43-.17-.55-.26a.14.14,0,0,1,0-.2h0l0-.74-.06-1.55-.07-2.7,0-2.28-.08-2.7c0-.41.26-.54.67-.59a.14.14,0,0,0,.21,0,.64.64,0,0,1,.47.58l.07,2.69h0l0,2.29.07,2.69.06,1.56,0,.73C314.84,85.23,314.87,85.43,314.77,85.54Z"/><path class="cls-10" d="M314.25,88.51c-.41,0-.55-.26-.59-.67l-.05-2.49,0-.2h0l0-.73-.06-1.56-.07-2.69,0-2.29c0-.41.26-.55.67-.59a.14.14,0,0,0,.2,0c.32.07.34.28.48.58h0l0,2.28.07,2.7,0,1.55,0,.73,0,.41,0,2.29C314.84,88.24,314.66,88.47,314.25,88.51Z"/><path class="cls-8" d="M326.21,89.56h-5.09a.83.83,0,0,1-.93-.95V86.55a.82.82,0,0,1,.94-.93h5.1a.82.82,0,0,1,.93.94v2.08A.94.94,0,0,1,326.21,89.56Z"/><path class="cls-8" d="M326.3,84.35l-5.62,0c-.41,0-.66-.35-.71-.76l0-.21c0-.41.35-.65.76-.7l5.62,0c.41,0,.66.34.7.75l0,.21C327.1,84.06,326.73,84.52,326.3,84.35Z"/><path class="cls-9" d="M322.56,85.47c-.09.11-.27.34-.39.25a.89.89,0,0,1-.54-.26c-.12-.09,0-.21-.14-.3h0l0-.73-.06-1.55-.07-2.7,0-2.28-.08-2.7c0-.41.26-.55.67-.59l.21,0c.32.07.34.28.47.57l.07,2.7,0,2.28.07,2.7.06,1.56,0,.73Z"/><path class="cls-10" d="M322.15,88.52c-.41,0-.54-.25-.59-.66l.07-2.4,0-.21h0l0-.73L321.58,83l-.07-2.7,0-2.28c0-.41.25-.55.67-.59l.2,0c.32.07.34.27.36.48l0,2.28.07,2.7.06,1.56,0,.73,0,.41,0,2.28C322.75,88.26,322.47,88.6,322.15,88.52Z"/><path class="cls-9" d="M325.47,85.37h0c-.19.23-.37.46-.58.48a.84.84,0,0,1-.54-.26c-.12-.09,0-.2-.14-.29h0l0-.73L324.18,83l-.07-2.69,0-2.29-.07-2.7c0-.41.26-.54.67-.58l.21,0c.31.07.34.28.47.58l.07,2.69h0l0,2.29.07,2.7h0l.06,1.55,0,.73Z"/><path class="cls-10" d="M324.85,88.45c-.41,0-.55-.25-.59-.66l.06-2.4,0-.21h0l0-.73h0l-.06-1.55-.07-2.7,0-2.28c-.05-.41.25-.55.66-.59l.21,0c.32.07.34.27.36.48h0l0,2.28.07,2.7h0l.06,1.55,0,.74,0,.2-.09.11,0,2.29C325.56,88.28,325.37,88.5,324.85,88.45Z"/><line class="cls-7" x1="295.26" y1="82.88" x2="295.22" y2="84.55"/><line class="cls-7" x1="288.26" y1="84.54" x2="288.29" y2="82.88"/><path class="cls-8" d="M294.41,89.73h-5.1a.83.83,0,0,1-.93-.95V86.71a.82.82,0,0,1,.94-.93h5.1a.82.82,0,0,1,.92.94V88.8A.94.94,0,0,1,294.41,89.73Z"/><path class="cls-8" d="M294.59,84.41l-5.62,0c-.42,0-.66-.35-.71-.76l0-.21c0-.41.35-.66.76-.7l5.62,0c.41,0,.66.35.7.76l0,.21C295.3,84.23,295,84.57,294.59,84.41Z"/><path class="cls-9" d="M290.85,85.52h0c-.18.23-.37.46-.57.48s-.43-.17-.55-.26a.14.14,0,0,1,0-.2l-.08-.83-.06-1.55-.07-2.7h0l0-2.28-.07-2.7c0-.41.25-.55.67-.59l.2,0c.32.07.34.28.48.58l.07,2.69,0,2.29.07,2.69.05,1.56,0,.73Z"/><path class="cls-10" d="M290.24,88.6c-.42,0-.55-.25-.59-.67l0-2.49,0-.2-.09-.83-.06-1.55-.07-2.7,0-2.28c0-.41.26-.55.67-.59l.21,0c.32.07.34.28.36.48l0,2.29.07,2.69.06,1.56,0,.73,0,.2h0l0,2.29C291,88.31,290.76,88.65,290.24,88.6Z"/><path class="cls-9" d="M293.73,85.22c-.09.12,0,.21-.07.32a.87.87,0,0,1-.48.37c-.21,0-.43-.17-.55-.26s0-.21-.13-.3l0-.73-.06-1.55-.07-2.7,0-2.28h0l-.07-2.7c0-.41.26-.55.67-.59a.14.14,0,0,0,.2,0,.65.65,0,0,1,.48.57l.07,2.7h0l0,2.29.07,2.69.06,1.56-.15.63Z"/><path class="cls-10" d="M293.14,88.51c-.41,0-.55-.26-.59-.67l-.05-2.49V84.21l-.06-1.55-.07-2.7h0l0-2.29h0c0-.41.25-.54.67-.58l.2,0c.32.07.34.28.36.49h0l0,2.28.07,2.7.06,1.55,0,.73h0l-.07.32,0,2.29C293.73,88.24,293.46,88.58,293.14,88.51Z"/><path class="cls-8" d="M305.1,89.56H300a.83.83,0,0,1-.93-.95V86.54a.83.83,0,0,1,.94-.93h5.1a.82.82,0,0,1,.93.94v2.08A.91.91,0,0,1,305.1,89.56Z"/><path class="cls-8" d="M305.21,84.56l-5.62,0c-.41,0-.66-.34-.7-.75l0-.21c0-.41.35-.66.76-.7l5.62,0c.42,0,.66.35.71.76l0,.21A.91.91,0,0,1,305.21,84.56Z"/><path class="cls-9" d="M301.45,85.47h0c-.18.22-.36.45-.57.47a.91.91,0,0,1-.55-.25c-.11-.1,0-.21-.13-.3h0l0-.73-.06-1.56-.07-2.69,0-2.29L300,75.43c0-.42.26-.55.67-.59l.2,0c.32.08.34.28.48.58l.07,2.7,0,2.28.07,2.7.05,1.55,0,.73Z"/><path class="cls-10" d="M301,88.64c-.41,0-.55-.26-.59-.67l.07-2.4,0-.2h0l0-.73h0l-.05-1.56-.08-2.69,0-2.29c0-.41.25-.55.66-.59a.15.15,0,0,0,.21,0,.63.63,0,0,1,.47.57l0,2.29.07,2.7.06,1.55,0,.73,0,.21h0l0,2.28A1.12,1.12,0,0,1,301,88.64Z"/><path class="cls-9" d="M304.26,85.49c-.09.11-.27.34-.48.36a.84.84,0,0,1-.54-.26c-.12-.09,0-.2-.14-.29l0-.74L303.07,83l-.07-2.7L303,78l-.07-2.7c0-.41.26-.54.67-.59l.2,0c.32.07.35.28.37.49l.07,2.69h0l0,2.29h0l.07,2.69.05,1.56h0l0,.73A.45.45,0,0,1,304.26,85.49Z"/><path class="cls-10" d="M303.76,88.66c-.41,0-.55-.26-.59-.67l-.05-2.49.07-.32,0-.73-.06-1.55-.07-2.7,0-2.28c-.05-.42.25-.55.66-.59l.21,0c.32.07.34.27.47.57h0l0,2.29h0l.07,2.69.06,1.56h0l0,.73-.07.32,0,2.28C304.33,88.18,304.17,88.62,303.76,88.66Z"/><line class="cls-7" x1="266.94" y1="84.56" x2="266.98" y2="82.9"/><line class="cls-7" x1="273.94" y1="82.9" x2="273.91" y2="84.57"/><path class="cls-8" d="M273.18,89.64h-5.09a.82.82,0,0,1-.93-.94V86.62a.83.83,0,0,1,1-.93h5.09a.83.83,0,0,1,.93.95v2.08A.93.93,0,0,1,273.18,89.64Z"/><path class="cls-8" d="M273.29,84.63l-5.62,0c-.41,0-.66-.35-.7-.76l0-.2c-.05-.42.34-.66.76-.71l5.62,0c.41,0,.66.34.7.76l0,.2A.9.9,0,0,1,273.29,84.63Z"/><path class="cls-9" d="M269.54,85.54h0c-.19.23-.37.46-.58.48a.89.89,0,0,1-.54-.26c-.12-.09,0-.2-.14-.3l0-.73-.06-1.55-.07-2.7,0-2.28h0l.05-2.61c-.05-.41.25-.54.66-.59l.21,0c.32.07.34.28.36.49l.07,2.69h0l0,2.29.07,2.69.06,1.56,0,.73Z"/><path class="cls-10" d="M269,88.71c-.41.05-.54-.25-.59-.66l-.05-2.49,0-.21,0-.73,0-1.55-.08-2.7,0-2.29h0c.07-.31.25-.54.57-.47a.15.15,0,0,0,.21,0c.32.07.34.27.47.57h0l0,2.29.07,2.69.06,1.56,0,.73-.07.32-.09.11,0,2.29C269.72,88.33,269.44,88.67,269,88.71Z"/><path class="cls-9" d="M272.25,85.68c-.09.11-.27.34-.48.36a.84.84,0,0,1-.54-.26c-.12-.09,0-.2-.14-.29l0-.74-.06-1.55L271,80.5l0-2.28-.07-2.7c0-.41.26-.54.67-.59l.21,0c.32.07.34.28.47.58l.07,2.69h0l0,2.29.07,2.7.06,1.55,0,.73Z"/><path class="cls-10" d="M271.73,88.64c-.41,0-.55-.25-.59-.66l.06-2.4,0-.21,0-.73,0-1.55-.08-2.7h0l0-2.28c-.05-.42.25-.55.66-.59a.15.15,0,0,0,.21,0c.32.07.34.27.47.57h0l0,2.29.07,2.69.06,1.56,0,.73,0,.41,0,2.28C272.33,88.37,272.25,88.69,271.73,88.64Z"/><path class="cls-8" d="M283.81,89.79h-5.1a.82.82,0,0,1-.93-.94V86.77a.82.82,0,0,1,.94-.93h5.09a.83.83,0,0,1,.93,1v2.08C284.79,89.27,284.31,89.63,283.81,89.79Z"/><path class="cls-8" d="M283.89,84.58l-5.62,0c-.41,0-.66-.35-.7-.76l0-.21c0-.41.35-.66.76-.7l5.62,0c.41,0,.66.35.7.76l0,.21A.91.91,0,0,1,283.89,84.58Z"/><path class="cls-9" d="M280.25,85.58c-.09.11-.27.34-.48.36a.87.87,0,0,1-.55-.26c-.11-.09,0-.2-.13-.29h0l0-.73-.06-1.56L279,80.41l0-2.29-.07-2.7c0-.41.26-.54.67-.58l.2,0c.32.07.34.28.48.58l.07,2.7,0,2.28.07,2.7,0,1.55,0,.73A.21.21,0,0,0,280.25,85.58Z"/><path class="cls-10" d="M279.63,88.66c-.41,0-.54-.26-.58-.67L279,85.5l0-.21h0l0-.73L279,83l-.07-2.7,0-2.28c-.05-.41.25-.55.66-.59l.21,0c.32.07.34.27.36.48l0,2.29.07,2.69.06,1.56,0,.73,0,.41,0,2.28A.71.71,0,0,1,279.63,88.66Z"/><path class="cls-9" d="M283,85.51h0c-.19.22-.37.45-.58.47a.88.88,0,0,1-.54-.25.14.14,0,0,1,0-.21h0l0-.73,0-1.87-.07-2.7,0-2.28-.07-2.7c0-.41.25-.55.67-.59l.2,0c.32.07.34.28.48.57l.07,2.7h0l0,2.29.07,2.69h0l.05,1.56,0,.73Z"/><path class="cls-10" d="M282.44,88.68c-.41,0-.54-.26-.58-.67l-.05-2.49,0-.2h0l0-.74h0l0-1.66-.07-2.7,0-2.28c0-.42.25-.55.67-.59l.2,0c.32.07.34.27.36.48h0l0,2.28h0l.07,2.7h0l.06,1.55,0,.73,0,.21h0l0,2.29C283.13,88.3,282.86,88.64,282.44,88.68Z"/><path class="cls-8" d="M262.7,89.79h-5.1a.82.82,0,0,1-.93-.94V86.77a.82.82,0,0,1,.94-.93h5.09a.83.83,0,0,1,.93,1v2.08C263.68,89.27,263.11,89.74,262.7,89.79Z"/><path class="cls-8" d="M262.78,84.58l-5.62,0c-.41,0-.66-.34-.7-.76l0-.2c0-.41.35-.66.76-.7l5.62,0c.41,0,.66.35.7.76l0,.2C263.38,84.31,263.19,84.53,262.78,84.58Z"/><path class="cls-9" d="M259.14,85.58h0c-.18.22-.37.45-.57.47a.88.88,0,0,1-.55-.25c-.11-.1,0-.21-.13-.3h0l0-.73-.05-1.56-.07-2.69,0-2.29-.07-2.69c-.05-.41.25-.55.66-.59l.21,0c.32.07.34.27.48.57l.07,2.7,0,2.28.08,2.7.05,1.55,0,.73Z"/><path class="cls-10" d="M258.52,88.66c-.41,0-.54-.26-.58-.67l.06-2.4,0-.2h0l0-.74h0L258,83.1l-.07-2.7,0-2.28c0-.41.26-.55.67-.59l.2,0c.32.07.34.28.37.48l0,2.29.07,2.69.06,1.56,0,.73,0,.2h0l0,2.29C259.12,88.39,258.84,88.73,258.52,88.66Z"/><path class="cls-9" d="M261.82,85.3a.46.46,0,0,1-.07.32c-.1.11-.28.34-.49.36a.88.88,0,0,1-.54-.25c-.12-.1,0-.21-.14-.3l0-.73-.06-1.56-.07-2.69,0-2.29-.07-2.69c0-.42.26-.55.67-.59l.21,0c.32.07.34.27.36.48l.07,2.69h0l0,2.29,0,2.81.05,1.55h0Z"/><path class="cls-10" d="M261.33,88.68c-.41,0-.54-.26-.58-.67l-.05-2.49.07-.32,0-.73-.06-1.55-.07-2.7,0-2.28c0-.42.25-.55.67-.59l.2,0c.32.08.34.28.48.58h0l0,2.28L262,83l.06,1.56h0l0,.73-.07.32,0,2.28A.85.85,0,0,1,261.33,88.68Z"/><ellipse class="cls-11" cx="471.08" cy="97.85" rx="3.07" ry="2.49" transform="translate(-0.24 1.15) rotate(-0.14)"/><ellipse class="cls-12" cx="471.13" cy="98.97" rx="2.78" ry="2.19" transform="translate(-0.24 1.15) rotate(-0.14)"/><ellipse class="cls-9" cx="471.17" cy="99.75" rx="2.78" ry="2.19" transform="translate(-0.24 1.15) rotate(-0.14)"/><ellipse class="cls-11" cx="376.81" cy="98.09" rx="3.07" ry="2.49" transform="translate(-0.24 0.92) rotate(-0.14)"/><ellipse class="cls-12" cx="376.87" cy="99.06" rx="2.78" ry="2.19" transform="translate(-0.24 0.92) rotate(-0.14)"/><ellipse class="cls-9" cx="376.76" cy="99.99" rx="2.78" ry="2.19" transform="translate(-0.24 0.92) rotate(-0.14)"/><ellipse class="cls-11" cx="282.21" cy="98.35" rx="3.07" ry="2.49" transform="translate(-0.24 0.69) rotate(-0.14)"/><ellipse class="cls-12" cx="282.27" cy="99.32" rx="2.78" ry="2.19" transform="translate(-0.24 0.69) rotate(-0.14)"/><ellipse class="cls-9" cx="282.3" cy="100.25" rx="2.78" ry="2.19" transform="translate(-0.24 0.69) rotate(-0.14)"/><path class="cls-13" d="M206.13,226.73l-1-130a15.14,15.14,0,0,0-15.4-15.13l-75.9.53A15.3,15.3,0,0,0,98.7,97.56l1,129.75h0l.25,39.09a15.21,15.21,0,0,0,8.71,13.76,14.58,14.58,0,0,0,6.59,1.49l75.9-.53A16.88,16.88,0,0,0,197,280a15,15,0,0,0,9.35-14.15Zm-8.85,49.07a11.88,11.88,0,0,1-4.84,1.12l-47.26.35-30.85.36a10,10,0,0,1-5.66-1.63,10.35,10.35,0,0,1-5-8.8l-.29-39.69v-.23l-1-130.44a10.63,10.63,0,0,1,1.91-6,7.24,7.24,0,0,1,.51-.7A7.83,7.83,0,0,1,105.89,89a3.65,3.65,0,0,1,.3-.27l.1-.08.78-.6h0a5.81,5.81,0,0,1,.61-.4,2.68,2.68,0,0,1,.34-.16,11,11,0,0,1,1.76-.77c.31-.1.66-.18,1-.25a8.13,8.13,0,0,1,.84-.13l.39,0c.32,0,.63,0,1,0l11.36-.09h.39a1.94,1.94,0,0,1,1.44.85,1.49,1.49,0,0,1,.13.25,1.7,1.7,0,0,1,.14.35,1.66,1.66,0,0,1,.08.63,1.16,1.16,0,0,0,0,.32.49.49,0,0,0,0,.23,4.42,4.42,0,0,0,1.13,2.26.82.82,0,0,0,.19.18l.25.18a3.8,3.8,0,0,0,2.45.78L173.45,92a4,4,0,0,0,2.6-1l.2-.27a1.64,1.64,0,0,0,.21-.24,3.91,3.91,0,0,0,.85-2.43V88a2,2,0,0,1,2.07-2.17l11.37-.09a10.51,10.51,0,0,1,6,1.77,7.94,7.94,0,0,1,1.49,1.22l.3.29.43.48c.17.21.34.43.5.65a.44.44,0,0,0,.09.11.06.06,0,0,0,0,0,7.91,7.91,0,0,1,.9,1.61,10.47,10.47,0,0,1,.38,1,9.83,9.83,0,0,1,.52,3.27l.89,122.56.05,8v.3l.57,39.45A10.23,10.23,0,0,1,197.28,275.8Z"/><path class="cls-14" d="M204.08,264.83a10.21,10.21,0,0,1-5.63,9.27,8.65,8.65,0,0,1-4.83,1.13l-47,.55-30.74.23a10.62,10.62,0,0,1-5.67-1.61,10.41,10.41,0,0,1-5-8.82L104.91,226h0v-.23L104,95.45a3.46,3.46,0,0,1,0-.46,4.72,4.72,0,0,1,0-.65v0a4.79,4.79,0,0,1,.07-.51,3.1,3.1,0,0,1,.13-.76,6.15,6.15,0,0,1,.22-.87,6.61,6.61,0,0,1,.3-.85.2.2,0,0,1,0-.08l.31-.7a.3.3,0,0,1,.07-.11,4.34,4.34,0,0,1,.23-.43c.12-.22.25-.42.37-.62s.36-.51.56-.75c0,0,0,0,0,0a9.81,9.81,0,0,1,.66-.75c.2-.22.42-.4.64-.6l.1-.08.78-.6h0a8.79,8.79,0,0,1,.87-.53,6.65,6.65,0,0,1,.89-.43c.32-.14.64-.27.95-.37s.67-.18,1-.25a7.94,7.94,0,0,1,.83-.13l.4,0c.31,0,.63,0,.94,0l11.37-.09a2.41,2.41,0,0,1,.38,0,2.19,2.19,0,0,1,1.66,2,4.26,4.26,0,0,0,1.2,2.79.5.5,0,0,0,.13.12.71.71,0,0,0,.2.18,1.44,1.44,0,0,0,.25.18,3.76,3.76,0,0,0,2.44.78l42.86-.26a3.93,3.93,0,0,0,2.59-.95l.2-.27a1.64,1.64,0,0,0,.21-.24,3.86,3.86,0,0,0,.85-2.43v-.07a2,2,0,0,1,2.08-2.17l11.36-.09a10.51,10.51,0,0,1,6,1.77,8,8,0,0,1,1.5,1.22,4,4,0,0,1,.29.29l.44.48.5.65a.26.26,0,0,0,.08.11.06.06,0,0,0,0,0,9.75,9.75,0,0,1,.9,1.61,8.28,8.28,0,0,1,.38,1,10.81,10.81,0,0,1,.49,3l.93,122.79,0,8v.3Z"/><path class="cls-1" d="M116,84.26h84.33a3.8,3.8,0,0,1,3.8,3.8V211.21a0,0,0,0,1,0,0H119.75a3.8,3.8,0,0,1-3.8-3.8V84.26A0,0,0,0,1,116,84.26Z"/><path class="cls-15" d="M105.13,240.49h85.33a3.8,3.8,0,0,1,3.8,3.8V276a0,0,0,0,1,0,0H108.92a3.8,3.8,0,0,1-3.8-3.8V240.49A0,0,0,0,1,105.13,240.49Z" transform="translate(299.38 516.5) rotate(180)"/><path class="cls-16" d="M207.63,225.23l-1-130a15.14,15.14,0,0,0-15.4-15.13l-75.9.53a15.3,15.3,0,0,0-15.13,15.4l1,129.75h0l.25,39.09a15.21,15.21,0,0,0,8.71,13.76,14.58,14.58,0,0,0,6.59,1.49l75.9-.53a16.88,16.88,0,0,0,5.9-1.15,15,15,0,0,0,9.35-14.15Zm-8.85,49.07a11.88,11.88,0,0,1-4.84,1.12l-47.26.35-30.85.36a10,10,0,0,1-5.66-1.63,10.35,10.35,0,0,1-5-8.8L104.89,226v-.23l-1-130.44a10.63,10.63,0,0,1,1.91-6,7.24,7.24,0,0,1,.51-.7,7.83,7.83,0,0,1,1.06-1.09,3.65,3.65,0,0,1,.3-.27l.1-.08.78-.6h0a5.81,5.81,0,0,1,.61-.4,2.68,2.68,0,0,1,.34-.16,11,11,0,0,1,1.76-.77c.31-.1.66-.18,1-.25a8.13,8.13,0,0,1,.84-.13l.39,0c.32,0,.63,0,1,0l11.36-.09h.39a1.94,1.94,0,0,1,1.44.85,1.49,1.49,0,0,1,.13.25,1.7,1.7,0,0,1,.14.35,1.66,1.66,0,0,1,.08.63,1.16,1.16,0,0,0,0,.32.49.49,0,0,0,0,.23,4.42,4.42,0,0,0,1.13,2.26.82.82,0,0,0,.19.18l.25.18a3.8,3.8,0,0,0,2.45.78L175,90.48a4,4,0,0,0,2.6-1l.2-.27A1.64,1.64,0,0,0,178,89a3.91,3.91,0,0,0,.85-2.43v-.07a2,2,0,0,1,2.07-2.17l11.37-.09a10.51,10.51,0,0,1,6,1.77,7.94,7.94,0,0,1,1.49,1.22l.3.29.43.48c.17.21.34.43.5.65a.44.44,0,0,0,.09.11.06.06,0,0,0,0,0,7.91,7.91,0,0,1,.9,1.61,10.47,10.47,0,0,1,.38,1,9.83,9.83,0,0,1,.52,3.27l.89,122.56.05,8v.3l.57,39.45A10.23,10.23,0,0,1,198.78,274.3Z"/><text class="cls-17" transform="translate(126.7 147.74)">SEA<tspan class="cls-18" x="26.5" y="0">R</tspan><tspan x="35.14" y="0">CH</tspan></text><text class="cls-19" transform="translate(121.37 263.07)"><tspan class="cls-20">R</tspan><tspan x="4.84" y="0">e</tspan><tspan class="cls-21" x="9.22" y="0">c</tspan><tspan x="13.51" y="0">ent </tspan><tspan class="cls-22" x="27.39" y="0">S</tspan><tspan x="32.13" y="0">ea</tspan><tspan class="cls-23" x="40.77" y="0">r</tspan><tspan x="43.78" y="0">ches</tspan></text><line class="cls-24" x1="126.7" y1="185.14" x2="194.25" y2="185.14"/></svg>