<?xml version="1.0" encoding="utf-8"?>
<!-- Generator: Adobe Illustrator 22.1.0, SVG Export Plug-In . SVG Version: 6.00 Build 0)  -->
<svg version="1.1" id="Layer_1" xmlns="http://www.w3.org/2000/svg" xmlns:xlink="http://www.w3.org/1999/xlink" x="0px" y="0px"
	 viewBox="0 0 600 356" style="enable-background:new 0 0 600 356;" xml:space="preserve">
<style type="text/css">
	.st0{fill:#E30000;}
	.st1{fill:#FFFFFF;}
	.st2{fill:#F7F7F7;}
	.st3{fill:#0075FF;}
	.st4{fill:#444444;}
	.st5{fill:#6EBEFF;}
	.st6{fill:#C6C6C6;}
	.st7{fill:#04B100;}
	.st8{fill:#C1C1C1;}
	.st9{fill:#B5B5B5;}
	.st10{fill:#777777;}
	.st11{fill:none;stroke:#0075FF;stroke-miterlimit:10;}
	.st12{fill:none;stroke:#B3D9FF;stroke-miterlimit:10;}
	.st13{fill:none;stroke:#B3D9FF;stroke-linejoin:round;stroke-miterlimit:10;}
	.st14{fill:#353535;}
	.st15{fill:#161616;}
	.st16{opacity:0.4;}
	.st17{fill:url(#SVGID_1_);}
	.st18{fill:url(#SVGID_2_);}
	.st19{fill:url(#SVGID_3_);}
	.st20{fill:url(#SVGID_4_);}
	.st21{fill:#00A532;stroke:#0075FF;stroke-width:4;stroke-miterlimit:10;}
	.st22{fill:none;stroke:#0075FF;stroke-width:4;stroke-miterlimit:10;}
	.st23{fill:#132A8C;stroke:#0075FF;stroke-width:4;stroke-miterlimit:10;}
	.st24{fill:#EFEFEF;}
	.st25{fill:#AAAAAA;}
	.st26{fill:#F2F2F2;}
	.st27{fill-opacity:0.1;}
	.st28{fill:#AFB9C5;}
	.st29{fill:#C5CFD6;}
	.st30{opacity:0.3459;}
	.st31{fill:#E1F1FF;}
	.st32{fill:#9DCBEA;}
	.st33{fill:#DDE3E9;}
	.st34{opacity:0.7;}
	.st35{fill:#D4A181;}
	.st36{fill:#191847;}
	.st37{fill:#BA8B72;}
	.st38{fill:#AA0000;}
	.st39{fill:#EA0000;}
	.st40{fill:#0050A0;}
	.st41{fill:#C9C9C9;}
	.st42{fill:#8C8C8C;}
	.st43{fill:#668BFF;}
	.st44{opacity:0.69;fill:#ABDBFF;enable-background:new    ;}
	.st45{fill:none;stroke:#CBCBCB;stroke-width:8;}
	.st46{fill:#89C5CC;}
	.st47{fill:#C1DEE2;}
	.st48{fill:#69A1AC;}
	.st49{fill:none;}
	.st50{fill:#784931;}
	.st51{fill:#2F3676;}
	.st52{fill:#B28B67;}
	.st53{fill:#323337;}
	.st54{fill:#D9FFFD;}
	.st55{fill:#B6FFFA;}
	.st56{fill:#90E0DA;}
	.st57{fill:#005BB5;}
	.st58{fill:#910000;}
</style>
<rect y="-0.1" class="st0" width="600" height="356.2"/>
<title>nso-splash</title>
<g>
	<path class="st1" d="M-257.5,489.4h-86.7c-7.7,0-13.9-6.2-13.9-13.9V257.3c0-7.7,6.2-13.9,13.9-13.9h86.7c7.7,0,13.9,6.2,13.9,13.9
		v218.1C-243.6,483.1-249.8,489.4-257.5,489.4z"/>
	<path class="st2" d="M-256.5,365.7h-89c-3.6,0-6.5-2.9-6.5-6.5v-67c0-3.6,2.9-6.5,6.5-6.5h89c3.6,0,6.5,2.9,6.5,6.5v67
		C-250,362.8-252.9,365.7-256.5,365.7z"/>
	<path class="st2" d="M-256.9,479.7h-89c-3.6,0-6.5-2.9-6.5-6.5v-94.6c0-3.6,2.9-6.5,6.5-6.5h89c3.6,0,6.5,2.9,6.5,6.5v94.6
		C-250.4,476.8-253.3,479.7-256.9,479.7z"/>
	<g>
		<ellipse class="st3" cx="-256.9" cy="269.9" rx="6.8" ry="6.7"/>
		<path class="st4" d="M-281,276.6h-68.3c-1.2,0-2.2-1-2.2-2.2v-9c0-1.2,1-2.2,2.2-2.2h68.3c1.2,0,2.2,1,2.2,2.2v9
			C-278.8,275.6-279.8,276.6-281,276.6z"/>
	</g>
	<ellipse class="st5" cx="-337.7" cy="299.6" rx="6.5" ry="6.4"/>
	<ellipse class="st6" cx="-263.5" cy="299.6" rx="6.5" ry="6.4"/>
	<ellipse class="st7" cx="-337.9" cy="351.4" rx="6.5" ry="6.4"/>
	<ellipse class="st0" cx="-322.7" cy="351.4" rx="6.5" ry="6.4"/>
	<g>
		<path class="st4" d="M-281.3,301.5h-46c-0.6,0-1.2-0.5-1.2-1.2v-5c0-0.6,0.5-1.2,1.2-1.2h46c0.6,0,1.2,0.5,1.2,1.2v5
			C-280.2,301-280.7,301.5-281.3,301.5z"/>
		<path class="st8" d="M-302.2,306.1h-25c-0.6,0-1.2-0.5-1.2-1.2v-0.4c0-0.6,0.5-1.2,1.2-1.2h25c0.6,0,1.2,0.5,1.2,1.2v0.4
			C-301.1,305.6-301.6,306.1-302.2,306.1z"/>
	</g>
	<path class="st4" d="M-297,322.8h-46c-0.6,0-1.2-0.5-1.2-1.2v-5c0-0.6,0.5-1.2,1.2-1.2h46c0.6,0,1.2,0.5,1.2,1.2v5
		C-295.8,322.3-296.3,322.8-297,322.8z"/>
	<path class="st9" d="M-260.5,329.8h-82.4c-0.6,0-1.2-0.5-1.2-1.2v-0.4c0-0.6,0.5-1.2,1.2-1.2h82.4c0.6,0,1.2,0.5,1.2,1.2v0.4
		C-259.4,329.3-259.9,329.8-260.5,329.8z"/>
	<path class="st9" d="M-305.3,405.9h-37.6c-0.6,0-1.2-0.5-1.2-1.2v-0.4c0-0.6,0.5-1.2,1.2-1.2h37.6c0.6,0,1.2,0.5,1.2,1.2v0.4
		C-304.1,405.4-304.7,405.9-305.3,405.9z"/>
	<path class="st9" d="M-268.4,334.2h-74.5c-0.6,0-1.2-0.5-1.2-1.2v-0.4c0-0.6,0.5-1.2,1.2-1.2h74.5c0.6,0,1.2,0.5,1.2,1.2v0.4
		C-267.3,333.6-267.8,334.2-268.4,334.2z"/>
	<path class="st9" d="M-295,338.5h-47.9c-0.6,0-1.2-0.5-1.2-1.2V337c0-0.6,0.5-1.2,1.2-1.2h47.9c0.6,0,1.2,0.5,1.2,1.2v0.4
		C-293.8,338-294.4,338.5-295,338.5z"/>
	<path class="st3" d="M-264.2,357.7h-41.1c-3,0-5.4-2.4-5.4-5.4v-2c0-3,2.4-5.4,5.4-5.4h41.1c3,0,5.4,2.4,5.4,5.4v2
		C-258.8,355.2-261.2,357.7-264.2,357.7z"/>
	<ellipse class="st6" cx="-263.6" cy="386.2" rx="6.5" ry="6.4"/>
	<g>
		<path class="st4" d="M-297.4,388.1h-46c-0.6,0-1.2-0.5-1.2-1.2v-5c0-0.6,0.5-1.2,1.2-1.2h46c0.6,0,1.2,0.5,1.2,1.2v5
			C-296.2,387.6-296.8,388.1-297.4,388.1z"/>
		<path class="st8" d="M-318.3,392.7h-25c-0.6,0-1.2-0.5-1.2-1.2v-0.4c0-0.6,0.5-1.2,1.2-1.2h25c0.6,0,1.2,0.5,1.2,1.2v0.4
			C-317.1,392.2-317.7,392.7-318.3,392.7z"/>
	</g>
	<ellipse class="st5" cx="-337.8" cy="415.8" rx="6.5" ry="6.4"/>
	<g>
		<path class="st4" d="M-281.4,417.7h-46c-0.6,0-1.2-0.5-1.2-1.2v-5c0-0.6,0.5-1.2,1.2-1.2h46c0.6,0,1.2,0.5,1.2,1.2v5
			C-280.3,417.2-280.8,417.7-281.4,417.7z"/>
		<path class="st8" d="M-302.3,422.4h-25c-0.6,0-1.2-0.5-1.2-1.2v-0.4c0-0.6,0.5-1.2,1.2-1.2h25c0.6,0,1.2,0.5,1.2,1.2v0.4
			C-301.2,421.8-301.7,422.4-302.3,422.4z"/>
	</g>
	<path class="st10" d="M-258.9,419.1h-3.4c-0.9,0-1.6-0.7-1.6-1.6v-3.3c0-0.9,0.7-1.6,1.6-1.6h3.4c0.9,0,1.6,0.7,1.6,1.6v3.3
		C-257.4,418.4-258.1,419.1-258.9,419.1z"/>
	<ellipse class="st5" cx="-337.8" cy="436.3" rx="6.5" ry="6.4"/>
	<g>
		<path class="st4" d="M-281.4,438.2h-46c-0.6,0-1.2-0.5-1.2-1.2v-5c0-0.6,0.5-1.2,1.2-1.2h46c0.6,0,1.2,0.5,1.2,1.2v5
			C-280.3,437.7-280.8,438.2-281.4,438.2z"/>
		<path class="st8" d="M-302.3,442.9h-25c-0.6,0-1.2-0.5-1.2-1.2v-0.4c0-0.6,0.5-1.2,1.2-1.2h25c0.6,0,1.2,0.5,1.2,1.2v0.4
			C-301.2,442.3-301.7,442.9-302.3,442.9z"/>
	</g>
	<path class="st10" d="M-258.9,439.6h-3.4c-0.9,0-1.6-0.7-1.6-1.6v-3.3c0-0.9,0.7-1.6,1.6-1.6h3.4c0.9,0,1.6,0.7,1.6,1.6v3.3
		C-257.4,438.9-258.1,439.6-258.9,439.6z"/>
	<ellipse class="st5" cx="-337.8" cy="456.4" rx="6.5" ry="6.4"/>
	<g>
		<path class="st4" d="M-281.4,458.3h-46c-0.6,0-1.2-0.5-1.2-1.2v-5c0-0.6,0.5-1.2,1.2-1.2h46c0.6,0,1.2,0.5,1.2,1.2v5
			C-280.3,457.8-280.8,458.3-281.4,458.3z"/>
		<path class="st8" d="M-302.3,463h-25c-0.6,0-1.2-0.5-1.2-1.2v-0.4c0-0.6,0.5-1.2,1.2-1.2h25c0.6,0,1.2,0.5,1.2,1.2v0.4
			C-301.2,462.5-301.7,463-302.3,463z"/>
	</g>
	<path class="st10" d="M-258.9,459.7h-3.4c-0.9,0-1.6-0.7-1.6-1.6v-3.3c0-0.9,0.7-1.6,1.6-1.6h3.4c0.9,0,1.6,0.7,1.6,1.6v3.3
		C-257.4,459-258.1,459.7-258.9,459.7z"/>
	<path class="st1" d="M-255.9,492.4h-90c-6.8,0-12.3-5.5-12.3-12.3v-15.5h114.5v15.5C-243.6,486.9-249.1,492.4-255.9,492.4z"/>
	<path class="st11" d="M-340.3,476.5h-5.3c-0.6,0-1-0.5-1-1v-5.3c0-0.6,0.5-1,1-1h5.3c0.6,0,1,0.5,1,1v5.3
		C-339.2,476-339.7,476.5-340.3,476.5z"/>
	<path class="st12" d="M-257.6,476.5h-2.8c-0.6,0-1-0.5-1-1v-5.3c0-0.6,0.5-1,1-1h2.8c0.6,0,1,0.5,1,1v5.3
		C-256.6,476-257.1,476.5-257.6,476.5z"/>
	<ellipse class="st12" cx="-287" cy="472.8" rx="3.5" ry="3.5"/>
	<polygon class="st13" points="-314.9,469.1 -319,475.8 -311.6,475.9 	"/>
</g>
<g>
	<g>
		<path class="st14" d="M-362.3,273.1c0-0.5,0.4-0.9,0.9-0.9h0.3c0.2,0,0.3,0.1,0.3,0.3v8.8c0,0.2-0.1,0.3-0.3,0.3h-0.3
			c-0.5,0-0.9-0.4-0.9-0.9V273.1z"/>
	</g>
	<g>
		<path class="st14" d="M-362.3,289.9c0-0.5,0.4-0.9,0.9-0.9h0.3c0.2,0,0.3,0.1,0.3,0.3v15.9c0,0.2-0.1,0.3-0.3,0.3h-0.3
			c-0.5,0-0.9-0.4-0.9-0.9V289.9z"/>
	</g>
	<g>
		<path class="st14" d="M-362.3,311.8c0-0.5,0.4-0.9,0.9-0.9h0.3c0.2,0,0.3,0.1,0.3,0.3v15.9c0,0.2-0.1,0.3-0.3,0.3h-0.3
			c-0.5,0-0.9-0.4-0.9-0.9V311.8z"/>
	</g>
	<g>
		<path class="st14" d="M-240.6,296.6c0-0.2,0.1-0.3,0.3-0.3l0,0c0.5,0,0.9,0.4,0.9,0.9v25.3c0,0.5-0.4,0.9-0.9,0.9l0,0
			c-0.2,0-0.3-0.1-0.3-0.3V296.6z"/>
	</g>
	<path class="st15" d="M-257.7,240.5H-344c-9.8,0-17.7,7.9-17.7,17.7v219.6c0,9.8,7.9,17.7,17.7,17.7h86.3c9.8,0,17.7-7.9,17.7-17.7
		V258.1C-240,248.4-247.9,240.5-257.7,240.5z M-358,258.1c0-7.7,6.3-14,14-14h8.9c1.1,0.4,1.8,1.4,1.8,2.5c0,3.7,3,6.8,6.8,6.8h51.1
		c3.7,0,6.8-3,6.8-6.8c0-1.2,0.8-2.2,1.8-2.5h9.2c7.7,0,14,6.3,14,14v219.6c0,7.7-6.3,14-14,14H-344c-7.7,0-14-6.3-14-14V258.1z"/>
	<g class="st16">
		
			<radialGradient id="SVGID_1_" cx="-197.4722" cy="2.8969" r="0.3049" gradientTransform="matrix(2.039037e-14 333 -155.284 9.508403e-15 208.0031 66135)" gradientUnits="userSpaceOnUse">
			<stop  offset="0" style="stop-color:#353535"/>
			<stop  offset="1" style="stop-color:#404040;stop-opacity:0"/>
		</radialGradient>
		<path class="st17" d="M-242.2,267v210.7c0,8.9-7.2,16.2-16.2,16.2h-22v0.6h22c9.3,0,16.8-7.5,16.8-16.8V267H-242.2z"/>
	</g>
	<g>
		
			<linearGradient id="SVGID_2_" gradientUnits="userSpaceOnUse" x1="-327.5326" y1="742.7293" x2="-367.9218" y2="506.0795" gradientTransform="matrix(1 0 0 1 4 -248)">
			<stop  offset="0" style="stop-color:#404040;stop-opacity:0"/>
			<stop  offset="1" style="stop-color:#171717"/>
		</linearGradient>
		<path class="st18" d="M-359.6,270.9v206.7c0,8.9,7.2,16.2,16.2,16.2h53.7v0.6h-53.7c-9.3,0-16.8-7.5-16.8-16.8V270.9H-359.6z"/>
	</g>
</g>
<g>
	<g>
		<path class="st1" d="M343.3,299.4h-86.7c-7.7,0-13.9-6.2-13.9-13.9V67.4c0-7.7,6.2-13.9,13.9-13.9h86.7c7.7,0,13.9,6.2,13.9,13.9
			v218.1C357.2,293.2,351,299.4,343.3,299.4z"/>
		<path class="st2" d="M344.4,175.8h-89c-3.6,0-6.5-2.9-6.5-6.5v-67c0-3.6,2.9-6.5,6.5-6.5h89c3.6,0,6.5,2.9,6.5,6.5v67
			C350.9,172.9,347.9,175.8,344.4,175.8z"/>
		<path class="st2" d="M343.9,289.8h-89c-3.6,0-6.5-2.9-6.5-6.5v-94.6c0-3.6,2.9-6.5,6.5-6.5h89c3.6,0,6.5,2.9,6.5,6.5v94.6
			C350.4,286.9,347.5,289.8,343.9,289.8z"/>
		<g>
			<ellipse class="st3" cx="343.9" cy="80" rx="6.8" ry="6.7"/>
			<path class="st4" d="M319.8,86.7h-68.3c-1.2,0-2.2-1-2.2-2.2v-9c0-1.2,1-2.2,2.2-2.2h68.3c1.2,0,2.2,1,2.2,2.2v9
				C322.1,85.7,321.1,86.7,319.8,86.7z"/>
		</g>
		<ellipse class="st5" cx="263.1" cy="109.7" rx="6.5" ry="6.4"/>
		<ellipse class="st6" cx="337.4" cy="109.7" rx="6.5" ry="6.4"/>
		<ellipse class="st7" cx="262.9" cy="161.4" rx="6.5" ry="6.4"/>
		<ellipse class="st0" cx="278.1" cy="161.4" rx="6.5" ry="6.4"/>
		<g>
			<path class="st4" d="M319.5,111.6h-46c-0.6,0-1.2-0.5-1.2-1.2v-5c0-0.6,0.5-1.2,1.2-1.2h46c0.6,0,1.2,0.5,1.2,1.2v5
				C320.7,111.1,320.2,111.6,319.5,111.6z"/>
			<path class="st8" d="M298.6,116.2h-25c-0.6,0-1.2-0.5-1.2-1.2v-0.4c0-0.6,0.5-1.2,1.2-1.2h25c0.6,0,1.2,0.5,1.2,1.2v0.4
				C299.8,115.7,299.3,116.2,298.6,116.2z"/>
		</g>
		<path class="st4" d="M303.9,132.9h-46c-0.6,0-1.2-0.5-1.2-1.2v-5c0-0.6,0.5-1.2,1.2-1.2h46c0.6,0,1.2,0.5,1.2,1.2v5
			C305,132.3,304.5,132.9,303.9,132.9z"/>
		<path class="st9" d="M340.3,139.9h-82.4c-0.6,0-1.2-0.5-1.2-1.2v-0.4c0-0.6,0.5-1.2,1.2-1.2h82.4c0.6,0,1.2,0.5,1.2,1.2v0.4
			C341.5,139.3,341,139.9,340.3,139.9z"/>
		<path class="st9" d="M295.6,216H258c-0.6,0-1.2-0.5-1.2-1.2v-0.4c0-0.6,0.5-1.2,1.2-1.2h37.6c0.6,0,1.2,0.5,1.2,1.2v0.4
			C296.7,215.5,296.2,216,295.6,216z"/>
		<path class="st9" d="M332.4,144.2h-74.5c-0.6,0-1.2-0.5-1.2-1.2v-0.4c0-0.6,0.5-1.2,1.2-1.2h74.5c0.6,0,1.2,0.5,1.2,1.2v0.4
			C333.6,143.7,333.1,144.2,332.4,144.2z"/>
		<path class="st9" d="M305.9,148.6H258c-0.6,0-1.2-0.5-1.2-1.2V147c0-0.6,0.5-1.2,1.2-1.2h47.9c0.6,0,1.2,0.5,1.2,1.2v0.4
			C307,148.1,306.5,148.6,305.9,148.6z"/>
		<path class="st3" d="M336.7,167.8h-41.1c-3,0-5.4-2.4-5.4-5.4v-2c0-3,2.4-5.4,5.4-5.4h41.1c3,0,5.4,2.4,5.4,5.4v2
			C342.1,165.3,339.7,167.8,336.7,167.8z"/>
		<ellipse class="st6" cx="337.3" cy="196.2" rx="6.5" ry="6.4"/>
		<g>
			<path class="st4" d="M303.5,198.2h-46c-0.6,0-1.2-0.5-1.2-1.2v-5c0-0.6,0.5-1.2,1.2-1.2h46c0.6,0,1.2,0.5,1.2,1.2v5
				C304.6,197.7,304.1,198.2,303.5,198.2z"/>
			<path class="st8" d="M282.6,202.8h-25c-0.6,0-1.2-0.5-1.2-1.2v-0.4c0-0.6,0.5-1.2,1.2-1.2h25c0.6,0,1.2,0.5,1.2,1.2v0.4
				C283.7,202.3,283.2,202.8,282.6,202.8z"/>
		</g>
		<ellipse class="st5" cx="263" cy="225.9" rx="6.5" ry="6.4"/>
		<g>
			<path class="st4" d="M319.4,227.8h-46c-0.6,0-1.2-0.5-1.2-1.2v-5c0-0.6,0.5-1.2,1.2-1.2h46c0.6,0,1.2,0.5,1.2,1.2v5
				C320.6,227.3,320.1,227.8,319.4,227.8z"/>
			<path class="st8" d="M298.5,232.4h-25c-0.6,0-1.2-0.5-1.2-1.2v-0.4c0-0.6,0.5-1.2,1.2-1.2h25c0.6,0,1.2,0.5,1.2,1.2v0.4
				C299.7,231.9,299.2,232.4,298.5,232.4z"/>
		</g>
		<path class="st10" d="M341.9,229.2h-3.4c-0.9,0-1.6-0.7-1.6-1.6v-3.3c0-0.9,0.7-1.6,1.6-1.6h3.4c0.9,0,1.6,0.7,1.6,1.6v3.3
			C343.5,228.5,342.8,229.2,341.9,229.2z"/>
		<ellipse class="st5" cx="263" cy="246.4" rx="6.5" ry="6.4"/>
		<g>
			<path class="st4" d="M319.4,248.3h-46c-0.6,0-1.2-0.5-1.2-1.2v-5c0-0.6,0.5-1.2,1.2-1.2h46c0.6,0,1.2,0.5,1.2,1.2v5
				C320.6,247.8,320.1,248.3,319.4,248.3z"/>
			<path class="st8" d="M298.5,252.9h-25c-0.6,0-1.2-0.5-1.2-1.2v-0.4c0-0.6,0.5-1.2,1.2-1.2h25c0.6,0,1.2,0.5,1.2,1.2v0.4
				C299.7,252.4,299.2,252.9,298.5,252.9z"/>
		</g>
		<path class="st10" d="M341.9,249.7h-3.4c-0.9,0-1.6-0.7-1.6-1.6v-3.3c0-0.9,0.7-1.6,1.6-1.6h3.4c0.9,0,1.6,0.7,1.6,1.6v3.3
			C343.5,249,342.8,249.7,341.9,249.7z"/>
		<ellipse class="st5" cx="263" cy="266.5" rx="6.5" ry="6.4"/>
		<g>
			<path class="st4" d="M319.4,268.4h-46c-0.6,0-1.2-0.5-1.2-1.2v-5c0-0.6,0.5-1.2,1.2-1.2h46c0.6,0,1.2,0.5,1.2,1.2v5
				C320.6,267.9,320.1,268.4,319.4,268.4z"/>
			<path class="st8" d="M298.5,273h-25c-0.6,0-1.2-0.5-1.2-1.2v-0.4c0-0.6,0.5-1.2,1.2-1.2h25c0.6,0,1.2,0.5,1.2,1.2v0.4
				C299.7,272.5,299.2,273,298.5,273z"/>
		</g>
		<path class="st10" d="M341.9,269.8h-3.4c-0.9,0-1.6-0.7-1.6-1.6v-3.3c0-0.9,0.7-1.6,1.6-1.6h3.4c0.9,0,1.6,0.7,1.6,1.6v3.3
			C343.5,269.1,342.8,269.8,341.9,269.8z"/>
		<path class="st1" d="M345,302.5h-90c-6.8,0-12.3-5.5-12.3-12.3v-15.5h114.5v15.5C357.3,297,351.8,302.5,345,302.5z"/>
		<path class="st11" d="M260.6,286.6h-5.3c-0.6,0-1-0.5-1-1v-5.3c0-0.6,0.5-1,1-1h5.3c0.6,0,1,0.5,1,1v5.3
			C261.6,286.1,261.1,286.6,260.6,286.6z"/>
		<path class="st12" d="M343.2,286.6h-2.8c-0.6,0-1-0.5-1-1v-5.3c0-0.6,0.5-1,1-1h2.8c0.6,0,1,0.5,1,1v5.3
			C344.3,286.1,343.8,286.6,343.2,286.6z"/>
		<ellipse class="st12" cx="313.9" cy="282.9" rx="3.5" ry="3.5"/>
		<polygon class="st13" points="286,279.2 281.9,285.9 289.3,286 		"/>
	</g>
	<g>
		<g>
			<path class="st14" d="M238.6,83.2c0-0.5,0.4-0.9,0.9-0.9h0.3c0.2,0,0.3,0.1,0.3,0.3v8.8c0,0.2-0.1,0.3-0.3,0.3h-0.3
				c-0.5,0-0.9-0.4-0.9-0.9V83.2z"/>
		</g>
		<g>
			<path class="st14" d="M238.6,99.9c0-0.5,0.4-0.9,0.9-0.9h0.3c0.2,0,0.3,0.1,0.3,0.3v15.9c0,0.2-0.1,0.3-0.3,0.3h-0.3
				c-0.5,0-0.9-0.4-0.9-0.9V99.9z"/>
		</g>
		<g>
			<path class="st14" d="M238.6,121.9c0-0.5,0.4-0.9,0.9-0.9h0.3c0.2,0,0.3,0.1,0.3,0.3v15.9c0,0.2-0.1,0.3-0.3,0.3h-0.3
				c-0.5,0-0.9-0.4-0.9-0.9V121.9z"/>
		</g>
		<g>
			<path class="st14" d="M360.2,106.6c0-0.2,0.1-0.3,0.3-0.3l0,0c0.5,0,0.9,0.4,0.9,0.9v25.3c0,0.5-0.4,0.9-0.9,0.9l0,0
				c-0.2,0-0.3-0.1-0.3-0.3V106.6z"/>
		</g>
		<path class="st15" d="M343.1,50.5h-86.3c-9.8,0-17.7,7.9-17.7,17.7v219.6c0,9.8,7.9,17.7,17.7,17.7h86.3c9.8,0,17.7-7.9,17.7-17.7
			V68.2C360.8,58.5,352.9,50.5,343.1,50.5z M242.8,68.2c0-7.7,6.3-14,14-14h8.9c1.1,0.4,1.8,1.4,1.8,2.5c0,3.7,3,6.8,6.8,6.8h51.1
			c3.7,0,6.8-3,6.8-6.8c0-1.2,0.8-2.2,1.8-2.5h9.2c7.7,0,14,6.3,14,14v219.6c0,7.7-6.3,14-14,14h-86.3c-7.7,0-14-6.3-14-14
			L242.8,68.2L242.8,68.2z"/>
		<g class="st16">
			
				<radialGradient id="SVGID_3_" cx="-198.0425" cy="-0.9724" r="0.3049" gradientTransform="matrix(2.039037e-14 333 -155.284 9.508403e-15 208.0031 66135)" gradientUnits="userSpaceOnUse">
				<stop  offset="0" style="stop-color:#353535"/>
				<stop  offset="1" style="stop-color:#404040;stop-opacity:0"/>
			</radialGradient>
			<path class="st19" d="M358.7,77.1v210.7c0,8.9-7.2,16.2-16.2,16.2h-22v0.6h22c9.3,0,16.8-7.5,16.8-16.8V77.1H358.7z"/>
		</g>
		<g>
			
				<linearGradient id="SVGID_4_" gradientUnits="userSpaceOnUse" x1="273.3631" y1="552.8041" x2="232.9739" y2="316.1543" gradientTransform="matrix(1 0 0 1 4 -248)">
				<stop  offset="0" style="stop-color:#404040;stop-opacity:0"/>
				<stop  offset="1" style="stop-color:#171717"/>
			</linearGradient>
			<path class="st20" d="M241.3,81v206.7c0,8.9,7.2,16.2,16.2,16.2h53.7v0.6h-53.7c-9.3,0-16.8-7.5-16.8-16.8V81H241.3z"/>
		</g>
	</g>
</g>
<path class="st21" d="M169.8,317.5H70.2c-10.6,0-19.2-8.6-19.2-19.2v-99.6c0-10.6,8.6-19.2,19.2-19.2h99.6
	c10.6,0,19.2,8.6,19.2,19.2v99.6C189,308.9,180.4,317.5,169.8,317.5z"/>
<path class="st22" d="M188.1,245.2h7.8c12,0,21.6-9.5,21.6-21.1v-5.9c0-11.7,9.7-21.1,21.6-21.1l0,0"/>
<path class="st22" d="M360.7,140.4h7.8c12,0,21.6-9.5,21.6-21.1v-5.9c0-11.7,9.7-21.1,21.6-21.1l0,0"/>
<title>humaaans/standing-3</title>
<desc>Created with Sketch.</desc>
<path class="st23" d="M530.2,176.9h-99.6c-10.6,0-19.2-8.6-19.2-19.2V58.1c0-10.6,8.6-19.2,19.2-19.2h99.6
	c10.6,0,19.2,8.6,19.2,19.2v99.6C549.4,168.4,540.8,176.9,530.2,176.9z"/>
<ellipse transform="matrix(0.3092 -0.951 0.951 0.3092 248.235 573.8208)" class="st24" cx="519.1" cy="116" rx="3.5" ry="5.2"/>
<ellipse transform="matrix(0.3092 -0.951 0.951 0.3092 248.235 573.8208)" class="st25" cx="519.1" cy="116" rx="2.6" ry="3.8"/>
<g>
	<g>
		<g id="Scene_x2F_Home_1_">
			<g id="Clock_1_" transform="translate(505.000000, 85.000000)">
				<circle id="Clock-Frame_1_" class="st26" cx="12.8" cy="-7.3" r="10.2"/>
				<circle id="Time_16_" class="st27" cx="12.8" cy="-15.4" r="0.6"/>
				<circle id="Time_14_" class="st27" cx="4.7" cy="-7.3" r="0.6"/>
				<circle id="Time_12_" class="st27" cx="20.8" cy="-7.3" r="0.6"/>
				<circle id="Time_10_" class="st27" cx="12.8" cy="0.8" r="0.6"/>
				<polygon id="Hand_3_" class="st28" points="12.8,-14.2 13.1,-7.5 12.4,-7.5 				"/>
				<polygon id="Hand_2_" class="st28" points="16.2,-3.9 12.6,-6.9 13.2,-7.4 				"/>
				<circle id="Time_5_" class="st29" cx="12.8" cy="-7.3" r="0.8"/>
			</g>
			<g id="Background-Shape-2_1_" transform="translate(29.000000, 244.000000)" class="st30">
				<path id="Background-Shape_3_" class="st31" d="M477.9-112.7c-1.3-14.8-72.5-43.5-85.7-29.4s-0.5,40.4,27.2,47.2
					S479.3-97.9,477.9-112.7z"/>
				<path id="Background-Shape_2_" class="st32" d="M433.9-103c1.2-12.6,65-36.9,76.8-25c11.8,11.9,8.8,37-16,42.8
					C470-79.5,432.7-90.5,433.9-103z"/>
			</g>
			<g id="Hanging-Lamp_6_" transform="translate(25.000000, 0.000000)">
				<g id="Light_3_" transform="translate(0.000000, 152.673469)">
					<ellipse id="Hanging-Lamp-Light_3_" class="st26" cx="399.9" cy="-74.6" rx="8.2" ry="4.3"/>
					<path id="Hanging-Lamp_7_" class="st33" d="M409.4-71.6c0-5.3-4.3-9.6-9.5-9.6c-5.3,0-9.5,4.3-9.5,9.6"/>
				</g>
				<rect id="Wire_3_" x="399.4" y="42" class="st33" width="1" height="30.8"/>
			</g>
			<g id="Hanging-Lamp_4_" transform="translate(115.000000, 0.000000)" class="st34">
				<g id="Light_2_" transform="translate(0.000000, 113.000000)">
					<ellipse id="Hanging-Lamp-Light_2_" class="st26" cx="324.6" cy="-44.9" rx="6.1" ry="3.5"/>
					<path id="Hanging-Lamp_5_" class="st33" d="M331.7-42.5c0-4.3-3.2-7.8-7.1-7.8s-7.1,3.5-7.1,7.8"/>
				</g>
				<rect id="Wire_2_" x="324.2" y="41" class="st33" width="1" height="26.2"/>
			</g>
			<g id="Big-Leaf-Plant_1_" transform="translate(16.000000, 371.000000)">
				<g id="Big-Ass-Leaf_5_" transform="translate(22.000000, 0.000000)">
					<path id="leaf_5_" class="st33" d="M405.7-267.3c0.3,0,0.6,0,0.9,0.1c0.6,0.3,0.8,1,0.8,1.5c0,0.6-0.1,1.3,0.3,1.8
						c0.2,0.2,0.5,0.4,0.7,0.6c0.2,0.3,0.4,0.5,0.5,0.8c0.2,0.6,0.4,1.2,0.1,1.8c-0.2,0.5-0.7,1-0.6,1.6s0.7,1.1,1.1,1.6
						s0.8,1.2,0.9,1.9c0.1,0.7-0.2,1.3-0.7,1.8c-0.9,1-2.2,1.5-3.5,1.5c-0.6,0-1.2,0-1.7-0.3c-0.2-0.1-0.2-0.2-0.3-0.3
						c-0.1-0.1-0.2-0.2-0.3-0.3c-0.3-0.2-0.5-0.5-0.6-0.8c-0.5-1.2-0.1-2.7,0.6-3.7c0.2-0.3,0.3-0.5,0.2-0.8
						c-0.1-0.3-0.3-0.6-0.5-0.9s-0.4-0.5-0.5-0.8s-0.2-0.6-0.2-0.9c0-0.6,0.3-1.2,0.7-1.7c0.4-0.5,0.8-0.9,0.8-1.6s-0.4-1.3-0.3-1.9
						c0.1-0.3,0.2-0.6,0.5-0.7C405.1-267.2,405.4-267.3,405.7-267.3z"/>
					<path id="middle-thing_5_" class="st29" d="M405.5-266.2c0-0.1,0.1-0.1,0.2-0.1s0.1,0.1,0.1,0.2c0,0.3,0,0.6,0.1,0.8
						c0.1,0.6,0.4,1.1,0.6,1.6s0.3,1.1,0.2,1.7c-0.1,0.5-0.3,1.1-0.4,1.6s-0.2,1-0.1,1.5s0.5,0.8,0.7,1.2c0.5,0.9,0.7,1.8,0.7,2.8
						c0,0.5,0,0.9-0.1,1.4c-0.1,0.3-0.1,0.6-0.4,0.8c-0.1,0.1-0.3,0.1-0.4,0s0-0.3,0-0.4c0.1-0.5,0.1-1.1,0.1-1.6s-0.1-1-0.2-1.5
						c-0.2-0.5-0.4-0.9-0.6-1.3c-0.3-0.4-0.6-0.8-0.7-1.3s0-1,0.1-1.5s0.3-1,0.5-1.5s0.2-0.9,0.1-1.4
						C405.9-264.3,405.4-265.2,405.5-266.2z"/>
				</g>
				<g id="Big-Ass-Leaf_4_" transform="translate(32.000000, 11.000000)">
					<path id="leaf_4_" class="st33" d="M403.7-277.1c0.4,0.1,0.8,0.3,1,0.6c0.6,0.6,0.4,1.5,0.1,2.2s-0.9,1.5-0.6,2.3
						c0.1,0.4,0.4,0.7,0.5,1.1s0.2,0.8,0.2,1.3c0,0.8-0.2,1.6-0.8,2.2c-0.5,0.5-1.3,0.8-1.5,1.6c-0.2,0.8,0.3,1.7,0.5,2.4
						c0.2,0.8,0.4,1.8,0.1,2.7c-0.3,0.8-1,1.4-1.7,1.8c-1.6,0.7-3.4,0.6-4.9-0.1c-0.7-0.3-1.4-0.7-1.8-1.3c-0.1-0.2-0.2-0.4-0.2-0.6
						s-0.1-0.4-0.2-0.5c-0.2-0.4-0.3-0.8-0.3-1.2c0.1-1.7,1.3-3.2,2.6-4.1c0.3-0.2,0.6-0.4,0.7-0.8s0-0.8-0.1-1.3
						c-0.1-0.4-0.2-0.8-0.2-1.2c0-0.4,0.1-0.8,0.3-1.2c0.4-0.7,1-1.2,1.7-1.6s1.4-0.7,1.8-1.4c0.4-0.8,0.1-1.7,0.7-2.4
						c0.2-0.3,0.6-0.5,1-0.6C402.9-277.3,403.3-277.2,403.7-277.1z"/>
					<path id="middle-thing_4_" class="st29" d="M402.9-275.8c0.1-0.1,0.2-0.1,0.3,0c0.1,0.1,0.1,0.2,0,0.3c-0.2,0.3-0.3,0.7-0.3,1
						c-0.1,0.7-0.1,1.5-0.1,2.2c0,0.8-0.2,1.5-0.7,2.1c-0.4,0.6-0.9,1.1-1.3,1.7c-0.4,0.5-0.8,1.1-0.8,1.7c-0.1,0.6,0.1,1.2,0.2,1.9
						c0.1,1.3-0.1,2.5-0.6,3.7c-0.2,0.5-0.5,1.1-0.8,1.6c-0.2,0.3-0.5,0.6-0.8,0.7c-0.2,0-0.4,0-0.4-0.2s0.1-0.3,0.2-0.5
						c0.4-0.6,0.7-1.2,1-1.8c0.2-0.6,0.4-1.3,0.5-1.9s0-1.2-0.1-1.8c-0.1-0.6-0.2-1.3-0.1-1.9s0.5-1.2,0.9-1.7s0.9-1,1.4-1.5
						s0.8-1,0.9-1.6C402.4-273.2,402.3-274.6,402.9-275.8z"/>
				</g>
				<g id="Big-Ass-Leaf_3_" transform="translate(0.000000, 57.000000)">
					<path id="leaf_3_" class="st29" d="M424.1-318.4c0.6,0,1.2,0.3,1.6,0.8c0.4,0.6,0.5,1.2,0.7,1.9c0.1,0.3,0.2,0.7,0.5,0.9
						c0.2,0.2,0.6,0.2,0.9,0.3c0.6,0.2,1.1,0.7,1.3,1.3c0.2,0.7,0,1.4,0,2.1s0.7,1.1,1.2,1.4s1,0.6,1.1,1.2c0.2,0.6,0.2,1.4,0,2
						c-0.4,1.1-1.5,1.5-2.6,1.6c-1,0.1-2.2,0-2.9-0.7c-0.4-0.4-0.6-1-0.6-1.6c0-0.4,0.1-0.7,0.2-1.1c0.1-0.3,0.2-0.5,0.2-0.8
						c0.1-0.7-0.6-0.8-1.1-1c-0.7-0.2-1.2-0.7-1.5-1.3c-0.3-0.6-0.4-1.2-0.3-1.9c0.1-0.3,0.3-0.6,0.5-0.9c0.1-0.1,0.2-0.2,0.3-0.3
						c0.1-0.1,0.1-0.3,0-0.4c-0.1-0.6-0.6-1.1-0.7-1.7c-0.1-0.5-0.1-1.2,0.4-1.6C423.5-318.3,423.8-318.4,424.1-318.4z"/>
					<path id="middle-thing_3_" class="st28" d="M424.9-316.8c0.7,0.7,0.8,1.7,0.9,2.6c0,0.5,0,1.1,0.2,1.6c0.1,0.4,0.4,0.8,0.8,1.1
						c0.6,0.6,1.3,1.3,1.5,2.2c0.1,0.5,0,1.1,0.2,1.6c0.1,0.5,0.4,1,0.7,1.4c0.2,0.3,0.5,0.6,0.8,0.9c0.1,0.1,0.2,0.2,0.2,0.4
						c0,0.2-0.2,0.2-0.4,0.2c-0.3-0.1-0.6-0.4-0.8-0.6c-0.3-0.3-0.6-0.7-0.8-1.1c-0.2-0.4-0.4-0.9-0.5-1.4s0-1-0.2-1.5
						c-0.3-0.8-1.1-1.3-1.7-2c-0.7-0.8-0.6-1.8-0.5-2.8c0-0.5,0.1-1.2-0.2-1.7c-0.1-0.2-0.3-0.4-0.4-0.6
						C424.5-316.8,424.7-317,424.9-316.8z"/>
				</g>
				<path id="Base_1_" class="st3" d="M425.6-248.2c0,4,0.7,6.2,4.1,6.2s4.1-2.1,4.1-6.2H425.6z"/>
			</g>
		</g>
		<ellipse transform="matrix(0.3092 -0.951 0.951 0.3092 248.1075 573.7666)" class="st24" cx="519" cy="116.1" rx="3.5" ry="5.2"/>
		<ellipse transform="matrix(0.3092 -0.951 0.951 0.3092 248.1075 573.7666)" class="st25" cx="519" cy="116.1" rx="2.6" ry="3.8"/>
		<g id="humaaans_x2F_standing-3_1_">
			<g id="humaaan-12_1_" transform="translate(24.000000, 10.000000)">
				
					<g id="Head_x2F_Front_x2F_Pony_1_" transform="translate(192.496667, 70.916479) rotate(15.000000) translate(-192.496667, -70.916479) translate(121.550000, 16.686230)">
					<g id="Head_1_" transform="translate(56.316359, 32.329762)">
						<path class="st35" d="M296.2-30.4c-0.8-1-1.4-2.2-1.3-3.5c0.3-3.9,5.7-3,6.7-1.1c1.1,2,0.9,6.9-0.4,7.3
							c-0.5,0.1-1.7-0.2-2.9-0.9l0.7,5.2h-4.4L296.2-30.4z"/>
					</g>
					<path id="hair_1_" class="st36" d="M354.1,1.7c-0.5,1-1.3,1.8-2,1.8c-1.4,0-2.4-1.9-2.4-3.9c0-0.1,0-0.1,0-0.2
						c-1.5,1-2.7,3.1-4.6,3.1c-2.7,0-3.8-5.4,0-5.4c2.6,0,3.8,0.4,4.9,0.9c0.2-0.6,0.5-1.1,0.9-1.5c0.1-0.1,0.2-0.2,0.4-0.3
						c0.1-0.1,0.2-0.1,0.4-0.2c0.7-0.2,1.6-0.4,2.7-0.4c0.2,0,0.4,0,0.6,0c0-1,0.8-1.8,1.8-1.8s1.8,0.8,1.8,1.8s-0.8,1.8-1.7,1.8
						c-0.5,0.2-1.2,0.3-2,0.3c0.1,0.3,0.1,0.6,0.1,1c0,0.3,0,0.7-0.1,1c-0.2-0.2-0.4-0.3-0.6-0.3c-0.6,0-1.1,0.5-1.1,1.1
						C353,1.1,353.5,1.6,354.1,1.7z"/>
				</g>
				<g id="Bottom_x2F_Standing_x2F_Sweatpants_1_" transform="translate(0.000000, 211.706546)">
					<polygon id="Leg_2_" class="st37" points="469.4,-96 476.1,-73.1 479.2,-55.9 482.3,-55.9 479.2,-96 					"/>
					<path id="Leg_1_" class="st35" d="M466.4-96c0.5,11.9,0.3,18.4,0.2,19.5c-0.1,1.1-0.7,8.3-4.7,21h3.3c5.3-12.2,7.2-19.4,7.8-21
						s2.4-8.1,5-19.5H466.4z"/>
					<path id="Pant_3_" class="st38" d="M469.3-96c1.7,7.9,4.7,20.4,9,37.7h4.6c0.3-17.7-1.1-29.4-3.6-37.7H469.3z"/>
					<path id="Pant_2_" class="st39" d="M466.4-96c0.5,11.9-0.7,23.6-4.4,37.9h4.9c5.3-12,9.1-23.6,11.7-37.9H466.4z"/>
					<g id="Accessories_x2F_Shoe_x2F_Flat-Simple_3_" transform="translate(87.603226, 207.536214)">
						<path id="Shoe_3_" class="st36" d="M373.8-260.8l0.2-2.9c1.1,0.3,2.4,0.2,4-0.4c1.7,1.2,3.9,2,6.4,2.5l0,0
							c0.2,0,0.3,0.2,0.3,0.4l0,0l-0.2,0.9H378h-3.8L373.8-260.8z"/>
					</g>
					<g id="Accessories_x2F_Shoe_x2F_Flat-Simple_2_" transform="translate(185.635407, 207.536214)">
						<path id="Shoe_2_" class="st36" d="M292.9-260.8l0.2-2.9c1.1,0.3,2.4,0.2,4-0.4c1.7,1.2,3.9,2,6.4,2.5l0,0
							c0.2,0,0.3,0.2,0.3,0.4l0,0l-0.2,0.9H297h-3.8L292.9-260.8z"/>
					</g>
				</g>
				
					<g id="Body_x2F_Pointing-Forward_1_" transform="translate(167.500000, 199.713318) rotate(10.000000) translate(-167.500000, -199.713318) translate(33.953333, 102.203160)">
					<path id="Skin_1_" class="st35" d="M427.3-50l6.3-3.4c1-1.2,2.1-2.2,3.1-2.9c0.3-0.1,0.9-0.2,0.3,0.7c-0.5,0.9-1,1.9-0.7,2.1
						s0.9-0.1,1.2,0.4c0.2,0.3-0.9,0.8-3.3,1.5l-4.6,4.2L427.3-50z M437.2-47l2.8-1.5c0.4-1.5,0.9-2.2,1.4-2.2
						c0.4-0.2-0.3,1.7,0.5,1.5s2.7-1.6,3-1.3c0.5,0.4,0.1,1.7-0.5,2.4c-1,1.2-1.8,1.6-3.7,2.2c-1,0.3-2.1,0.9-3.3,1.7L437.2-47z"/>
					<path id="Sleeve_1_" class="st40" d="M424.2-50.7c2.2,0,5.1-0.5,8.3-2.5l1.2,2.7c-2.2,2.1-5.2,3.9-7.9,3.8
						C423.8-46.7,422.7-49.2,424.2-50.7z"/>
					<path id="Clothes_1_" class="st3" d="M427.2-46.3c2.3,0.6,6.3-0.1,11.8-2.1c1.4,2.8,2,4.8,1.9,6c-4.7,2.5-8.8,3.6-12.1,3.6
						c0.1,2-0.1,3.9-0.9,5.6c-1.7,3.5-11.4,0.3-14.7,0.9c-2.1-6.7,1.9-9.4,1.9-13.6c0-4.7,3.8-11.9,4.3-11.9h5
						C424.7-54.1,426.1-50.2,427.2-46.3z"/>
				</g>
			</g>
		</g>
	</g>
	<rect x="526.9" y="128.5" class="st41" width="16.5" height="0.5"/>
	<path class="st41" d="M542.4,123.6h-6.2c-0.6,0-1-0.5-1-1l0,0c0-0.6,0.5-1,1-1h6.2c0.6,0,1,0.5,1,1l0,0
		C543.4,123.1,543,123.6,542.4,123.6z"/>
	<path class="st41" d="M541.3,128.7v-6.2c0-0.6,0.5-1,1-1l0,0c0.6,0,1,0.5,1,1v6.2c0,0.6-0.5,1-1,1l0,0
		C541.8,129.7,541.3,129.3,541.3,128.7z"/>
	<path class="st26" d="M536.5,168.5h-13.7v-36.7c0-1.5,1.2-2.8,2.8-2.8h22v28.5C547.5,163.6,542.5,168.5,536.5,168.5z"/>
	<rect x="536.4" y="123.6" class="st42" width="1.8" height="0.3"/>
	<path class="st43" d="M536.4,123.9c0,0,0.3,1-0.4,1.6s-0.6,2-0.6,2h3.9c0,0-1.3-1.6-1.1-2.3c0.3-0.7,0.1-1.2,0.1-1.2"/>
	<path class="st44" d="M536.5,123.9c0,0,0.7,0.9,0,1.6s-0.6,1.9-0.6,1.9h0.5c0,0-0.1-1,0.6-1.8c0.7-0.8-0.1-1.7-0.1-1.7H536.5z"/>
	<path class="st44" d="M537.7,123.9c0,0,0.4,0.9,0,1.6s-0.3,1.9-0.3,1.9h0.3c0,0-0.1-1,0.3-1.8s-0.1-1.7-0.1-1.7H537.7z"/>
	<path class="st26" d="M422.6,168.6L422.6,168.6c-1,0-1.9-0.8-1.9-1.9v-32.6c0-1,0.8-1.9,1.9-1.9l0,0c1,0,1.9,0.8,1.9,1.9v32.6
		C424.5,167.7,423.6,168.6,422.6,168.6z"/>
	<path class="st26" d="M469.7,168.6L469.7,168.6c-1,0-1.9-0.8-1.9-1.9v-32.6c0-1,0.8-1.9,1.9-1.9l0,0c1,0,1.9,0.8,1.9,1.9v32.6
		C471.6,167.7,470.8,168.6,469.7,168.6z"/>
	<path class="st26" d="M466.2,128.5h-40.1c-3,0-5.4,2.4-5.4,5.4v1.1h50.8v-1.1C471.6,130.9,469.2,128.5,466.2,128.5z"/>
</g>
<g>
	<g id="Background-Shape-2" transform="translate(29.000000, 244.000000)" class="st30">
		<path id="Background-Shape" class="st26" d="M1345.1-22.6c52.5-12.8,76.6-62.7,51.5-89.4s-160,27.6-162.5,55.7
			C1231.7-28.2,1292.7-9.9,1345.1-22.6z"/>
		<path id="Background-Shape_1_" class="st33" d="M1202.3-4.3c-47-10.9-52.7-58.4-30.3-81c22.4-22.6,143.3,23.5,145.5,47.3
			C1319.8-14.2,1249.3,6.5,1202.3-4.3z"/>
	</g>
	<g id="Hanging-Lamp_1_" transform="translate(25.000000, 0.000000)">
		<g id="Light" transform="translate(0.000000, 152.673469)">
			<ellipse id="Hanging-Lamp-Light" class="st26" cx="1357.5" cy="-48.5" rx="15.5" ry="8.2"/>
			<path id="Hanging-Lamp" class="st33" d="M1375.6-42.9c0-10.1-8.1-18.2-18.1-18.2s-18.1,8.2-18.1,18.2"/>
		</g>
		<rect id="Wire" x="1356.6" y="35.9" class="st33" width="1.8" height="58.4"/>
	</g>
	<g id="Lamp_2_" transform="translate(524.000000, 198.000000)">
		<path id="Body" class="st45" d="M678.6,58.1V-61.3c0-1.5,0.6-3,1.7-4.1l18-18l0,0c1.1-1.1,3-1.1,4.1,0l6.8,6.8"/>
		<path id="Lamp-Base" class="st28" d="M689.5,58.9v0.4c0,0.6-0.5,1.1-1.1,1.1h-19.3c-0.6,0-1.1-0.5-1.1-1.1v-0.4
			c0-0.6,0.5-1.1,1.1-1.1h19.3C689,57.8,689.5,58.3,689.5,58.9z"/>
		
			<g id="Lamp-Top" transform="translate(48.083261, 49.083261) rotate(45.000000) translate(-48.083261, -49.083261) translate(14.583261, 14.583261)">
			<path id="Lamp" class="st29" d="M418.4-533.9h10.2v24.1h-10.2c-6.6,0-12-5.4-12-12l0,0C406.3-528.5,411.7-533.9,418.4-533.9z"/>
			
				<ellipse id="Lamp_1_" transform="matrix(5.100384e-06 1 -1 5.100384e-06 -93.5086 -950.0025)" class="st26" cx="428.2" cy="-521.8" rx="12" ry="2.4"/>
		</g>
	</g>
	<g id="Big-Leaf-Plant" transform="translate(16.000000, 371.000000)">
		<g id="Big-Ass-Leaf" transform="translate(22.000000, 0.000000)">
			<path id="leaf" class="st33" d="M1388-198.6c0.9,0.6,1.4,1.6,1.7,2.5c0.6,2.3-0.9,4.4-0.9,6.6c0,2.2,1.5,3.7,2.7,5.4
				c1.3,1.7,2.2,3.7,2.4,5.8c0.1,1.1-0.1,2.2-0.5,3.2c-0.5,1-1.1,1.9-1.7,2.8c-0.6,0.9-1.3,1.9-1.6,3c-0.3,1,0.2,1.9,0.7,2.7
				c2.3,3.6,3.6,8.7,2,12.8c-0.4,1.1-1.1,2-2,2.7c-0.4,0.3-0.8,0.6-1.1,1.1c-0.3,0.5-0.6,0.9-1.1,1.2c-1.7,1-3.9,1.1-5.8,1.1
				c-4.6,0-9.1-1.7-12.1-5.1c-1.5-1.7-2.5-4-2.3-6.2c0.2-2.4,1.6-4.6,3.1-6.4c1.3-1.6,3.5-3.2,3.9-5.3c0.4-2-1.3-3.7-2-5.5
				c-0.8-2-0.4-4.3,0.5-6.3c0.5-1.1,1.1-2,1.9-2.9c0.7-0.8,1.7-1.4,2.4-2.2c1.6-1.7,1.2-4.1,1.1-6.2c0-2,0.6-4.4,2.6-5.3
				c1-0.4,2.1-0.5,3.1-0.3C1386.1-199.3,1387.2-199.1,1388-198.6z"/>
			<path id="middle-thing" class="st29" d="M1383.6-185.5c-0.3,1.7-0.1,3.3,0.5,5s1.2,3.4,1.7,5.2c0.4,1.7,0.8,3.4,0.4,5.1
				c-0.4,1.7-1.4,3.1-2.3,4.5s-1.7,2.8-2.2,4.4c-0.6,1.7-0.8,3.5-0.9,5.2c-0.1,1.8,0,3.7,0.4,5.5c0.1,0.4,0.3,1,0.1,1.4
				c-0.3,0.4-0.9,0.3-1.2,0c-0.8-0.6-1-1.8-1.2-2.7c-0.4-1.5-0.4-3.1-0.4-4.7c0.1-3.4,0.9-6.6,2.6-9.6c0.8-1.4,2-2.7,2.5-4.3
				s0.2-3.4-0.2-5c-0.4-1.9-1-3.7-1.4-5.5c-0.4-2-0.1-3.9,0.6-5.8c0.7-1.9,1.6-3.7,2.1-5.6c0.2-0.9,0.4-1.9,0.3-2.8
				c0-0.3,0-0.7,0.4-0.8c0.3-0.1,0.6,0.1,0.7,0.4C1386-192.2,1384.3-189,1383.6-185.5z"/>
		</g>
		<g id="Big-Ass-Leaf_1_" transform="translate(32.000000, 11.000000)">
			<path id="leaf_1_" class="st33" d="M1351.4-206.8c1.3,0.2,2.5,1.1,3.3,2.1c2,2.4,1.3,5.6,2.5,8.3c1.1,2.5,3.7,3.6,6,4.9
				c2.4,1.3,4.5,3.2,5.8,5.6c0.7,1.3,1.1,2.6,1.1,4.1c0,1.4-0.4,2.8-0.6,4.2s-0.5,2.9-0.3,4.3c0.2,1.4,1.2,2.1,2.3,2.8
				c4.6,3.1,8.9,8.4,9.1,14.1c0.1,1.5-0.2,2.9-0.9,4.2c-0.3,0.6-0.6,1.1-0.7,1.8c-0.1,0.8-0.2,1.3-0.7,2c-1.4,2.1-3.9,3.3-6.2,4.4
				c-5.3,2.4-11.5,2.8-16.9,0.3c-2.7-1.2-5-3.4-6-6.2c-1-2.9-0.5-6.3,0.3-9.3c0.7-2.6,2.4-5.6,1.7-8.3c-0.6-2.6-3.5-3.6-5.2-5.4
				c-2-2-2.7-4.9-2.7-7.7c0-1.5,0.2-3,0.6-4.4c0.4-1.3,1.2-2.5,1.7-3.9c1-2.9-0.8-5.4-1.9-7.9c-1.1-2.3-1.7-5.5,0.3-7.6
				c0.9-1,2.2-1.6,3.5-2C1348.8-206.6,1350.1-207,1351.4-206.8z"/>
			<path id="middle-thing_1_" class="st29" d="M1353-188.5c0.5,2.2,1.6,4,3.2,5.6c1.6,1.7,3.2,3.4,4.6,5.2c1.4,1.7,2.6,3.6,3.1,5.8
				c0.4,2.2,0,4.3-0.4,6.5c-0.4,2.1-0.5,4.2-0.3,6.3c0.2,2.3,0.9,4.5,1.7,6.6c0.9,2.2,1.9,4.4,3.3,6.3c0.3,0.4,0.9,1,0.8,1.6
				s-0.9,0.8-1.4,0.7c-1.2-0.3-2.2-1.6-2.9-2.5c-1.2-1.6-2.1-3.5-2.9-5.4c-1.6-4-2.5-8.3-2-12.7c0.2-2.1,0.9-4.2,0.6-6.4
				c-0.2-2.2-1.6-4.1-2.8-5.8c-1.4-2-3.1-3.8-4.5-5.8c-1.5-2.1-2.1-4.6-2.3-7.2c-0.2-2.6-0.1-5.2-0.5-7.7c-0.2-1.2-0.5-2.4-1.1-3.5
				c-0.2-0.4-0.4-0.8,0-1.1c0.3-0.2,0.8-0.2,1,0.1C1352.3-197.7,1352-192.9,1353-188.5z"/>
		</g>
		<g id="Big-Ass-Leaf_2_" transform="translate(0.000000, 57.000000)">
			<path id="leaf_2_" class="st29" d="M1422-235.3c1.7,1.2,2,3.5,1.5,5.3c-0.5,2-2,3.7-2.5,5.8c-0.1,0.4-0.2,0.9,0.1,1.3
				c0.3,0.4,0.8,0.7,1.2,1.1c0.8,0.9,1.4,1.9,1.7,3c0.6,2.2,0.2,4.5-0.9,6.5c-1.2,2.2-2.8,3.7-5.2,4.6c-1.9,0.6-4,1.1-3.8,3.5
				c0.1,0.9,0.4,1.7,0.6,2.6c0.3,1.2,0.6,2.5,0.6,3.7c0.1,2-0.5,4-2,5.5c-2.5,2.4-6.7,2.8-10.1,2.6c-3.7-0.2-7.5-1.8-8.8-5.5
				c-0.8-2.2-0.6-4.6,0-6.9c0.5-2.1,2.1-3.1,3.9-4.1c1.8-1.1,4-2.5,4.2-4.8c0.1-2.5-0.7-4.9,0.1-7.3c0.6-2,2.3-3.6,4.3-4.3
				c1-0.3,2.1-0.5,2.9-1.2c0.9-0.8,1.5-1.9,1.8-3c0.6-2.3,0.9-4.6,2.5-6.5c1.3-1.6,3.2-2.8,5.3-2.8
				C1420.4-236,1421.3-235.8,1422-235.3z"/>
			<path id="middle-thing_2_" class="st28" d="M1417.8-229.9c-0.2,0.7-1,1.3-1.3,2c-0.9,1.7-0.8,3.8-0.7,5.7
				c0.3,3.4,0.6,6.8-1.8,9.6c-2,2.2-4.7,3.9-5.8,6.7c-0.7,1.7-0.5,3.5-0.8,5.3c-0.3,1.7-0.9,3.3-1.8,4.8c-0.7,1.4-1.6,2.6-2.7,3.7
				c-0.7,0.8-1.7,1.8-2.8,2c-0.5,0.1-1.1-0.1-1.3-0.6c-0.1-0.5,0.3-0.9,0.5-1.2c0.9-1,1.9-1.9,2.8-3c1-1.4,1.8-3,2.3-4.7
				c0.5-1.8,0.3-3.7,0.6-5.5c0.6-3.1,3.1-5.3,5.3-7.5c1.1-1.1,2.1-2.2,2.6-3.7c0.5-1.7,0.4-3.6,0.5-5.4c0.2-3.2,0.8-6.5,3.1-8.9
				C1417.1-231.3,1417.9-230.6,1417.8-229.9z"/>
		</g>
		<path id="Base" class="st46" d="M1385.7-133.8c0,13.9,2.3,21.2,14.2,21.2c12,0,14.2-7.3,14.2-21.2H1385.7z"/>
	</g>
	<g id="Table" transform="translate(135.000000, 353.000000)">
		<g id="Lamp_3_" transform="translate(23.000000, 0.000000)">
			<path id="Lamp-Base_1_" class="st28" d="M1222.9-135.2v1.8c0,0.4-0.3,0.7-0.7,0.7h-12.4c-0.4,0-0.7-0.3-0.7-0.7v-1.8
				c0-0.4,0.3-0.7,0.7-0.7h12.4C1222.6-135.9,1222.9-135.6,1222.9-135.2z"/>
			<path id="Lamp-Body" class="st33" d="M1222-146.5c3.1,0,5.7,2.5,5.7,5.7s-2.5,5.7-5.7,5.7h-12c-3.1,0-5.7-2.5-5.7-5.7
				s2.5-5.7,5.7-5.7h2.4c1.6-5.1,2.4-10.4,2.6-16h0.7h1c0.2,5.6,1.1,11,2.6,16H1222z"/>
			<path id="Shade" class="st29" d="M1230.6-158.8c-4.7,0.5-9.5,0.7-14.2,0.7s-9.5-0.2-14.2-0.7l1.7-29c4.2-0.4,8.4-0.6,12.5-0.6
				s8.4,0.2,12.5,0.6L1230.6-158.8z"/>
		</g>
		<path class="st26" d="M1262-132.6v37.9h-7.7v-29.9H1224v29.9h-7.7v-37.9h7.7h30.3H1262z"/>
	</g>
	<g id="Plant" transform="translate(537.000000, 328.000000)">
		<g id="Succulents" transform="translate(13.000000, 0.000000)">
			<path id="Thi-Succs_x21_" class="st47" d="M694.5-172.5c-0.1,1.3-0.4,2.5-0.8,3.6c-1.2,4.1-3.2,7.6-5,11.2
				c-1.9,3.7-3.5,7.6-4.2,12.1c-0.8,5.5-0.1,11,0,16.5c0.1,5.6-0.1,11.3,0.1,16.9c0,1.4,0.1,2.8,0.2,4.2c0,1.1,0.1,2.3-0.2,3.4
				c-0.4,1.9-1.9,1.7-2.5,0.1c-0.7-2-0.8-4.5-0.9-6.7c-0.1-2.8-0.4-5.5-0.6-8.3c-0.2-2.8-0.3-5.5-0.3-8.3c0-2.9-0.1-5.7,0-8.6
				c0-5.3,0.8-10.4,2.5-15.1c2.9-8,8.4-13.3,11.6-20.9C694.4-172.5,694.5-172.5,694.5-172.5z"/>
			<path id="Thi-Succs_x21__1_" class="st46" d="M695.6-157.6c-0.4,1-1.1,1.9-1.6,2.9c-0.5,0.9-0.8,1.8-1.1,2.7
				c-0.8,2.2-1.8,4.3-2.6,6.5c-1.6,4.3-1.8,8.8-1.4,13.4c0.3,4.3,1.1,8.6,1.2,13c0.1,3.6,0,7.4-0.8,10.9c-0.5,2.4-1.8,5.3-4.4,5.3
				c-1.2,0-1.8-1-1.9-2.3c-0.2-2-0.1-4.1-0.1-6c0-4.4,0.4-8.8,0.7-13.2c0.3-4.1,0.5-8.4,1.3-12.4c0.7-3.9,2.2-7.6,4.1-11
				c1-1.8,2-3.6,3.1-5.3c0.5-0.8,1.2-1.6,1.7-2.4c0.4-0.7,0.8-1.3,1.4-1.8C695.4-157.4,695.5-157.5,695.6-157.6z"/>
			<path id="Thi-Succs_x21__2_" class="st47" d="M665.8-164.8c0.3,0.8,0.7,1.4,1.1,2.2c0.7,1.6,1.3,3.3,1.9,5
				c1.2,3.2,2,6.6,2.3,10.5c0.3,4,0.1,8.1,0.1,12.2c-0.1,4.3-0.1,8.7-0.4,13.1c-0.1,2-0.2,4-0.5,6c-0.2,1.2-0.7,2.3-1.6,2.4
				c-1.9,0.2-2.6-2.5-2.8-4.9c-0.3-3.4-0.2-7.1,0.2-10.7c0.4-4.3,1.2-8.7,1.8-13c0.6-4.6,0.7-9-0.1-13.2c-0.4-2.1-1-4.1-1.4-6.2
				c-0.2-0.9-0.3-1.8-0.6-2.6c-0.3-0.9-0.7-1.7-1-2.7c0.1,0.1,0.2,0.1,0.2,0.2C665.3-166.1,665.5-165.5,665.8-164.8z"/>
			<path id="Thi-Succs_x21__3_" class="st47" d="M694.1-143.3c-0.3,0.6-0.6,1.2-0.8,1.8c-0.6,1.6-0.8,3.3-1.1,5
				c-0.6,3.5-1.3,7-1.1,10.6c0.2,3.3,0.8,6.7,0.9,10c0.1,1.7,0,3.4-0.2,5.1c-0.3,1.8-0.6,3.7-1.2,5.5c-0.4,1.2-1.6,2.4-2.8,2
				c-0.7-0.2-1.2-0.8-1.4-1.5c-0.1-0.3-0.1-0.5-0.1-0.8c0,0,0-0.6,0.1-0.4c0.3-1.2,0.5-2.4,0.8-3.6s0.7-2.4,0.8-3.6
				c0.2-2.6,0.1-5.3-0.1-7.9c-0.1-2.5,0-4.9,0.6-7.3c0.6-2.5,1.5-4.9,2.2-7.4c0.4-1.3,0.7-2.7,1.1-4c0.4-1.3,1-2.5,1.7-3.7
				c-0.1,0.1-0.1,0.2-0.1,0.4c0.1-0.2,0.9-2.2,1.2-1.6C694.7-144.3,694.3-143.7,694.1-143.3z"/>
			<path id="Thi-Succs_x21__4_" class="st48" d="M683.8-163.3l-0.1-0.1c-0.8,2.1-0.9,4.3-0.8,6.6c0,2.3,0,4.7-0.2,7
				c-0.3,4.7-0.7,9.5-1.2,14.2c-0.4,4.3-0.8,8.5-1,12.8c-0.2,4.2-0.4,8.4,0.1,12.5c0.2,2.2,1,8.7,4.4,7.2s2.9-6.7,3-9.8
				c0.1-4.2-0.5-8.3-1-12.4c-0.5-4.2-1.2-8.4-1.8-12.6c-0.6-4.1-0.8-8.3-1-12.4"/>
			<path id="Thi-Succs_x21__5_" class="st46" d="M664.9-139.3c-0.7-0.4,0,2.1,0.2,2.4c0.8,2.4,1.4,4.9,1.8,7.6
				c0.4,2.6,0.6,5.4,0.6,8.1c0,2.8-0.3,5.6-0.3,8.4c0,1.6-0.2,5.2,1.2,5.2c0.7,0,1.4-0.7,1.8-1.6c0.4-1,0.3-2.1,0.3-3.2
				c0.1-5.3,0.6-10.8,0-15.9c-0.3-2.4-1.2-4.4-2.3-6.1c-0.6-1-1.2-1.9-1.8-2.8"/>
			<path id="Thi-Succs_x21__6_" class="st48" d="M672.9-164.5c-0.7,0-0.8,3.2-0.8,3.7c-0.1,2.1-0.4,4.2-0.6,6.3
				c-0.3,2.9-0.8,5.8-1.2,8.7s-0.6,5.8-0.8,8.7c-0.4,5.3-0.7,10.5-0.5,15.8c0.1,2.6,0.4,5.2,0.9,7.7c0.4,2.2,0.8,4.6,1.6,6.7
				c0.6,1.7,1.8,4,3.6,4.3c0.7,0.1,1.7-0.1,1.9-0.9c0.1-0.5,0.1-1.1,0.2-1.6c0.1-0.6,0.2-1.2,0.3-1.9c0.3-2.5,0.4-5.1,0.5-7.6
				c0-2.5,0.2-5.1-0.1-7.6c-0.3-2.6-1-5.2-1.5-7.8c-0.5-2.6-0.9-5.2-1.3-7.8c-0.7-4.8-0.9-9.7-1.1-14.6c-0.1-2.2,0-4.5-0.1-6.7
				C673.9-159.7,673.9-164.5,672.9-164.5"/>
			<path id="Thi-Succs_x21__7_" class="st46" d="M674.1-129.4c-0.1,4.1,0.3,8.1,0.6,12.1c0.3,3.6,0.9,7.2,1.8,10.6
				c0.6,2.2,1.7,4.7,3.9,3.6c1-0.5,1.7-1.7,2.1-3c0.2-0.8,0.4-1.5,0.7-2.3c0.3-0.7,0.4-1.5,0.5-2.3c0.5-3.4-0.1-6.9-0.4-10.3
				c-0.3-3.4-0.8-6.9-1.5-10.3c-0.3-1.7-2.9-24.5-3.1-26.2c-0.1-1.7-0.3-3.4-0.3-5.2s0-9.4-0.4-9.9c-0.1,1.7-1.3,8.1-1.4,9.7
				C676.3-156.7,674.3-134.5,674.1-129.4"/>
		</g>
		<g id="Planter" transform="translate(0.000000, 159.000000)">
			<path id="Vase" class="st1" d="M709.7-272.8v31.7c0,0.4-0.3,0.7-0.7,0.7h-31.7c-0.4,0-0.7-0.3-0.7-0.7v-31.7
				c0-0.4,0.3-0.7,0.7-0.7H709C709.4-273.5,709.7-273.2,709.7-272.8z"/>
			<path id="Leg" class="st29" d="M713.4-269.2v39.8c0,0.4-0.3,0.7-0.7,0.7h-2.2c-0.4,0-0.7-0.3-0.7-0.7v-39.8
				c0-0.4,0.3-0.7,0.7-0.7h2.2C713-269.9,713.4-269.6,713.4-269.2z"/>
			<path id="Leg_4_" class="st29" d="M695.1-269.2v39.8c0,0.4-0.3,0.7-0.7,0.7h-2.2c-0.4,0-0.7-0.3-0.7-0.7v-39.8
				c0-0.4,0.3-0.7,0.7-0.7h2.2C694.8-269.9,695.1-269.6,695.1-269.2z"/>
			<path id="Leg_3_" class="st29" d="M676.5-269.2v39.8c0,0.4-0.3,0.7-0.7,0.7h-2.2c-0.4,0-0.7-0.3-0.7-0.7v-39.8
				c0-0.4,0.3-0.7,0.7-0.7h2.2C676.2-269.9,676.5-269.6,676.5-269.2z"/>
		</g>
	</g>
	<g>
		<g>
			<path class="st26" d="M1264,200.4l20.8-10.4c1.3-0.7,1.6-2.4,0.6-3.5l-17.3-18.9c-0.7-0.7-1.7-0.9-2.6-0.5l-8.1,4
				c-0.9,0.4-1.4,1.4-1.2,2.4l4.6,25.2C1261.1,200.3,1262.7,201.1,1264,200.4z"/>
			<path class="st26" d="M1276.7,180.6c-3.3,1.6-7.4,0.3-9-3s-0.3-7.4,3-9s7.4-0.3,9,3C1281.4,174.9,1280,179,1276.7,180.6z
				 M1271.2,169.6c-2.7,1.4-3.8,4.7-2.5,7.5c1.4,2.8,4.7,3.9,7.4,2.5s3.8-4.7,2.5-7.5C1277.3,169.4,1273.9,168.3,1271.2,169.6z"/>
			<path class="st26" d="M1247.2,188.4l-2.2-12.1c3.1-0.6,6.1,1.7,6.7,5.1C1252.3,184.6,1250.3,187.8,1247.2,188.4z"/>
			<g>
				<line class="st49" x1="1251.7" y1="181.3" x2="1260.4" y2="180.1"/>
				
					<rect x="1251.7" y="179.9" transform="matrix(0.9905 -0.1374 0.1374 0.9905 -12.9083 174.301)" class="st26" width="8.8" height="1.5"/>
			</g>
		</g>
	</g>
	<g id="humaaans_x2F_standing-17">
		<g id="humaaan-1" transform="translate(28.000000, 2.000000)">
			
				<g id="Head_x2F_Front_x2F_Chongo" transform="translate(133.219486, 73.532869) rotate(-15.000000) translate(-133.219486, -73.532869) translate(59.569689, 17.301852)">
				<g id="Head" transform="translate(58.494090, 33.282773)">
					<path class="st50" d="M1126,382.7l-8.2-4.7l7-8.9c-3,0-5.5-0.6-6.4-1.4c-2.2-2.1,2.9-11.6,7-14.1s15.2,1.8,11.5,9.3
						c-1.3,2.6-3.6,4.3-6.3,5.2L1126,382.7z"/>
				</g>
				<path id="hair" class="st36" d="M1183.9,385.5c-0.2,0.1-0.4,0.2-0.5,0.4c-0.1,0.2,0,0.4,0,0.6c0.1,0.4,0.3,0.8,0.6,1.2
					c1,1.3,2.5,2.3,3.4,3.6c0.8,1.3,0.9,2.8,0.5,4.3c1.1,0,2.5,0.2,3.2,1.1c0.6,0.8,0.2,1.9-0.3,2.7c-0.5,0.7-1.3,1.2-2.2,1.3
					c-0.2,0-0.3,0-0.5,0.1c-0.1,0.1-0.1,0.1-0.1,0.3c0,0.4,0.1,0.8,0.2,1.1c0.2,0.9,1.1,1.5,1.9,1.7c0.4,0.1,0.9,0.2,1.4,0.3
					c0.5,0.1,1,0.1,1.4,0.1c1.1,0,1.9-0.5,2.7-1.3c0.8-0.8,1.4-1.9,1.9-2.9c0.5-1.1,0.9-2.2,1.1-3.4c0.2-1.1,0.3-2.2,0.1-3.3
					c1.1,0.3,2.3,0.4,3.4,0c1.2-0.4,3.4-2.2,3.9-3.1s0.9-1.7,0.9-2.3c0.1-1-0.2-1.9-0.9-2.7c-0.1-0.1-0.2-0.1-0.2-0.2
					c-0.1-0.1,0-0.1,0-0.2c0-0.3,0-0.5,0-0.8c-0.1-0.6-0.4-1-0.8-1.5c-0.4-0.4-0.8-0.8-1.3-1s-1-0.3-1.6-0.2c-0.2,0-0.4,0.1-0.5-0.1
					c-0.2-0.2-0.3-0.3-0.5-0.5c-0.4-0.3-0.8-0.6-1.3-0.8c-0.5-0.1-1-0.2-1.5-0.1s-0.9,0.4-1.4,0.7c-0.9,0.6-1.8,1.2-2.5,2.1
					s-1.1,2.1-1.3,3.2c-0.6-0.5-2.3-1.3-3.7-1.6S1185,384.9,1183.9,385.5z"/>
			</g>
			<g id="Bottom_x2F_Standing_x2F_Skinny-Jeans" transform="translate(0.000000, 218.435876)">
				<polygon id="Leg_6_" class="st36" points="1275.9,-53 1264.8,33.9 1272.4,33.9 1282.9,-3 1297.2,-53 				"/>
				<path id="Leg_5_" class="st51" d="M1275.9-53c7,24.7,11.7,38.8,13.2,42.2s8.7,18.4,21.7,44.7h7.9
					c-10.2-27.5-15.4-42.4-15.8-44.7c-0.3-2.3-1.5-16.4-1.8-42.2H1275.9z"/>
				<g id="Accessories_x2F_Shoe_x2F_Flat-Pointy" transform="translate(77.992120, 214.729269)">
					<path id="Shoe" class="st36" d="M1237.4-173.6v-0.8l-5.1,0.8h-15v-1.6c6.3-1.7,11.5-4,15.4-6.7h8.3l0.4,8.3H1237.4z"/>
				</g>
				<g id="Accessories_x2F_Shoe_x2F_Flat-Pointy_1_" transform="translate(203.646091, 214.729269)">
					<path id="Shoe_1_" class="st36" d="M1065.9-173.6v-0.8l-5.1,0.8h-15v-1.6c6.3-1.7,11.5-4,15.4-6.7h8.3l0.4,8.3H1065.9z"/>
				</g>
			</g>
			
				<g id="Body_x2F_Lab-Coat" transform="translate(161.379703, 207.081536) rotate(-10.000000) translate(-161.379703, -207.081536) translate(22.744790, 105.973841)">
				<path id="Skin" class="st52" d="M1235.3,248.8l-13.4,1.5c-4.5,3-6.9,4.1-7.1,3.3c-0.3-1.2,1.2-1.7,1.2-2.5
					c-0.1-0.8-2.4-1.4-4.6-1.9s-1.3-1.2-0.6-1.6c2.6-0.7,5.6-1,9.2-0.9l14.6-5.4L1235.3,248.8z M1287.6,282.8
					c0.3,1.2,3.7,5.5,6.1,8.1c1,1,0.3,1.9-0.2,2.1c-4,1.4-5.7-1.6-8.5-3.7c-3-2.2-3.6,2.2-6,0.4c1.2-1.6,3.8-4.6,3.4-7
					c-0.2-1.1-1-10.5-2.6-28.3l6.9,1.4C1286.9,272.1,1287.2,281.1,1287.6,282.8z"/>
				<path id="Coat-Back" class="st29" d="M1261.9,238.7c-8.5,9-22,10.3-36.7,13l-1.3-7.1c17.9-6.2,30.9-16.5,41.5-28.2l3.6,2.8
					C1267.6,223.5,1264.8,235.7,1261.9,238.7z"/>
				<path id="Shirt" class="st53" d="M1271.1,218.7c-2.9-0.6-4.8-1.4-5.7-2.4c-3.7,10.2-12.5,21.4-23.8,33.9
					c-0.7,0.8-1.1,2.2-0.3,2.7c6.3,3.7,15.4,7,27.6,10C1273.8,245.1,1274.7,231.8,1271.1,218.7z"/>
				<path id="Coat-Front" class="st33" d="M1273.4,218.3c0.1,0.1,0.2,0.2,0.2,0.3l0.3,0.1c0,0.1,0,0.2,0,0.3
					c12.5,16.6,17.3,37.1,14.4,61.6l-7.7-0.8c0.3-14.2-1.5-24.9-5.4-32.3c0.3,19.5-0.7,42.3-6.1,59.7l-37.8-13.8
					c13.8-16.1,36.7-72.1,39-76l3.1,1.1V218.3z"/>
			</g>
		</g>
	</g>
</g>
<g>
	<g id="Background-Shape-2_2_" transform="translate(29.000000, 244.000000)" class="st30">
		<path id="Background-Shape_5_" class="st54" d="M124.7,23.6c22.4-10.8,28.3-35.7,14.5-45.2S70,6.5,71.6,19.4
			C73.2,32.3,102.4,34.5,124.7,23.6z"/>
		<path id="Background-Shape_6_" class="st55" d="M83.4-23.6C64.3-24.9,50.8-10.6,56.4,1s56.9,7.7,60.8-1.5
			C121.1-9.7,102.5-22.4,83.4-23.6z"/>
		<path id="Background-Shape_4_" class="st33" d="M42.8,25c-22-12-18.4-36.6-4-44.8s68.6,31.5,66.4,43.7C103,36.3,64.9,36.9,42.8,25
			z"/>
	</g>
	<g id="Hanging-Lamp_2_" transform="translate(25.000000, 0.000000)">
		<g id="Light_1_" transform="translate(0.000000, 152.673469)">
			<ellipse id="Hanging-Lamp-Light_1_" class="st26" cx="50.9" cy="64.3" rx="8.1" ry="4.3"/>
			<path id="Hanging-Lamp_3_" class="st33" d="M60.3,67.2c0-5.2-4.2-9.5-9.4-9.5s-9.4,4.2-9.4,9.5"/>
		</g>
		<rect id="Wire_1_" x="50.5" y="181.5" class="st33" width="0.9" height="30.3"/>
	</g>
	<g id="Big-Leaf-Plant_2_" transform="translate(16.000000, 371.000000)">
		<g id="Big-Ass-Leaf_8_" transform="translate(22.000000, 0.000000)">
			<path id="leaf_8_" class="st33" d="M140.1-111.2c0.5,0.3,0.7,0.8,0.9,1.3c0.3,1.2-0.5,2.3-0.5,3.4s0.8,1.9,1.4,2.8
				c0.7,0.9,1.1,1.9,1.2,3c0,0.6,0,1.1-0.3,1.7c-0.2,0.5-0.6,1-0.9,1.4c-0.3,0.5-0.7,1-0.8,1.5s0.1,1,0.4,1.4c1.2,1.9,1.9,4.5,1,6.7
				c-0.2,0.5-0.6,1-1,1.4c-0.2,0.2-0.4,0.3-0.6,0.6c-0.2,0.3-0.3,0.4-0.6,0.6c-0.9,0.5-2,0.6-3,0.6c-2.4,0-4.7-0.9-6.3-2.6
				c-0.8-0.9-1.3-2.1-1.2-3.2c0.1-1.2,0.8-2.4,1.6-3.3c0.7-0.8,1.8-1.7,2-2.8c0.2-1.1-0.7-1.9-1-2.8c-0.4-1.1-0.2-2.2,0.3-3.3
				c0.2-0.5,0.6-1.1,1-1.5s0.9-0.7,1.3-1.1c0.8-0.9,0.6-2.1,0.6-3.2c0-1,0.3-2.3,1.4-2.8c0.5-0.2,1.1-0.2,1.6-0.2
				C139.1-111.6,139.7-111.5,140.1-111.2z"/>
			<path id="middle-thing_8_" class="st29" d="M137.8-104.4c-0.2,0.9-0.1,1.7,0.3,2.6c0.3,0.9,0.6,1.8,0.9,2.7
				c0.2,0.9,0.4,1.8,0.2,2.6c-0.2,0.9-0.7,1.6-1.2,2.3c-0.5,0.7-0.9,1.4-1.2,2.3s-0.4,1.8-0.4,2.7c0,1,0,1.9,0.2,2.8
				c0,0.2,0.2,0.5,0,0.7s-0.5,0.2-0.6,0c-0.4-0.3-0.5-0.9-0.6-1.4c-0.2-0.8-0.2-1.6-0.2-2.4c0.1-1.8,0.4-3.5,1.3-5
				c0.4-0.7,1-1.4,1.3-2.2c0.3-0.9,0.1-1.8-0.1-2.6c-0.2-1-0.5-1.9-0.7-2.9s0-2,0.3-3c0.4-1,0.8-1.9,1.1-2.9c0.1-0.5,0.2-1,0.2-1.5
				c0-0.2,0-0.3,0.2-0.4c0.1,0,0.3,0.1,0.3,0.2C139.1-107.9,138.2-106.2,137.8-104.4z"/>
		</g>
		<g id="Big-Ass-Leaf_7_" transform="translate(32.000000, 11.000000)">
			<path id="leaf_7_" class="st33" d="M116.3-120.7c0.7,0.1,1.3,0.6,1.7,1.1c1,1.3,0.7,2.9,1.3,4.3c0.6,1.3,1.9,1.9,3.1,2.6
				c1.3,0.7,2.4,1.7,3,2.9c0.4,0.7,0.6,1.4,0.6,2.1s-0.2,1.5-0.3,2.2c-0.1,0.7-0.3,1.5-0.1,2.2c0.1,0.7,0.6,1.1,1.2,1.5
				c2.4,1.6,4.6,4.4,4.7,7.3c0,0.8-0.1,1.5-0.5,2.2c-0.2,0.3-0.3,0.6-0.4,0.9c0,0.4-0.1,0.7-0.3,1c-0.7,1.1-2,1.7-3.2,2.3
				c-2.8,1.2-6,1.4-8.8,0.2c-1.4-0.6-2.6-1.8-3.1-3.2c-0.5-1.5-0.3-3.3,0.1-4.8c0.4-1.3,1.2-2.9,0.9-4.3c-0.3-1.4-1.8-1.9-2.7-2.8
				c-1-1-1.4-2.6-1.4-4c0-0.8,0.1-1.5,0.3-2.3c0.2-0.7,0.6-1.3,0.9-2c0.5-1.5-0.4-2.8-1-4.1c-0.6-1.2-0.9-2.9,0.1-4
				c0.5-0.5,1.1-0.8,1.8-1C114.9-120.6,115.6-120.8,116.3-120.7z"/>
			<path id="middle-thing_7_" class="st29" d="M117.1-111.3c0.3,1.2,0.8,2.1,1.6,2.9c0.8,0.9,1.7,1.8,2.4,2.7c0.7,0.9,1.4,1.9,1.6,3
				s0,2.3-0.2,3.4s-0.3,2.2-0.2,3.3c0.1,1.2,0.5,2.3,0.9,3.5s1,2.3,1.7,3.3c0.2,0.2,0.5,0.5,0.4,0.9c-0.1,0.3-0.5,0.4-0.7,0.4
				c-0.6-0.2-1.1-0.8-1.5-1.3c-0.6-0.8-1.1-1.8-1.5-2.8c-0.9-2.1-1.3-4.3-1.1-6.6c0.1-1.1,0.5-2.2,0.3-3.3c-0.1-1.2-0.8-2.1-1.5-3
				c-0.7-1-1.6-2-2.4-3c-0.8-1.1-1.1-2.4-1.2-3.7c-0.1-1.3,0-2.7-0.3-4c-0.1-0.6-0.3-1.3-0.6-1.8c-0.1-0.2-0.2-0.4,0-0.6
				c0.2-0.1,0.4-0.1,0.5,0.1C116.8-116,116.6-113.5,117.1-111.3z"/>
		</g>
		<g id="Big-Ass-Leaf_6_" transform="translate(0.000000, 57.000000)">
			<path id="leaf_6_" class="st29" d="M168.3-157.6c0.9,0.6,1,1.8,0.8,2.8c-0.3,1.1-1,1.9-1.3,3c-0.1,0.2-0.1,0.5,0.1,0.7
				c0.2,0.2,0.4,0.4,0.6,0.6c0.4,0.5,0.7,1,0.9,1.6c0.3,1.2,0.1,2.3-0.5,3.4c-0.6,1.1-1.5,1.9-2.7,2.4c-1,0.3-2.1,0.6-2,1.8
				c0,0.5,0.2,0.9,0.3,1.4c0.2,0.6,0.3,1.3,0.3,1.9c0,1-0.2,2.1-1,2.9c-1.3,1.3-3.5,1.4-5.2,1.3c-1.9-0.1-3.9-1-4.6-2.8
				c-0.4-1.1-0.3-2.4,0-3.6c0.3-1.1,1.1-1.6,2-2.2c0.9-0.6,2.1-1.3,2.2-2.5c0.1-1.3-0.4-2.6,0.1-3.8c0.3-1,1.2-1.9,2.2-2.2
				c0.5-0.2,1.1-0.2,1.5-0.6c0.5-0.4,0.8-1,0.9-1.6c0.3-1.2,0.5-2.4,1.3-3.4c0.7-0.8,1.7-1.4,2.8-1.4
				C167.5-158,168-157.9,168.3-157.6z"/>
			<path id="middle-thing_6_" class="st28" d="M166.1-154.9c-0.1,0.4-0.5,0.7-0.7,1c-0.5,0.9-0.4,2-0.3,3c0.1,1.8,0.3,3.6-1,5
				c-1,1.2-2.4,2-3,3.5c-0.3,0.9-0.3,1.8-0.4,2.7c-0.1,0.9-0.5,1.7-0.9,2.5c-0.4,0.7-0.9,1.3-1.4,1.9c-0.4,0.4-0.9,1-1.4,1.1
				c-0.2,0-0.6,0-0.7-0.3c-0.1-0.2,0.1-0.5,0.3-0.6c0.5-0.5,1-1,1.4-1.6c0.5-0.7,1-1.6,1.2-2.4c0.3-0.9,0.1-1.9,0.3-2.9
				c0.3-1.6,1.6-2.8,2.7-3.9c0.6-0.6,1.1-1.1,1.3-1.9c0.3-0.9,0.2-1.9,0.3-2.8c0.1-1.7,0.4-3.4,1.6-4.6
				C165.8-155.6,166.2-155.2,166.1-154.9z"/>
		</g>
		<path id="Base_2_" class="st46" d="M149.5-77.5c0,7.2,1.2,11,7.4,11s7.4-3.8,7.4-11H149.5z"/>
	</g>
	<g id="Table_1_" transform="translate(135.000000, 353.000000)">
		<g id="Lamp_4_" transform="translate(23.000000, 0.000000)">
			<path id="Lamp-Base_2_" class="st28" d="M-3.3-69.6v0.9c0,0.2-0.2,0.4-0.4,0.4h-6.4c-0.2,0-0.4-0.2-0.4-0.4v-0.9
				c0-0.2,0.2-0.4,0.4-0.4h6.4C-3.5-70-3.3-69.8-3.3-69.6z"/>
			<path id="Lamp-Body_1_" class="st33" d="M-3.8-75.5c1.6,0,2.9,1.3,2.9,2.9s-1.3,2.9-2.9,2.9h-6.3c-1.6,0-2.9-1.3-2.9-2.9
				s1.3-2.9,2.9-2.9h1.2c0.8-2.6,1.3-5.4,1.4-8.3h0.3h0.5c0.1,2.9,0.6,5.7,1.4,8.3H-3.8z"/>
			<path id="Shade_1_" class="st29" d="M0.6-81.9c-2.5,0.2-4.9,0.4-7.4,0.4s-4.9-0.1-7.4-0.4l0.9-15.1c2.2-0.2,4.3-0.3,6.5-0.3
				s4.3,0.1,6.5,0.3L0.6-81.9z"/>
		</g>
		<path class="st26" d="M28-68.3v19.7h-4v-15.5H8.3v15.5h-4v-19.7h4H24H28z"/>
	</g>
	<g id="Plant_1_" transform="translate(537.000000, 328.000000)">
		<g id="Succulents_1_" transform="translate(13.000000, 0.000000)">
			<path id="Thi-Succs_x21__15_" class="st47" d="M-466.2-77c-0.1,0.7-0.2,1.3-0.4,1.9c-0.6,2.1-1.7,3.9-2.6,5.8
				c-1,1.9-1.8,4-2.2,6.3c-0.4,2.8,0,5.7,0,8.6c0.1,2.9-0.1,5.9,0,8.8c0,0.7,0.1,1.5,0.1,2.2c0,0.6,0,1.2-0.1,1.7
				c-0.2,1-1,0.9-1.3,0.1c-0.4-1-0.4-2.4-0.5-3.5c-0.1-1.5-0.2-2.9-0.3-4.3c-0.1-1.4-0.2-2.9-0.2-4.3c0-1.5,0-3,0-4.5
				c0-2.7,0.4-5.4,1.3-7.9C-470.8-70.2-468-73-466.2-77C-466.3-77-466.2-77-466.2-77z"/>
			<path id="Thi-Succs_x21__14_" class="st46" d="M-465.6-69.2c-0.2,0.5-0.6,1-0.8,1.5c-0.2,0.4-0.4,0.9-0.6,1.4
				c-0.4,1.1-0.9,2.2-1.3,3.4c-0.8,2.2-0.9,4.6-0.7,7c0.2,2.3,0.6,4.5,0.6,6.7c0.1,1.9,0,3.8-0.4,5.7c-0.3,1.2-0.9,2.8-2.3,2.8
				c-0.6,0-0.9-0.5-1-1.2c-0.1-1-0.1-2.1-0.1-3.1c0-2.3,0.2-4.6,0.4-6.9c0.2-2.2,0.3-4.3,0.7-6.5c0.4-2,1.1-3.9,2.1-5.7
				c0.5-0.9,1-1.9,1.6-2.8c0.3-0.4,0.6-0.8,0.9-1.2c0.2-0.3,0.4-0.7,0.7-0.9C-465.8-69.1-465.7-69.2-465.6-69.2z"/>
			<path id="Thi-Succs_x21__13_" class="st47" d="M-481.1-73c0.2,0.4,0.4,0.8,0.6,1.2c0.4,0.8,0.7,1.7,1,2.6c0.6,1.7,1,3.5,1.2,5.5
				c0.1,2.1,0.1,4.2,0,6.3c0,2.2-0.1,4.5-0.2,6.8c-0.1,1-0.1,2.1-0.3,3.1c-0.1,0.6-0.3,1.2-0.8,1.3c-1,0.1-1.4-1.3-1.5-2.5
				c-0.2-1.8-0.1-3.7,0.1-5.6c0.2-2.3,0.6-4.5,0.9-6.8c0.3-2.4,0.4-4.7-0.1-6.8c-0.2-1.1-0.5-2.1-0.7-3.2c-0.1-0.5-0.2-0.9-0.3-1.4
				c-0.2-0.5-0.4-0.9-0.5-1.4l0.1,0.1C-481.4-73.7-481.3-73.3-481.1-73z"/>
			<path id="Thi-Succs_x21__12_" class="st47" d="M-466.4-61.8c-0.2,0.3-0.3,0.6-0.4,1c-0.3,0.8-0.4,1.7-0.6,2.6
				c-0.3,1.8-0.7,3.6-0.6,5.5c0.1,1.7,0.4,3.5,0.5,5.2c0,0.9,0,1.8-0.1,2.6c-0.1,0.9-0.3,1.9-0.6,2.8c-0.2,0.6-0.8,1.2-1.5,1
				c-0.4-0.1-0.6-0.4-0.7-0.8c0-0.1-0.1-0.3-0.1-0.4c0,0,0-0.3,0-0.2c0.2-0.6,0.3-1.2,0.4-1.9c0.1-0.6,0.4-1.2,0.4-1.9
				c0.1-1.4,0-2.7,0-4.1c-0.1-1.3,0-2.5,0.3-3.8s0.8-2.5,1.1-3.8c0.2-0.7,0.4-1.4,0.6-2.1c0.2-0.7,0.5-1.3,0.9-1.9
				c0,0.1-0.1,0.1-0.1,0.2c0.1-0.1,0.5-1.1,0.6-0.8C-466.1-62.3-466.3-62-466.4-61.8z"/>
			<path id="Thi-Succs_x21__11_" class="st48" d="M-471.8-72.2L-471.8-72.2c-0.5,1-0.5,2.2-0.5,3.4c0,1.2,0,2.4-0.1,3.7
				c-0.2,2.5-0.4,4.9-0.6,7.4c-0.2,2.2-0.4,4.4-0.5,6.6c-0.1,2.2-0.2,4.3,0,6.5c0.1,1.1,0.5,4.5,2.3,3.7s1.5-3.5,1.5-5.1
				c0-2.2-0.3-4.3-0.5-6.5c-0.3-2.2-0.6-4.4-0.9-6.6c-0.3-2.1-0.4-4.3-0.5-6.5"/>
			<path id="Thi-Succs_x21__10_" class="st46" d="M-481.6-59.7c-0.4-0.2,0,1.1,0.1,1.3c0.4,1.2,0.7,2.6,0.9,3.9
				c0.2,1.4,0.3,2.8,0.3,4.2s-0.1,2.9-0.1,4.3c0,0.8-0.1,2.7,0.6,2.7c0.4,0,0.7-0.4,0.9-0.9c0.2-0.5,0.2-1.1,0.2-1.6
				c0.1-2.7,0.3-5.6,0-8.3c-0.1-1.3-0.6-2.3-1.2-3.2c-0.3-0.5-0.6-1-1-1.4"/>
			<path id="Thi-Succs_x21__9_" class="st48" d="M-477.4-72.8c-0.4,0-0.4,1.7-0.4,1.9c-0.1,1.1-0.2,2.2-0.3,3.3
				c-0.2,1.5-0.4,3-0.6,4.5s-0.3,3-0.4,4.5c-0.2,2.7-0.4,5.5-0.2,8.2c0.1,1.3,0.2,2.7,0.5,4c0.2,1.2,0.4,2.4,0.8,3.5
				c0.3,0.9,0.9,2.1,1.9,2.2c0.3,0.1,0.9-0.1,1-0.5c0.1-0.3,0-0.6,0.1-0.9c0.1-0.3,0.1-0.6,0.1-1c0.2-1.3,0.2-2.6,0.2-4
				c0-1.3,0.1-2.6,0-4c-0.2-1.4-0.5-2.7-0.8-4s-0.5-2.7-0.7-4c-0.4-2.5-0.5-5.1-0.5-7.6c0-1.2,0-2.3-0.1-3.5
				C-476.9-70.3-476.9-72.8-477.4-72.8"/>
			<path id="Thi-Succs_x21__8_" class="st46" d="M-476.8-54.6c-0.1,2.1,0.2,4.2,0.3,6.3c0.1,1.9,0.5,3.7,0.9,5.5
				c0.3,1.1,0.9,2.4,2,1.9c0.5-0.3,0.9-0.9,1.1-1.5c0.1-0.4,0.2-0.8,0.4-1.2c0.1-0.4,0.2-0.8,0.3-1.2c0.2-1.8,0-3.6-0.2-5.3
				c-0.2-1.8-0.4-3.6-0.8-5.3c-0.2-0.9-1.5-12.7-1.6-13.6s-0.2-1.8-0.2-2.7c0-0.9,0-4.9-0.2-5.1c-0.1,0.9-0.7,4.2-0.7,5
				C-475.7-68.8-476.7-57.2-476.8-54.6"/>
		</g>
		<g id="Planter_1_" transform="translate(0.000000, 159.000000)">
			<path id="Vase_1_" class="st1" d="M-452.1-205.5v16.5c0,0.2-0.2,0.4-0.4,0.4H-469c-0.2,0-0.4-0.2-0.4-0.4v-16.5
				c0-0.2,0.2-0.4,0.4-0.4h16.5C-452.2-205.9-452.1-205.7-452.1-205.5z"/>
			<path id="Leg_11_" class="st29" d="M-450.2-203.6v20.7c0,0.2-0.2,0.4-0.4,0.4h-1.1c-0.2,0-0.4-0.2-0.4-0.4v-20.7
				c0-0.2,0.2-0.4,0.4-0.4h1.1C-450.3-204-450.2-203.8-450.2-203.6z"/>
			<path id="Leg_10_" class="st29" d="M-459.7-203.6v20.7c0,0.2-0.2,0.4-0.4,0.4h-1.1c-0.2,0-0.4-0.2-0.4-0.4v-20.7
				c0-0.2,0.2-0.4,0.4-0.4h1.1C-459.8-204-459.7-203.8-459.7-203.6z"/>
			<path id="Leg_9_" class="st29" d="M-469.3-203.6v20.7c0,0.2-0.2,0.4-0.4,0.4h-1.1c-0.2,0-0.4-0.2-0.4-0.4v-20.7
				c0-0.2,0.2-0.4,0.4-0.4h1.1C-469.5-204-469.3-203.8-469.3-203.6z"/>
		</g>
	</g>
	<g>
		<g>
			<path class="st56" d="M93.9,274.4l10.8-5.4c0.7-0.3,0.9-1.2,0.3-1.8l-9-9.8c-0.3-0.4-0.9-0.5-1.4-0.3l-4.2,2.1
				c-0.5,0.2-0.7,0.7-0.6,1.2l2.4,13.1C92.4,274.3,93.2,274.7,93.9,274.4z"/>
			<path class="st56" d="M100.5,264.1c-1.7,0.9-3.8,0.2-4.7-1.6s-0.2-3.8,1.6-4.7c1.7-0.9,3.8-0.2,4.7,1.6
				C102.9,261.1,102.2,263.2,100.5,264.1z M97.7,258.4c-1.4,0.7-2,2.4-1.3,3.9c0.7,1.4,2.4,2,3.9,1.3c1.4-0.7,2-2.4,1.3-3.9
				S99.1,257.7,97.7,258.4z"/>
			<path class="st56" d="M85.2,268.1l-1.1-6.3c1.6-0.3,3.2,0.9,3.5,2.6C87.8,266.2,86.8,267.8,85.2,268.1z"/>
			<g>
				<line class="st49" x1="87.5" y1="264.4" x2="92.1" y2="263.8"/>
				
					<rect x="87.5" y="263.7" transform="matrix(0.9905 -0.1374 0.1374 0.9905 -35.4357 14.8431)" class="st56" width="4.6" height="0.8"/>
			</g>
		</g>
	</g>
	<g id="humaaans_x2F_standing-17_1_">
		<g id="humaaan-1_1_" transform="translate(28.000000, 2.000000)">
			
				<g id="Head_x2F_Front_x2F_Chongo_1_" transform="translate(133.219486, 73.532869) rotate(-15.000000) translate(-133.219486, -73.532869) translate(59.569689, 17.301852)">
				<g id="Head_2_" transform="translate(58.494090, 33.282773)">
					<path class="st50" d="M-60.8,173.5l-4.3-2.5l3.6-4.6c-1.5,0-2.9-0.3-3.3-0.7c-1.1-1.1,1.5-6,3.7-7.3c2.1-1.3,7.9,0.9,6,4.8
						c-0.7,1.4-1.9,2.2-3.3,2.7L-60.8,173.5z"/>
				</g>
				<path id="hair_2_" class="st36" d="M-2.6,190.9c-0.1,0.1-0.2,0.1-0.3,0.2c0,0.1,0,0.2,0,0.3c0,0.2,0.2,0.4,0.3,0.6
					c0.5,0.7,1.3,1.2,1.8,1.9c0.4,0.7,0.5,1.5,0.3,2.2c0.6,0,1.3,0.1,1.7,0.6c0.3,0.4,0.1,1-0.2,1.4s-0.7,0.6-1.1,0.7
					c-0.1,0-0.2,0-0.2,0.1c-0.1,0-0.1,0.1-0.1,0.1c0,0.2,0,0.4,0.1,0.6c0.1,0.5,0.6,0.8,1,0.9c0.2,0.1,0.5,0.1,0.7,0.2
					c0.2,0,0.5,0.1,0.7,0.1c0.5,0,1-0.3,1.4-0.7s0.7-1,1-1.5c0.3-0.6,0.5-1.2,0.6-1.8s0.2-1.2,0-1.7c0.6,0.2,1.2,0.2,1.8,0
					s1.7-1.2,2-1.6c0.3-0.4,0.5-0.9,0.5-1.2c0-0.5-0.1-1-0.4-1.4l-0.1-0.1v-0.1c0-0.1,0-0.3,0-0.4c-0.1-0.3-0.2-0.5-0.4-0.8
					c-0.2-0.2-0.4-0.4-0.7-0.5c-0.2-0.1-0.5-0.2-0.8-0.1c-0.1,0-0.2,0.1-0.3,0c-0.1-0.1-0.1-0.2-0.2-0.3c-0.2-0.2-0.4-0.3-0.7-0.4
					c-0.3-0.1-0.5-0.1-0.8,0s-0.5,0.2-0.7,0.4c-0.5,0.3-1,0.6-1.3,1.1c-0.4,0.5-0.6,1.1-0.7,1.7c-0.3-0.2-1.2-0.7-1.9-0.8
					C-0.4,190.4-2.1,190.7-2.6,190.9z"/>
			</g>
			<g id="Bottom_x2F_Standing_x2F_Skinny-Jeans_1_" transform="translate(0.000000, 218.435876)">
				<polygon id="Leg_8_" class="st57" points="86.7,36.8 80.9,82 84.9,82 90.3,62.8 97.7,36.8 				"/>
				<path id="Leg_7_" class="st3" d="M86.6,36.8c3.6,12.8,6.1,20.1,6.8,21.9c0.8,1.8,4.5,9.5,11.3,23.3h4.1c-5.3-14.3-8-22-8.2-23.3
					c-0.2-1.2-0.8-8.5-0.9-21.9C99.7,36.8,86.6,36.8,86.6,36.8z"/>
				<g id="Accessories_x2F_Shoe_x2F_Flat-Pointy_3_" transform="translate(77.992120, 214.729269)">
					<path id="Shoe_5_" class="st36" d="M29.2-129v-0.4l-2.7,0.4h-7.8v-0.8c3.3-0.9,6-2.1,8-3.5H31l0.2,4.3H29.2z"/>
				</g>
				<g id="Accessories_x2F_Shoe_x2F_Flat-Pointy_2_" transform="translate(203.646091, 214.729269)">
					<path id="Shoe_4_" class="st36" d="M-120.3-129v-0.4l-2.7,0.4h-7.8v-0.8c3.3-0.9,6-2.1,8-3.5h4.3l0.2,4.3H-120.3z"/>
				</g>
			</g>
			
				<g id="Body_x2F_Lab-Coat_1_" transform="translate(161.379703, 207.081536) rotate(-10.000000) translate(-161.379703, -207.081536) translate(22.744790, 105.973841)">
				<path id="Skin_2_" class="st52" d="M52.5,133l-7,0.8c-2.4,1.6-3.6,2.1-3.7,1.7c-0.2-0.6,0.6-0.9,0.6-1.3c0-0.4-1.2-0.7-2.4-1
					s-0.7-0.6-0.3-0.8c1.3-0.4,2.9-0.5,4.8-0.5l7.6-2.8L52.5,133z M79.6,150.7c0.2,0.6,1.9,2.9,3.2,4.2c0.5,0.5,0.2,1-0.1,1.1
					c-2.1,0.7-3-0.8-4.4-1.9c-1.6-1.2-1.9,1.1-3.1,0.2c0.6-0.8,2-2.4,1.8-3.6c-0.1-0.6-0.5-5.5-1.3-14.7l3.6,0.7
					C79.3,145.1,79.4,149.8,79.6,150.7z"/>
				<path id="Coat-Back_1_" class="st58" d="M66.3,127.8c-4.4,4.7-11.4,5.3-19.1,6.7l-0.7-3.7c9.3-3.2,16.1-8.6,21.5-14.7l1.9,1.5
					C69.2,119.9,67.8,126.2,66.3,127.8z"/>
				<path id="Shirt_1_" class="st53" d="M71.1,117.4c-1.5-0.3-2.5-0.7-3-1.2c-1.9,5.3-6.5,11.1-12.4,17.6c-0.4,0.4-0.6,1.2-0.2,1.4
					c3.2,1.9,8,3.6,14.3,5.2C72.4,131.1,72.9,124.2,71.1,117.4z"/>
				<path id="Coat-Front_1_" class="st0" d="M72.2,117.2c0,0.1,0.1,0.1,0.1,0.2l0.1,0.1v0.1c6.5,8.6,9,19.3,7.5,32l-4-0.4
					c0.1-7.4-0.8-13-2.8-16.8c0.2,10.1-0.3,22-3.1,31l-19.6-7.1c7.1-8.3,19.1-37.5,20.2-39.5l1.6,0.6L72.2,117.2z"/>
			</g>
		</g>
	</g>
</g>
</svg>
