<?xml version="1.0" encoding="utf-8"?>
<!-- Generator: Adobe Illustrator 22.1.0, SVG Export Plug-In . SVG Version: 6.00 Build 0)  -->
<svg version="1.1" id="Layer_1" xmlns="http://www.w3.org/2000/svg" xmlns:xlink="http://www.w3.org/1999/xlink" x="0px" y="0px"
	 viewBox="0 0 434.1 152.1" style="enable-background:new 0 0 434.1 152.1;" xml:space="preserve">
<style type="text/css">
	.st0{fill:none;stroke:#0075FF;stroke-width:2;stroke-miterlimit:10;}
	.st1{fill:#132A8C;stroke:#0075FF;stroke-width:2;stroke-miterlimit:10;}
	.st2{fill:#F2F2F2;}
	.st3{fill-opacity:0.1;}
	.st4{fill:#AFB9C5;}
	.st5{fill:#C5CFD6;}
	.st6{opacity:0.3459;}
	.st7{fill:#E1F1FF;}
	.st8{fill:#9DCBEA;}
	.st9{fill:#DDE3E9;}
	.st10{opacity:0.7;}
	.st11{fill:#0075FF;}
	.st12{fill:#EFEFEF;}
	.st13{fill:#AAAAAA;}
	.st14{fill:#D4A181;}
	.st15{fill:#191847;}
	.st16{fill:#BA8B72;}
	.st17{fill:#AA0000;}
	.st18{fill:#EA0000;}
	.st19{fill:#0050A0;}
	.st20{fill:#C9C9C9;}
	.st21{fill:#8C8C8C;}
	.st22{fill:#668BFF;}
	.st23{opacity:0.69;fill:#ABDBFF;}
	.st24{fill:#FFFFFF;}
	.st25{fill:#F7F7F7;}
	.st26{fill:#444444;}
	.st27{fill:#6EBEFF;}
	.st28{fill:#C6C6C6;}
	.st29{fill:#04B100;}
	.st30{fill:#E30000;}
	.st31{fill:#C1C1C1;}
	.st32{fill:#B5B5B5;}
	.st33{fill:#777777;}
	.st34{fill:none;stroke:#0075FF;stroke-width:0.5;stroke-miterlimit:10;}
	.st35{fill:none;stroke:#B3D9FF;stroke-width:0.5;stroke-miterlimit:10;}
	.st36{fill:none;stroke:#B3D9FF;stroke-width:0.5;stroke-linejoin:round;stroke-miterlimit:10;}
	.st37{fill:#353535;}
	.st38{fill:#161616;}
	.st39{opacity:0.4;}
	.st40{fill:url(#SVGID_1_);}
	.st41{fill:url(#SVGID_2_);}
</style>
<title>nso-card-img</title>
<g>
	<path class="st0" d="M193.2,77.3h4.7c7.2,0,13-5.6,13-12.5v-3.5c0-6.9,5.8-12.5,13-12.5l0,0"/>
	<path class="st1" d="M298.9,98.9h-68.6c-3.5,0-6.4-2.9-6.4-6.4V23.9c0-3.5,2.9-6.4,6.4-6.4h68.6c3.5,0,6.4,2.9,6.4,6.4v68.6
		C305.3,96,302.4,98.9,298.9,98.9z"/>
	<g>
		<g>
			<g id="Scene_x2F_Home_1_">
				<g id="Clock_1_" transform="translate(505.000000, 85.000000)">
					<circle id="Clock-Frame_1_" class="st2" cx="-218.4" cy="-44.6" r="6"/>
					<circle id="Time_16_" class="st3" cx="-218.4" cy="-49.4" r="0.3"/>
					<circle id="Time_14_" class="st3" cx="-223.2" cy="-44.6" r="0.3"/>
					<circle id="Time_12_" class="st3" cx="-213.7" cy="-44.6" r="0.3"/>
					<circle id="Time_10_" class="st3" cx="-218.4" cy="-39.9" r="0.3"/>
					<polygon id="Hand_3_" class="st4" points="-218.4,-48.7 -218.2,-44.8 -218.7,-44.8 					"/>
					<polygon id="Hand_2_" class="st4" points="-216.4,-42.6 -218.5,-44.4 -218.2,-44.7 					"/>
					<circle id="Time_5_" class="st5" cx="-218.4" cy="-44.6" r="0.5"/>
				</g>
				<g id="Background-Shape-2_1_" transform="translate(29.000000, 244.000000)" class="st6">
					<path id="Background-Shape_3_" class="st7" d="M251.2-172c-0.8-8.8-42.8-25.6-50.6-17.4s-0.3,23.8,16,27.8S252-163.3,251.2-172
						z"/>
					<path id="Background-Shape_2_" class="st8" d="M225.2-166.3c0.7-7.4,38.3-21.8,45.3-14.7s5.2,21.9-9.4,25.2
						C246.5-152.4,224.5-158.9,225.2-166.3z"/>
				</g>
				<g id="Hanging-Lamp_6_" transform="translate(25.000000, 0.000000)">
					<g id="Light_3_" transform="translate(0.000000, 152.673469)">
						<ellipse id="Hanging-Lamp-Light_3_" class="st2" cx="206.8" cy="-112.1" rx="4.8" ry="2.6"/>
						<path id="Hanging-Lamp_7_" class="st9" d="M212.4-110.4c0-3.1-2.5-5.7-5.6-5.7s-5.6,2.5-5.6,5.7"/>
					</g>
					<rect id="Wire_3_" x="206.5" y="19.3" class="st9" width="0.6" height="18.2"/>
				</g>
				<g id="Hanging-Lamp_4_" transform="translate(115.000000, 0.000000)" class="st10">
					<g id="Light_2_" transform="translate(0.000000, 113.000000)">
						<ellipse id="Hanging-Lamp-Light_2_" class="st2" cx="125.5" cy="-78.3" rx="3.6" ry="2.1"/>
						<path id="Hanging-Lamp_5_" class="st9" d="M129.7-76.9c0-2.5-1.9-4.6-4.2-4.6s-4.2,2.1-4.2,4.6"/>
					</g>
					<rect id="Wire_2_" x="125.2" y="18.7" class="st9" width="0.6" height="15.4"/>
				</g>
				<g id="Big-Leaf-Plant_1_" transform="translate(16.000000, 371.000000)">
					<g id="Big-Ass-Leaf_5_" transform="translate(22.000000, 0.000000)">
						<path id="leaf_5_" class="st9" d="M204.8-315.3c0.2,0,0.4,0,0.5,0.1c0.4,0.2,0.5,0.6,0.5,0.9c0,0.4-0.1,0.8,0.2,1.1
							c0.1,0.1,0.3,0.2,0.4,0.4c0.1,0.1,0.2,0.3,0.3,0.5c0.1,0.3,0.2,0.7,0.1,1.1c-0.1,0.3-0.4,0.6-0.3,0.9c0.1,0.4,0.4,0.6,0.7,0.9
							c0.3,0.3,0.5,0.7,0.5,1.1c0,0.4-0.1,0.8-0.4,1.1c-0.5,0.6-1.3,0.9-2.1,0.9c-0.3,0-0.7,0-1-0.2c-0.1-0.1-0.1-0.1-0.2-0.2
							c0-0.1-0.1-0.1-0.2-0.2c-0.2-0.1-0.3-0.3-0.3-0.5c-0.3-0.7-0.1-1.6,0.3-2.2c0.1-0.1,0.2-0.3,0.1-0.5c0-0.2-0.2-0.4-0.3-0.5
							c-0.1-0.2-0.2-0.3-0.3-0.5c-0.1-0.2-0.1-0.4-0.1-0.6c0-0.4,0.2-0.7,0.4-1c0.2-0.3,0.5-0.6,0.5-0.9c0-0.4-0.3-0.7-0.1-1.1
							c0-0.2,0.1-0.3,0.3-0.4C204.5-315.3,204.7-315.3,204.8-315.3z"/>
						<path id="middle-thing_5_" class="st5" d="M204.7-314.7c0-0.1,0.1-0.1,0.1-0.1c0.1,0,0.1,0.1,0.1,0.1c0,0.2,0,0.3,0.1,0.5
							c0.1,0.3,0.2,0.6,0.4,1c0.1,0.3,0.2,0.7,0.1,1c-0.1,0.3-0.2,0.6-0.2,1c-0.1,0.3-0.1,0.6,0,0.9c0.1,0.3,0.3,0.5,0.4,0.7
							c0.3,0.5,0.4,1.1,0.4,1.6c0,0.3,0,0.5-0.1,0.8c0,0.2-0.1,0.4-0.2,0.5c-0.1,0-0.2,0.1-0.2,0c0-0.1,0-0.2,0-0.2
							c0.1-0.3,0.1-0.6,0.1-0.9c0-0.3-0.1-0.6-0.1-0.9c-0.1-0.3-0.2-0.5-0.4-0.7c-0.2-0.2-0.3-0.5-0.4-0.8c-0.1-0.3,0-0.6,0.1-0.9
							c0.1-0.3,0.2-0.6,0.3-0.9c0.1-0.3,0.1-0.6,0.1-0.9C205-313.5,204.7-314.1,204.7-314.7z"/>
					</g>
					<g id="Big-Ass-Leaf_4_" transform="translate(32.000000, 11.000000)">
						<path id="leaf_4_" class="st9" d="M199.6-325.6c0.2,0.1,0.4,0.2,0.6,0.3c0.3,0.4,0.2,0.9,0,1.3c-0.2,0.4-0.5,0.9-0.3,1.4
							c0.1,0.2,0.2,0.4,0.3,0.7c0.1,0.2,0.1,0.5,0.1,0.8c0,0.5-0.1,1-0.5,1.3c-0.3,0.3-0.8,0.5-0.9,0.9c-0.1,0.5,0.2,1,0.3,1.4
							c0.1,0.5,0.2,1.1,0,1.6c-0.2,0.5-0.6,0.9-1,1.1c-0.9,0.4-2,0.4-2.9-0.1c-0.4-0.2-0.8-0.4-1.1-0.7c-0.1-0.1-0.1-0.2-0.1-0.3
							c0-0.1-0.1-0.2-0.1-0.3c-0.1-0.2-0.2-0.5-0.2-0.7c0-1,0.8-1.9,1.6-2.4c0.2-0.1,0.4-0.3,0.4-0.5c0-0.2,0-0.5,0-0.7
							c0-0.2-0.1-0.5-0.1-0.7c0-0.3,0.1-0.5,0.2-0.7c0.2-0.4,0.6-0.7,1-1c0.4-0.2,0.8-0.4,1-0.8c0.2-0.5,0.1-1,0.4-1.4
							c0.1-0.2,0.3-0.3,0.6-0.4C199.1-325.7,199.4-325.7,199.6-325.6z"/>
						<path id="middle-thing_4_" class="st5" d="M199.1-324.8c0-0.1,0.1-0.1,0.2,0c0.1,0.1,0,0.1,0,0.2c-0.1,0.2-0.1,0.4-0.2,0.6
							c-0.1,0.4-0.1,0.9-0.1,1.3c0,0.4-0.1,0.9-0.4,1.2c-0.2,0.3-0.5,0.7-0.8,1c-0.2,0.3-0.4,0.6-0.5,1c0,0.4,0.1,0.7,0.1,1.1
							c0.1,0.8-0.1,1.5-0.4,2.2c-0.1,0.3-0.3,0.6-0.5,0.9c-0.1,0.2-0.3,0.4-0.5,0.4c-0.1,0-0.2,0-0.2-0.1c0-0.1,0.1-0.2,0.1-0.3
							c0.2-0.3,0.4-0.7,0.6-1.1c0.1-0.4,0.3-0.7,0.3-1.1c0-0.4,0-0.7-0.1-1.1c-0.1-0.4-0.1-0.7-0.1-1.1c0.1-0.4,0.3-0.7,0.5-1
							c0.2-0.3,0.5-0.6,0.8-0.9c0.3-0.3,0.5-0.6,0.5-1C198.8-323.3,198.8-324.1,199.1-324.8z"/>
					</g>
					<g id="Big-Ass-Leaf_3_" transform="translate(0.000000, 57.000000)">
						<path id="leaf_3_" class="st5" d="M224.7-368.8c0.4,0,0.7,0.2,0.9,0.5c0.3,0.3,0.3,0.7,0.4,1.1c0.1,0.2,0.1,0.4,0.3,0.5
							c0.1,0.1,0.3,0.1,0.5,0.2c0.3,0.1,0.6,0.4,0.7,0.7c0.1,0.4,0,0.8,0,1.3c0,0.4,0.4,0.6,0.7,0.8c0.3,0.2,0.6,0.4,0.7,0.7
							c0.1,0.4,0.1,0.8,0,1.2c-0.2,0.6-0.9,0.9-1.5,0.9c-0.6,0-1.3,0-1.7-0.4c-0.3-0.2-0.4-0.6-0.3-0.9c0-0.2,0-0.4,0.1-0.6
							c0-0.1,0.1-0.3,0.1-0.4c0-0.4-0.3-0.5-0.7-0.6c-0.4-0.1-0.7-0.4-0.9-0.8c-0.2-0.3-0.3-0.7-0.2-1.1c0.1-0.2,0.2-0.4,0.3-0.5
							c0.1-0.1,0.1-0.1,0.2-0.2c0.1-0.1,0-0.1,0-0.2c-0.1-0.4-0.3-0.6-0.4-1c-0.1-0.3,0-0.7,0.3-0.9
							C224.4-368.8,224.6-368.8,224.7-368.8z"/>
						<path id="middle-thing_3_" class="st4" d="M225.2-367.9c0.4,0.4,0.5,1,0.5,1.5c0,0.3,0,0.6,0.1,0.9c0.1,0.3,0.3,0.5,0.4,0.6
							c0.4,0.4,0.8,0.7,0.9,1.3c0.1,0.3,0,0.6,0.1,1c0.1,0.3,0.2,0.6,0.4,0.8c0.1,0.2,0.3,0.3,0.5,0.5c0,0.1,0.1,0.1,0.1,0.2
							c0,0.1-0.1,0.1-0.2,0.1c-0.2,0-0.4-0.2-0.5-0.3c-0.2-0.2-0.3-0.4-0.5-0.6c-0.1-0.3-0.3-0.5-0.3-0.8c-0.1-0.3,0-0.6-0.1-0.9
							c-0.2-0.5-0.7-0.8-1-1.2c-0.4-0.5-0.4-1.1-0.3-1.6c0-0.3,0-0.7-0.1-1c-0.1-0.1-0.2-0.2-0.2-0.3
							C225-367.9,225.1-368,225.2-367.9z"/>
					</g>
					<path id="Base_1_" class="st11" d="M225.6-304c0,2.4,0.4,3.6,2.4,3.6s2.4-1.2,2.4-3.6H225.6z"/>
				</g>
			</g>
			<ellipse transform="matrix(0.3092 -0.951 0.951 0.3092 138.5482 316.7515)" class="st12" cx="287.3" cy="63" rx="2.1" ry="3"/>
			<ellipse transform="matrix(0.3092 -0.951 0.951 0.3092 138.5482 316.7515)" class="st13" cx="287.3" cy="63" rx="1.5" ry="2.2"/>
			<g id="humaaans_x2F_standing-3_1_">
				<g id="humaaan-12_1_" transform="translate(24.000000, 10.000000)">
					
						<g id="Head_x2F_Front_x2F_Pony_1_" transform="translate(192.496667, 70.916479) rotate(15.000000) translate(-192.496667, -70.916479) translate(121.550000, 16.686230)">
						<g id="Head_1_" transform="translate(56.316359, 32.329762)">
							<path class="st14" d="M66.8-18.4c-0.5-0.6-0.8-1.3-0.8-2.1c0.2-2.3,3.3-1.8,4-0.6c0.6,1.2,0.5,4.1-0.3,4.3
								c-0.3,0.1-1-0.1-1.7-0.5l0.4,3.1h-2.6L66.8-18.4z"/>
						</g>
						<path id="hair_1_" class="st15" d="M124,13.7c-0.3,0.6-0.8,1.1-1.2,1.1c-0.8,0-1.4-1.1-1.4-2.3c0,0,0-0.1,0-0.1
							c-0.9,0.6-1.6,1.8-2.7,1.8c-1.6,0-2.2-3.2,0-3.2c1.5,0,2.3,0.2,2.9,0.5c0.1-0.4,0.3-0.7,0.6-0.9c0.1-0.1,0.1-0.1,0.3-0.2
							c0.1,0,0.1-0.1,0.2-0.1c0.4-0.1,0.9-0.2,1.6-0.3c0.1,0,0.2,0,0.3,0c0-0.6,0.5-1.1,1.1-1.1c0.6,0,1.1,0.5,1.1,1.1
							c0,0.6-0.4,1-1,1.1c-0.3,0.1-0.7,0.2-1.2,0.2c0,0.2,0.1,0.4,0.1,0.6c0,0.2,0,0.4-0.1,0.6c-0.1-0.1-0.2-0.2-0.4-0.2
							c-0.4,0-0.6,0.3-0.6,0.6C123.4,13.4,123.6,13.7,124,13.7z"/>
					</g>
					<g id="Bottom_x2F_Standing_x2F_Sweatpants_1_" transform="translate(0.000000, 211.706546)">
						<polygon id="Leg_2_" class="st16" points="248.2,-153 252.1,-139.5 254,-129.4 255.8,-129.4 254,-153 						"/>
						<path id="Leg_1_" class="st14" d="M246.4-153c0.3,7,0.2,10.8,0.1,11.5c-0.1,0.6-0.4,4.9-2.8,12.4h1.9
							c3.1-7.2,4.2-11.4,4.6-12.4c0.4-0.9,1.4-4.8,3-11.5H246.4z"/>
						<path id="Pant_3_" class="st17" d="M248.1-153c1,4.6,2.8,12.1,5.3,22.3h2.7c0.2-10.5-0.7-17.3-2.1-22.3H248.1z"/>
						<path id="Pant_2_" class="st18" d="M246.4-153c0.3,7-0.4,13.9-2.6,22.4h2.9c3.1-7.1,5.4-13.9,6.9-22.4H246.4z"/>
						<g id="Accessories_x2F_Shoe_x2F_Flat-Simple_3_" transform="translate(87.603226, 207.536214)">
							<path id="Shoe_3_" class="st15" d="M155.9-335.3l0.1-1.7c0.6,0.2,1.4,0.1,2.3-0.2c1,0.7,2.3,1.2,3.8,1.5l0,0
								c0.1,0,0.2,0.1,0.2,0.2c0,0,0,0,0,0l-0.1,0.5h-3.8h-2.2L155.9-335.3z"/>
						</g>
						<g id="Accessories_x2F_Shoe_x2F_Flat-Simple_2_" transform="translate(185.635407, 207.536214)">
							<path id="Shoe_2_" class="st15" d="M67.9-335.3L68-337c0.6,0.2,1.4,0.1,2.3-0.2c1,0.7,2.3,1.2,3.8,1.5l0,0
								c0.1,0,0.2,0.1,0.2,0.2c0,0,0,0,0,0l-0.1,0.5h-3.8h-2.2L67.9-335.3z"/>
						</g>
					</g>
					
						<g id="Body_x2F_Pointing-Forward_1_" transform="translate(167.500000, 199.713318) rotate(10.000000) translate(-167.500000, -199.713318) translate(33.953333, 102.203160)">
						<path id="Skin_1_" class="st14" d="M195-62.7l3.7-2c0.6-0.7,1.2-1.3,1.8-1.7c0.2-0.1,0.5-0.1,0.2,0.4
							c-0.3,0.5-0.6,1.1-0.4,1.3c0.2,0.2,0.5-0.1,0.7,0.2c0.1,0.2-0.5,0.5-2,0.9l-2.7,2.5L195-62.7z M200.8-60.9l1.6-0.9
							c0.2-0.9,0.5-1.3,0.8-1.3c0.2-0.1-0.2,1,0.3,0.9c0.5-0.1,1.6-0.9,1.8-0.8c0.3,0.3,0,1-0.3,1.4c-0.6,0.7-1,1-2.2,1.3
							c-0.6,0.2-1.3,0.5-2,1L200.8-60.9z"/>
						<path id="Sleeve_1_" class="st19" d="M193.2-63.1c1.3,0,3-0.3,4.9-1.5l0.7,1.6c-1.3,1.3-3.1,2.3-4.6,2.3
							C193-60.7,192.3-62.2,193.2-63.1z"/>
						<path id="Clothes_1_" class="st11" d="M195-60.5c1.4,0.3,3.7-0.1,6.9-1.2c0.8,1.7,1.2,2.9,1.1,3.6c-2.8,1.5-5.2,2.1-7.1,2.1
							c0.1,1.2-0.1,2.3-0.6,3.3c-1,2.1-6.7,0.2-8.7,0.5c-1.2-3.9,1.1-5.5,1.1-8c0-2.8,2.2-7,2.5-7h3C193.5-65.1,194.3-62.8,195-60.5
							z"/>
					</g>
				</g>
			</g>
		</g>
		<rect x="292" y="70.3" class="st20" width="9.7" height="0.3"/>
		<path class="st20" d="M301.1,67.4h-3.6c-0.3,0-0.6-0.3-0.6-0.6l0,0c0-0.3,0.3-0.6,0.6-0.6h3.6c0.3,0,0.6,0.3,0.6,0.6l0,0
			C301.7,67.1,301.4,67.4,301.1,67.4z"/>
		<path class="st20" d="M300.5,70.4v-3.6c0-0.3,0.3-0.6,0.6-0.6l0,0c0.3,0,0.6,0.3,0.6,0.6v3.6c0,0.3-0.3,0.6-0.6,0.6l0,0
			C300.8,71.1,300.5,70.8,300.5,70.4z"/>
		<path class="st2" d="M297.2,93.9h-8.7V70.6h14.6v17.4C303.1,91.3,300.5,93.9,297.2,93.9z"/>
		<rect x="297.6" y="67.4" class="st21" width="1.1" height="0.2"/>
		<path class="st22" d="M297.6,67.6c0,0,0.2,0.6-0.3,0.9c-0.4,0.3-0.3,1.2-0.3,1.2h2.3c0,0-0.8-0.9-0.6-1.3s0-0.7,0-0.7"/>
		<path class="st23" d="M297.6,67.6c0,0,0.4,0.5,0,1c-0.4,0.4-0.4,1.1-0.4,1.1h0.3c0,0-0.1-0.6,0.4-1.1c0.4-0.5-0.1-1-0.1-1
			L297.6,67.6z"/>
		<path class="st23" d="M298.3,67.6c0,0,0.2,0.5,0,1c-0.2,0.4-0.2,1.1-0.2,1.1h0.2c0,0,0-0.6,0.2-1.1c0.2-0.5,0-1,0-1L298.3,67.6z"
			/>
		<path class="st2" d="M230.4,94L230.4,94c-0.6,0-1.1-0.5-1.1-1.1V73.6c0-0.6,0.5-1.1,1.1-1.1l0,0c0.6,0,1.1,0.5,1.1,1.1v19.3
			C231.5,93.5,231,94,230.4,94z"/>
		<path class="st2" d="M258.2,94L258.2,94c-0.6,0-1.1-0.5-1.1-1.1V73.6c0-0.6,0.5-1.1,1.1-1.1l0,0c0.6,0,1.1,0.5,1.1,1.1v19.3
			C259.3,93.5,258.8,94,258.2,94z"/>
		<path class="st2" d="M255.5,70.3h-22.4c-2.1,0-3.8,1.7-3.8,3.8v0h30v0C259.3,72,257.6,70.3,255.5,70.3z"/>
	</g>
	<g>
		<g>
			<path class="st24" d="M189.5,145.3h-51.3c-3.9,0-7-3.1-7-7V12.1c0-3.9,3.1-7,7-7h51.3c3.9,0,7,3.1,7,7v126.2
				C196.5,142.2,193.4,145.3,189.5,145.3z"/>
			<path class="st25" d="M186.4,74.8h-45.2c-3.6,0-6.5-2.9-6.5-6.5V35.7c0-3.6,2.9-6.5,6.5-6.5h45.2c3.6,0,6.5,2.9,6.5,6.5v32.6
				C192.9,71.9,190,74.8,186.4,74.8z"/>
			<path class="st25" d="M186.1,139.8H141c-3.6,0-6.5-2.9-6.5-6.5V85c0-3.6,2.9-6.5,6.5-6.5h45.2c3.6,0,6.5,2.9,6.5,6.5v48.4
				C192.6,136.9,189.7,139.8,186.1,139.8z"/>
			<g>
				<ellipse class="st11" cx="188.9" cy="20.1" rx="3.9" ry="3.8"/>
				<path class="st26" d="M174.2,24h-37c-1.2,0-2.2-1-2.2-2.2v-3.2c0-1.2,1-2.2,2.2-2.2h37c1.2,0,2.2,1,2.2,2.2v3.2
					C176.5,23,175.5,24,174.2,24z"/>
			</g>
			<ellipse class="st27" cx="142.8" cy="37.1" rx="3.7" ry="3.7"/>
			<ellipse class="st28" cx="185.2" cy="37.1" rx="3.7" ry="3.7"/>
			<ellipse class="st29" cx="142.7" cy="66.6" rx="3.7" ry="3.7"/>
			<ellipse class="st30" cx="151.4" cy="66.6" rx="3.7" ry="3.7"/>
			<g>
				<path class="st26" d="M174.5,38.2h-25.2c-0.6,0-1.2-0.5-1.2-1.2v-1.9c0-0.6,0.5-1.2,1.2-1.2h25.2c0.6,0,1.2,0.5,1.2,1.2V37
					C175.7,37.7,175.2,38.2,174.5,38.2z"/>
				<path class="st31" d="M163.1,40.8h-14.3c-0.3,0-0.6-0.3-0.6-0.6v-0.3c0-0.3,0.3-0.6,0.6-0.6h14.3c0.3,0,0.6,0.3,0.6,0.6v0.3
					C163.8,40.5,163.5,40.8,163.1,40.8z"/>
			</g>
			<path class="st26" d="M165.6,50.3h-25.2c-0.6,0-1.2-0.5-1.2-1.2v-1.9c0-0.6,0.5-1.2,1.2-1.2h25.2c0.6,0,1.2,0.5,1.2,1.2v1.9
				C166.8,49.8,166.2,50.3,165.6,50.3z"/>
			<path class="st32" d="M186.9,54.3h-47c-0.3,0-0.6-0.3-0.6-0.6v-0.3c0-0.3,0.3-0.6,0.6-0.6h47c0.3,0,0.6,0.3,0.6,0.6v0.3
				C187.5,54,187.3,54.3,186.9,54.3z"/>
			<path class="st32" d="M161.4,97.7h-21.5c-0.3,0-0.6-0.3-0.6-0.6v-0.3c0-0.3,0.3-0.6,0.6-0.6h21.5c0.3,0,0.6,0.3,0.6,0.6v0.3
				C162,97.5,161.7,97.7,161.4,97.7z"/>
			<path class="st32" d="M182.4,56.8h-42.6c-0.3,0-0.6-0.3-0.6-0.6v-0.3c0-0.3,0.3-0.6,0.6-0.6h42.6c0.3,0,0.6,0.3,0.6,0.6v0.3
				C183,56.5,182.8,56.8,182.4,56.8z"/>
			<path class="st32" d="M167.3,59.3h-27.4c-0.3,0-0.6-0.3-0.6-0.6v-0.3c0-0.3,0.3-0.6,0.6-0.6h27.4c0.3,0,0.6,0.3,0.6,0.6v0.3
				C167.9,59,167.6,59.3,167.3,59.3z"/>
			<path class="st11" d="M184.9,70.2h-23.7c-1.6,0-3-1.3-3-3v-1.4c0-1.6,1.3-3,3-3h23.7c1.6,0,3,1.3,3,3v1.4
				C187.9,68.9,186.6,70.2,184.9,70.2z"/>
			<ellipse class="st28" cx="185.2" cy="86.5" rx="3.7" ry="3.7"/>
			<g>
				<path class="st26" d="M165.4,87.6h-25.2c-0.6,0-1.2-0.5-1.2-1.2v-1.9c0-0.6,0.5-1.2,1.2-1.2h25.2c0.6,0,1.2,0.5,1.2,1.2v1.9
					C166.5,87,166,87.6,165.4,87.6z"/>
				<path class="st31" d="M154,90.2h-14.3c-0.3,0-0.6-0.3-0.6-0.6v-0.3c0-0.3,0.3-0.6,0.6-0.6H154c0.3,0,0.6,0.3,0.6,0.6v0.3
					C154.6,89.9,154.3,90.2,154,90.2z"/>
			</g>
			<ellipse class="st27" cx="142.8" cy="103.4" rx="3.7" ry="3.7"/>
			<g>
				<path class="st26" d="M174.5,104.5h-25.2c-0.6,0-1.2-0.5-1.2-1.2v-1.9c0-0.6,0.5-1.2,1.2-1.2h25.2c0.6,0,1.2,0.5,1.2,1.2v1.9
					C175.6,103.9,175.1,104.5,174.5,104.5z"/>
				<path class="st31" d="M163.1,107.1h-14.3c-0.3,0-0.6-0.3-0.6-0.6v-0.3c0-0.3,0.3-0.6,0.6-0.6h14.3c0.3,0,0.6,0.3,0.6,0.6v0.3
					C163.7,106.8,163.4,107.1,163.1,107.1z"/>
			</g>
			<path class="st33" d="M187.2,105.2h-0.7c-0.8,0-1.5-0.7-1.5-1.5V103c0-0.8,0.7-1.5,1.5-1.5h0.7c0.8,0,1.5,0.7,1.5,1.5v0.7
				C188.7,104.6,188,105.2,187.2,105.2z"/>
			<ellipse class="st27" cx="142.8" cy="115" rx="3.7" ry="3.7"/>
			<g>
				<path class="st26" d="M174.5,116.1h-25.2c-0.6,0-1.2-0.5-1.2-1.2v-1.9c0-0.6,0.5-1.2,1.2-1.2h25.2c0.6,0,1.2,0.5,1.2,1.2v1.9
					C175.6,115.6,175.1,116.1,174.5,116.1z"/>
				<path class="st31" d="M163.1,118.8h-14.3c-0.3,0-0.6-0.3-0.6-0.6v-0.3c0-0.3,0.3-0.6,0.6-0.6h14.3c0.3,0,0.6,0.3,0.6,0.6v0.3
					C163.7,118.5,163.4,118.8,163.1,118.8z"/>
			</g>
			<path class="st33" d="M187.2,116.9h-0.7c-0.8,0-1.5-0.7-1.5-1.5v-0.7c0-0.8,0.7-1.5,1.5-1.5h0.7c0.8,0,1.5,0.7,1.5,1.5v0.7
				C188.7,116.3,188,116.9,187.2,116.9z"/>
			<ellipse class="st27" cx="142.8" cy="126.5" rx="3.7" ry="3.7"/>
			<g>
				<path class="st26" d="M174.5,127.6h-25.2c-0.6,0-1.2-0.5-1.2-1.2v-1.9c0-0.6,0.5-1.2,1.2-1.2h25.2c0.6,0,1.2,0.5,1.2,1.2v1.9
					C175.6,127.1,175.1,127.6,174.5,127.6z"/>
				<path class="st31" d="M163.1,130.3h-14.3c-0.3,0-0.6-0.3-0.6-0.6v-0.3c0-0.3,0.3-0.6,0.6-0.6h14.3c0.3,0,0.6,0.3,0.6,0.6v0.3
					C163.7,130,163.4,130.3,163.1,130.3z"/>
			</g>
			<path class="st33" d="M187.2,128.4h-0.7c-0.8,0-1.5-0.7-1.5-1.5v-0.7c0-0.8,0.7-1.5,1.5-1.5h0.7c0.8,0,1.5,0.7,1.5,1.5v0.7
				C188.7,127.7,188,128.4,187.2,128.4z"/>
			<path class="st24" d="M190.9,147h-54.1c-3.1,0-5.6-2.5-5.6-5.6v-10.2h65.3v10.2C196.5,144.5,194,147,190.9,147z"/>
			<path class="st34" d="M140.9,138h-2.1c-0.6,0-1-0.5-1-1v-2.1c0-0.6,0.5-1,1-1h2.1c0.6,0,1,0.5,1,1v2.1
				C142,137.5,141.5,138,140.9,138z"/>
			<path class="st35" d="M188.1,138h-0.7c-0.6,0-1-0.5-1-1v-2.1c0-0.6,0.5-1,1-1h0.7c0.6,0,1,0.5,1,1v2.1
				C189.1,137.5,188.7,138,188.1,138z"/>
			<ellipse class="st35" cx="171.8" cy="135.9" rx="2" ry="2"/>
			<polygon class="st36" points="155.9,133.8 153.6,137.6 157.8,137.6 			"/>
		</g>
		<g>
			<g>
				<path class="st37" d="M128.8,22c0-0.3,0.2-0.5,0.5-0.5h0.2c0.1,0,0.2,0.1,0.2,0.2v5c0,0.1-0.1,0.2-0.2,0.2h-0.2
					c-0.3,0-0.5-0.2-0.5-0.5V22z"/>
			</g>
			<g>
				<path class="st37" d="M128.8,31.5c0-0.3,0.2-0.5,0.5-0.5h0.2c0.1,0,0.2,0.1,0.2,0.2v9c0,0.1-0.1,0.2-0.2,0.2h-0.2
					c-0.3,0-0.5-0.2-0.5-0.5V31.5z"/>
			</g>
			<g>
				<path class="st37" d="M128.8,44c0-0.3,0.2-0.5,0.5-0.5h0.2c0.1,0,0.2,0.1,0.2,0.2v9c0,0.1-0.1,0.2-0.2,0.2h-0.2
					c-0.3,0-0.5-0.2-0.5-0.5V44z"/>
			</g>
			<g>
				<path class="st37" d="M198.2,35.4c0-0.1,0.1-0.2,0.2-0.2l0,0c0.3,0,0.5,0.2,0.5,0.5v14.4c0,0.3-0.2,0.5-0.5,0.5l0,0
					c-0.1,0-0.2-0.1-0.2-0.2V35.4z"/>
			</g>
			<path class="st38" d="M188.5,3.4h-49.2c-5.6,0-10.1,4.5-10.1,10.1v125.2c0,5.6,4.5,10.1,10.1,10.1h49.2c5.6,0,10.1-4.5,10.1-10.1
				V13.4C198.6,7.9,194.1,3.4,188.5,3.4z M131.3,13.4c0-4.4,3.6-8,8-8h5.1c0.6,0.2,1,0.8,1,1.5c0,2.1,1.7,3.9,3.9,3.9h29.2
				c2.1,0,3.9-1.7,3.9-3.9c0-0.7,0.4-1.2,1-1.5h5.2c4.4,0,8,3.6,8,8v125.2c0,4.4-3.6,8-8,8h-49.2c-4.4,0-8-3.6-8-8V13.4z"/>
			<g class="st39">
				
					<radialGradient id="SVGID_1_" cx="-182.4171" cy="376.8296" r="0.1739" gradientTransform="matrix(2.039037e-14 333 155.284 -9.508403e-15 -58318.0664 60826)" gradientUnits="userSpaceOnUse">
					<stop  offset="0" style="stop-color:#353535"/>
					<stop  offset="1" style="stop-color:#404040;stop-opacity:0"/>
				</radialGradient>
				<path class="st40" d="M197.4,18.5v120.2c0,5.1-4.1,9.2-9.2,9.2h-12.5v0.3h12.5c5.3,0,9.6-4.3,9.6-9.6V18.5H197.4z"/>
			</g>
			<g>
				
					<linearGradient id="SVGID_2_" gradientUnits="userSpaceOnUse" x1="146.9429" y1="-0.3738" x2="123.908" y2="134.5927" gradientTransform="matrix(1 0 0 -1 4 148)">
					<stop  offset="0" style="stop-color:#404040;stop-opacity:0"/>
					<stop  offset="1" style="stop-color:#171717"/>
				</linearGradient>
				<path class="st41" d="M130.4,20.7v117.9c0,5.1,4.1,9.2,9.2,9.2h30.6v0.3h-30.6c-5.3,0-9.6-4.3-9.6-9.6V20.7H130.4z"/>
			</g>
		</g>
	</g>
</g>
</svg>
